<svg width="175" height="129" viewBox="0 0 175 129" fill="none" xmlns="http://www.w3.org/2000/svg">
<g opacity="0.05">
<path d="M131.894 13.277C141.552 18.0352 149.875 25.0919 156.123 33.8188M169.198 106.709C170.238 100.498 170.763 93.8717 170.772 86.83C170.785 76.2675 170.238 73.1531 169.198 66.9508M159.285 134.977C145.956 157.534 121.407 169.66 87.3859 169.66C34.0189 169.66 4 139.841 4 86.83C4 33.8188 34.0189 4 87.3859 4C91.6953 4.03976 101.702 4.42409 107.292 5.6566" stroke="#DBB0E2" stroke-width="8" stroke-linecap="round" stroke-linejoin="round"/>
<path d="M87.3857 57.0078V90.1398L114.896 121.986" stroke="#DBB0E2" stroke-width="8" stroke-linecap="round" stroke-linejoin="round"/>
</g>
<g opacity="0.3">
<path d="M120.072 32.813C127.165 36.3074 133.277 41.4898 137.866 47.8988M147.468 101.429C148.232 96.8678 148.617 92.0014 148.624 86.83C148.634 79.073 148.232 76.7858 147.468 72.2308M140.188 122.189C130.399 138.755 112.371 147.66 87.3857 147.66C48.1932 147.66 26.1475 125.761 26.1475 86.83C26.1475 47.8988 48.1932 26 87.3857 26C90.5505 26.0292 97.8991 26.3114 102.005 27.2166" stroke="#DBB0E2" stroke-width="8" stroke-linecap="round" stroke-linejoin="round"/>
<path d="M87.3865 64.9297V89.2617L68.0469 108.602" stroke="#DBB0E2" stroke-width="8" stroke-linecap="round" stroke-linejoin="round"/>
</g>
<path d="M109.325 50.573C114.086 52.9185 118.188 56.397 121.268 60.6988M127.713 96.6292C128.226 93.5675 128.485 90.3011 128.489 86.83C128.496 81.6234 128.226 80.0882 127.713 77.0308M122.827 110.564C116.257 121.683 104.156 127.66 87.3853 127.66C61.0787 127.66 46.2812 112.961 46.2812 86.83C46.2812 60.6988 61.0787 46 87.3853 46C89.5095 46.0196 94.442 46.209 97.1976 46.8166" stroke="#DBB0E2" stroke-width="8" stroke-linecap="round" stroke-linejoin="round"/>
<path d="M87.3857 72.1289V88.4609L109.046 78.999" stroke="#DBB0E2" stroke-width="8" stroke-linecap="round" stroke-linejoin="round"/>
</svg>
