<svg width="197" height="180" viewBox="0 0 197 180" fill="none" xmlns="http://www.w3.org/2000/svg">
<path opacity="0.1" d="M89.5 0C77.7962 0 68.8461 9 68.8461 20.7692V62.3077C68.8461 74.0769 77.7962 83.0769 89.5 83.0769H130.808L158.346 110.769V83.0769C170.05 83.0769 179 74.0769 179 62.3077V20.7692C179 9 170.05 0 158.346 0H89.5ZM118.333 20.7692H130.161L141.782 62.3077H131.455L128.653 51.9231H118.326L115.751 62.3077H106.712L118.333 20.7692ZM123.923 27.6923C123.235 30.4615 122.464 33.84 121.768 35.9169L119.84 45H128.013L126.071 35.91C124.701 33.84 123.923 30.4615 123.923 27.6923ZM20.6538 69.2308C8.95 69.2308 0 78.2308 0 90V131.538C0 143.308 8.95 152.308 20.6538 152.308V180L48.1923 152.308H89.5C101.204 152.308 110.154 143.308 110.154 131.538V90H89.5C76.4192 90 66.051 81 62.6087 69.2308H20.6538ZM52.2818 89.3492C63.9856 89.3492 69.4933 99.0415 69.4933 110.118C69.4933 119.811 66.1818 125.958 60.6741 128.728C63.428 130.112 66.6913 130.846 70.1336 131.538L67.5587 138.462C62.7395 137.077 57.7413 134.917 52.922 132.833C52.2336 132.141 51.0288 132.189 50.3403 132.189C42.0788 131.497 34.4231 124.615 34.4231 110.769C34.4231 99 41.2664 89.3492 52.2818 89.3492ZM52.2818 96.9231C46.7741 96.9231 44.1028 103.154 44.1028 110.769C44.1028 119.077 46.7741 124.615 52.2818 124.615C57.7895 124.615 60.6672 118.385 60.6672 110.769C60.6672 103.154 57.7895 96.9231 52.2818 96.9231Z" fill="#DBB0E2"/>
<path d="M131.5 37C122.935 37 116.385 43.6 116.385 52.2308V82.6923C116.385 91.3231 122.935 97.9231 131.5 97.9231H161.731L181.885 118.231V97.9231C190.45 97.9231 197 91.3231 197 82.6923V52.2308C197 43.6 190.45 37 181.885 37H131.5ZM152.601 52.2308H161.257L169.762 82.6923H162.204L160.154 75.0769H152.596L150.712 82.6923H144.096L152.601 52.2308ZM156.692 57.3077C156.188 59.3385 155.624 61.816 155.115 63.3391L153.704 70H159.685L158.264 63.334C157.262 61.816 156.692 59.3385 156.692 57.3077ZM81.1154 87.7692C72.55 87.7692 66 94.3692 66 103V133.462C66 142.092 72.55 148.692 81.1154 148.692V169L101.269 148.692H131.5C140.065 148.692 146.615 142.092 146.615 133.462V103H131.5C121.927 103 114.339 96.4 111.82 87.7692H81.1154ZM104.262 102.523C112.827 102.523 116.858 109.63 116.858 117.754C116.858 124.861 114.435 129.37 110.404 131.4C112.419 132.416 114.808 132.954 117.327 133.462L115.442 138.538C111.915 137.523 108.258 135.939 104.731 134.411C104.227 133.903 103.345 133.939 102.841 133.939C96.7951 133.431 91.1923 128.385 91.1923 118.231C91.1923 109.6 96.2005 102.523 104.262 102.523ZM104.262 108.077C100.231 108.077 98.2764 112.646 98.2764 118.231C98.2764 124.323 100.231 128.385 104.262 128.385C108.293 128.385 110.399 123.815 110.399 118.231C110.399 112.646 108.293 108.077 104.262 108.077Z" fill="#DBB0E2"/>
</svg>
