<svg width="220" height="158" viewBox="0 0 220 158" fill="none" xmlns="http://www.w3.org/2000/svg">
<path opacity="0.05" d="M120.184 1.10447C121.661 -1.83236 125.854 -1.83235 127.331 1.10448L161.06 68.1628C161.648 69.3317 162.77 70.1391 164.065 70.3249L239.373 81.1271C242.676 81.6009 243.981 85.6725 241.569 87.9781L187.18 139.966C186.215 140.888 185.774 142.231 186.004 143.546L198.852 217.06C199.421 220.318 196.016 222.82 193.077 221.304L125.592 186.475C124.441 185.881 123.074 185.881 121.923 186.475L54.4376 221.304C51.4988 222.82 48.0935 220.318 48.6629 217.06L61.5109 143.546C61.7407 142.231 61.2995 140.888 60.3345 139.966L5.94568 87.9781C3.53352 85.6725 4.83856 81.6009 8.1416 81.1271L83.4492 70.3249C84.7443 70.1391 85.8668 69.3317 86.4547 68.1628L120.184 1.10447Z" fill="#DBB0E2" stroke="#773082" stroke-width="4" stroke-linecap="round" stroke-linejoin="round"/>
<path opacity="0.2" d="M120.177 35.1831C121.649 32.2288 125.865 32.2288 127.337 35.1831L149.56 79.7733C150.146 80.9473 151.269 81.7599 152.567 81.9478L202.207 89.1337C205.499 89.6102 206.805 93.6622 204.411 95.9713L168.548 130.567C167.593 131.488 167.157 132.821 167.384 134.128L175.853 183.036C176.418 186.299 173.001 188.796 170.064 187.266L125.605 164.11C124.447 163.507 123.067 163.507 121.909 164.11L77.45 187.266C74.5133 188.796 71.0959 186.299 71.6609 183.036L80.1305 134.128C80.3568 132.821 79.9207 131.488 78.9662 130.567L43.1032 95.9713C40.7094 93.6622 42.0155 89.6102 45.3072 89.1337L94.9467 81.9478C96.2449 81.7599 97.3685 80.9473 97.9536 79.7733L120.177 35.1831Z" fill="#DBB0E2" stroke="#773082" stroke-width="4" stroke-linecap="round" stroke-linejoin="round"/>
<path d="M120.187 70.0696C121.666 67.1406 125.848 67.1406 127.328 70.0696L139.606 94.3802C140.195 95.5468 141.317 96.352 142.611 96.5368L169.92 100.438C173.228 100.911 174.533 104.991 172.113 107.295L152.476 125.988C151.506 126.911 151.063 128.258 151.294 129.577L155.943 156.071C156.515 159.327 153.115 161.831 150.175 160.32L125.586 147.682C124.438 147.092 123.076 147.092 121.929 147.682L97.3396 160.32C94.3998 161.831 90.9999 159.327 91.5712 156.071L96.2206 129.577C96.452 128.258 96.0084 126.911 95.0388 125.988L75.402 107.295C72.9816 104.991 74.2861 100.911 77.5943 100.438L104.904 96.5368C106.198 96.352 107.32 95.5468 107.909 94.3802L120.187 70.0696Z" fill="#DBB0E2" stroke="#773082" stroke-width="4" stroke-linecap="round" stroke-linejoin="round"/>
</svg>
