<svg width="25" height="24" viewBox="0 0 25 24" fill="none" xmlns="http://www.w3.org/2000/svg">
<path d="M12.0632 17.2742L7.89124 19.7742C7.70694 19.8909 7.51426 19.9409 7.3132 19.9242C7.11214 19.9076 6.93622 19.8409 6.78542 19.7242C6.63463 19.6076 6.51735 19.4619 6.43357 19.2872C6.3498 19.1126 6.33304 18.9166 6.38331 18.6992L7.48913 13.9742L3.79468 10.7992C3.62714 10.6492 3.52259 10.4782 3.48103 10.2862C3.43948 10.0942 3.45188 9.90689 3.51823 9.72422C3.58458 9.54155 3.68511 9.39155 3.81982 9.27422C3.95453 9.15689 4.13883 9.08189 4.37273 9.04922L9.24839 8.62422L11.1333 4.17422C11.2171 3.97422 11.3471 3.82422 11.5234 3.72422C11.6996 3.62422 11.8796 3.57422 12.0632 3.57422C12.2468 3.57422 12.4268 3.62422 12.603 3.72422C12.7793 3.82422 12.9093 3.97422 12.9931 4.17422L14.878 8.62422L19.7537 9.04922C19.9882 9.08255 20.1726 9.15755 20.3066 9.27422C20.4406 9.39089 20.5412 9.54089 20.6082 9.72422C20.6752 9.90755 20.6879 10.0952 20.6464 10.2872C20.6048 10.4792 20.4999 10.6499 20.3317 10.7992L16.6373 13.9742L17.7431 18.6992C17.7934 18.9159 17.7766 19.1119 17.6928 19.2872C17.6091 19.4626 17.4918 19.6082 17.341 19.7242C17.1902 19.8402 17.0143 19.9069 16.8132 19.9242C16.6121 19.9416 16.4195 19.8916 16.2352 19.7742L12.0632 17.2742Z" fill="#D58969"/>
</svg>
