<svg width="398" height="132" viewBox="0 0 398 132" fill="none" xmlns="http://www.w3.org/2000/svg">
<path opacity="0.3888" d="M0 -149.676V52.206L133.478 -149.676H0Z" fill="url(#paint0_linear_288_41657)"/>
<path opacity="0.0775" d="M133.276 145.245L304.186 -113.25L280.102 -149.676H44.3451L0 -82.6049V-18.6281L108.349 145.245H133.276Z" fill="url(#paint1_linear_288_41657)"/>
<path opacity="0.9768" d="M215.3 -149.676L146.579 -45.7388L226.815 75.6182L375.771 -149.676H215.3Z" fill="url(#paint2_linear_288_41657)"/>
<path opacity="0.918" d="M138.057 145.245L333.052 -149.676H172.581L56.1064 26.4889L134.626 145.245H138.057Z" fill="url(#paint3_linear_288_41657)"/>
<path opacity="0.8169" d="M0 85.8201L121.7 -98.2489L87.6976 -149.676H0V85.8201Z" fill="url(#paint4_linear_288_41657)"/>
<path opacity="0.3737" d="M0 -149.676V96.1575L162.539 -149.676H0Z" fill="url(#paint5_linear_288_41657)"/>
<path opacity="0.7977" d="M15.0561 145.245L210.051 -149.676H49.5768L0 -74.6922V145.245H15.0561Z" fill="url(#paint6_linear_288_41657)"/>
<path opacity="0.5533" d="M118 145.245L312.992 -149.676H17.5091L0 -123.194V88.0225L37.8345 145.245H118Z" fill="url(#paint7_linear_288_41657)"/>
<path opacity="0.9894" d="M214.298 -149.676L173.878 -88.5416L301.104 103.889L393.83 -36.3534V-149.676H214.298Z" fill="url(#paint8_linear_288_41657)"/>
<g opacity="0.7">
<path d="M202.572 -149.676L34.6277 104.333L0 51.9597V53.9293L34.6277 106.302L203.874 -149.676H202.572Z" fill="white"/>
</g>
<g opacity="0.72">
<path d="M397.998 -78.8281L249.843 145.252H251.145L397.998 -76.859V-78.8281Z" fill="white"/>
<path d="M171.987 145.245L35.0058 -61.9343L93.018 -149.676H91.7158L33.7041 -61.9343L170.685 145.245H171.987Z" fill="white"/>
</g>
<g opacity="0.37">
<path d="M397.999 10.5219L342.752 94.0818L243.613 -55.8644L305.639 -149.676H304.337L242.312 -55.8644L342.752 96.0513L397.999 12.491V10.5219Z" fill="white"/>
</g>
<g opacity="0.37">
<path d="M398 -69.8398L255.791 145.246H257.093L398 -67.8702V-69.8398Z" fill="white"/>
<path d="M204.669 145.245L131.092 33.9622L252.509 -149.676H251.207L129.79 33.9622L203.367 145.245H204.669Z" fill="white"/>
</g>
<g opacity="0.4">
<path d="M35.2227 145.245H36.5248L212.672 -121.173L193.827 -149.676H192.525L211.371 -121.173L35.2227 145.245Z" fill="white"/>
</g>
<g opacity="0.32">
<path d="M398.001 -111.914L227.974 145.246H229.276L398.001 -109.944V-111.914Z" fill="white"/>
<path d="M54.2094 145.245L21.6329 95.9742L184.05 -149.676H182.748L20.3311 95.9742L52.9077 145.245H54.2094Z" fill="white"/>
</g>
<g opacity="0.53">
<path d="M45.0254 145.245L240.018 -149.676H238.716L43.7236 145.245H45.0254Z" fill="white"/>
</g>
<g opacity="0.24">
<path d="M0 0.856339L99.5264 -149.676H98.2243L0 -1.11333V0.856339Z" fill="white"/>
<path d="M104.113 145.245L299.109 -149.676H297.807L102.812 145.245H104.113Z" fill="white"/>
</g>
<g opacity="0.19">
<path d="M397.998 -107.57L230.842 145.247H232.144L397.998 -105.601V-107.57Z" fill="white"/>
<path d="M84.2874 145.247L0 17.7656V19.7347L82.9853 145.247H84.2874Z" fill="white"/>
</g>
<g opacity="0.41">
<path d="M397.998 73.0549L277.564 -109.099L304.392 -149.676H303.09L276.262 -109.099L397.998 75.024V73.0549Z" fill="white"/>
</g>
<g opacity="0.72">
<path d="M51.9242 145.245L246.917 -149.676H245.615L50.6221 145.245H51.9242Z" fill="white"/>
<path d="M397.997 41.605L271.528 -149.676H270.227L397.997 43.5746V41.605Z" fill="white"/>
<path d="M397.996 104.43L371.009 145.248H372.311L397.996 106.399V104.43Z" fill="white"/>
</g>
<path opacity="0.4636" d="M0 4.2749L61.5261 -88.7815L21.2648 -149.676H0V4.2749Z" fill="url(#paint9_linear_288_41657)"/>
<path opacity="0.8061" d="M398.001 -149.676H196.17L3.70996 141.413L6.24429 145.245H266.47L398.001 -53.6889V-149.676Z" fill="url(#paint10_linear_288_41657)"/>
<path opacity="0.918" d="M398 -149.676H392.241L197.249 145.245H376.919L398 113.36V-149.676Z" fill="url(#paint11_linear_288_41657)"/>
<path opacity="0.0528" d="M397.999 -34.2658L348.329 -109.391L179.972 145.245H373.118L397.999 107.613V-34.2658Z" fill="url(#paint12_linear_288_41657)"/>
<path opacity="0.3737" d="M114.483 145.245L180.56 45.3033L51.6441 -149.676H0V145.245H114.483Z" fill="url(#paint13_linear_288_41657)"/>
<path opacity="0.2152" d="M0 -149.676V132.074L186.286 -149.676H0Z" fill="url(#paint14_linear_288_41657)"/>
<path opacity="0.2152" d="M197.187 145.252L115.55 21.7812L33.915 145.252H197.187Z" fill="url(#paint15_linear_288_41657)"/>
<path opacity="0.9" d="M397.999 -5.25781H394.875L295.364 145.25H397.999V-5.25781Z" fill="url(#paint16_linear_288_41657)"/>
<path opacity="0.7833" d="M393.83 145.247V128.528L376.649 102.543L348.414 145.247H393.83Z" fill="url(#paint17_linear_288_41657)"/>
<path opacity="0.4745" d="M230.3 145.24L144.855 16.0078L59.4102 145.24H230.3Z" fill="url(#paint18_linear_288_41657)"/>
<defs>
<linearGradient id="paint0_linear_288_41657" x1="37.1477" y1="99.0377" x2="141.09" y2="-298.722" gradientUnits="userSpaceOnUse">
<stop stop-color="white"/>
<stop offset="1"/>
</linearGradient>
<linearGradient id="paint1_linear_288_41657" x1="120.927" y1="164.017" x2="243.661" y2="-305.651" gradientUnits="userSpaceOnUse">
<stop stop-color="white"/>
<stop offset="1"/>
</linearGradient>
<linearGradient id="paint2_linear_288_41657" x1="240.139" y1="79.1001" x2="344.081" y2="-318.658" gradientUnits="userSpaceOnUse">
<stop stop-color="white"/>
<stop offset="1"/>
</linearGradient>
<linearGradient id="paint3_linear_288_41657" x1="168.658" y1="156.269" x2="341.383" y2="-504.702" gradientUnits="userSpaceOnUse">
<stop stop-color="white"/>
<stop offset="1"/>
</linearGradient>
<linearGradient id="paint4_linear_288_41657" x1="22.1699" y1="201.141" x2="126.237" y2="-197.094" gradientUnits="userSpaceOnUse">
<stop stop-color="white"/>
<stop offset="1"/>
</linearGradient>
<linearGradient id="paint5_linear_288_41657" x1="20.9335" y1="357.446" x2="192.134" y2="-297.692" gradientUnits="userSpaceOnUse">
<stop stop-color="white"/>
<stop offset="1"/>
</linearGradient>
<linearGradient id="paint6_linear_288_41657" x1="64.4773" y1="228.619" x2="201.912" y2="-297.305" gradientUnits="userSpaceOnUse">
<stop stop-color="white"/>
<stop offset="1"/>
</linearGradient>
<linearGradient id="paint7_linear_288_41657" x1="114.676" y1="215.058" x2="279.768" y2="-416.703" gradientUnits="userSpaceOnUse">
<stop stop-color="white"/>
<stop offset="1"/>
</linearGradient>
<linearGradient id="paint8_linear_288_41657" x1="265.181" y1="94.5019" x2="383.546" y2="-358.452" gradientUnits="userSpaceOnUse">
<stop stop-color="white"/>
<stop offset="1"/>
</linearGradient>
<linearGradient id="paint9_linear_288_41657" x1="-9.41286" y1="218.447" x2="94.7698" y2="-180.232" gradientUnits="userSpaceOnUse">
<stop stop-color="white"/>
<stop offset="1"/>
</linearGradient>
<linearGradient id="paint10_linear_288_41657" x1="164.683" y1="347.884" x2="336.135" y2="-308.215" gradientUnits="userSpaceOnUse">
<stop stop-color="white"/>
<stop offset="1"/>
</linearGradient>
<linearGradient id="paint11_linear_288_41657" x1="256.045" y1="478.775" x2="449.429" y2="-261.253" gradientUnits="userSpaceOnUse">
<stop stop-color="white"/>
<stop offset="1"/>
</linearGradient>
<linearGradient id="paint12_linear_288_41657" x1="243.5" y1="508.736" x2="401.404" y2="-95.5213" gradientUnits="userSpaceOnUse">
<stop stop-color="white"/>
<stop offset="1"/>
</linearGradient>
<linearGradient id="paint13_linear_288_41657" x1="-9.79913" y1="788.974" x2="237.817" y2="-158.588" gradientUnits="userSpaceOnUse">
<stop stop-color="white"/>
<stop offset="1"/>
</linearGradient>
<linearGradient id="paint14_linear_288_41657" x1="52.5229" y1="191.733" x2="180.247" y2="-297.031" gradientUnits="userSpaceOnUse">
<stop stop-color="white"/>
<stop offset="1"/>
</linearGradient>
<linearGradient id="paint15_linear_288_41657" x1="69.5487" y1="531.9" x2="197.272" y2="43.1367" gradientUnits="userSpaceOnUse">
<stop stop-color="white"/>
<stop offset="1"/>
</linearGradient>
<linearGradient id="paint16_linear_288_41657" x1="319.229" y1="375.992" x2="426.25" y2="-33.5503" gradientUnits="userSpaceOnUse">
<stop stop-color="white"/>
<stop offset="1"/>
</linearGradient>
<linearGradient id="paint17_linear_288_41657" x1="324.764" y1="534.88" x2="433.837" y2="117.487" gradientUnits="userSpaceOnUse">
<stop stop-color="white"/>
<stop offset="1"/>
</linearGradient>
<linearGradient id="paint18_linear_288_41657" x1="75.8493" y1="725.226" x2="253.746" y2="44.4632" gradientUnits="userSpaceOnUse">
<stop stop-color="white"/>
<stop offset="1"/>
</linearGradient>
</defs>
</svg>
