<svg width="559" height="274" viewBox="0 0 559 274" fill="none" xmlns="http://www.w3.org/2000/svg">
<g opacity="0.4">
<path opacity="0.3888" d="M0 -288V100.469L231.742 -288H0Z" fill="url(#paint0_linear_212_23713)"/>
<path opacity="0.0775" d="M231.39 279.499L528.12 -217.908L486.307 -288H76.991L0 -158.939V-35.8325L188.113 279.499H231.39Z" fill="url(#paint1_linear_212_23713)"/>
<path opacity="0.9768" d="M373.801 -288L254.488 -88L393.792 145.52L652.407 -288H373.801Z" fill="url(#paint2_linear_212_23713)"/>
<path opacity="0.918" d="M239.69 279.499L578.236 -288H299.631L97.4102 50.9836L233.733 279.499H239.69Z" fill="url(#paint3_linear_212_23713)"/>
<path opacity="0.8169" d="M0 165.151L211.293 -189.042L152.259 -288H0V165.151Z" fill="url(#paint4_linear_212_23713)"/>
<path opacity="0.3737" d="M0 -288V185.043L282.197 -288H0Z" fill="url(#paint5_linear_212_23713)"/>
<path opacity="0.7977" d="M26.14 279.499L364.685 -288H86.0741L0 -143.713V279.499H26.14Z" fill="url(#paint6_linear_212_23713)"/>
<path opacity="0.5533" d="M204.868 279.499L543.41 -288H30.3988L0 -237.042V169.389L65.6874 279.499H204.868Z" fill="url(#paint7_linear_212_23713)"/>
<path opacity="0.9894" d="M372.059 -288L301.883 -170.363L522.769 199.921L683.759 -69.9403V-288H372.059Z" fill="url(#paint8_linear_212_23713)"/>
<g opacity="0.7">
<path d="M351.701 -288L60.1198 200.774L0 99.9955V103.786L60.1198 204.564L353.962 -288H351.701Z" fill="white"/>
</g>
<g opacity="0.72">
<path d="M690.991 -151.684L433.768 279.5H436.028L690.991 -147.895V-151.684Z" fill="white"/>
<path d="M298.597 279.499L60.7737 -119.164L161.493 -288H159.232L58.5137 -119.164L296.337 279.499H298.597Z" fill="white"/>
</g>
<g opacity="0.37">
<path d="M690.996 20.2592L595.077 181.049L422.956 -107.484L530.642 -288H528.382L420.695 -107.484L595.077 184.839L690.996 24.0482V20.2592Z" fill="white"/>
</g>
<g opacity="0.37">
<path d="M691 -134.377L444.1 279.5H446.36L691 -130.587V-134.377Z" fill="white"/>
<path d="M355.343 279.499L227.6 65.364L438.402 -288H436.141L225.34 65.364L353.083 279.499H355.343Z" fill="white"/>
</g>
<g opacity="0.4">
<path d="M61.1523 279.499H63.4131L369.236 -233.153L336.518 -288H334.258L366.976 -233.153L61.1523 279.499Z" fill="white"/>
</g>
<g opacity="0.32">
<path d="M691 -215.338L395.803 279.501H398.063L691 -211.548V-215.338Z" fill="white"/>
<path d="M94.1177 279.499L37.5591 184.69L319.544 -288H317.284L35.2988 184.69L91.8577 279.499H94.1177Z" fill="white"/>
</g>
<g opacity="0.53">
<path d="M78.1721 279.499L416.714 -288H414.454L75.9121 279.499H78.1721Z" fill="white"/>
</g>
<g opacity="0.24">
<path d="M0 1.66031L172.795 -288H170.535L0 -2.12982V1.66031Z" fill="white"/>
<path d="M180.76 279.499L519.307 -288H517.047L178.5 279.499H180.76Z" fill="white"/>
</g>
<g opacity="0.19">
<path d="M690.996 -206.984L400.783 279.497H403.043L690.996 -203.195V-206.984Z" fill="white"/>
<path d="M146.338 279.499L0 34.1934V37.9824L144.077 279.499H146.338Z" fill="white"/>
</g>
<g opacity="0.41">
<path d="M690.997 140.588L481.901 -209.92L528.479 -288H526.218L479.641 -209.92L690.997 144.377V140.588Z" fill="white"/>
</g>
<g opacity="0.72">
<path d="M90.1494 279.499L428.691 -288H426.431L87.8887 279.499H90.1494Z" fill="white"/>
<path d="M690.992 80.0706L471.42 -288H469.16L690.992 83.8607V80.0706Z" fill="white"/>
</g>
<path opacity="0.4636" d="M0 8.2384L106.82 -170.825L36.9195 -288H0V8.2384Z" fill="url(#paint9_linear_212_23713)"/>
<path opacity="0.8061" d="M691 -288H340.587L6.44141 272.125L10.8414 279.499H462.64L691 -103.298V-288Z" fill="url(#paint10_linear_212_23713)"/>
<path opacity="0.918" d="M690.998 -288H681L342.459 279.499H654.397L690.998 218.145V-288Z" fill="url(#paint11_linear_212_23713)"/>
<path opacity="0.0528" d="M690.998 -65.9221L604.762 -210.48L312.463 279.5H647.799L690.998 207.087V-65.9221Z" fill="url(#paint12_linear_212_23713)"/>
<path opacity="0.3737" d="M198.763 279.499L313.485 87.187L89.6634 -288H0V279.499H198.763Z" fill="url(#paint13_linear_212_23713)"/>
<path opacity="0.2152" d="M0 -288V254.154L323.426 -288H0Z" fill="url(#paint14_linear_212_23713)"/>
<path opacity="0.2152" d="M342.353 279.5L200.616 41.9121L58.8828 279.5H342.353Z" fill="url(#paint15_linear_212_23713)"/>
<path opacity="0.9" d="M690.997 -10.1133H685.574L512.805 279.499H690.997V-10.1133Z" fill="url(#paint16_linear_212_23713)"/>
<path opacity="0.4745" d="M399.841 279.499L251.493 30.8262L103.146 279.499H399.841Z" fill="url(#paint17_linear_212_23713)"/>
</g>
<rect width="691" height="274" rx="16" fill="url(#paint18_linear_212_23713)"/>
<defs>
<linearGradient id="paint0_linear_212_23713" x1="64.495" y1="190.585" x2="282.981" y2="-563.788" gradientUnits="userSpaceOnUse">
<stop stop-color="white"/>
<stop offset="1"/>
</linearGradient>
<linearGradient id="paint1_linear_212_23713" x1="209.951" y1="315.621" x2="467.936" y2="-575.13" gradientUnits="userSpaceOnUse">
<stop stop-color="white"/>
<stop offset="1"/>
</linearGradient>
<linearGradient id="paint2_linear_212_23713" x1="416.925" y1="152.22" x2="635.41" y2="-602.15" gradientUnits="userSpaceOnUse">
<stop stop-color="white"/>
<stop offset="1"/>
</linearGradient>
<linearGradient id="paint3_linear_212_23713" x1="292.82" y1="300.712" x2="655.886" y2="-952.856" gradientUnits="userSpaceOnUse">
<stop stop-color="white"/>
<stop offset="1"/>
</linearGradient>
<linearGradient id="paint4_linear_212_23713" x1="38.4909" y1="387.057" x2="257.238" y2="-368.219" gradientUnits="userSpaceOnUse">
<stop stop-color="white"/>
<stop offset="1"/>
</linearGradient>
<linearGradient id="paint5_linear_212_23713" x1="36.3442" y1="687.826" x2="396.206" y2="-554.68" gradientUnits="userSpaceOnUse">
<stop stop-color="white"/>
<stop offset="1"/>
</linearGradient>
<linearGradient id="paint6_linear_212_23713" x1="111.944" y1="439.931" x2="400.83" y2="-557.514" gradientUnits="userSpaceOnUse">
<stop stop-color="white"/>
<stop offset="1"/>
</linearGradient>
<linearGradient id="paint7_linear_212_23713" x1="199.098" y1="413.837" x2="546.12" y2="-784.333" gradientUnits="userSpaceOnUse">
<stop stop-color="white"/>
<stop offset="1"/>
</linearGradient>
<linearGradient id="paint8_linear_212_23713" x1="460.4" y1="181.857" x2="709.204" y2="-677.195" gradientUnits="userSpaceOnUse">
<stop stop-color="white"/>
<stop offset="1"/>
</linearGradient>
<linearGradient id="paint9_linear_212_23713" x1="-16.3424" y1="420.358" x2="202.649" y2="-335.76" gradientUnits="userSpaceOnUse">
<stop stop-color="white"/>
<stop offset="1"/>
</linearGradient>
<linearGradient id="paint10_linear_212_23713" x1="285.92" y1="669.426" x2="646.31" y2="-574.903" gradientUnits="userSpaceOnUse">
<stop stop-color="white"/>
<stop offset="1"/>
</linearGradient>
<linearGradient id="paint11_linear_212_23713" x1="444.539" y1="921.292" x2="851.03" y2="-482.212" gradientUnits="userSpaceOnUse">
<stop stop-color="white"/>
<stop offset="1"/>
</linearGradient>
<linearGradient id="paint12_linear_212_23713" x1="422.759" y1="978.944" x2="754.672" y2="-167.063" gradientUnits="userSpaceOnUse">
<stop stop-color="white"/>
<stop offset="1"/>
</linearGradient>
<linearGradient id="paint13_linear_212_23713" x1="-17.013" y1="1518.19" x2="503.475" y2="-278.914" gradientUnits="userSpaceOnUse">
<stop stop-color="white"/>
<stop offset="1"/>
</linearGradient>
<linearGradient id="paint14_linear_212_23713" x1="91.1891" y1="368.954" x2="359.663" y2="-558.015" gradientUnits="userSpaceOnUse">
<stop stop-color="white"/>
<stop offset="1"/>
</linearGradient>
<linearGradient id="paint15_linear_212_23713" x1="120.749" y1="1023.5" x2="389.223" y2="96.5374" gradientUnits="userSpaceOnUse">
<stop stop-color="white"/>
<stop offset="1"/>
</linearGradient>
<linearGradient id="paint16_linear_212_23713" x1="554.237" y1="723.504" x2="779.196" y2="-53.2159" gradientUnits="userSpaceOnUse">
<stop stop-color="white"/>
<stop offset="1"/>
</linearGradient>
<linearGradient id="paint17_linear_212_23713" x1="131.688" y1="1395.53" x2="505.625" y2="104.429" gradientUnits="userSpaceOnUse">
<stop stop-color="white"/>
<stop offset="1"/>
</linearGradient>
<linearGradient id="paint18_linear_212_23713" x1="691" y1="137" x2="0" y2="137" gradientUnits="userSpaceOnUse">
<stop stop-opacity="0"/>
<stop offset="1" stop-color="#19183A"/>
</linearGradient>
</defs>
</svg>
