<svg width="14" height="14" viewBox="0 0 14 14" fill="none" xmlns="http://www.w3.org/2000/svg">
<path d="M9.7023 1.99385C10.1811 2.05578 10.6341 2.28635 11.0631 2.68405C11.5081 3.09686 11.7457 3.55549 11.7764 4.05943C11.7975 4.4088 11.6672 4.74961 11.418 4.9958L3.86455 12.4717L0.535894 13.6215C0.324963 13.6945 0.0948937 13.5827 0.0219 13.3718C-0.0073 13.2862 -0.0073 13.1936 0.0219 13.1075L1.17172 9.77886L8.69443 2.33367C8.96024 2.07138 9.3323 1.94553 9.7023 1.99385ZM12.2557 0.0773075C12.8492 0.260557 13.3214 0.71062 13.5339 1.29056L13.5666 1.38823C13.7574 2.00543 13.5918 2.67801 13.1352 3.13561L13.0697 3.20105L12.9504 3.32086L12.8034 3.46786L12.7254 3.54493C12.6448 3.62443 12.598 3.66974 12.5849 3.68086C12.52 3.73624 12.4168 3.70299 12.4122 3.63299C12.37 2.96295 12.1283 2.41069 11.6853 1.97674C11.2534 1.55336 10.7122 1.30819 10.0612 1.24224C9.97467 1.23318 9.83218 1.19844 9.97867 1.04288C10.0275 0.991026 10.1579 0.859133 10.3704 0.646683L10.5078 0.509751C10.9649 0.0531451 11.6375 -0.112986 12.2552 0.0778138L12.2557 0.0773075Z" fill="#B3BEC1"/>
</svg>
