<svg width="39" height="39" viewBox="0 0 39 39" fill="none" xmlns="http://www.w3.org/2000/svg">
<path fill-rule="evenodd" clip-rule="evenodd" d="M8.6821 17.1908L23.2372 10.3511C23.7881 10.0923 24.4324 10.3575 24.6757 10.9435C24.7624 11.1513 24.7891 11.381 24.7537 11.6055L23.9659 16.5844C23.7972 16.6313 23.384 16.7485 23.384 16.7485C22.563 16.9616 21.8004 17.3596 21.1554 17.9131C20.4612 18.5088 19.9243 19.2661 19.592 20.1184L19.4933 20.3714L19.4039 20.6008L19.2987 21.068C19.1433 21.8458 19.1588 22.6481 19.3439 23.419L19.4573 23.8363L15.8077 20.9605C15.3233 20.5793 15.2213 19.8528 15.5802 19.3376C15.6212 19.2784 15.6681 19.2233 15.7193 19.1734L20.6549 14.3564C20.6996 14.3129 20.7023 14.2398 20.6615 14.1921C20.626 14.1516 20.5687 14.1428 20.5235 14.1725L13.0339 19.106C12.7618 19.2848 12.4295 19.3282 12.1247 19.2239L8.72462 18.057C8.49496 17.9781 8.36896 17.7164 8.44316 17.4727C8.48134 17.3474 8.56865 17.2442 8.6821 17.1908ZM23.3667 20.3713H26.2177C25.9455 19.2716 25.4987 18.2227 24.8942 17.2645H24.6086L24.626 17.2888C23.9271 18.1933 23.45 19.2491 23.2329 20.3713H23.3667ZM22.6583 24.1157C22.6731 24.1738 22.6883 24.2319 22.7041 24.2898C22.9531 25.2041 23.3204 26.0825 23.797 26.902C23.0367 26.7481 22.3241 26.4151 21.7183 25.9305C21.1125 25.4458 20.6311 24.8236 20.314 24.1156L22.6583 24.1157ZM22.4328 22.7224C22.4523 22.9554 22.481 23.1878 22.519 23.419H20.0634C19.8504 22.652 19.8323 21.8437 20.011 21.0679H22.4491C22.4252 21.2996 22.4103 21.5321 22.4047 21.7646C22.3968 22.0841 22.4061 22.4038 22.4328 22.7224ZM22.5538 20.3714C22.5619 20.3291 22.5703 20.287 22.5791 20.2448C22.7223 19.5566 22.9469 18.8888 23.2477 18.2556C23.3897 17.9566 23.5487 17.6652 23.7241 17.3829C22.9429 17.5569 22.2163 17.9205 21.6089 18.4417C21.0014 18.9629 20.5316 19.6257 20.2409 20.3713L22.5538 20.3714ZM26.3884 23.419H23.2119C23.0674 22.6439 23.038 21.8516 23.1249 21.0679H26.3605C26.4858 21.846 26.4953 22.6382 26.3884 23.419ZM29.2968 20.3713H26.9248C26.6881 19.3167 26.2948 18.3036 25.758 17.3655C26.5513 17.5328 27.2902 17.8954 27.9081 18.4202C28.526 18.945 29.0033 19.6156 29.2968 20.3713ZM26.2596 24.1156C26.028 25.1622 25.5676 26.1448 24.9116 26.9925L24.9291 27.017H24.6434C24.08 26.1177 23.6528 25.14 23.3756 24.1156H26.2596ZM27.0537 23.419C27.16 22.639 27.16 21.848 27.0537 21.0679H29.5232C29.7019 21.8437 29.6839 22.6519 29.4709 23.419H27.0537ZM25.8242 26.902C26.3543 26.0444 26.7325 25.1018 26.9422 24.1156H29.2236C28.9136 24.813 28.4446 25.4281 27.8543 25.912C27.2641 26.3958 26.5688 26.7349 25.8242 26.902Z" fill="#B3BEC1"/>
</svg>
