<svg width="39" height="39" viewBox="0 0 39 39" fill="none" xmlns="http://www.w3.org/2000/svg">
<path d="M16.7559 25.9625C16.7509 25.461 16.7487 25.0237 16.7487 24.6504L16.4185 24.7091C16.208 24.7487 15.9424 24.7655 15.6218 24.7607C15.3012 24.7562 14.9686 24.7217 14.6241 24.6576C14.2795 24.594 13.959 24.4466 13.6623 24.2155C13.3658 23.9845 13.1553 23.6822 13.0309 23.3088L12.8873 22.9695C12.7916 22.7436 12.641 22.4927 12.4352 22.2177C12.2294 21.9423 12.0214 21.7557 11.8108 21.6574L11.7103 21.5834C11.6433 21.5343 11.5811 21.4752 11.5237 21.4064C11.4664 21.3376 11.4234 21.2688 11.3946 21.1999C11.3659 21.131 11.3897 21.0745 11.4664 21.0301C11.5431 20.9857 11.6816 20.9642 11.8826 20.9642L12.1696 21.0082C12.361 21.0477 12.5978 21.1653 12.8803 21.3621C13.1625 21.5586 13.3946 21.8141 13.5764 22.1286C13.7966 22.5317 14.0619 22.8389 14.3731 23.0502C14.6841 23.2616 14.9975 23.3671 15.3133 23.3671C15.6291 23.3671 15.9017 23.3425 16.1316 23.2936C16.361 23.2444 16.5764 23.1705 16.7775 23.0723C16.8637 22.4134 17.0981 21.9072 17.4808 21.5534C16.9354 21.4946 16.445 21.406 16.0094 21.2881C15.5742 21.1699 15.1244 20.9784 14.6602 20.7127C14.1959 20.4473 13.8107 20.118 13.5046 19.725C13.1983 19.3318 12.947 18.8156 12.7511 18.1768C12.555 17.5378 12.4569 16.8006 12.4569 15.9651C12.4569 14.7755 12.835 13.7632 13.591 12.9276C13.2369 12.0332 13.2702 11.0307 13.6914 9.91997C13.9688 9.83129 14.3805 9.89787 14.9258 10.119C15.4714 10.3401 15.8708 10.5296 16.1244 10.6867C16.3781 10.8438 16.5814 10.9769 16.7346 11.0848C17.6247 10.8293 18.5433 10.7015 19.4907 10.7015C20.438 10.7015 21.3568 10.8293 22.247 11.0848L22.7925 10.7311C23.1655 10.495 23.6059 10.2788 24.1129 10.0822C24.6201 9.88571 25.0079 9.83157 25.276 9.92016C25.7065 11.0309 25.7449 12.0334 25.3906 12.9278C26.1466 13.7634 26.5248 14.7759 26.5248 15.9653C26.5248 16.8008 26.4264 17.5403 26.2306 18.1841C26.0346 18.8282 25.781 19.3439 25.4701 19.7324C25.1589 20.1208 24.7712 20.4476 24.3072 20.7129C23.8431 20.9784 23.3931 21.1699 22.9577 21.288C22.5222 21.4061 22.0319 21.4948 21.4863 21.5537C21.9838 21.9959 22.2326 22.6938 22.2326 23.6473L22.2275 25.8405C22.2263 26.3426 21.819 26.7491 21.3168 26.7491H17.5424C17.1082 26.7491 16.7601 26.3967 16.7559 25.9625Z" fill="#B3BEC1"/>
</svg>
