<svg width="39" height="39" viewBox="0 0 39 39" fill="none" xmlns="http://www.w3.org/2000/svg">
<path d="M19.9573 17.2691L24.8321 11.7246H23.6774L19.4427 16.5378L16.063 11.7246H12.1641L17.2759 19.0037L12.1641 24.8173H13.3188L17.7878 19.7333L21.3578 24.8173H25.2568M13.9098 12.5975L15.5097 12.5767L23.6765 24.0072H21.902" fill="#B3BEC1"/>
<path d="M19.9573 17.2691L24.8321 11.7246H23.6774L19.4427 16.5378L16.063 11.7246H12.1641L17.2759 19.0037L12.1641 24.8173H13.3188L17.7878 19.7333L21.3578 24.8173H25.2568L19.9573 17.2691ZM13.9098 12.5975L15.5097 12.5767L23.6765 24.0072H21.902L13.9098 12.5975Z" fill="#B3BEC1" stroke="#B3BEC1" stroke-width="0.464284"/>
</svg>
