<svg width="39" height="39" viewBox="0 0 39 39" fill="none" xmlns="http://www.w3.org/2000/svg">
<path fill-rule="evenodd" clip-rule="evenodd" d="M26.2098 15.0746C26.6364 16.0636 27.5471 20.2405 27.7153 21.1287C27.7065 21.1699 27.7039 21.2115 27.7065 21.2532C27.8884 22.1162 27.3324 22.5617 26.7701 23.0122C26.7356 23.0399 26.7009 23.0677 26.6665 23.0955C25.421 24.0896 23.587 24.1529 23.3026 24.0896C23.284 24.0727 23.2648 24.0537 23.2471 24.0347C23.1895 23.993 23.0246 23.7729 22.8771 23.5758C22.7934 23.4642 22.7153 23.3598 22.6654 23.2996C22.5274 23.133 22.4609 23.0308 22.7505 22.9465C23.0401 22.8622 24.5279 21.9677 24.789 21.6197C24.6757 21.5416 24.6089 21.5829 24.5494 21.6196C24.5397 21.6256 24.5301 21.6314 24.5206 21.6367C23.5357 22.1748 22.4729 22.5573 21.3696 22.7712C18.3902 23.3484 15.2547 22.1059 15.0881 22.0258C15.0255 21.9947 14.9237 21.9398 14.8075 21.8771C14.5394 21.7326 14.1943 21.5466 14.0756 21.5154C14.126 21.7081 14.3652 21.9082 14.5022 21.9811C14.7093 22.1862 15.8442 22.8174 16.1328 22.9315C16.3004 22.9989 16.3372 23.0857 16.209 23.2209C16.1551 23.2783 16.1328 23.3099 16.1043 23.3505C16.0653 23.4058 16.0147 23.4779 15.8556 23.6548C15.5079 24.0413 15.222 24.1816 14.7491 24.1106C13.3807 23.9061 12.1964 23.3617 11.2846 22.3029C11.1383 22.1415 11.0646 21.9271 11.0802 21.7102C11.2405 18.2539 12.4601 15.3008 13.0221 14.1427C13.1077 13.9664 13.2416 13.8169 13.4082 13.7104C14.3922 13.0401 15.5245 12.614 16.7098 12.4681C16.7258 12.4664 16.7418 12.4645 16.7579 12.4627C16.8038 12.4575 16.8502 12.4521 16.8966 12.4521C16.9131 12.4516 16.9304 12.4499 16.9481 12.4482C17.0281 12.4403 17.1127 12.4319 17.1374 12.539C17.1605 12.639 17.0864 12.6564 17.0132 12.6735C16.9908 12.6788 16.9685 12.684 16.9491 12.6917C16.3486 12.9311 14.7757 13.5799 14.7403 13.6061C14.004 13.9053 14.004 14.0296 14.004 14.0296C13.9339 14.1078 13.8784 14.1983 13.8395 14.2959C13.8498 14.2856 15.1452 13.7439 15.1452 13.7439C15.8681 13.4951 16.6118 13.3095 17.3668 13.1887C18.2247 13.0617 19.0918 13.0149 19.9585 13.0494C21.3057 13.0869 22.6327 13.386 23.8631 13.9305C24.0235 14.0301 24.218 14.0599 24.4012 14.0122C24.0915 13.4983 22.7079 13.0532 22.1131 12.8619C22.0045 12.8269 21.9222 12.8005 21.8776 12.7836C21.849 12.7727 21.8151 12.7658 21.7808 12.759C21.6829 12.7392 21.5821 12.7189 21.5952 12.6011C21.6144 12.4216 21.777 12.4376 21.91 12.4507C21.9243 12.4522 21.9383 12.4536 21.9518 12.4546C22.6674 12.5225 23.369 12.6988 24.0312 12.9764C24.3452 13.1142 24.6514 13.2678 24.9493 13.4369C25.6654 13.8096 25.9326 14.4223 26.2098 15.0746ZM15.3971 18.286C15.3971 17.4367 16.0877 16.748 16.9399 16.748C17.7922 16.748 18.4833 17.4367 18.4833 18.286C18.4833 19.1352 17.7921 19.8233 16.9399 19.8233C16.0877 19.8233 15.3971 19.1352 15.3971 18.286ZM21.8775 19.8233C21.0252 19.8233 20.3347 19.1352 20.3347 18.286C20.3347 17.4367 21.0252 16.748 21.8775 16.748C22.7296 16.748 23.4209 17.4367 23.4209 18.286C23.4209 19.1352 22.7296 19.8233 21.8775 19.8233Z" fill="#B3BEC1"/>
</svg>
