<svg width="39" height="39" viewBox="0 0 39 39" fill="none" xmlns="http://www.w3.org/2000/svg">
<path fill-rule="evenodd" clip-rule="evenodd" d="M23.0971 19.328C23.7077 20.0868 23.9763 21.1796 23.6595 22.2569C23.1989 23.976 21.5402 25.0342 19.9426 24.6062L19.4713 24.4798L18.8167 24.3045L18.1576 26.7643C18.1292 26.8701 17.9889 26.9743 17.858 26.9392L17.02 26.7147C16.8891 26.6796 16.7936 26.5122 16.8219 26.4064L17.4811 23.9465L16.1455 23.5887L15.4865 26.0485C15.4581 26.1544 15.2917 26.2516 15.1608 26.2165L14.3228 25.992C14.218 25.9638 14.1225 25.7965 14.1509 25.6907L14.81 23.2309L12.1912 22.5292C12.008 22.48 11.9458 22.2934 12.0074 22.1681L12.3983 21.3372C12.4528 21.2384 12.5788 21.1872 12.6908 21.1888C13.5237 21.3268 14.0059 20.889 14.1973 20.175L15.6007 14.9377C15.8203 14.1179 15.4858 13.3762 14.5645 13.0441C14.4406 12.9826 14.3642 12.8487 14.3996 12.7164L14.6264 11.87C14.6618 11.7377 14.8282 11.6406 14.9591 11.6757L17.7088 12.4124L18.3679 9.95262C18.3962 9.84677 18.5626 9.74955 18.6935 9.78465L19.5052 10.0021C19.6361 10.0372 19.7387 10.1782 19.7033 10.3104L19.0442 12.7703L20.3796 13.128L21.0387 10.6683C21.0671 10.5624 21.2335 10.4652 21.3644 10.5003L22.2024 10.7248C22.3333 10.7599 22.4098 10.8939 22.3744 11.0261L21.7153 13.4859L21.9771 13.5561L22.1866 13.6123C23.7578 14.0332 24.6916 15.786 24.2168 17.5582C24.0254 18.2724 23.6317 18.9042 23.0971 19.328ZM18.4981 14.8074L17.7537 17.5851L18.4871 17.7816L19.7965 18.1324C20.5561 18.3359 21.3547 17.8694 21.5603 17.1023C21.7587 16.3615 21.3003 15.5582 20.5408 15.3547L19.2314 15.0039L18.4981 14.8074ZM21.1504 21.3573C20.9449 22.1244 20.1532 22.5645 19.3938 22.361L17.7438 21.9189L16.6701 21.6312L17.4144 18.8535L18.4881 19.1412L20.138 19.5833C20.8976 19.7868 21.356 20.5901 21.1504 21.3573Z" fill="#B3BEC1"/>
</svg>
