<svg width="20" height="20" viewBox="0 0 20 20" fill="none" xmlns="http://www.w3.org/2000/svg">
<path d="M9.51846 7.01758C8.13837 7.01758 7.01562 8.13937 7.01562 9.51827C7.01562 10.8972 8.13837 12.019 9.51846 12.019C10.8985 12.019 12.0213 10.8972 12.0213 9.51827C12.0213 8.13937 10.8985 7.01758 9.51846 7.01758Z" fill="#B3BEC1"/>
<path fill-rule="evenodd" clip-rule="evenodd" d="M3.00781 12.5192C3.00781 14.4495 4.57992 16.0197 6.51138 16.0197H12.5175C14.449 16.0197 16.0211 14.4495 16.0211 12.5192V6.51818C16.0211 4.58784 14.449 3.01758 12.5175 3.01758H6.51138C4.57992 3.01758 3.00781 4.58784 3.00781 6.51818V12.5192ZM13.2686 5.01817C13.683 5.01817 14.0194 5.35377 14.0194 5.76839C14.0194 6.18303 13.683 6.5186 13.2686 6.5186C12.8541 6.5186 12.5177 6.18303 12.5177 5.76839C12.5177 5.35377 12.8541 5.01817 13.2686 5.01817ZM9.51455 13.0193C7.58308 13.0193 6.01098 11.449 6.01098 9.51867C6.01098 7.5884 7.58308 6.01814 9.51455 6.01814C11.446 6.01814 13.0181 7.5884 13.0181 9.51867C13.0181 11.449 11.446 13.0193 9.51455 13.0193Z" fill="#B3BEC1"/>
</svg>
