<svg width="39" height="39" viewBox="0 0 39 39" fill="none" xmlns="http://www.w3.org/2000/svg">
<path d="M10.54 17.7488L25.0079 10.9501C25.5555 10.6929 26.1959 10.9564 26.4377 11.5389C26.524 11.7454 26.5505 11.9738 26.5152 12.197L24.5736 24.4684C24.4543 25.2222 23.783 25.731 23.0743 25.6041C22.8721 25.5677 22.6807 25.4812 22.5159 25.3515L17.6229 21.4959C17.1413 21.1169 17.04 20.3949 17.3968 19.8828C17.4375 19.8239 17.4841 19.7691 17.5351 19.7195L22.441 14.9314C22.4854 14.8881 22.4881 14.8154 22.4475 14.7681C22.4123 14.7277 22.3553 14.7191 22.3103 14.7485L14.8657 19.6526C14.5951 19.8302 14.2649 19.8735 13.9618 19.7697L10.5822 18.6098C10.3539 18.5314 10.2286 18.2712 10.3024 18.0291C10.3403 17.9045 10.4272 17.8019 10.54 17.7488Z" fill="#B3BEC1"/>
</svg>
