<svg width="18" height="19" viewBox="0 0 18 19" fill="none" xmlns="http://www.w3.org/2000/svg">
<path d="M11.9316 3.31344C11.9326 3.92311 12.4266 4.41712 13.0363 4.41809H16.618C16.4549 4.17992 16.2611 3.96425 16.0418 3.77652L12.4301 0.771873C12.2748 0.643332 12.1079 0.529452 11.9316 0.431641V3.31344Z" fill="#8292AA"/>
<path d="M13.0349 5.74418C11.6931 5.74321 10.6056 4.65574 10.6046 3.31395V0.0256413C10.5057 0.0168041 10.4076 0 10.3077 0H3.31395C1.48472 0.00244362 0.00244362 1.48472 0 3.31395V15.686C0.00244362 17.5153 1.48472 18.9975 3.31395 19H13.9186C15.7478 18.9975 17.2301 17.5153 17.2326 15.686V6.3186C17.2284 6.12415 17.2071 5.93047 17.1689 5.73977L13.0349 5.74418ZM4.19767 4.86046H8.61628C8.98232 4.86046 9.27907 5.15721 9.27907 5.52325C9.27907 5.8893 8.98232 6.18604 8.61628 6.18604H4.19767C3.83163 6.18604 3.53488 5.8893 3.53488 5.52325C3.53488 5.15721 3.83163 4.86046 4.19767 4.86046ZM12.654 12.1405L10.0028 15.2336C9.88258 15.3737 9.70928 15.4573 9.52477 15.4642C9.34023 15.4736 9.16054 15.4031 9.03166 15.2707L7.73256 13.9725L5.54977 16.1544C5.28197 16.404 4.86257 16.3891 4.61302 16.1213C4.37586 15.8668 4.37586 15.4722 4.61302 15.2177L7.26418 12.5665C7.52251 12.3078 7.9416 12.3076 8.20026 12.5658L8.20093 12.5665L9.46288 13.8302L11.6483 11.2807C11.8774 10.9952 12.2946 10.9496 12.5801 11.1787C12.8655 11.4079 12.9112 11.825 12.682 12.1105C12.673 12.1217 12.6637 12.1326 12.654 12.1432V12.1405H12.654ZM13.0349 9.72093H4.19767C3.83163 9.72093 3.53488 9.42418 3.53488 9.05814C3.53488 8.6921 3.83163 8.39535 4.19767 8.39535H13.0349C13.4009 8.39535 13.6977 8.6921 13.6977 9.05814C13.6977 9.42418 13.4009 9.72093 13.0349 9.72093Z" fill="#8292AA"/>
</svg>
