<svg width="24" height="23" viewBox="0 0 24 23" fill="none" xmlns="http://www.w3.org/2000/svg">
<path d="M6.46094 21.4158C6.46094 21.6669 6.58648 21.9032 6.80063 22.0361C7.01478 22.169 7.28063 22.1912 7.50955 22.0878L11.2609 20.3524V17.6866C9.48124 17.5536 7.84186 16.9259 6.46094 15.9512V21.4158Z" fill="#8292AA"/>
<path d="M12.7368 20.3524L16.4882 22.0878C16.5842 22.1321 16.695 22.1542 16.7983 22.1542C16.9387 22.1542 17.079 22.1173 17.1971 22.0361C17.4113 21.9032 17.5368 21.6669 17.5368 21.4158V15.9512C16.1559 16.9259 14.5165 17.5462 12.7368 17.6866V20.3524Z" fill="#8292AA"/>
<path d="M11.9986 0C7.5161 0 3.87549 3.64061 3.87549 8.12306C3.87549 12.6055 7.5161 16.2461 11.9986 16.2461C16.481 16.2461 20.1216 12.6055 20.1216 8.12306C20.1216 3.64061 16.481 0 11.9986 0ZM7.56779 8.86153H7.19856C6.79241 8.86153 6.4601 8.52922 6.4601 8.12306C6.4601 7.71691 6.79241 7.3846 7.19856 7.3846H7.56779C7.97394 7.3846 8.30625 7.71691 8.30625 8.12306C8.30625 8.52922 7.97394 8.86153 7.56779 8.86153ZM11.3192 7.3846H12.6706C13.8226 7.3846 14.7604 8.32245 14.7604 9.47445C14.7604 10.6264 13.8521 11.5274 12.7296 11.5569V12.1772C12.7296 12.5834 12.3973 12.9157 11.9912 12.9157C11.585 12.9157 11.2527 12.5834 11.2527 12.1772V11.5643H9.9604C9.55425 11.5643 9.22194 11.232 9.22194 10.8258C9.22194 10.4197 9.55425 10.0874 9.9604 10.0874H12.6706C13.0102 10.0874 13.2835 9.81414 13.2835 9.47445C13.2835 9.13476 13.0102 8.86153 12.6706 8.86153H11.3192C10.1672 8.86153 9.22933 7.92368 9.22933 6.77168C9.22933 5.61968 10.1376 4.71876 11.2601 4.68922V4.06892C11.2601 3.66276 11.5924 3.33046 11.9986 3.33046C12.4047 3.33046 12.737 3.66276 12.737 4.06892V4.68184H14.0293C14.4355 4.68184 14.7678 5.01415 14.7678 5.4203C14.7678 5.82645 14.4355 6.15876 14.0293 6.15876H11.3192C10.9795 6.15876 10.7062 6.43199 10.7062 6.77168C10.7062 7.11137 10.9795 7.3846 11.3192 7.3846ZM16.7985 8.86153H16.4293C16.0232 8.86153 15.6909 8.52922 15.6909 8.12306C15.6909 7.71691 16.0232 7.3846 16.4293 7.3846H16.7985C17.2047 7.3846 17.537 7.71691 17.537 8.12306C17.537 8.52922 17.2047 8.86153 16.7985 8.86153Z" fill="#8292AA"/>
<path d="M23.1994 7.50977H22.1354C21.6954 7.50977 21.3354 7.86977 21.3354 8.30977C21.3354 8.74977 21.6954 9.10977 22.1354 9.10977H23.1994C23.6395 9.10977 23.9995 8.74977 23.9995 8.30977C23.9995 7.86977 23.6395 7.50977 23.1994 7.50977Z" fill="#8292AA"/>
<path d="M21.5988 4.81423C21.7268 4.81423 21.8628 4.78223 21.9828 4.71823L22.9028 4.21423C23.2948 3.99823 23.4308 3.51823 23.2228 3.12623C23.0148 2.74223 22.5268 2.59823 22.1348 2.80623L21.2148 3.31023C20.8228 3.52623 20.6868 4.00623 20.8948 4.39823C21.0388 4.66223 21.3108 4.81423 21.5988 4.81423Z" fill="#8292AA"/>
<path d="M22.9029 12.4056L21.9829 11.9016C21.5989 11.6936 21.1109 11.8296 20.8949 12.2216C20.6789 12.6056 20.8229 13.0936 21.2149 13.3096L22.1349 13.8136C22.2549 13.8776 22.3909 13.9096 22.5189 13.9096C22.7989 13.9096 23.0789 13.7576 23.2229 13.4936C23.4389 13.1096 23.2949 12.6216 22.9029 12.4056Z" fill="#8292AA"/>
<path d="M1.864 9.10977C2.304 9.10977 2.664 8.74977 2.664 8.30977C2.664 7.86977 2.304 7.50977 1.864 7.50977H0.8C0.36 7.50977 0 7.86977 0 8.30977C0 8.74977 0.36 9.10977 0.8 9.10977H1.864Z" fill="#8292AA"/>
<path d="M2.78277 3.30989L1.86277 2.80589C1.47077 2.59789 0.990774 2.73389 0.774774 3.12589C0.558774 3.50989 0.702774 3.9979 1.09477 4.2139L2.01477 4.7179C2.13477 4.7819 2.27077 4.8139 2.39877 4.8139C2.67878 4.8139 2.95878 4.6619 3.10278 4.3979C3.31878 4.0139 3.17478 3.52589 2.78277 3.30989Z" fill="#8292AA"/>
<path d="M2.0166 11.9019L1.0966 12.4059C0.704598 12.6219 0.568598 13.1019 0.776598 13.4939C0.920598 13.7579 1.1926 13.9099 1.4806 13.9099C1.6086 13.9099 1.7446 13.8779 1.8646 13.8139L2.7846 13.3099C3.1766 13.0939 3.3126 12.6139 3.1046 12.2219C2.8886 11.8379 2.4086 11.6939 2.0166 11.9019Z" fill="#8292AA"/>
</svg>
