<svg width="112" height="40" viewBox="0 0 112 40" fill="none" xmlns="http://www.w3.org/2000/svg">
<g clip-path="url(#clip0_360_26769)">
<rect x="2" width="110" height="40" rx="8" fill="#384252"/>
<path d="M0 0H60.3789C60.3789 0 62.9053 18.6364 72.2526 27.7273C81.6 36.8182 96 40 96 40H0V0Z" fill="#242B35"/>
<g opacity="0.5">
<g opacity="0.5">
<rect width="18.9785" height="26.2507" rx="1" transform="matrix(0.937751 -0.347309 0.370034 0.929018 1.73938 17.3828)" fill="#F4FFFB"/>
<g filter="url(#filter0_d_360_26769)">
<path d="M45.6859 11.7877C46.2275 11.8944 46.5679 12.4171 46.4464 12.9555L38.4773 48.1884C38.3554 48.727 37.8177 49.0779 37.2758 48.9716L12.614 44.1231C12.072 44.0166 11.7319 43.4931 11.8537 42.9543L19.8217 7.72228C19.9436 7.18353 20.4821 6.83272 21.0241 6.93927L45.6859 11.7877Z" fill="#8D8F8F"/>
<path d="M27.4619 35.5224L26.5579 34.3082C23.3443 30.0097 21.2238 27.1666 21.8559 24.3386C22.374 22.0207 24.6561 20.5867 27.0463 21.0624C28.3966 21.3311 29.5568 22.1967 30.1898 23.3177C31.2486 22.5334 32.6804 22.1837 34.0307 22.4524C36.4209 22.9282 37.8949 25.1098 37.3768 27.4277C36.7447 30.2557 33.5881 32.0484 28.8085 34.7561L27.4619 35.5224Z" fill="#5A4A60"/>
</g>
</g>
</g>
<path d="M37.872 25.14C37.004 25.14 36.2667 24.9907 35.66 24.692C35.0627 24.384 34.6053 23.95 34.288 23.39C33.9707 22.8207 33.7933 22.1393 33.756 21.346C33.7467 20.9633 33.742 20.5527 33.742 20.114C33.742 19.6753 33.7467 19.2553 33.756 18.854C33.7933 18.07 33.9707 17.3933 34.288 16.824C34.6147 16.2547 35.0767 15.8207 35.674 15.522C36.2807 15.214 37.0133 15.06 37.872 15.06C38.5067 15.06 39.076 15.144 39.58 15.312C40.084 15.48 40.5133 15.7133 40.868 16.012C41.2227 16.3013 41.498 16.642 41.694 17.034C41.89 17.426 41.9927 17.8507 42.002 18.308C42.0113 18.392 41.9833 18.462 41.918 18.518C41.862 18.574 41.792 18.602 41.708 18.602H40.378C40.2753 18.602 40.1913 18.5787 40.126 18.532C40.0607 18.476 40.014 18.3873 39.986 18.266C39.8367 17.65 39.58 17.23 39.216 17.006C38.852 16.782 38.3993 16.67 37.858 16.67C37.2327 16.67 36.7333 16.8473 36.36 17.202C35.9867 17.5473 35.786 18.1213 35.758 18.924C35.73 19.6893 35.73 20.4733 35.758 21.276C35.786 22.0787 35.9867 22.6573 36.36 23.012C36.7333 23.3573 37.2327 23.53 37.858 23.53C38.3993 23.53 38.852 23.418 39.216 23.194C39.58 22.9607 39.8367 22.5407 39.986 21.934C40.014 21.8033 40.0607 21.7147 40.126 21.668C40.1913 21.6213 40.2753 21.598 40.378 21.598H41.708C41.792 21.598 41.862 21.626 41.918 21.682C41.9833 21.738 42.0113 21.808 42.002 21.892C41.9927 22.3493 41.89 22.774 41.694 23.166C41.498 23.558 41.2227 23.9033 40.868 24.202C40.5133 24.4913 40.084 24.72 39.58 24.888C39.076 25.056 38.5067 25.14 37.872 25.14ZM45.6083 25.14C45.123 25.14 44.6843 25.0467 44.2923 24.86C43.9003 24.664 43.5876 24.4073 43.3543 24.09C43.1303 23.7633 43.0183 23.3993 43.0183 22.998C43.0183 22.3447 43.2796 21.8267 43.8023 21.444C44.3343 21.052 45.0343 20.7907 45.9023 20.66L47.8203 20.38V20.086C47.8203 19.694 47.7223 19.3907 47.5263 19.176C47.3303 18.9613 46.9943 18.854 46.5183 18.854C46.1823 18.854 45.907 18.924 45.6923 19.064C45.487 19.1947 45.333 19.372 45.2303 19.596C45.1556 19.7173 45.0483 19.778 44.9083 19.778H43.8023C43.6996 19.778 43.6203 19.75 43.5643 19.694C43.5176 19.638 43.4943 19.5633 43.4943 19.47C43.5036 19.3207 43.5643 19.1387 43.6763 18.924C43.7883 18.7093 43.9656 18.504 44.2083 18.308C44.451 18.1027 44.7636 17.93 45.1463 17.79C45.529 17.65 45.991 17.58 46.5323 17.58C47.1203 17.58 47.615 17.6547 48.0163 17.804C48.427 17.944 48.7536 18.1353 48.9963 18.378C49.239 18.6207 49.4163 18.9053 49.5283 19.232C49.6403 19.5587 49.6963 19.904 49.6963 20.268V24.664C49.6963 24.7573 49.6636 24.8367 49.5983 24.902C49.533 24.9673 49.4536 25 49.3603 25H48.2263C48.1236 25 48.0396 24.9673 47.9743 24.902C47.9183 24.8367 47.8903 24.7573 47.8903 24.664V24.118C47.769 24.2953 47.6056 24.4633 47.4003 24.622C47.195 24.7713 46.943 24.8973 46.6443 25C46.355 25.0933 46.0096 25.14 45.6083 25.14ZM46.0843 23.81C46.411 23.81 46.705 23.74 46.9663 23.6C47.237 23.46 47.447 23.2453 47.5963 22.956C47.755 22.6573 47.8343 22.284 47.8343 21.836V21.542L46.4343 21.766C45.8836 21.85 45.473 21.9853 45.2023 22.172C44.9316 22.3587 44.7963 22.5873 44.7963 22.858C44.7963 23.0633 44.857 23.2407 44.9783 23.39C45.109 23.53 45.2723 23.6373 45.4683 23.712C45.6643 23.7773 45.8696 23.81 46.0843 23.81ZM54.2504 25.14C53.6904 25.14 53.2097 25.0747 52.8084 24.944C52.4164 24.8133 52.0944 24.65 51.8424 24.454C51.5904 24.258 51.4037 24.062 51.2824 23.866C51.161 23.67 51.0957 23.5067 51.0864 23.376C51.077 23.2733 51.105 23.194 51.1704 23.138C51.245 23.0727 51.3244 23.04 51.4084 23.04H52.5144C52.5517 23.04 52.5844 23.0447 52.6124 23.054C52.6404 23.0633 52.6777 23.0913 52.7244 23.138C52.8457 23.2407 52.9717 23.348 53.1024 23.46C53.2424 23.572 53.4057 23.67 53.5924 23.754C53.779 23.8287 54.0124 23.866 54.2924 23.866C54.6564 23.866 54.9597 23.796 55.2024 23.656C55.4544 23.5067 55.5804 23.2967 55.5804 23.026C55.5804 22.83 55.5244 22.6713 55.4124 22.55C55.3097 22.4287 55.1137 22.3213 54.8244 22.228C54.535 22.1253 54.1244 22.018 53.5924 21.906C53.0697 21.7847 52.6357 21.6307 52.2904 21.444C51.945 21.2573 51.6884 21.024 51.5204 20.744C51.3524 20.464 51.2684 20.1373 51.2684 19.764C51.2684 19.4 51.3757 19.0547 51.5904 18.728C51.8144 18.392 52.141 18.1167 52.5704 17.902C53.009 17.6873 53.5504 17.58 54.1944 17.58C54.6984 17.58 55.137 17.6453 55.5104 17.776C55.8837 17.8973 56.1917 18.0513 56.4344 18.238C56.6864 18.4247 56.8777 18.616 57.0084 18.812C57.139 18.9987 57.209 19.162 57.2184 19.302C57.2277 19.4047 57.1997 19.4887 57.1344 19.554C57.069 19.61 56.9944 19.638 56.9104 19.638H55.8744C55.8277 19.638 55.7857 19.6287 55.7484 19.61C55.711 19.5913 55.6737 19.568 55.6364 19.54C55.5337 19.4467 55.4217 19.3487 55.3004 19.246C55.179 19.1433 55.0297 19.0547 54.8524 18.98C54.6844 18.896 54.4604 18.854 54.1804 18.854C53.8257 18.854 53.555 18.9333 53.3684 19.092C53.1817 19.2413 53.0884 19.4327 53.0884 19.666C53.0884 19.8247 53.1304 19.9647 53.2144 20.086C53.3077 20.198 53.4897 20.3053 53.7604 20.408C54.031 20.5107 54.4417 20.618 54.9924 20.73C55.6177 20.842 56.1124 21.01 56.4764 21.234C56.8497 21.4487 57.111 21.7007 57.2604 21.99C57.419 22.27 57.4984 22.5827 57.4984 22.928C57.4984 23.348 57.3724 23.726 57.1204 24.062C56.8777 24.398 56.5137 24.664 56.0284 24.86C55.5524 25.0467 54.9597 25.14 54.2504 25.14ZM59.2795 25C59.1862 25 59.1069 24.9673 59.0415 24.902C58.9762 24.8367 58.9435 24.7573 58.9435 24.664V18.056C58.9435 17.9627 58.9762 17.8833 59.0415 17.818C59.1069 17.7527 59.1862 17.72 59.2795 17.72H60.4415C60.5442 17.72 60.6235 17.7527 60.6795 17.818C60.7449 17.8833 60.7775 17.9627 60.7775 18.056V24.664C60.7775 24.7573 60.7449 24.8367 60.6795 24.902C60.6235 24.9673 60.5442 25 60.4415 25H59.2795ZM59.2235 16.516C59.1209 16.516 59.0369 16.488 58.9715 16.432C58.9155 16.3667 58.8875 16.2827 58.8875 16.18V15.172C58.8875 15.0787 58.9155 14.9993 58.9715 14.934C59.0369 14.8687 59.1209 14.836 59.2235 14.836H60.4975C60.6002 14.836 60.6842 14.8687 60.7495 14.934C60.8149 14.9993 60.8475 15.0787 60.8475 15.172V16.18C60.8475 16.2827 60.8149 16.3667 60.7495 16.432C60.6842 16.488 60.6002 16.516 60.4975 16.516H59.2235ZM62.9709 25C62.8776 25 62.7983 24.9673 62.7329 24.902C62.6676 24.8367 62.6349 24.7573 62.6349 24.664V18.056C62.6349 17.9627 62.6676 17.8833 62.7329 17.818C62.7983 17.7527 62.8776 17.72 62.9709 17.72H64.1189C64.2123 17.72 64.2916 17.7527 64.3569 17.818C64.4223 17.8833 64.4549 17.9627 64.4549 18.056V18.63C64.6976 18.3313 65.0056 18.084 65.3789 17.888C65.7616 17.6827 66.2329 17.58 66.7929 17.58C67.3623 17.58 67.8569 17.7107 68.2769 17.972C68.6969 18.224 69.0189 18.5833 69.2429 19.05C69.4763 19.5167 69.5929 20.0767 69.5929 20.73V24.664C69.5929 24.7573 69.5603 24.8367 69.4949 24.902C69.4296 24.9673 69.3503 25 69.2569 25H68.0249C67.9316 25 67.8523 24.9673 67.7869 24.902C67.7216 24.8367 67.6889 24.7573 67.6889 24.664V20.814C67.6889 20.2727 67.5536 19.848 67.2829 19.54C67.0216 19.232 66.6389 19.078 66.1349 19.078C65.6496 19.078 65.2623 19.232 64.9729 19.54C64.6836 19.848 64.5389 20.2727 64.5389 20.814V24.664C64.5389 24.7573 64.5063 24.8367 64.4409 24.902C64.3756 24.9673 64.2963 25 64.2029 25H62.9709ZM74.5913 25.14C73.8446 25.14 73.2146 25.0093 72.7013 24.748C72.1973 24.4867 71.8099 24.118 71.5393 23.642C71.2779 23.166 71.1286 22.6107 71.0913 21.976C71.0819 21.808 71.0773 21.6027 71.0773 21.36C71.0773 21.1173 71.0819 20.912 71.0913 20.744C71.1286 20.1 71.2826 19.5447 71.5533 19.078C71.8333 18.602 72.2253 18.2333 72.7293 17.972C73.2426 17.7107 73.8633 17.58 74.5913 17.58C75.3193 17.58 75.9353 17.7107 76.4393 17.972C76.9526 18.2333 77.3446 18.602 77.6153 19.078C77.8953 19.5447 78.0539 20.1 78.0913 20.744C78.1006 20.912 78.1053 21.1173 78.1053 21.36C78.1053 21.6027 78.1006 21.808 78.0913 21.976C78.0539 22.6107 77.8999 23.166 77.6293 23.642C77.3679 24.118 76.9806 24.4867 76.4673 24.748C75.9633 25.0093 75.3379 25.14 74.5913 25.14ZM74.5913 23.754C75.0859 23.754 75.4686 23.6 75.7393 23.292C76.0099 22.9747 76.1593 22.5127 76.1873 21.906C76.1966 21.766 76.2013 21.584 76.2013 21.36C76.2013 21.136 76.1966 20.954 76.1873 20.814C76.1593 20.2167 76.0099 19.7593 75.7393 19.442C75.4686 19.1247 75.0859 18.966 74.5913 18.966C74.0966 18.966 73.7139 19.1247 73.4433 19.442C73.1726 19.7593 73.0233 20.2167 72.9953 20.814C72.9859 20.954 72.9813 21.136 72.9813 21.36C72.9813 21.584 72.9859 21.766 72.9953 21.906C73.0233 22.5127 73.1726 22.9747 73.4433 23.292C73.7139 23.6 74.0966 23.754 74.5913 23.754Z" fill="white"/>
</g>
<defs>
<filter id="filter0_d_360_26769" x="-0.171021" y="-4.08008" width="58.6421" height="66.0703" filterUnits="userSpaceOnUse" color-interpolation-filters="sRGB">
<feFlood flood-opacity="0" result="BackgroundImageFix"/>
<feColorMatrix in="SourceAlpha" type="matrix" values="0 0 0 0 0 0 0 0 0 0 0 0 0 0 0 0 0 0 127 0" result="hardAlpha"/>
<feOffset dy="1"/>
<feGaussianBlur stdDeviation="6"/>
<feComposite in2="hardAlpha" operator="out"/>
<feColorMatrix type="matrix" values="0 0 0 0 0 0 0 0 0 0 0 0 0 0 0 0 0 0 0.45 0"/>
<feBlend mode="normal" in2="BackgroundImageFix" result="effect1_dropShadow_360_26769"/>
<feBlend mode="normal" in="SourceGraphic" in2="effect1_dropShadow_360_26769" result="shape"/>
</filter>
<clipPath id="clip0_360_26769">
<rect width="112" height="40" rx="8" fill="white"/>
</clipPath>
</defs>
</svg>
