<svg width="28" height="28" viewBox="0 0 28 28" fill="none" xmlns="http://www.w3.org/2000/svg">
<path d="M14 4C12.6923 4 11.6923 5 11.6923 6.30769V10.9231C11.6923 12.2308 12.6923 13.2308 14 13.2308H18.6154L21.6923 16.3077V13.2308C23 13.2308 24 12.2308 24 10.9231V6.30769C24 5 23 4 21.6923 4H14ZM17.2215 6.30769H18.5431L19.8415 10.9231H18.6877L18.3746 9.76923H17.2208L16.9331 10.9231H15.9231L17.2215 6.30769ZM17.8462 7.07692C17.7692 7.38462 17.6831 7.76 17.6054 7.99077L17.39 9H18.3031L18.0862 7.99C17.9331 7.76 17.8462 7.38462 17.8462 7.07692ZM6.30769 11.6923C5 11.6923 4 12.6923 4 14V18.6154C4 19.9231 5 20.9231 6.30769 20.9231V24L9.38462 20.9231H14C15.3077 20.9231 16.3077 19.9231 16.3077 18.6154V14H14C12.5385 14 11.38 13 10.9954 11.6923H6.30769ZM9.84154 13.9277C11.1492 13.9277 11.7646 15.0046 11.7646 16.2354C11.7646 17.3123 11.3946 17.9954 10.7792 18.3031C11.0869 18.4569 11.4515 18.5385 11.8362 18.6154L11.5485 19.3846C11.01 19.2308 10.4515 18.9908 9.91308 18.7592C9.83615 18.6823 9.70154 18.6877 9.62462 18.6877C8.70154 18.6108 7.84615 17.8462 7.84615 16.3077C7.84615 15 8.61077 13.9277 9.84154 13.9277ZM9.84154 14.7692C9.22615 14.7692 8.92769 15.4615 8.92769 16.3077C8.92769 17.2308 9.22615 17.8462 9.84154 17.8462C10.4569 17.8462 10.7785 17.1538 10.7785 16.3077C10.7785 15.4615 10.4569 14.7692 9.84154 14.7692Z" fill="#8292AA"/>
</svg>
