<svg width="23" height="27" viewBox="0 0 23 27" fill="none" xmlns="http://www.w3.org/2000/svg">
<path d="M13.5504 13.6133C12.6895 12.8004 11.151 12.2885 9.24658 12.0488C9.64136 12.9864 10.2772 14.5531 10.659 15.7867C11.1035 17.2228 12.9778 15.7159 13.5504 13.6133Z" fill="#8292AA"/>
<path d="M12.2036 3.79256C12.9262 5.69625 14.9604 7.7951 17.7896 9.84766C17.9041 8.19235 18.1333 5.44807 18.5021 3.39448C18.9314 1.00373 14.7711 1.39752 12.2036 3.79256Z" fill="#8292AA"/>
<path d="M5.77002 4.76758C8.59591 3.64679 12.2763 3.11871 15.3228 4.2959C20.5327 6.30908 22.8732 10.861 22.0405 15.3486C21.603 17.7063 19.7304 19.4594 18.1245 20.5791C17.3043 21.151 16.5124 21.5867 15.9263 21.8789C15.6913 21.9961 15.4876 22.0893 15.3276 22.1611C15.0949 23.2554 14.6162 24.0342 14.0083 24.5654C13.3364 25.1524 12.5721 25.3807 11.98 25.4639C10.9777 25.6045 10.2937 24.5224 10.7798 23.6758L10.8755 23.4932C11.0972 23.0326 11.2835 22.3323 11.0991 21.3838C10.9322 20.5253 10.3244 20.0939 9.6665 19.8721L9.38232 19.7891C8.32593 19.5245 8.13239 18.0839 9.10498 17.5625L9.36279 17.4346C10.641 16.8492 11.7813 17.061 12.5942 17.4375C13.0187 17.6341 13.3544 17.8736 13.5835 18.0635C13.5974 18.075 13.6103 18.0874 13.6235 18.0986C14.5018 17.8102 15.3549 16.871 15.311 15.2314C15.2925 14.5401 14.8655 13.9711 13.8862 13.5527C12.8923 13.1281 11.461 12.933 9.81104 12.9902C8.02501 13.0522 5.92855 12.7871 4.23584 12.292C3.3916 12.0451 2.60856 11.7295 2.00635 11.3428C1.43413 10.9753 0.862623 10.4374 0.76709 9.69238C0.63011 8.62401 1.33678 7.6316 2.19092 6.86816C3.08793 6.0665 4.34809 5.33156 5.77002 4.76758Z" fill="#8292AA" stroke="#2B2751" stroke-width="1.5"/>
<path d="M12.7509 6.4918C12.3657 5.98119 10.5329 6.86864 9.71631 7.30034C9.85153 7.82461 9.93266 8.39604 9.92546 9.0055C10.8109 9.45873 12.3958 10.1759 12.7509 9.70527C13.25 9.04365 13.2376 8.09852 13.2376 8.09852C13.2376 8.09852 13.2501 7.15342 12.7509 6.4918Z" fill="#2B2751"/>
<path d="M8.64331 4.77148C4.67804 5.60077 1.28399 7.86888 1.51128 9.59208C1.70915 11.0923 5.86621 12.1717 9.23622 12.2053C11.0638 8.8686 9.59813 6.06893 8.64331 4.77148Z" fill="#8292AA"/>
<path d="M6.1016 8.22799C6.10989 7.90909 5.85807 7.64384 5.53914 7.63555C5.22021 7.62726 4.95495 7.87906 4.94665 8.19796C4.93836 8.51687 5.19018 8.78211 5.50911 8.7904C5.82804 8.7987 6.0933 8.5469 6.1016 8.22799Z" fill="#2B2751"/>
</svg>
