<svg width="24" height="23" viewBox="0 0 24 23" fill="none" xmlns="http://www.w3.org/2000/svg">
<path d="M6.46045 21.4158C6.46045 21.6669 6.58599 21.9032 6.80014 22.0361C7.01429 22.169 7.28014 22.1912 7.50906 22.0878L11.2604 20.3524V17.6866C9.48075 17.5536 7.84137 16.9259 6.46045 15.9512V21.4158Z" fill="#FCFCFD"/>
<path d="M12.7363 20.3524L16.4877 22.0878C16.5837 22.1321 16.6945 22.1542 16.7979 22.1542C16.9382 22.1542 17.0785 22.1173 17.1966 22.0361C17.4108 21.9032 17.5363 21.6669 17.5363 21.4158V15.9512C16.1554 16.9259 14.516 17.5462 12.7363 17.6866V20.3524Z" fill="#FCFCFD"/>
<path d="M11.9981 0C7.51561 0 3.875 3.64061 3.875 8.12307C3.875 12.6055 7.51561 16.2461 11.9981 16.2461C16.4805 16.2461 20.1211 12.6055 20.1211 8.12307C20.1211 3.64061 16.4805 0 11.9981 0ZM7.5673 8.86153H7.19807C6.79192 8.86153 6.45961 8.52922 6.45961 8.12307C6.45961 7.71691 6.79192 7.3846 7.19807 7.3846H7.5673C7.97346 7.3846 8.30576 7.71691 8.30576 8.12307C8.30576 8.52922 7.97346 8.86153 7.5673 8.86153ZM11.3187 7.3846H12.6701C13.8221 7.3846 14.7599 8.32245 14.7599 9.47445C14.7599 10.6264 13.8516 11.5274 12.7291 11.5569V12.1772C12.7291 12.5834 12.3968 12.9157 11.9907 12.9157C11.5845 12.9157 11.2522 12.5834 11.2522 12.1772V11.5643H9.95991C9.55376 11.5643 9.22145 11.232 9.22145 10.8258C9.22145 10.4197 9.55376 10.0874 9.95991 10.0874H12.6701C13.0098 10.0874 13.283 9.81414 13.283 9.47445C13.283 9.13476 13.0098 8.86153 12.6701 8.86153H11.3187C10.1667 8.86153 9.22884 7.92368 9.22884 6.77168C9.22884 5.61968 10.1371 4.71876 11.2596 4.68922V4.06892C11.2596 3.66276 11.5919 3.33046 11.9981 3.33046C12.4042 3.33046 12.7365 3.66276 12.7365 4.06892V4.68184H14.0288C14.435 4.68184 14.7673 5.01415 14.7673 5.4203C14.7673 5.82645 14.435 6.15876 14.0288 6.15876H11.3187C10.979 6.15876 10.7058 6.43199 10.7058 6.77168C10.7058 7.11137 10.979 7.3846 11.3187 7.3846ZM16.7981 8.86153H16.4288C16.0227 8.86153 15.6904 8.52922 15.6904 8.12307C15.6904 7.71691 16.0227 7.3846 16.4288 7.3846H16.7981C17.2042 7.3846 17.5365 7.71691 17.5365 8.12307C17.5365 8.52922 17.2042 8.86153 16.7981 8.86153Z" fill="#FCFCFD"/>
<path d="M23.1994 7.50977H22.1354C21.6954 7.50977 21.3354 7.86977 21.3354 8.30977C21.3354 8.74977 21.6954 9.10977 22.1354 9.10977H23.1994C23.6395 9.10977 23.9995 8.74977 23.9995 8.30977C23.9995 7.86977 23.6395 7.50977 23.1994 7.50977Z" fill="#FCFCFD"/>
<path d="M21.5988 4.81423C21.7268 4.81423 21.8628 4.78223 21.9828 4.71823L22.9028 4.21423C23.2948 3.99823 23.4308 3.51823 23.2228 3.12623C23.0148 2.74223 22.5268 2.59823 22.1348 2.80623L21.2148 3.31023C20.8228 3.52623 20.6868 4.00623 20.8948 4.39823C21.0388 4.66223 21.3108 4.81423 21.5988 4.81423Z" fill="#FCFCFD"/>
<path d="M22.9029 12.4056L21.9829 11.9016C21.5989 11.6936 21.1109 11.8296 20.8949 12.2216C20.6789 12.6056 20.8229 13.0936 21.2149 13.3096L22.1349 13.8136C22.2549 13.8776 22.3909 13.9096 22.5189 13.9096C22.7989 13.9096 23.0789 13.7576 23.2229 13.4936C23.4389 13.1096 23.2949 12.6216 22.9029 12.4056Z" fill="#FCFCFD"/>
<path d="M1.864 9.10977C2.304 9.10977 2.664 8.74977 2.664 8.30977C2.664 7.86977 2.304 7.50977 1.864 7.50977H0.8C0.36 7.50977 0 7.86977 0 8.30977C0 8.74977 0.36 9.10977 0.8 9.10977H1.864Z" fill="#FCFCFD"/>
<path d="M2.78278 3.30989L1.86277 2.80589C1.47077 2.59789 0.990774 2.73389 0.774774 3.12589C0.558774 3.50989 0.702774 3.9979 1.09477 4.2139L2.01477 4.7179C2.13477 4.7819 2.27077 4.8139 2.39877 4.8139C2.67877 4.8139 2.95878 4.6619 3.10278 4.3979C3.31878 4.0139 3.17478 3.5259 2.78278 3.30989Z" fill="#FCFCFD"/>
<path d="M2.0166 11.9019L1.0966 12.4059C0.704598 12.6219 0.568598 13.1019 0.776598 13.4939C0.920598 13.7579 1.1926 13.9099 1.4806 13.9099C1.6086 13.9099 1.7446 13.8779 1.8646 13.8139L2.7846 13.3099C3.1766 13.0939 3.3126 12.6139 3.1046 12.2219C2.8886 11.8379 2.4086 11.6939 2.0166 11.9019Z" fill="#FCFCFD"/>
</svg>
