<svg width="22" height="19" viewBox="0 0 22 19" fill="none" xmlns="http://www.w3.org/2000/svg">
<path d="M15.7051 4.90728C15.0831 3.39878 14.0109 2.11888 12.6347 1.24212C11.2585 0.365359 9.64543 -0.0655748 8.01536 0.00808821C3.59685 0.00808821 0 3.08906 0 6.8806C0.0179866 7.91578 0.284225 8.93152 0.776333 9.84243C1.26844 10.7533 1.97204 11.5328 2.82798 12.1153L1.87762 14.0149C1.83899 14.104 1.82895 14.203 1.84889 14.298C1.86882 14.3931 1.91775 14.4797 1.98893 14.5458C2.06012 14.6119 2.15005 14.6543 2.24634 14.6672C2.34263 14.6801 2.44055 14.6628 2.52659 14.6177L4.93439 13.2328C5.5929 13.4616 6.27518 13.6151 6.96821 13.6904C7.90647 13.6904 7.2091 12.4871 7.31689 11.9217C7.31689 8.38314 10.8191 5.50676 15.1156 5.50676C15.1984 5.52954 15.2859 5.52975 15.3688 5.50735C15.4518 5.48496 15.5273 5.44079 15.5874 5.37941C15.6475 5.31803 15.6902 5.24169 15.7109 5.15828C15.7316 5.07488 15.7296 4.98746 15.7051 4.90508M5.00589 5.48146C4.64211 5.48146 4.29323 5.33695 4.03599 5.07971C3.77876 4.82248 3.63425 4.4736 3.63425 4.10982C3.63789 3.74574 3.78602 3.39803 4.04604 3.14317C4.30605 2.88831 4.65667 2.74718 5.02074 2.75082C5.38481 2.75447 5.73253 2.9026 5.98739 3.16261C6.24225 3.42263 6.38338 3.77324 6.37973 4.13732C6.37309 4.49727 6.2252 4.84018 5.96798 5.09206C5.71075 5.34394 5.3648 5.48459 5.00479 5.48366M10.5046 5.48366C10.1424 5.47887 9.7968 5.33101 9.54324 5.07236C9.28967 4.81371 9.1487 4.46526 9.1511 4.10306C9.15349 3.74086 9.29906 3.39431 9.55603 3.13904C9.81299 2.88376 10.1605 2.74049 10.5227 2.74049C10.8849 2.74049 11.2324 2.88376 11.4894 3.13904C11.7464 3.39431 11.8919 3.74086 11.8943 4.10306C11.8967 4.46526 11.7558 4.81371 11.5022 5.07236C11.2486 5.33101 10.903 5.47887 10.5409 5.48366H10.5046Z" fill="#FCFCFD"/>
<path d="M21.9986 11.9236C21.9986 8.89103 18.9187 6.42383 15.1272 6.42383C11.3356 6.42383 8.24365 8.83053 8.24365 11.9236C8.24365 15.0167 11.3356 17.4234 15.1272 17.4234C15.8374 17.4264 16.545 17.3376 17.2325 17.1594L19.5072 18.3022C19.5912 18.345 19.6864 18.3607 19.7797 18.3474C19.873 18.334 19.9599 18.2921 20.0285 18.2275C20.0971 18.1628 20.1441 18.0786 20.163 17.9862C20.1819 17.8939 20.1718 17.798 20.1342 17.7116L19.5193 16.1595C20.2512 15.7142 20.8609 15.0939 21.2937 14.3545C21.7264 13.6152 21.9687 12.7798 21.9986 11.9236ZM12.8283 11.0084C12.5857 11.0084 12.3531 10.9121 12.1815 10.7406C12.01 10.569 11.9136 10.3364 11.9136 10.0938C11.9136 9.85125 12.01 9.61862 12.1815 9.4471C12.3531 9.27557 12.5857 9.17921 12.8283 9.17921C13.0719 9.17948 13.3057 9.27564 13.479 9.4469C13.6523 9.61815 13.7512 9.85074 13.7544 10.0944C13.7518 10.3381 13.653 10.5709 13.4795 10.7421C13.3061 10.9133 13.072 11.009 12.8283 11.0084ZM17.4129 11.0084C17.2901 11.0127 17.1677 10.9922 17.053 10.9481C16.9383 10.9041 16.8337 10.8374 16.7453 10.7521C16.657 10.6667 16.5867 10.5644 16.5387 10.4514C16.4907 10.3383 16.466 10.2167 16.466 10.0938C16.466 9.97097 16.4907 9.84938 16.5387 9.73629C16.5867 9.6232 16.657 9.52094 16.7453 9.43559C16.8337 9.35024 16.9383 9.28355 17.053 9.23951C17.1677 9.19546 17.2901 9.17495 17.4129 9.17921C17.6499 9.18744 17.8746 9.2874 18.0394 9.45802C18.2042 9.62865 18.2963 9.8566 18.2963 10.0938C18.2963 10.331 18.2042 10.559 18.0394 10.7296C17.8746 10.9003 17.6499 11.0002 17.4129 11.0084Z" fill="#FCFCFD"/>
</svg>
