<svg width="19" height="18" viewBox="0 0 19 18" fill="none" xmlns="http://www.w3.org/2000/svg">
<path d="M8.45802 0.558066C8.82466 -0.185791 9.8853 -0.18579 10.2519 0.558066L12.3672 4.84957C12.5126 5.14462 12.7939 5.34928 13.1193 5.39692L17.8536 6.08991C18.6731 6.20986 18.9999 7.21693 18.407 7.79522L14.9811 11.137C14.7456 11.3666 14.6381 11.6974 14.6937 12.0216L15.5017 16.7399C15.6417 17.5571 14.7837 18.1799 14.0501 17.7935L9.82096 15.5662C9.52929 15.4126 9.18067 15.4126 8.889 15.5662L4.65985 17.7935C3.92631 18.1799 3.06827 17.5571 3.20822 16.7399L4.0163 12.0216C4.07182 11.6974 3.96436 11.3666 3.7289 11.137L0.302931 7.79522C-0.289934 7.21693 0.0368875 6.20986 0.856351 6.08991L5.59063 5.39692C5.9161 5.34928 6.19733 5.14462 6.34276 4.84957L8.45802 0.558066Z" fill="#FCFCFD"/>
</svg>
