<svg width="21" height="25" viewBox="0 0 21 25" fill="none" xmlns="http://www.w3.org/2000/svg">
<path d="M12.2478 12.7082C11.4443 11.9495 10.0085 11.4718 8.23096 11.248C8.59941 12.1232 9.19284 13.5853 9.54921 14.7367C9.9641 16.0771 11.7135 14.6707 12.2478 12.7082Z" fill="white"/>
<path d="M10.9905 3.54193C11.665 5.31871 13.5635 7.27764 16.2041 9.19336C16.311 7.64841 16.5249 5.08708 16.8691 3.1704C17.2699 0.939032 13.3869 1.30656 10.9905 3.54193Z" fill="white"/>
<path d="M1.01074 8.95801C0.685621 6.42222 8.41163 2.64007 13.6494 4.66406C18.2162 6.42894 20.1945 10.3605 19.4824 14.1982C18.7715 18.0295 13.3029 20.184 13.2842 20.1914C12.9686 22.3715 11.613 22.9437 10.6836 23.0742C10.3433 23.1216 10.0957 22.7483 10.2686 22.4473C10.5784 21.9076 10.8803 21.0279 10.6465 19.8252C10.3912 18.5128 9.34039 17.9956 8.52734 17.792C8.15593 17.699 8.09052 17.1901 8.42871 17.0088C10.5383 15.8779 12.1104 17.6602 12.1104 17.6602C13.4146 17.4711 14.6444 16.2339 14.5898 14.1982C14.5353 12.1625 11.9182 11.3143 8.7334 11.4248C5.54849 11.5353 1.20514 10.4736 1.01074 8.95801ZM11.501 6.05957C11.1412 5.58325 9.431 6.41157 8.66895 6.81445C8.79508 7.30361 8.87094 7.83668 8.86426 8.40527C9.69055 8.82825 11.1694 9.49759 11.501 9.05859C11.9668 8.44108 11.9561 7.55859 11.9561 7.55859C11.9563 7.53569 11.9607 6.66889 11.501 6.05957ZM4.77051 7.12695C4.47284 7.11921 4.22551 7.3547 4.21777 7.65234C4.21007 7.94994 4.44457 8.19731 4.74219 8.20508C5.03973 8.21281 5.28698 7.97813 5.29492 7.68066C5.30266 7.38309 5.06807 7.13481 4.77051 7.12695Z" fill="white"/>
</svg>
