<svg width="17" height="20" viewBox="0 0 17 20" fill="none" xmlns="http://www.w3.org/2000/svg">
<path d="M10.2585 12.0503V11.2552C10.2585 11.2552 12.8154 11.3317 14.029 10.1135C14.029 10.1135 12.2604 9.62422 12.582 6.46417C12.8983 3.30413 12.1878 0.531441 9.59986 0.765896C9.59986 0.765896 8.47962 -0.559285 6.24952 0.276598C5.49232 0.567119 3.43854 1.29087 3.54227 5.66397C3.646 10.0422 1.96045 10.0676 1.96045 10.0676C1.96045 10.0676 2.83175 11.3113 5.78275 11.2858V12.1013L8.02494 18.5337L10.2637 12.1064L10.2585 12.0503Z" fill="white"/>
<path d="M8.02583 18.538L8.02489 18.5352L8.02295 18.5409L8.02317 18.5413L8.02583 18.538Z" fill="black"/>
<path d="M15.839 16.1873C15.6937 15.3922 15.1699 14.7143 14.4335 14.3525L11.6069 12.9814C11.4462 12.905 11.2854 12.8132 11.1246 12.7266L12.0166 15.3107L10.7719 15.2138L8.02559 18.5341L8.02839 18.5421L8.02367 18.5364L8.0232 18.537L8.02351 18.5362L5.27965 15.2189L4.03494 15.3158L4.94254 12.7317L4.37723 13.0171L1.62331 14.3525C0.886857 14.7092 0.363041 15.3922 0.217824 16.1873L0 17.3698C2.08489 18.9957 4.91661 19.9998 8.02839 19.9998C11.1454 19.9998 13.9719 18.9957 16.0568 17.3698L15.839 16.1873Z" fill="white"/>
</svg>
