<svg width="20" height="20" viewBox="0 0 20 20" fill="none" xmlns="http://www.w3.org/2000/svg">
<path d="M13.4287 0.642218C13.2251 0.438611 12.9834 0.2771 12.7174 0.166908C12.4515 0.0567154 12.1664 0 11.8785 0C11.5905 0 11.3055 0.0567154 11.0395 0.166908C10.7735 0.2771 10.5318 0.438611 10.3282 0.642218L0.642178 10.3289C0.438584 10.5324 0.277083 10.7741 0.166897 11.0402C0.0567118 11.3062 0 11.5913 0 11.8792C0 12.1671 0.0567118 12.4522 0.166897 12.7182C0.277083 12.9843 0.438584 13.226 0.642178 13.4295L1.61304 14.4005C2.12289 14.9103 2.84822 14.8226 3.2992 14.5758C3.59612 14.4138 3.93752 14.3523 4.27231 14.4005C4.60711 14.4487 4.9173 14.604 5.15647 14.8432C5.39565 15.0824 5.55095 15.3926 5.59914 15.7274C5.64733 16.0622 5.58582 16.4037 5.42381 16.7006C5.17828 17.1516 5.09059 17.8782 5.59919 18.3881L6.57005 19.3578C6.77362 19.5614 7.01531 19.7229 7.2813 19.8331C7.54729 19.9433 7.83238 20 8.12029 20C8.4082 20 8.69329 19.9433 8.95929 19.8331C9.22528 19.7229 9.46696 19.5614 9.67053 19.3578L19.3578 9.67114C19.5614 9.46755 19.7229 9.22586 19.8331 8.95985C19.9433 8.69384 20 8.40873 20 8.1208C20 7.83287 19.9433 7.54776 19.8331 7.28176C19.7229 7.01575 19.5614 6.77405 19.3578 6.57046L18.3857 5.59954C17.8771 5.09091 17.1518 5.17735 16.7008 5.42415C16.4039 5.58617 16.0625 5.64768 15.7277 5.59949C15.3929 5.5513 15.0827 5.39598 14.8435 5.15679C14.6044 4.9176 14.449 4.6074 14.4009 4.27258C14.3527 3.93776 14.4142 3.59635 14.5762 3.2994C14.8217 2.8484 14.9094 2.12177 14.4008 1.61314L13.4287 0.642218Z" fill="white"/>
<path d="M8.01758 3.01758L17.5176 11.5176" stroke="#242B35" stroke-width="0.5"/>
<path d="M3.01758 8.01758L12.5176 16.5176" stroke="#242B35" stroke-width="0.5"/>
</svg>
