<svg width="22" height="22" viewBox="0 0 22 22" fill="none" xmlns="http://www.w3.org/2000/svg">
<path d="M11 0C17.0751 0 22 4.92487 22 11C22 17.0751 17.0751 22 11 22C4.92487 22 0 17.0751 0 11C0 4.92487 4.92487 0 11 0ZM11.002 2.11523C6.09512 2.11523 2.11719 6.09316 2.11719 11C2.11727 15.9068 6.09517 19.8848 11.002 19.8848C15.9084 19.8844 19.8866 15.9066 19.8867 11C19.8867 6.09337 15.9085 2.11558 11.002 2.11523ZM11.3818 3.625C15.2834 3.82304 18.3867 7.04921 18.3867 11L18.377 11.3799C18.1792 15.2815 14.9526 18.3844 11.002 18.3848L10.6221 18.375C6.84601 18.1837 3.81839 15.1559 3.62695 11.3799L3.61719 11C3.61719 6.92159 6.92354 3.61523 11.002 3.61523L11.3818 3.625ZM11.001 5.46094C10.9774 5.48727 8.17446 8.61199 7.56738 9.26367C6.36599 10.5524 6.65474 12.2631 7.30273 13.0078C7.79002 13.5679 8.38938 13.9814 9.11816 13.9814C9.98314 13.9811 10.6751 13.1675 11.001 12.2773V12.2793C11.0001 14.3977 9.62332 16.5372 8.44629 16.5381H13.5586C12.3814 16.5381 11.0028 14.3981 11.002 12.2793C11.3281 13.1689 12.0148 13.9814 12.8799 13.9814C13.6086 13.9813 14.2021 13.5624 14.6953 13.0078C15.3572 12.2631 15.6312 10.5522 14.4307 9.26367C13.824 8.61243 11.0239 5.48657 11.001 5.46094Z" fill="white"/>
</svg>
