<svg width="21" height="20" viewBox="0 0 21 20" fill="none" xmlns="http://www.w3.org/2000/svg">
<path d="M16.8178 10.1374C17.1168 10.8027 16.5337 11.5353 15.8236 11.3783C14.2538 11.0344 11.7646 10.8849 8.81941 12.0436L5.79199 5.12912C8.64 3.7537 10.2172 1.82513 11.032 0.43476C11.3983 -0.193148 12.3252 -0.125872 12.6168 0.539412C14.0231 3.74061 15.4185 6.93116 16.8178 10.1374Z" fill="white"/>
<path d="M17.3881 0.361902C17.045 0.228845 16.6533 0.397035 16.5172 0.743879L16.0762 1.87187C15.9409 2.21722 16.1113 2.60742 16.4582 2.74347C16.5382 2.77486 16.6211 2.78981 16.7026 2.78981C16.971 2.78981 17.2251 2.6276 17.329 2.36149L17.7701 1.2335C17.9061 0.887401 17.7349 0.497201 17.3881 0.361902Z" fill="white"/>
<path d="M20.1689 6.71113L19.0409 6.2701C18.694 6.13705 18.3053 6.30524 18.1693 6.65208C18.0332 6.99818 18.2044 7.38838 18.5505 7.52368L19.6785 7.96471C19.7592 7.9961 19.8422 8.01105 19.9237 8.01105C20.1921 8.01105 20.4462 7.84884 20.5501 7.58273C20.6862 7.23663 20.515 6.84643 20.1689 6.71113Z" fill="white"/>
<path d="M18.7792 4.72838C18.8697 4.72838 18.9609 4.71044 19.0491 4.67157L20.1584 4.18569C20.4985 4.03693 20.6532 3.64001 20.5045 3.29989C20.355 2.95903 19.9588 2.80354 19.6179 2.95379L18.5086 3.43967C18.1685 3.58843 18.0138 3.98536 18.1625 4.32547C18.2731 4.57813 18.5206 4.72838 18.7792 4.72838Z" fill="white"/>
<path d="M10.6125 17.8079L8.73777 13.5254L5.98096 14.7326L7.85571 19.0151C8.1891 19.7761 9.07639 20.1229 9.83736 19.7903C10.5983 19.4576 10.9459 18.5696 10.6125 17.8079Z" fill="white"/>
<path d="M4.57068 5.6875L1.5343 7.01732C0.238867 7.58468 -0.351666 9.09465 0.215694 10.3908L1.17251 12.5758C1.73987 13.8712 3.24984 14.4618 4.54602 13.8944L7.5824 12.5646L4.57068 5.6875Z" fill="white"/>
</svg>
