<svg width="21" height="21" viewBox="0 0 21 21" fill="none" xmlns="http://www.w3.org/2000/svg">
<path d="M19.9699 11.2541C19.8256 13.0671 19.1639 14.8006 18.0634 16.2487C16.9629 17.6967 15.4699 18.7984 13.7617 19.4229C12.0535 20.0474 10.2019 20.1683 8.42701 19.7715C6.65208 19.3746 5.02837 18.4766 3.74879 17.1841C2.46921 15.8916 1.58755 14.2589 1.20855 12.4801C0.829552 10.7013 0.969149 8.85104 1.61076 7.14921C2.25236 5.44737 3.36901 3.96549 4.82803 2.87961C6.28706 1.79372 8.02713 1.14949 9.84151 1.02344" stroke="#FCFCFD" stroke-width="2" stroke-linecap="round" stroke-linejoin="round"/>
<path d="M14.5745 12.093C14.3106 12.7723 13.8815 13.3751 13.3261 13.8469C12.7706 14.3187 12.1063 14.6446 11.3933 14.7951C10.6802 14.9457 9.94087 14.9161 9.24211 14.7091C8.54335 14.502 7.90722 14.1241 7.39123 13.6094C6.87524 13.0948 6.49568 12.4596 6.28687 11.7614C6.07805 11.0632 6.04657 10.3239 6.19527 9.61047C6.34397 8.89703 6.66816 8.2319 7.13852 7.67523C7.60889 7.11857 8.21059 6.68793 8.88922 6.42225M10.4969 10.4999L14.1507 6.84609M14.1507 6.84609L17.0738 7.57686L19.9968 4.65381L17.0738 3.92305L16.343 1L13.4199 3.92305L14.1507 6.84609Z" stroke="#FCFCFD" stroke-width="2" stroke-linecap="round" stroke-linejoin="round"/>
</svg>
