<svg width="24" height="17" viewBox="0 0 24 17" fill="none" xmlns="http://www.w3.org/2000/svg">
<path d="M8.97015 15C9.14345 13.386 9.449 11.8403 9.88682 10.3629C10.3337 8.87703 10.9494 7.48505 11.7338 6.18702C12.5182 4.88044 13.4167 3.85141 14.4291 3.09991L7 3.39453V0H17.2201L18 2.31853C17.5896 2.65158 17.1882 3.14261 16.796 3.79163C16.4038 4.43211 16.0253 5.21776 15.6604 6.14859C15.3047 7.07088 15.0174 8.18531 14.7985 9.49189C14.5796 10.7985 14.4701 12.1776 14.4701 13.6294C14.4701 14.082 14.4838 14.5389 14.5112 15H8.97015Z" fill="white"/>
<path d="M16.2237 15.2697C16.5653 14.2434 16.9791 13.2799 17.4651 12.3791C17.9581 11.474 18.5422 10.6534 19.2176 9.91722C19.8942 9.17552 20.6014 8.63018 21.3391 8.28122L16.6819 7.44523L17.1738 5.23633L23.522 6.65013L23.6704 8.26673C23.3672 8.42668 23.0468 8.69069 22.7091 9.05876C22.3727 9.42128 22.0237 9.88016 21.6622 10.4354C21.3075 10.9864 20.9676 11.6718 20.6423 12.4917C20.3169 13.3117 20.0491 14.194 19.8387 15.1387C19.7731 15.4332 19.7154 15.7324 19.6655 16.0363L16.2237 15.2697Z" fill="white"/>
<path d="M4.38305 16.3116C4.14376 15.2568 3.99878 14.2182 3.9481 13.1959C3.9011 12.1663 3.97587 11.1618 4.17239 10.1823C4.36709 9.19745 4.68966 8.36472 5.1401 7.68413L0.723042 9.38074L0 7.23633L6.16284 5.15837L7.12695 6.46448C6.95039 6.75833 6.81297 7.15012 6.71471 7.63986C6.61463 8.12421 6.55372 8.69749 6.53199 9.3597C6.51393 10.0147 6.57806 10.7771 6.72436 11.647C6.87066 12.5169 7.09842 13.4104 7.40765 14.3275C7.50405 14.6134 7.60962 14.8993 7.72435 15.185L4.38305 16.3116Z" fill="white"/>
</svg>
