<svg width="20" height="20" viewBox="0 0 20 20" fill="none" xmlns="http://www.w3.org/2000/svg">
<path d="M17.9927 6.6006C17.7677 6.49226 17.4844 6.52559 17.2927 6.69226L14.226 9.40898L10.5426 2.81719C10.3259 2.42552 9.67589 2.42552 9.45922 2.81719L5.77582 9.40898L2.7091 6.69226C2.51743 6.52559 2.24243 6.49226 2.00909 6.6006C1.78408 6.71726 1.65075 6.96727 1.66741 7.21727L2.34243 14.5841H17.6594L18.3344 7.21727C18.3511 6.96727 18.2177 6.71726 17.9927 6.6006ZM11.5509 10.784L10.5092 12.2424C10.3926 12.4007 10.2009 12.5007 10.0009 12.5007C9.8009 12.5007 9.60923 12.4007 9.49256 12.2424L8.45087 10.784C8.29254 10.5673 8.29254 10.2673 8.45087 10.0507L9.49256 8.5923C9.72589 8.26729 10.2759 8.26729 10.5092 8.5923L11.5509 10.0507C11.7093 10.2673 11.7093 10.5673 11.5509 10.784Z" fill="#FCFCFD"/>
<path d="M10.0002 3.33339C9.08101 3.33339 8.3335 2.58588 8.3335 1.6667C8.3335 0.747514 9.08101 0 10.0002 0C10.9194 0 11.6669 0.747514 11.6669 1.6667C11.6669 2.58588 10.9194 3.33339 10.0002 3.33339Z" fill="#FCFCFD"/>
<path d="M18.3342 7.49941C17.415 7.49941 16.6675 6.7519 16.6675 5.83271C16.6675 4.91353 17.415 4.16602 18.3342 4.16602C19.2534 4.16602 20.0009 4.91353 20.0009 5.83271C20.0009 6.7519 19.2534 7.49941 18.3342 7.49941Z" fill="#FCFCFD"/>
<path d="M1.6667 7.49941C0.747514 7.49941 0 6.7519 0 5.83271C0 4.91353 0.747514 4.16602 1.6667 4.16602C2.58588 4.16602 3.33339 4.91353 3.33339 5.83271C3.33339 6.7519 2.58588 7.49941 1.6667 7.49941Z" fill="#FCFCFD"/>
<path d="M17.917 20.0007H2.08337C0.935017 20.0007 0 19.0657 0 17.9174C0 16.769 0.935017 15.834 2.08337 15.834H17.917C19.0653 15.834 20.0004 16.769 20.0004 17.9174C20.0004 19.0657 19.0653 20.0007 17.917 20.0007Z" fill="#FCFCFD"/>
</svg>
