<svg width="24" height="16" viewBox="0 0 24 16" fill="none" xmlns="http://www.w3.org/2000/svg">
<path d="M15.1113 0C19.5295 0.000121267 23.1113 3.5818 23.1113 8C23.1113 12.4182 19.5295 15.9999 15.1113 16H8C3.58173 16 0 12.4183 0 8C0 3.58172 3.58172 0 8 0H15.1113ZM8 2.05469C4.71706 2.05475 2.05572 4.71608 2.05566 7.99902C2.05566 11.282 4.71702 13.9433 8 13.9434H15.1113C18.3943 13.9433 21.0557 11.282 21.0557 7.99902C21.0556 4.71608 18.3943 2.05475 15.1113 2.05469H8ZM15.3398 3.56055C17.6882 3.67954 19.5556 5.62115 19.5557 7.99902C19.5557 10.3769 17.6882 12.3185 15.3398 12.4375L15.1113 12.4434H8C5.54545 12.4433 3.55566 10.4536 3.55566 7.99902C3.55572 5.54451 5.54549 3.55475 8 3.55469H15.1113L15.3398 3.56055ZM6.90625 6C6.71333 6 6.55664 6.15675 6.55664 6.34961V9.95801C6.55664 10.1509 6.71339 10.3076 6.90625 10.3076H9.00098C9.19384 10.3076 9.35064 10.1509 9.35059 9.95801V6.34961C9.35059 6.15669 9.19384 6 9.00098 6H6.90625ZM10.7959 6C10.603 6 10.4463 6.15678 10.4463 6.34961V9.95898C10.4465 10.1517 10.6032 10.3076 10.7959 10.3076H12.8906C13.0834 10.3076 13.24 10.1517 13.2402 9.95898V6.34961C13.2402 6.15673 13.0835 6 12.8906 6H10.7959ZM14.6826 6C14.4899 6.00022 14.334 6.15692 14.334 6.34961V9.95898C14.3342 10.1516 14.4901 10.3074 14.6826 10.3076H16.7783C16.9711 10.3076 17.1277 10.1517 17.1279 9.95898V6.34961C17.1279 6.15673 16.9712 6 16.7783 6H14.6826Z" fill="white"/>
</svg>
