<svg width="22" height="17" viewBox="0 0 22 17" fill="none" xmlns="http://www.w3.org/2000/svg">
<path d="M16.2626 6.48047H15.2051V8.01709H16.2626C16.6876 8.01709 17.031 7.6737 17.031 7.24889C17.031 6.82396 16.6876 6.48047 16.2626 6.48047Z" fill="#FCFCFD"/>
<path d="M20.7901 2.44964C19.9315 2.44964 19.2445 1.75361 19.2445 0.903919C19.2445 0.406775 18.8378 0 18.3406 0H3.35373C2.84748 0 2.44981 0.406775 2.44981 0.903919C2.44981 1.75361 1.75377 2.44964 0.903919 2.44964C0.397892 2.44964 0 2.85642 0 3.35356V12.9622C0 13.4593 0.397892 13.8661 0.903919 13.8661C1.75377 13.8661 2.44981 14.5531 2.44981 15.4118C2.44981 15.909 2.84748 16.3157 3.35373 16.3157H18.3406C18.8378 16.3157 19.2445 15.909 19.2445 15.4118C19.2445 14.5531 19.9315 13.8661 20.7901 13.8661C21.2873 13.8661 21.6941 13.4593 21.6941 12.9622V3.35356C21.6941 2.85642 21.2873 2.44964 20.7901 2.44964ZM8.58238 6.17478L6.64654 10.6908C6.52561 10.9733 6.24755 11.156 5.94036 11.156C5.93682 11.156 5.93329 11.156 5.92976 11.156C5.61904 11.1525 5.34098 10.961 5.22622 10.6723L3.43074 6.15624C3.2745 5.76166 3.46694 5.31499 3.86064 5.15787C4.2561 4.99986 4.701 5.19406 4.85901 5.58776L5.96684 8.37543L7.17 5.56922C7.33772 5.17817 7.79233 4.99986 8.17897 5.16581C8.56914 5.33265 8.74921 5.78461 8.58238 6.17478ZM11.7673 10.5575C11.7673 10.9821 11.4239 11.3255 10.9993 11.3255C10.5747 11.3255 10.2313 10.9821 10.2313 10.5575V5.75371C10.2313 5.32912 10.5747 4.98573 10.9993 4.98573C11.4239 4.98573 11.7673 5.32912 11.7673 5.75371V10.5575ZM16.2615 9.55443H15.204V10.5578C15.204 10.9826 14.8606 11.3262 14.4356 11.3262C14.0107 11.3262 13.6674 10.9826 13.6674 10.5578V5.71278C13.6674 5.28796 14.0107 4.94447 14.4356 4.94447H16.2615C17.5271 4.94447 18.5665 5.97484 18.5665 7.2495C18.5665 8.5149 17.5271 9.55443 16.2615 9.55443Z" fill="#FCFCFD"/>
</svg>
