<svg width="20" height="18" viewBox="0 0 20 18" fill="none" xmlns="http://www.w3.org/2000/svg">
<path d="M14.3337 7.9368C14.3337 7.62925 14.3337 7.47547 14.3799 7.33858C14.5141 6.94036 14.8688 6.78658 15.2244 6.6248C15.6226 6.44258 15.8217 6.35191 16.0199 6.33591C16.2439 6.31813 16.4688 6.36613 16.6608 6.47369C16.915 6.61591 17.0928 6.88791 17.2741 7.10836C18.1124 8.12702 18.5319 8.63636 18.6848 9.19724C18.8092 9.65058 18.8092 10.1252 18.6848 10.5777C18.4617 11.3972 17.755 12.0835 17.2315 12.7199C16.9639 13.0444 16.8297 13.207 16.6608 13.3021C16.4655 13.4104 16.2425 13.4584 16.0199 13.4399C15.8217 13.4239 15.6226 13.3332 15.2235 13.151C14.8679 12.9892 14.5141 12.8355 14.3799 12.4372C14.3337 12.3004 14.3337 12.1466 14.3337 11.839V7.9368ZM5.4448 7.9368C5.4448 7.54925 5.43413 7.20169 5.12124 6.92969C5.00746 6.83102 4.85635 6.76258 4.55502 6.6248C4.15591 6.44347 3.9568 6.35191 3.75857 6.33591C3.16569 6.28791 2.84657 6.69324 2.50524 7.10924C1.66613 8.12702 1.24657 8.63636 1.0928 9.19813C0.969068 9.64996 0.969068 10.1267 1.0928 10.5786C1.3168 11.3972 2.02435 12.0844 2.54702 12.7199C2.8768 13.1199 3.19235 13.4852 3.75857 13.4399C3.9568 13.4239 4.15591 13.3332 4.55502 13.151C4.85724 13.0141 5.00746 12.9448 5.12124 12.8461C5.43413 12.5741 5.4448 12.2266 5.4448 11.8399V7.9368Z" stroke="#8292AA" stroke-width="2" stroke-linecap="round" stroke-linejoin="round"/>
<path d="M3.6665 6.33333C3.6665 3.38756 6.45228 1 9.88873 1C13.3252 1 16.1109 3.38756 16.1109 6.33333M16.1109 13.4444V14.1556C16.1109 15.7262 14.5198 17 12.5554 17H10.7776" stroke="#8292AA" stroke-width="2" stroke-linecap="round" stroke-linejoin="round"/>
</svg>
