<svg width="18" height="22" viewBox="0 0 18 22" fill="none" xmlns="http://www.w3.org/2000/svg">
<path d="M10.991 13.1376V12.2708C10.991 12.2708 13.7305 12.3541 15.0308 11.0261C15.0308 11.0261 13.1359 10.4926 13.4804 7.04745C13.8194 3.60226 13.0581 0.579393 10.2853 0.835004C10.2853 0.835004 9.08505 -0.60975 6.69565 0.301556C5.88436 0.618291 3.68389 1.40735 3.79503 6.17504C3.90616 10.9483 2.10022 10.9761 2.10022 10.9761C2.10022 10.9761 3.03375 12.3319 6.19554 12.3041V13.1932L8.59789 20.206L10.9966 13.1988L10.991 13.1376Z" fill="#8292AA"/>
<path d="M8.59907 20.2079L8.59813 20.2051L8.59619 20.2108L8.59641 20.2112L8.59907 20.2079Z" fill="black"/>
<path d="M16.9703 17.65C16.8147 16.7831 16.2535 16.0441 15.4644 15.6496L12.436 14.1548C12.2637 14.0714 12.0915 13.9714 11.9192 13.877L12.875 16.6942L11.5414 16.5886L8.59884 20.2085L8.60184 20.2172L8.59679 20.211L8.59629 20.2116L8.59662 20.2108L5.65677 16.5942L4.32315 16.6998L5.29558 13.8825L4.68989 14.1937L1.73926 15.6496C0.950204 16.0385 0.388972 16.7831 0.233383 17.65L0 18.9391C2.23381 20.7118 5.2678 21.8064 8.60184 21.8064C11.9415 21.8064 14.9699 20.7118 17.2037 18.9391L16.9703 17.65Z" fill="#8292AA"/>
</svg>
