<svg width="194" height="40" viewBox="0 0 194 40" fill="none" xmlns="http://www.w3.org/2000/svg">
<g clip-path="url(#clip0_282_38069)">
<rect width="194" height="40" rx="8" fill="#CA6BEF"/>
<path d="M0 0H97.1985C97.1985 0 101.265 18.6364 116.313 27.7273C131.36 36.8182 154.542 40 154.542 40H0V0Z" fill="#B93DEB"/>
</g>
<g opacity="0.5">
<g opacity="0.5">
<rect width="16.1511" height="23.1572" rx="1" transform="matrix(0.932059 -0.362308 0.354809 0.934939 12 17.6016)" fill="#F4FFFB"/>
<g filter="url(#filter0_d_282_38069)">
<path d="M49.023 12.6448C49.5636 12.7569 49.9083 13.2851 49.7928 13.8249L43.1397 44.8497C43.0239 45.3897 42.4907 45.7371 41.9499 45.625L21.3492 41.3538C20.8084 41.2417 20.4638 40.7128 20.5796 40.1728L27.2325 9.14895C27.3483 8.60895 27.8815 8.26154 28.4223 8.37364L49.023 12.6448Z" fill="white"/>
<path d="M33.7624 33.7032L32.9964 32.6253C30.273 28.8091 28.476 26.2851 29.0086 23.7767C29.4452 21.7207 31.3754 20.4503 33.3987 20.8743C34.5418 21.1138 35.5244 21.8827 36.061 22.8777C36.9565 22.1828 38.168 21.8737 39.311 22.1132C41.3343 22.5372 42.5836 24.4739 42.147 26.5298C41.6144 29.0383 38.9443 30.6262 34.9014 33.0245L33.7624 33.7032Z" fill="#CA6BEF"/>
</g>
</g>
</g>
<path d="M78.872 25.14C78.004 25.14 77.2667 24.9907 76.66 24.692C76.0627 24.384 75.6053 23.95 75.288 23.39C74.9707 22.8207 74.7933 22.1393 74.756 21.346C74.7467 20.9633 74.742 20.5527 74.742 20.114C74.742 19.6753 74.7467 19.2553 74.756 18.854C74.7933 18.07 74.9707 17.3933 75.288 16.824C75.6147 16.2547 76.0767 15.8207 76.674 15.522C77.2807 15.214 78.0133 15.06 78.872 15.06C79.5067 15.06 80.076 15.144 80.58 15.312C81.084 15.48 81.5133 15.7133 81.868 16.012C82.2227 16.3013 82.498 16.642 82.694 17.034C82.89 17.426 82.9927 17.8507 83.002 18.308C83.0113 18.392 82.9833 18.462 82.918 18.518C82.862 18.574 82.792 18.602 82.708 18.602H81.378C81.2753 18.602 81.1913 18.5787 81.126 18.532C81.0607 18.476 81.014 18.3873 80.986 18.266C80.8367 17.65 80.58 17.23 80.216 17.006C79.852 16.782 79.3993 16.67 78.858 16.67C78.2327 16.67 77.7333 16.8473 77.36 17.202C76.9867 17.5473 76.786 18.1213 76.758 18.924C76.73 19.6893 76.73 20.4733 76.758 21.276C76.786 22.0787 76.9867 22.6573 77.36 23.012C77.7333 23.3573 78.2327 23.53 78.858 23.53C79.3993 23.53 79.852 23.418 80.216 23.194C80.58 22.9607 80.8367 22.5407 80.986 21.934C81.014 21.8033 81.0607 21.7147 81.126 21.668C81.1913 21.6213 81.2753 21.598 81.378 21.598H82.708C82.792 21.598 82.862 21.626 82.918 21.682C82.9833 21.738 83.0113 21.808 83.002 21.892C82.9927 22.3493 82.89 22.774 82.694 23.166C82.498 23.558 82.2227 23.9033 81.868 24.202C81.5133 24.4913 81.084 24.72 80.58 24.888C80.076 25.056 79.5067 25.14 78.872 25.14ZM86.6083 25.14C86.123 25.14 85.6843 25.0467 85.2923 24.86C84.9003 24.664 84.5876 24.4073 84.3543 24.09C84.1303 23.7633 84.0183 23.3993 84.0183 22.998C84.0183 22.3447 84.2796 21.8267 84.8023 21.444C85.3343 21.052 86.0343 20.7907 86.9023 20.66L88.8203 20.38V20.086C88.8203 19.694 88.7223 19.3907 88.5263 19.176C88.3303 18.9613 87.9943 18.854 87.5183 18.854C87.1823 18.854 86.907 18.924 86.6923 19.064C86.487 19.1947 86.333 19.372 86.2303 19.596C86.1556 19.7173 86.0483 19.778 85.9083 19.778H84.8023C84.6996 19.778 84.6203 19.75 84.5643 19.694C84.5176 19.638 84.4943 19.5633 84.4943 19.47C84.5036 19.3207 84.5643 19.1387 84.6763 18.924C84.7883 18.7093 84.9656 18.504 85.2083 18.308C85.451 18.1027 85.7636 17.93 86.1463 17.79C86.529 17.65 86.991 17.58 87.5323 17.58C88.1203 17.58 88.615 17.6547 89.0163 17.804C89.427 17.944 89.7536 18.1353 89.9963 18.378C90.239 18.6207 90.4163 18.9053 90.5283 19.232C90.6403 19.5587 90.6963 19.904 90.6963 20.268V24.664C90.6963 24.7573 90.6636 24.8367 90.5983 24.902C90.533 24.9673 90.4536 25 90.3603 25H89.2263C89.1236 25 89.0396 24.9673 88.9743 24.902C88.9183 24.8367 88.8903 24.7573 88.8903 24.664V24.118C88.769 24.2953 88.6056 24.4633 88.4003 24.622C88.195 24.7713 87.943 24.8973 87.6443 25C87.355 25.0933 87.0096 25.14 86.6083 25.14ZM87.0843 23.81C87.411 23.81 87.705 23.74 87.9663 23.6C88.237 23.46 88.447 23.2453 88.5963 22.956C88.755 22.6573 88.8343 22.284 88.8343 21.836V21.542L87.4343 21.766C86.8836 21.85 86.473 21.9853 86.2023 22.172C85.9316 22.3587 85.7963 22.5873 85.7963 22.858C85.7963 23.0633 85.857 23.2407 85.9783 23.39C86.109 23.53 86.2723 23.6373 86.4683 23.712C86.6643 23.7773 86.8696 23.81 87.0843 23.81ZM95.2504 25.14C94.6904 25.14 94.2097 25.0747 93.8084 24.944C93.4164 24.8133 93.0944 24.65 92.8424 24.454C92.5904 24.258 92.4037 24.062 92.2824 23.866C92.161 23.67 92.0957 23.5067 92.0864 23.376C92.077 23.2733 92.105 23.194 92.1704 23.138C92.245 23.0727 92.3244 23.04 92.4084 23.04H93.5144C93.5517 23.04 93.5844 23.0447 93.6124 23.054C93.6404 23.0633 93.6777 23.0913 93.7244 23.138C93.8457 23.2407 93.9717 23.348 94.1024 23.46C94.2424 23.572 94.4057 23.67 94.5924 23.754C94.779 23.8287 95.0124 23.866 95.2924 23.866C95.6564 23.866 95.9597 23.796 96.2024 23.656C96.4544 23.5067 96.5804 23.2967 96.5804 23.026C96.5804 22.83 96.5244 22.6713 96.4124 22.55C96.3097 22.4287 96.1137 22.3213 95.8244 22.228C95.535 22.1253 95.1244 22.018 94.5924 21.906C94.0697 21.7847 93.6357 21.6307 93.2904 21.444C92.945 21.2573 92.6884 21.024 92.5204 20.744C92.3524 20.464 92.2684 20.1373 92.2684 19.764C92.2684 19.4 92.3757 19.0547 92.5904 18.728C92.8144 18.392 93.141 18.1167 93.5704 17.902C94.009 17.6873 94.5504 17.58 95.1944 17.58C95.6984 17.58 96.137 17.6453 96.5104 17.776C96.8837 17.8973 97.1917 18.0513 97.4344 18.238C97.6864 18.4247 97.8777 18.616 98.0084 18.812C98.139 18.9987 98.209 19.162 98.2184 19.302C98.2277 19.4047 98.1997 19.4887 98.1344 19.554C98.069 19.61 97.9944 19.638 97.9104 19.638H96.8744C96.8277 19.638 96.7857 19.6287 96.7484 19.61C96.711 19.5913 96.6737 19.568 96.6364 19.54C96.5337 19.4467 96.4217 19.3487 96.3004 19.246C96.179 19.1433 96.0297 19.0547 95.8524 18.98C95.6844 18.896 95.4604 18.854 95.1804 18.854C94.8257 18.854 94.555 18.9333 94.3684 19.092C94.1817 19.2413 94.0884 19.4327 94.0884 19.666C94.0884 19.8247 94.1304 19.9647 94.2144 20.086C94.3077 20.198 94.4897 20.3053 94.7604 20.408C95.031 20.5107 95.4417 20.618 95.9924 20.73C96.6177 20.842 97.1124 21.01 97.4764 21.234C97.8497 21.4487 98.111 21.7007 98.2604 21.99C98.419 22.27 98.4984 22.5827 98.4984 22.928C98.4984 23.348 98.3724 23.726 98.1204 24.062C97.8777 24.398 97.5137 24.664 97.0284 24.86C96.5524 25.0467 95.9597 25.14 95.2504 25.14ZM100.28 25C100.186 25 100.107 24.9673 100.042 24.902C99.9762 24.8367 99.9435 24.7573 99.9435 24.664V18.056C99.9435 17.9627 99.9762 17.8833 100.042 17.818C100.107 17.7527 100.186 17.72 100.28 17.72H101.442C101.544 17.72 101.624 17.7527 101.68 17.818C101.745 17.8833 101.778 17.9627 101.778 18.056V24.664C101.778 24.7573 101.745 24.8367 101.68 24.902C101.624 24.9673 101.544 25 101.442 25H100.28ZM100.224 16.516C100.121 16.516 100.037 16.488 99.9715 16.432C99.9155 16.3667 99.8875 16.2827 99.8875 16.18V15.172C99.8875 15.0787 99.9155 14.9993 99.9715 14.934C100.037 14.8687 100.121 14.836 100.224 14.836H101.498C101.6 14.836 101.684 14.8687 101.75 14.934C101.815 14.9993 101.848 15.0787 101.848 15.172V16.18C101.848 16.2827 101.815 16.3667 101.75 16.432C101.684 16.488 101.6 16.516 101.498 16.516H100.224ZM103.971 25C103.878 25 103.798 24.9673 103.733 24.902C103.668 24.8367 103.635 24.7573 103.635 24.664V18.056C103.635 17.9627 103.668 17.8833 103.733 17.818C103.798 17.7527 103.878 17.72 103.971 17.72H105.119C105.212 17.72 105.292 17.7527 105.357 17.818C105.422 17.8833 105.455 17.9627 105.455 18.056V18.63C105.698 18.3313 106.006 18.084 106.379 17.888C106.762 17.6827 107.233 17.58 107.793 17.58C108.362 17.58 108.857 17.7107 109.277 17.972C109.697 18.224 110.019 18.5833 110.243 19.05C110.476 19.5167 110.593 20.0767 110.593 20.73V24.664C110.593 24.7573 110.56 24.8367 110.495 24.902C110.43 24.9673 110.35 25 110.257 25H109.025C108.932 25 108.852 24.9673 108.787 24.902C108.722 24.8367 108.689 24.7573 108.689 24.664V20.814C108.689 20.2727 108.554 19.848 108.283 19.54C108.022 19.232 107.639 19.078 107.135 19.078C106.65 19.078 106.262 19.232 105.973 19.54C105.684 19.848 105.539 20.2727 105.539 20.814V24.664C105.539 24.7573 105.506 24.8367 105.441 24.902C105.376 24.9673 105.296 25 105.203 25H103.971ZM115.591 25.14C114.845 25.14 114.215 25.0093 113.701 24.748C113.197 24.4867 112.81 24.118 112.539 23.642C112.278 23.166 112.129 22.6107 112.091 21.976C112.082 21.808 112.077 21.6027 112.077 21.36C112.077 21.1173 112.082 20.912 112.091 20.744C112.129 20.1 112.283 19.5447 112.553 19.078C112.833 18.602 113.225 18.2333 113.729 17.972C114.243 17.7107 114.863 17.58 115.591 17.58C116.319 17.58 116.935 17.7107 117.439 17.972C117.953 18.2333 118.345 18.602 118.615 19.078C118.895 19.5447 119.054 20.1 119.091 20.744C119.101 20.912 119.105 21.1173 119.105 21.36C119.105 21.6027 119.101 21.808 119.091 21.976C119.054 22.6107 118.9 23.166 118.629 23.642C118.368 24.118 117.981 24.4867 117.467 24.748C116.963 25.0093 116.338 25.14 115.591 25.14ZM115.591 23.754C116.086 23.754 116.469 23.6 116.739 23.292C117.01 22.9747 117.159 22.5127 117.187 21.906C117.197 21.766 117.201 21.584 117.201 21.36C117.201 21.136 117.197 20.954 117.187 20.814C117.159 20.2167 117.01 19.7593 116.739 19.442C116.469 19.1247 116.086 18.966 115.591 18.966C115.097 18.966 114.714 19.1247 114.443 19.442C114.173 19.7593 114.023 20.2167 113.995 20.814C113.986 20.954 113.981 21.136 113.981 21.36C113.981 21.584 113.986 21.766 113.995 21.906C114.023 22.5127 114.173 22.9747 114.443 23.292C114.714 23.6 115.097 23.754 115.591 23.754Z" fill="white"/>
<defs>
<filter id="filter0_d_282_38069" x="8.55713" y="-2.64844" width="53.2578" height="61.293" filterUnits="userSpaceOnUse" color-interpolation-filters="sRGB">
<feFlood flood-opacity="0" result="BackgroundImageFix"/>
<feColorMatrix in="SourceAlpha" type="matrix" values="0 0 0 0 0 0 0 0 0 0 0 0 0 0 0 0 0 0 127 0" result="hardAlpha"/>
<feOffset dy="1"/>
<feGaussianBlur stdDeviation="6"/>
<feComposite in2="hardAlpha" operator="out"/>
<feColorMatrix type="matrix" values="0 0 0 0 0 0 0 0 0 0 0 0 0 0 0 0 0 0 0.45 0"/>
<feBlend mode="normal" in2="BackgroundImageFix" result="effect1_dropShadow_282_38069"/>
<feBlend mode="normal" in="SourceGraphic" in2="effect1_dropShadow_282_38069" result="shape"/>
</filter>
<clipPath id="clip0_282_38069">
<rect y="-2" width="194" height="44" rx="8" fill="white"/>
</clipPath>
</defs>
</svg>
