<svg width="194" height="40" viewBox="0 0 194 40" fill="none" xmlns="http://www.w3.org/2000/svg">
<g clip-path="url(#clip0_282_38081)">
<g clip-path="url(#clip1_282_38081)">
<rect width="194" height="40" rx="8" fill="#384252"/>
<path d="M0 0H87.8057C87.8057 0 91.4796 18.6364 105.073 27.7273C118.666 36.8182 139.607 40 139.607 40H0V0Z" fill="#242B35"/>
</g>
<path d="M78.494 25.14C77.626 25.14 76.898 25.014 76.31 24.762C75.7313 24.5007 75.288 24.1647 74.98 23.754C74.6813 23.334 74.5227 22.8953 74.504 22.438C74.504 22.354 74.532 22.284 74.588 22.228C74.644 22.172 74.714 22.144 74.798 22.144H76.044C76.1653 22.144 76.254 22.172 76.31 22.228C76.3753 22.2747 76.4313 22.3353 76.478 22.41C76.534 22.5873 76.6413 22.7647 76.8 22.942C76.9587 23.11 77.1733 23.25 77.444 23.362C77.724 23.474 78.074 23.53 78.494 23.53C79.166 23.53 79.6653 23.418 79.992 23.194C80.328 22.97 80.496 22.6667 80.496 22.284C80.496 22.0133 80.4073 21.7987 80.23 21.64C80.0527 21.472 79.7773 21.3227 79.404 21.192C79.04 21.052 78.5547 20.9073 77.948 20.758C77.248 20.59 76.66 20.3893 76.184 20.156C75.7173 19.9133 75.3627 19.61 75.12 19.246C74.8867 18.882 74.77 18.42 74.77 17.86C74.77 17.3187 74.9147 16.838 75.204 16.418C75.5027 15.998 75.9227 15.6667 76.464 15.424C77.0147 15.1813 77.668 15.06 78.424 15.06C79.0307 15.06 79.5673 15.144 80.034 15.312C80.5007 15.4707 80.888 15.6853 81.196 15.956C81.504 16.2173 81.7373 16.502 81.896 16.81C82.064 17.1087 82.1527 17.4027 82.162 17.692C82.162 17.7667 82.134 17.8367 82.078 17.902C82.0313 17.958 81.9613 17.986 81.868 17.986H80.566C80.4913 17.986 80.4167 17.9673 80.342 17.93C80.2673 17.8927 80.2067 17.8227 80.16 17.72C80.104 17.4307 79.922 17.1833 79.614 16.978C79.306 16.7727 78.9093 16.67 78.424 16.67C77.92 16.67 77.514 16.7633 77.206 16.95C76.898 17.1367 76.744 17.426 76.744 17.818C76.744 18.0793 76.8187 18.2987 76.968 18.476C77.1267 18.644 77.374 18.7933 77.71 18.924C78.0553 19.0547 78.508 19.1947 79.068 19.344C79.8613 19.5213 80.51 19.7267 81.014 19.96C81.518 20.1933 81.8867 20.492 82.12 20.856C82.3533 21.2107 82.47 21.6633 82.47 22.214C82.47 22.83 82.302 23.3573 81.966 23.796C81.6393 24.2253 81.1773 24.5567 80.58 24.79C79.9827 25.0233 79.2873 25.14 78.494 25.14ZM84.2564 27.66C84.1631 27.66 84.0838 27.6273 84.0184 27.562C83.9531 27.4967 83.9204 27.4173 83.9204 27.324V18.056C83.9204 17.9627 83.9531 17.8833 84.0184 17.818C84.0838 17.7527 84.1631 17.72 84.2564 17.72H85.3624C85.4651 17.72 85.5444 17.7527 85.6004 17.818C85.6658 17.8833 85.6984 17.9627 85.6984 18.056V18.616C85.9224 18.3173 86.2164 18.07 86.5804 17.874C86.9444 17.678 87.3971 17.58 87.9384 17.58C88.4331 17.58 88.8624 17.6593 89.2264 17.818C89.5904 17.9767 89.8938 18.2053 90.1364 18.504C90.3791 18.7933 90.5658 19.1387 90.6964 19.54C90.8271 19.9413 90.9018 20.3847 90.9204 20.87C90.9298 21.0287 90.9344 21.192 90.9344 21.36C90.9344 21.528 90.9298 21.696 90.9204 21.864C90.9111 22.3307 90.8411 22.7647 90.7104 23.166C90.5798 23.558 90.3884 23.9033 90.1364 24.202C89.8938 24.4913 89.5904 24.72 89.2264 24.888C88.8624 25.056 88.4331 25.14 87.9384 25.14C87.4344 25.14 87.0051 25.0513 86.6504 24.874C86.2958 24.6873 86.0064 24.4447 85.7824 24.146V27.324C85.7824 27.4173 85.7498 27.4967 85.6844 27.562C85.6284 27.6273 85.5491 27.66 85.4464 27.66H84.2564ZM87.4204 23.642C87.8218 23.642 88.1344 23.558 88.3584 23.39C88.5824 23.2127 88.7411 22.984 88.8344 22.704C88.9371 22.424 88.9978 22.116 89.0164 21.78C89.0351 21.5 89.0351 21.22 89.0164 20.94C88.9978 20.604 88.9371 20.296 88.8344 20.016C88.7411 19.736 88.5824 19.512 88.3584 19.344C88.1344 19.1667 87.8218 19.078 87.4204 19.078C87.0378 19.078 86.7251 19.1667 86.4824 19.344C86.2491 19.5213 86.0764 19.75 85.9644 20.03C85.8618 20.3007 85.8011 20.5807 85.7824 20.87C85.7731 21.038 85.7684 21.2153 85.7684 21.402C85.7684 21.5887 85.7731 21.7707 85.7824 21.948C85.7918 22.228 85.8571 22.4987 85.9784 22.76C86.0998 23.012 86.2771 23.222 86.5104 23.39C86.7438 23.558 87.0471 23.642 87.4204 23.642ZM95.726 25.14C94.9794 25.14 94.3494 25.0093 93.836 24.748C93.332 24.4867 92.9447 24.118 92.674 23.642C92.4127 23.166 92.2634 22.6107 92.226 21.976C92.2167 21.808 92.212 21.6027 92.212 21.36C92.212 21.1173 92.2167 20.912 92.226 20.744C92.2634 20.1 92.4174 19.5447 92.688 19.078C92.968 18.602 93.36 18.2333 93.864 17.972C94.3774 17.7107 94.998 17.58 95.726 17.58C96.454 17.58 97.07 17.7107 97.574 17.972C98.0874 18.2333 98.4794 18.602 98.75 19.078C99.03 19.5447 99.1887 20.1 99.226 20.744C99.2354 20.912 99.24 21.1173 99.24 21.36C99.24 21.6027 99.2354 21.808 99.226 21.976C99.1887 22.6107 99.0347 23.166 98.764 23.642C98.5027 24.118 98.1154 24.4867 97.602 24.748C97.098 25.0093 96.4727 25.14 95.726 25.14ZM95.726 23.754C96.2207 23.754 96.6034 23.6 96.874 23.292C97.1447 22.9747 97.294 22.5127 97.322 21.906C97.3314 21.766 97.336 21.584 97.336 21.36C97.336 21.136 97.3314 20.954 97.322 20.814C97.294 20.2167 97.1447 19.7593 96.874 19.442C96.6034 19.1247 96.2207 18.966 95.726 18.966C95.2314 18.966 94.8487 19.1247 94.578 19.442C94.3074 19.7593 94.158 20.2167 94.13 20.814C94.1207 20.954 94.116 21.136 94.116 21.36C94.116 21.584 94.1207 21.766 94.13 21.906C94.158 22.5127 94.3074 22.9747 94.578 23.292C94.8487 23.6 95.2314 23.754 95.726 23.754ZM101.127 25C101.034 25 100.955 24.9673 100.889 24.902C100.824 24.8367 100.791 24.7573 100.791 24.664V18.07C100.791 17.9673 100.824 17.8833 100.889 17.818C100.955 17.7527 101.034 17.72 101.127 17.72H102.261C102.355 17.72 102.434 17.7527 102.499 17.818C102.574 17.8833 102.611 17.9673 102.611 18.07V18.644C102.826 18.3453 103.101 18.1167 103.437 17.958C103.783 17.7993 104.179 17.72 104.627 17.72H105.201C105.304 17.72 105.383 17.7527 105.439 17.818C105.505 17.8833 105.537 17.9627 105.537 18.056V19.064C105.537 19.1573 105.505 19.2367 105.439 19.302C105.383 19.3673 105.304 19.4 105.201 19.4H104.109C103.661 19.4 103.311 19.526 103.059 19.778C102.817 20.03 102.695 20.3753 102.695 20.814V24.664C102.695 24.7573 102.663 24.8367 102.597 24.902C102.532 24.9673 102.448 25 102.345 25H101.127ZM109.919 25C109.359 25 108.888 24.902 108.505 24.706C108.122 24.51 107.838 24.2207 107.651 23.838C107.464 23.446 107.371 22.9607 107.371 22.382V19.204H106.265C106.172 19.204 106.092 19.1713 106.027 19.106C105.962 19.0407 105.929 18.9613 105.929 18.868V18.056C105.929 17.9627 105.962 17.8833 106.027 17.818C106.092 17.7527 106.172 17.72 106.265 17.72H107.371V15.396C107.371 15.3027 107.399 15.2233 107.455 15.158C107.52 15.0927 107.604 15.06 107.707 15.06H108.841C108.934 15.06 109.014 15.0927 109.079 15.158C109.144 15.2233 109.177 15.3027 109.177 15.396V17.72H110.927C111.02 17.72 111.1 17.7527 111.165 17.818C111.23 17.8833 111.263 17.9627 111.263 18.056V18.868C111.263 18.9613 111.23 19.0407 111.165 19.106C111.1 19.1713 111.02 19.204 110.927 19.204H109.177V22.242C109.177 22.6247 109.242 22.9233 109.373 23.138C109.513 23.3527 109.751 23.46 110.087 23.46H111.053C111.146 23.46 111.226 23.4927 111.291 23.558C111.356 23.6233 111.389 23.7027 111.389 23.796V24.664C111.389 24.7573 111.356 24.8367 111.291 24.902C111.226 24.9673 111.146 25 111.053 25H109.919ZM115.389 25.14C114.829 25.14 114.348 25.0747 113.947 24.944C113.555 24.8133 113.233 24.65 112.981 24.454C112.729 24.258 112.542 24.062 112.421 23.866C112.3 23.67 112.234 23.5067 112.225 23.376C112.216 23.2733 112.244 23.194 112.309 23.138C112.384 23.0727 112.463 23.04 112.547 23.04H113.653C113.69 23.04 113.723 23.0447 113.751 23.054C113.779 23.0633 113.816 23.0913 113.863 23.138C113.984 23.2407 114.11 23.348 114.241 23.46C114.381 23.572 114.544 23.67 114.731 23.754C114.918 23.8287 115.151 23.866 115.431 23.866C115.795 23.866 116.098 23.796 116.341 23.656C116.593 23.5067 116.719 23.2967 116.719 23.026C116.719 22.83 116.663 22.6713 116.551 22.55C116.448 22.4287 116.252 22.3213 115.963 22.228C115.674 22.1253 115.263 22.018 114.731 21.906C114.208 21.7847 113.774 21.6307 113.429 21.444C113.084 21.2573 112.827 21.024 112.659 20.744C112.491 20.464 112.407 20.1373 112.407 19.764C112.407 19.4 112.514 19.0547 112.729 18.728C112.953 18.392 113.28 18.1167 113.709 17.902C114.148 17.6873 114.689 17.58 115.333 17.58C115.837 17.58 116.276 17.6453 116.649 17.776C117.022 17.8973 117.33 18.0513 117.573 18.238C117.825 18.4247 118.016 18.616 118.147 18.812C118.278 18.9987 118.348 19.162 118.357 19.302C118.366 19.4047 118.338 19.4887 118.273 19.554C118.208 19.61 118.133 19.638 118.049 19.638H117.013C116.966 19.638 116.924 19.6287 116.887 19.61C116.85 19.5913 116.812 19.568 116.775 19.54C116.672 19.4467 116.56 19.3487 116.439 19.246C116.318 19.1433 116.168 19.0547 115.991 18.98C115.823 18.896 115.599 18.854 115.319 18.854C114.964 18.854 114.694 18.9333 114.507 19.092C114.32 19.2413 114.227 19.4327 114.227 19.666C114.227 19.8247 114.269 19.9647 114.353 20.086C114.446 20.198 114.628 20.3053 114.899 20.408C115.17 20.5107 115.58 20.618 116.131 20.73C116.756 20.842 117.251 21.01 117.615 21.234C117.988 21.4487 118.25 21.7007 118.399 21.99C118.558 22.27 118.637 22.5827 118.637 22.928C118.637 23.348 118.511 23.726 118.259 24.062C118.016 24.398 117.652 24.664 117.167 24.86C116.691 25.0467 116.098 25.14 115.389 25.14Z" fill="white"/>
<g opacity="0.4">
<g opacity="0.2" filter="url(#filter0_d_282_38081)">
<path d="M26.3609 10C22.203 10.1469 18.0867 11.7288 14.8116 14.7454L23.1915 23.1253C25.8117 20.1406 27.0101 15.6972 26.3609 10ZM27.8791 10.009C28.5195 15.9729 27.2264 20.8606 24.2589 24.1929L27 26.9338L39.1884 14.7454C35.9763 11.7867 31.9553 10.2075 27.8791 10.009ZM13.7454 15.8116C10.7287 19.0867 9.14691 23.203 9 27.3609C14.6972 28.01 19.1405 26.8117 22.1254 24.1915L13.7454 15.8116ZM40.2546 15.8116L28.0662 28L30.8059 30.7397C33.6382 28.2176 37.5945 26.9053 42.3798 26.9614C43.2248 26.9713 44.096 27.0245 44.991 27.1205C44.7925 23.0445 43.2131 19.0235 40.2546 15.8116H40.2546ZM23.1928 25.2588C19.8605 28.2263 14.9728 29.5195 9.00896 28.879C9.20747 32.9552 10.7868 36.9763 13.7455 40.1884L25.9338 28L23.1928 25.2588ZM42.0384 28.4642C37.7458 28.4677 34.3207 29.6611 31.8746 31.8085L40.2546 40.1884C43.2712 36.9133 44.853 32.797 44.9999 28.6391C43.9718 28.5218 42.9835 28.4635 42.0383 28.4643L42.0384 28.4642ZM27 29.0662L14.8116 41.2546C18.0237 44.2133 22.0447 45.7926 26.1209 45.9911C25.4805 40.0272 26.7736 35.1395 29.7411 31.8072L27 29.0662ZM30.8085 32.8747C28.1883 35.8594 26.99 40.3028 27.6391 46C31.797 45.8531 35.9133 44.2712 39.1884 41.2546L30.8085 32.8747Z" fill="#B1CFB7"/>
</g>
</g>
</g>
<defs>
<filter id="filter0_d_282_38081" x="-3" y="-2" width="60" height="60" filterUnits="userSpaceOnUse" color-interpolation-filters="sRGB">
<feFlood flood-opacity="0" result="BackgroundImageFix"/>
<feColorMatrix in="SourceAlpha" type="matrix" values="0 0 0 0 0 0 0 0 0 0 0 0 0 0 0 0 0 0 127 0" result="hardAlpha"/>
<feOffset/>
<feGaussianBlur stdDeviation="6"/>
<feComposite in2="hardAlpha" operator="out"/>
<feColorMatrix type="matrix" values="0 0 0 0 0 0 0 0 0 0 0 0 0 0 0 0 0 0 0.35 0"/>
<feBlend mode="normal" in2="BackgroundImageFix" result="effect1_dropShadow_282_38081"/>
<feBlend mode="normal" in="SourceGraphic" in2="effect1_dropShadow_282_38081" result="shape"/>
</filter>
<clipPath id="clip0_282_38081">
<rect width="194" height="40" rx="8" fill="white"/>
</clipPath>
<clipPath id="clip1_282_38081">
<rect width="194" height="40" rx="8" fill="white"/>
</clipPath>
</defs>
</svg>
