<svg width="22" height="22" viewBox="0 0 22 22" fill="none" xmlns="http://www.w3.org/2000/svg">
<circle cx="11" cy="11" r="11" fill="#8292AA"/>
<circle cx="11.0013" cy="10.9999" r="8.13462" fill="#8292AA" stroke="#2B2751" stroke-width="1.5"/>
<path d="M11.001 5.46094C11.001 5.46094 13.8215 8.60975 14.4307 9.26367C15.6315 10.5523 15.3573 12.2631 14.6953 13.0078C14.202 13.5625 13.6087 13.9814 12.8799 13.9814C12.0148 13.9814 11.3281 13.1689 11.002 12.2793C11.0028 14.3981 12.3814 16.5381 13.5586 16.5381H8.44629C9.62338 16.5375 11.0001 14.3978 11.001 12.2793V12.2773C10.6751 13.1676 9.98329 13.9813 9.11816 13.9814C8.38931 13.9814 7.79004 13.5679 7.30273 13.0078C6.65474 12.2631 6.36599 10.5524 7.56738 9.26367C8.17424 8.61224 10.978 5.48652 11.001 5.46094Z" fill="#2B2751"/>
</svg>
