<svg width="23" height="23" viewBox="0 0 23 23" fill="none" xmlns="http://www.w3.org/2000/svg">
<path d="M11.1719 1.58887C11.8855 0.366953 13.6551 0.526472 14.2041 1.77832L18.7061 12.0635H18.7051C19.263 13.3194 18.1704 14.7307 16.791 14.4258V14.4248C15.2274 14.0826 12.7159 13.9264 9.72363 15.1035L9.05176 15.3682L8.76172 14.707L5.51758 7.29785L5.22852 6.63672L5.87891 6.32227C8.59241 5.01181 10.1568 3.21541 11.0107 1.85449L11.1719 1.58887Z" fill="#8292AA" stroke="#2B2751" stroke-width="1.5"/>
<path d="M18.6296 1.89054C18.262 1.74798 17.8423 1.92818 17.6966 2.2998L17.224 3.50837C17.0791 3.87838 17.2617 4.29645 17.6333 4.44222C17.719 4.47586 17.8079 4.49188 17.8952 4.49188C18.1827 4.49188 18.455 4.31808 18.5664 4.03296L19.0389 2.82439C19.1847 2.45358 19.0013 2.03551 18.6296 1.89054Z" fill="#8292AA"/>
<path d="M21.609 8.6912L20.4004 8.21867C20.0288 8.07611 19.6123 8.25631 19.4666 8.62793C19.3208 8.99875 19.5042 9.41682 19.875 9.56178L21.0836 10.0343C21.1701 10.068 21.259 10.084 21.3463 10.084C21.6338 10.084 21.9061 9.91017 22.0175 9.62505C22.1632 9.25423 21.9798 8.83616 21.609 8.6912Z" fill="#8292AA"/>
<path d="M20.1203 6.56821C20.2172 6.56821 20.3149 6.54899 20.4094 6.50735L21.5979 5.98676C21.9623 5.82738 22.1281 5.4021 21.9688 5.03769C21.8086 4.67248 21.3841 4.50589 21.0189 4.66687L19.8303 5.18746C19.4659 5.34684 19.3001 5.77212 19.4595 6.13653C19.5781 6.40723 19.8432 6.56821 20.1203 6.56821Z" fill="#8292AA"/>
<path d="M11.3701 20.5806L9.36144 15.9922L6.40771 17.2856L8.41638 21.874C8.77358 22.6893 9.72425 23.061 10.5396 22.7046C11.3549 22.3482 11.7273 21.3967 11.3701 20.5806Z" fill="#8292AA"/>
<path d="M4.89716 7.5957L1.64389 9.02051C0.255929 9.62839 -0.376785 11.2462 0.231101 12.635L1.25626 14.976C1.86414 16.364 3.48197 16.9967 4.87073 16.3888L8.124 14.964L4.89716 7.5957Z" fill="#8292AA"/>
</svg>
