<svg width="22" height="22" viewBox="0 0 22 22" fill="none" xmlns="http://www.w3.org/2000/svg">
<path d="M11 9.77777C11.6722 9.77777 12.2479 9.53862 12.727 9.06033C13.2061 8.58203 13.4453 8.00636 13.4444 7.33333C13.4436 6.66029 13.2045 6.08503 12.727 5.60755C12.2495 5.13007 11.6739 4.89052 11 4.88889C10.3261 4.88726 9.75089 5.12681 9.27422 5.60755C8.79755 6.08829 8.558 6.66355 8.55555 7.33333C8.55311 8.00311 8.79267 8.57877 9.27422 9.06033C9.75578 9.54188 10.331 9.78103 11 9.77777ZM4.88889 9.53333V4.88889H2.44444V6.11111C2.44444 6.88518 2.66852 7.58307 3.11667 8.20477C3.56481 8.82648 4.15556 9.26933 4.88889 9.53333ZM17.1111 9.53333C17.8444 9.26851 18.4352 8.82525 18.8833 8.20355C19.3315 7.58185 19.5556 6.88437 19.5556 6.11111V4.88889H17.1111V9.53333ZM9.77778 19.5555V15.7667C8.77963 15.5426 7.88863 15.1201 7.10478 14.4992C6.32092 13.8783 5.74526 13.099 5.37778 12.1611C3.85 11.9778 2.57196 11.3108 1.54367 10.1603C0.51537 9.00981 0.000814815 7.66007 0 6.11111V4.88889C0 4.21666 0.239556 3.6414 0.718667 3.16311C1.19778 2.68481 1.77304 2.44526 2.44444 2.44444H4.88889C4.88889 1.77222 5.12844 1.19696 5.60755 0.718666C6.08667 0.24037 6.66193 0.000814814 7.33333 0H14.6667C15.3389 0 15.9146 0.239555 16.3937 0.718666C16.8728 1.19778 17.1119 1.77304 17.1111 2.44444H19.5556C20.2278 2.44444 20.8034 2.684 21.2826 3.16311C21.7617 3.64222 22.0008 4.21748 22 4.88889V6.11111C22 7.65925 21.4854 9.00899 20.4563 10.1603C19.4272 11.3117 18.1492 11.9786 16.6222 12.1611C16.2556 13.0981 15.6803 13.8775 14.8964 14.4992C14.1126 15.1209 13.2212 15.5434 12.2222 15.7667V19.5555H15.8889C16.2352 19.5555 16.5257 19.6729 16.7603 19.9075C16.995 20.1422 17.1119 20.4323 17.1111 20.7778C17.1103 21.1232 16.993 21.4137 16.7591 21.6492C16.5253 21.8847 16.2352 22.0016 15.8889 22H6.11111C5.76481 22 5.47474 21.8827 5.24089 21.648C5.00704 21.4133 4.8897 21.1232 4.88889 20.7778C4.88807 20.4323 5.00541 20.1422 5.24089 19.9075C5.47637 19.6729 5.76644 19.5555 6.11111 19.5555H9.77778Z" fill="#8292AA"/>
</svg>
