<svg width="112" height="40" viewBox="0 0 112 40" fill="none" xmlns="http://www.w3.org/2000/svg">
<g clip-path="url(#clip0_360_26782)">
<g clip-path="url(#clip1_360_26782)">
<rect width="112" height="40" rx="8" fill="#CA6BEF"/>
<path d="M0 0H56.6053C56.6053 0 58.9737 18.6364 67.7368 27.7273C76.5 36.8182 90 40 90 40H0V0Z" fill="#B93DEB"/>
</g>
<path d="M37.494 26.0482C36.626 26.0482 35.898 25.9222 35.31 25.6702C34.7313 25.4089 34.288 25.0729 33.98 24.6622C33.6813 24.2422 33.5227 23.8035 33.504 23.3462C33.504 23.2622 33.532 23.1922 33.588 23.1362C33.644 23.0802 33.714 23.0522 33.798 23.0522H35.044C35.1653 23.0522 35.254 23.0802 35.31 23.1362C35.3753 23.1829 35.4313 23.2435 35.478 23.3182C35.534 23.4955 35.6413 23.6729 35.8 23.8502C35.9587 24.0182 36.1733 24.1582 36.444 24.2702C36.724 24.3822 37.074 24.4382 37.494 24.4382C38.166 24.4382 38.6653 24.3262 38.992 24.1022C39.328 23.8782 39.496 23.5749 39.496 23.1922C39.496 22.9215 39.4073 22.7069 39.23 22.5482C39.0527 22.3802 38.7773 22.2309 38.404 22.1002C38.04 21.9602 37.5547 21.8155 36.948 21.6662C36.248 21.4982 35.66 21.2975 35.184 21.0642C34.7173 20.8215 34.3627 20.5182 34.12 20.1542C33.8867 19.7902 33.77 19.3282 33.77 18.7682C33.77 18.2269 33.9147 17.7462 34.204 17.3262C34.5027 16.9062 34.9227 16.5749 35.464 16.3322C36.0147 16.0895 36.668 15.9682 37.424 15.9682C38.0307 15.9682 38.5673 16.0522 39.034 16.2202C39.5007 16.3789 39.888 16.5935 40.196 16.8642C40.504 17.1255 40.7373 17.4102 40.896 17.7182C41.064 18.0169 41.1527 18.3109 41.162 18.6002C41.162 18.6749 41.134 18.7449 41.078 18.8102C41.0313 18.8662 40.9613 18.8942 40.868 18.8942H39.566C39.4913 18.8942 39.4167 18.8755 39.342 18.8382C39.2673 18.8009 39.2067 18.7309 39.16 18.6282C39.104 18.3389 38.922 18.0915 38.614 17.8862C38.306 17.6809 37.9093 17.5782 37.424 17.5782C36.92 17.5782 36.514 17.6715 36.206 17.8582C35.898 18.0449 35.744 18.3342 35.744 18.7262C35.744 18.9875 35.8187 19.2069 35.968 19.3842C36.1267 19.5522 36.374 19.7015 36.71 19.8322C37.0553 19.9629 37.508 20.1029 38.068 20.2522C38.8613 20.4295 39.51 20.6349 40.014 20.8682C40.518 21.1015 40.8867 21.4002 41.12 21.7642C41.3533 22.1189 41.47 22.5715 41.47 23.1222C41.47 23.7382 41.302 24.2655 40.966 24.7042C40.6393 25.1335 40.1773 25.4649 39.58 25.6982C38.9827 25.9315 38.2873 26.0482 37.494 26.0482ZM43.2564 28.5682C43.1631 28.5682 43.0838 28.5355 43.0184 28.4702C42.9531 28.4049 42.9204 28.3255 42.9204 28.2322V18.9642C42.9204 18.8709 42.9531 18.7915 43.0184 18.7262C43.0838 18.6609 43.1631 18.6282 43.2564 18.6282H44.3624C44.4651 18.6282 44.5444 18.6609 44.6004 18.7262C44.6658 18.7915 44.6984 18.8709 44.6984 18.9642V19.5242C44.9224 19.2255 45.2164 18.9782 45.5804 18.7822C45.9444 18.5862 46.3971 18.4882 46.9384 18.4882C47.4331 18.4882 47.8624 18.5675 48.2264 18.7262C48.5904 18.8849 48.8938 19.1135 49.1364 19.4122C49.3791 19.7015 49.5658 20.0469 49.6964 20.4482C49.8271 20.8495 49.9018 21.2929 49.9204 21.7782C49.9298 21.9369 49.9344 22.1002 49.9344 22.2682C49.9344 22.4362 49.9298 22.6042 49.9204 22.7722C49.9111 23.2389 49.8411 23.6729 49.7104 24.0742C49.5798 24.4662 49.3884 24.8115 49.1364 25.1102C48.8938 25.3995 48.5904 25.6282 48.2264 25.7962C47.8624 25.9642 47.4331 26.0482 46.9384 26.0482C46.4344 26.0482 46.0051 25.9595 45.6504 25.7822C45.2958 25.5955 45.0064 25.3529 44.7824 25.0542V28.2322C44.7824 28.3255 44.7498 28.4049 44.6844 28.4702C44.6284 28.5355 44.5491 28.5682 44.4464 28.5682H43.2564ZM46.4204 24.5502C46.8218 24.5502 47.1344 24.4662 47.3584 24.2982C47.5824 24.1209 47.7411 23.8922 47.8344 23.6122C47.9371 23.3322 47.9978 23.0242 48.0164 22.6882C48.0351 22.4082 48.0351 22.1282 48.0164 21.8482C47.9978 21.5122 47.9371 21.2042 47.8344 20.9242C47.7411 20.6442 47.5824 20.4202 47.3584 20.2522C47.1344 20.0749 46.8218 19.9862 46.4204 19.9862C46.0378 19.9862 45.7251 20.0749 45.4824 20.2522C45.2491 20.4295 45.0764 20.6582 44.9644 20.9382C44.8618 21.2089 44.8011 21.4889 44.7824 21.7782C44.7731 21.9462 44.7684 22.1235 44.7684 22.3102C44.7684 22.4969 44.7731 22.6789 44.7824 22.8562C44.7918 23.1362 44.8571 23.4069 44.9784 23.6682C45.0998 23.9202 45.2771 24.1302 45.5104 24.2982C45.7438 24.4662 46.0471 24.5502 46.4204 24.5502ZM54.726 26.0482C53.9794 26.0482 53.3494 25.9175 52.836 25.6562C52.332 25.3949 51.9447 25.0262 51.674 24.5502C51.4127 24.0742 51.2634 23.5189 51.226 22.8842C51.2167 22.7162 51.212 22.5109 51.212 22.2682C51.212 22.0255 51.2167 21.8202 51.226 21.6522C51.2634 21.0082 51.4174 20.4529 51.688 19.9862C51.968 19.5102 52.36 19.1415 52.864 18.8802C53.3774 18.6189 53.998 18.4882 54.726 18.4882C55.454 18.4882 56.07 18.6189 56.574 18.8802C57.0874 19.1415 57.4794 19.5102 57.75 19.9862C58.03 20.4529 58.1887 21.0082 58.226 21.6522C58.2354 21.8202 58.24 22.0255 58.24 22.2682C58.24 22.5109 58.2354 22.7162 58.226 22.8842C58.1887 23.5189 58.0347 24.0742 57.764 24.5502C57.5027 25.0262 57.1154 25.3949 56.602 25.6562C56.098 25.9175 55.4727 26.0482 54.726 26.0482ZM54.726 24.6622C55.2207 24.6622 55.6034 24.5082 55.874 24.2002C56.1447 23.8829 56.294 23.4209 56.322 22.8142C56.3314 22.6742 56.336 22.4922 56.336 22.2682C56.336 22.0442 56.3314 21.8622 56.322 21.7222C56.294 21.1249 56.1447 20.6675 55.874 20.3502C55.6034 20.0329 55.2207 19.8742 54.726 19.8742C54.2314 19.8742 53.8487 20.0329 53.578 20.3502C53.3074 20.6675 53.158 21.1249 53.13 21.7222C53.1207 21.8622 53.116 22.0442 53.116 22.2682C53.116 22.4922 53.1207 22.6742 53.13 22.8142C53.158 23.4209 53.3074 23.8829 53.578 24.2002C53.8487 24.5082 54.2314 24.6622 54.726 24.6622ZM60.1272 25.9082C60.0339 25.9082 59.9545 25.8755 59.8892 25.8102C59.8239 25.7449 59.7912 25.6655 59.7912 25.5722V18.9782C59.7912 18.8755 59.8239 18.7915 59.8892 18.7262C59.9545 18.6609 60.0339 18.6282 60.1272 18.6282H61.2612C61.3545 18.6282 61.4339 18.6609 61.4992 18.7262C61.5739 18.7915 61.6112 18.8755 61.6112 18.9782V19.5522C61.8259 19.2535 62.1012 19.0249 62.4372 18.8662C62.7825 18.7075 63.1792 18.6282 63.6272 18.6282H64.2012C64.3039 18.6282 64.3832 18.6609 64.4392 18.7262C64.5045 18.7915 64.5372 18.8709 64.5372 18.9642V19.9722C64.5372 20.0655 64.5045 20.1449 64.4392 20.2102C64.3832 20.2755 64.3039 20.3082 64.2012 20.3082H63.1092C62.6612 20.3082 62.3112 20.4342 62.0592 20.6862C61.8165 20.9382 61.6952 21.2835 61.6952 21.7222V25.5722C61.6952 25.6655 61.6625 25.7449 61.5972 25.8102C61.5319 25.8755 61.4479 25.9082 61.3452 25.9082H60.1272ZM68.9191 25.9082C68.3591 25.9082 67.8877 25.8102 67.5051 25.6142C67.1224 25.4182 66.8377 25.1289 66.6511 24.7462C66.4644 24.3542 66.3711 23.8689 66.3711 23.2902V20.1122H65.2651C65.1717 20.1122 65.0924 20.0795 65.0271 20.0142C64.9617 19.9489 64.9291 19.8695 64.9291 19.7762V18.9642C64.9291 18.8709 64.9617 18.7915 65.0271 18.7262C65.0924 18.6609 65.1717 18.6282 65.2651 18.6282H66.3711V16.3042C66.3711 16.2109 66.3991 16.1315 66.4551 16.0662C66.5204 16.0009 66.6044 15.9682 66.7071 15.9682H67.8411C67.9344 15.9682 68.0137 16.0009 68.0791 16.0662C68.1444 16.1315 68.1771 16.2109 68.1771 16.3042V18.6282H69.9271C70.0204 18.6282 70.0997 18.6609 70.1651 18.7262C70.2304 18.7915 70.2631 18.8709 70.2631 18.9642V19.7762C70.2631 19.8695 70.2304 19.9489 70.1651 20.0142C70.0997 20.0795 70.0204 20.1122 69.9271 20.1122H68.1771V23.1502C68.1771 23.5329 68.2424 23.8315 68.3731 24.0462C68.5131 24.2609 68.7511 24.3682 69.0871 24.3682H70.0531C70.1464 24.3682 70.2257 24.4009 70.2911 24.4662C70.3564 24.5315 70.3891 24.6109 70.3891 24.7042V25.5722C70.3891 25.6655 70.3564 25.7449 70.2911 25.8102C70.2257 25.8755 70.1464 25.9082 70.0531 25.9082H68.9191ZM74.389 26.0482C73.829 26.0482 73.3484 25.9829 72.947 25.8522C72.555 25.7215 72.233 25.5582 71.981 25.3622C71.729 25.1662 71.5424 24.9702 71.421 24.7742C71.2997 24.5782 71.2344 24.4149 71.225 24.2842C71.2157 24.1815 71.2437 24.1022 71.309 24.0462C71.3837 23.9809 71.463 23.9482 71.547 23.9482H72.653C72.6904 23.9482 72.723 23.9529 72.751 23.9622C72.779 23.9715 72.8164 23.9995 72.863 24.0462C72.9844 24.1489 73.1104 24.2562 73.241 24.3682C73.381 24.4802 73.5444 24.5782 73.731 24.6622C73.9177 24.7369 74.151 24.7742 74.431 24.7742C74.795 24.7742 75.0984 24.7042 75.341 24.5642C75.593 24.4149 75.719 24.2049 75.719 23.9342C75.719 23.7382 75.663 23.5795 75.551 23.4582C75.4484 23.3369 75.2524 23.2295 74.963 23.1362C74.6737 23.0335 74.263 22.9262 73.731 22.8142C73.2084 22.6929 72.7744 22.5389 72.429 22.3522C72.0837 22.1655 71.827 21.9322 71.659 21.6522C71.491 21.3722 71.407 21.0455 71.407 20.6722C71.407 20.3082 71.5144 19.9629 71.729 19.6362C71.953 19.3002 72.2797 19.0249 72.709 18.8102C73.1477 18.5955 73.689 18.4882 74.333 18.4882C74.837 18.4882 75.2757 18.5535 75.649 18.6842C76.0224 18.8055 76.3304 18.9595 76.573 19.1462C76.825 19.3329 77.0164 19.5242 77.147 19.7202C77.2777 19.9069 77.3477 20.0702 77.357 20.2102C77.3664 20.3129 77.3384 20.3969 77.273 20.4622C77.2077 20.5182 77.133 20.5462 77.049 20.5462H76.013C75.9664 20.5462 75.9244 20.5369 75.887 20.5182C75.8497 20.4995 75.8124 20.4762 75.775 20.4482C75.6724 20.3549 75.5604 20.2569 75.439 20.1542C75.3177 20.0515 75.1684 19.9629 74.991 19.8882C74.823 19.8042 74.599 19.7622 74.319 19.7622C73.9644 19.7622 73.6937 19.8415 73.507 20.0002C73.3204 20.1495 73.227 20.3409 73.227 20.5742C73.227 20.7329 73.269 20.8729 73.353 20.9942C73.4464 21.1062 73.6284 21.2135 73.899 21.3162C74.1697 21.4189 74.5804 21.5262 75.131 21.6382C75.7564 21.7502 76.251 21.9182 76.615 22.1422C76.9884 22.3569 77.2497 22.6089 77.399 22.8982C77.5577 23.1782 77.637 23.4909 77.637 23.8362C77.637 24.2562 77.511 24.6342 77.259 24.9702C77.0164 25.3062 76.6524 25.5722 76.167 25.7682C75.691 25.9549 75.0984 26.0482 74.389 26.0482Z" fill="white"/>
<g opacity="0.4" filter="url(#filter0_d_360_26782)">
<g opacity="0.47" filter="url(#filter1_d_360_26782)">
<path d="M26.3609 10C22.203 10.1469 18.0867 11.7288 14.8116 14.7454L23.1915 23.1253C25.8117 20.1406 27.0101 15.6972 26.3609 10ZM27.8791 10.009C28.5195 15.9729 27.2264 20.8606 24.2589 24.1929L27 26.9338L39.1884 14.7454C35.9763 11.7867 31.9553 10.2075 27.8791 10.009ZM13.7454 15.8116C10.7287 19.0867 9.14691 23.203 9 27.3609C14.6972 28.0101 19.1405 26.8117 22.1254 24.1915L13.7454 15.8116ZM40.2546 15.8116L28.0662 28L30.8059 30.7397C33.6382 28.2176 37.5945 26.9053 42.3798 26.9614C43.2248 26.9713 44.096 27.0245 44.991 27.1205C44.7925 23.0445 43.2131 19.0235 40.2546 15.8116H40.2546ZM23.1928 25.2588C19.8605 28.2263 14.9728 29.5195 9.00896 28.879C9.20747 32.9552 10.7868 36.9763 13.7455 40.1884L25.9338 28L23.1928 25.2588ZM42.0384 28.4642C37.7458 28.4677 34.3207 29.6611 31.8746 31.8085L40.2546 40.1884C43.2712 36.9133 44.853 32.797 44.9999 28.6391C43.9718 28.5218 42.9835 28.4635 42.0383 28.4643L42.0384 28.4642ZM27 29.0662L14.8116 41.2546C18.0237 44.2133 22.0447 45.7926 26.1209 45.9911C25.4805 40.0272 26.7736 35.1395 29.7411 31.8072L27 29.0662ZM30.8085 32.8747C28.1883 35.8594 26.99 40.3028 27.6391 46C31.797 45.8531 35.9133 44.2712 39.1884 41.2546L30.8085 32.8747Z" fill="white"/>
</g>
</g>
</g>
<defs>
<filter id="filter0_d_360_26782" x="5" y="10" width="43.9999" height="44" filterUnits="userSpaceOnUse" color-interpolation-filters="sRGB">
<feFlood flood-opacity="0" result="BackgroundImageFix"/>
<feColorMatrix in="SourceAlpha" type="matrix" values="0 0 0 0 0 0 0 0 0 0 0 0 0 0 0 0 0 0 127 0" result="hardAlpha"/>
<feOffset dy="4"/>
<feGaussianBlur stdDeviation="2"/>
<feComposite in2="hardAlpha" operator="out"/>
<feColorMatrix type="matrix" values="0 0 0 0 0 0 0 0 0 0 0 0 0 0 0 0 0 0 0.25 0"/>
<feBlend mode="normal" in2="BackgroundImageFix" result="effect1_dropShadow_360_26782"/>
<feBlend mode="normal" in="SourceGraphic" in2="effect1_dropShadow_360_26782" result="shape"/>
</filter>
<filter id="filter1_d_360_26782" x="-3" y="-2" width="59.9999" height="60" filterUnits="userSpaceOnUse" color-interpolation-filters="sRGB">
<feFlood flood-opacity="0" result="BackgroundImageFix"/>
<feColorMatrix in="SourceAlpha" type="matrix" values="0 0 0 0 0 0 0 0 0 0 0 0 0 0 0 0 0 0 127 0" result="hardAlpha"/>
<feOffset/>
<feGaussianBlur stdDeviation="6"/>
<feComposite in2="hardAlpha" operator="out"/>
<feColorMatrix type="matrix" values="0 0 0 0 0 0 0 0 0 0 0 0 0 0 0 0 0 0 0.35 0"/>
<feBlend mode="normal" in2="BackgroundImageFix" result="effect1_dropShadow_360_26782"/>
<feBlend mode="normal" in="SourceGraphic" in2="effect1_dropShadow_360_26782" result="shape"/>
</filter>
<clipPath id="clip0_360_26782">
<rect width="112" height="40" rx="8" fill="white"/>
</clipPath>
<clipPath id="clip1_360_26782">
<rect width="112" height="40" rx="8" fill="white"/>
</clipPath>
</defs>
</svg>
