<svg width="24" height="16" viewBox="0 0 24 16" fill="none" xmlns="http://www.w3.org/2000/svg">
<rect width="23.1111" height="16" rx="8" fill="#8292AA"/>
<rect x="2.80566" y="2.80469" width="17.5" height="10.3889" rx="5.19444" fill="#8292AA" stroke="#2B2751" stroke-width="1.5"/>
<path d="M8.76413 10.1531H6.66859C6.47573 10.1531 6.31934 9.99679 6.31934 9.80387V6.19496C6.31934 6.0021 6.47567 5.8457 6.66859 5.8457H8.76408C8.95694 5.8457 9.11333 6.00204 9.11333 6.19496V9.80387C9.11339 9.99679 8.957 10.1531 8.76413 10.1531Z" fill="#2B2751"/>
<path d="M12.6537 10.1531H10.5582C10.3654 10.1531 10.209 9.99679 10.209 9.80387V6.19496C10.209 6.0021 10.3653 5.8457 10.5582 5.8457H12.6537C12.8466 5.8457 13.003 6.00204 13.003 6.19496V9.80387C13.003 9.99679 12.8466 10.1531 12.6537 10.1531Z" fill="#2B2751"/>
<path d="M16.5414 10.1531H14.4459C14.2531 10.1531 14.0967 9.99679 14.0967 9.80387V6.19496C14.0967 6.0021 14.253 5.8457 14.4459 5.8457H16.5414C16.7343 5.8457 16.8907 6.00204 16.8907 6.19496V9.80387C16.8907 9.99679 16.7343 10.1531 16.5414 10.1531Z" fill="#2B2751"/>
</svg>
