<svg width="53" height="54" viewBox="0 0 53 54" fill="none" xmlns="http://www.w3.org/2000/svg">
<g clip-path="url(#clip0_289_56574)">
<path d="M29.4345 53.9997L3.12077 50.1579L1.12891 19.9258L29.4345 23.7636L31.8459 33.5365L29.4345 53.9997Z" fill="#FFD200"/>
<path d="M29.4345 53.9997L1.71705 49.9541L1.12891 19.9258L29.4345 23.7636L31.8459 33.5365L29.4345 53.9997Z" fill="#16AAD8"/>
<path d="M29.4355 53.9997L51.5264 49.6914L51.8714 19.9258L29.4355 23.7636V53.9997Z" fill="#41C2F6"/>
<g style="mix-blend-mode:multiply">
<path d="M29.5673 23.744V23.7636L29.4928 23.7558L29.434 23.7636L1.26172 19.9415V21.29L1.29309 25.6218L29.434 29.44L29.5673 29.4557V29.4753L51.7719 25.6727L51.8699 19.9258L29.5673 23.744Z" fill="#CED8DD"/>
</g>
<path d="M0 15.1523V23.4317L29.5682 27.4459L30.321 23.2278L29.5682 19.1666L0 15.1523Z" fill="#16AAD8"/>
<path d="M29.5684 19.1666V27.4459L53.0002 23.4317V15.1523L29.5684 19.1666Z" fill="#41C2F6"/>
<path d="M0 15.153L23.9416 11.6562L53 15.153L29.5682 19.1672L0 15.153Z" fill="#57D7FF"/>
<path d="M18.3551 52.484L17.7944 17.5672L41.285 13.7412L34.4586 12.9219L11.7012 16.7401L12.0697 51.5667L18.3551 52.484Z" fill="#E8CFB5"/>
<path d="M17.7944 17.5672L41.285 13.7412L34.4586 12.9219L11.7012 16.7401L17.7944 17.5672Z" fill="#F4E6D7"/>
<path d="M38.8141 52.1928L39.0219 17.5662L15.5312 13.7401L21.5853 13.2266L45.1112 16.739V50.9972L38.8141 52.1928Z" fill="#EFDECA"/>
<path d="M39.0208 17.5645L10.6211 13.5973L17.4201 12.6055L45.1101 16.7373L39.0208 17.5645Z" fill="#F4E6D7"/>
<path d="M29.333 14.766C29.333 14.766 36.9044 16.3145 41.3116 16.0166C45.7188 15.7186 47.4087 12.7237 46.3697 11.3634C45.3345 10.0031 43.774 9.13672 43.774 9.13672C43.774 9.13672 45.115 10.5362 43.7034 11.9318C42.2958 13.3274 30.3956 13.1509 30.3956 13.1509C30.3956 13.1509 28.5919 13.935 29.333 14.7621V14.766Z" fill="#EFD9C7"/>
<path d="M29.3334 14.7667C29.3334 14.7667 41.7159 5.31127 46.3701 11.364C44.8801 9.03541 40.8572 5.33087 36.944 6.08354C33.0309 6.83229 27.9297 13.128 27.9297 13.128L29.3334 14.7667Z" fill="#F4E6D7"/>
<path d="M25.3805 14.7146C25.3805 14.7146 17.7268 15.773 13.347 15.1929C8.96727 14.6127 7.47729 11.5158 8.5987 10.226C9.7201 8.9363 11.3316 8.17188 11.3316 8.17188C11.3316 8.17188 9.90439 9.4812 11.2218 10.9669C12.5393 12.4527 24.4238 13.0368 24.4238 13.0368C24.4238 13.0368 26.1726 13.9345 25.3805 14.7146Z" fill="#EFD9C7"/>
<path d="M25.3814 14.7145C25.3814 14.7145 13.6302 4.4829 8.59961 10.2259C10.2347 7.99535 14.4889 4.56131 18.3472 5.56094C22.2054 6.56058 26.891 13.1699 26.891 13.1699L25.3854 14.7145H25.3814Z" fill="#F4E6D7"/>
<path d="M25.7224 11.6562C25.7224 11.6562 26.6635 11.2093 29.1533 11.7738C29.1259 13.2399 30.3218 15.0902 30.3218 15.0902C30.3218 15.0902 25.8362 15.7527 24.2207 14.7688C25.3499 13.5613 25.7224 11.6562 25.7224 11.6562Z" fill="#F7EADF"/>
<path d="M28.3845 12.3289C28.3845 12.3289 34.3562 6.05662 35.7089 0C37.74 2.16784 38.6144 2.55593 39.5319 2.26584C38.3634 5.99782 34.2621 11.8075 29.153 13.8107C27.6238 13.4931 28.3845 12.3289 28.3845 12.3289Z" fill="#F9EEE5"/>
<path d="M26.3095 12.3289C26.3095 12.3289 20.3378 6.06054 18.9851 0C16.954 2.16784 16.0796 2.55593 15.1621 2.26584C16.3306 5.99782 20.4319 11.8075 25.541 13.8107C27.0702 13.4931 26.3095 12.3289 26.3095 12.3289Z" fill="#F9EEE5"/>
</g>
<defs>
<clipPath id="clip0_289_56574">
<rect width="53" height="54" fill="white"/>
</clipPath>
</defs>
</svg>
