<svg width="74" height="61" viewBox="0 0 74 61" fill="none" xmlns="http://www.w3.org/2000/svg">
<g clip-path="url(#clip0_289_56483)">
<path fill-rule="evenodd" clip-rule="evenodd" d="M55.5638 33.3813L41.2637 41.425L52.8291 31.957L55.5638 33.3813Z" fill="#39602E"/>
<path fill-rule="evenodd" clip-rule="evenodd" d="M55.6693 30.2484L41.3691 38.2984L52.9283 28.8242L55.6693 30.2484Z" fill="#39602E"/>
<path fill-rule="evenodd" clip-rule="evenodd" d="M55.7689 27.1586L41.4688 35.2085L53.0342 25.7344L55.7689 27.1586Z" fill="#39602E"/>
<path fill-rule="evenodd" clip-rule="evenodd" d="M0.142578 41.5704L10.629 47.4345L4.33465 39.3164L0.142578 41.5704Z" fill="url(#paint0_linear_289_56483)"/>
<path fill-rule="evenodd" clip-rule="evenodd" d="M0.0625 38.4727L10.5489 44.3368L4.25457 36.2188L0.0625 38.4727Z" fill="url(#paint1_linear_289_56483)"/>
<path fill-rule="evenodd" clip-rule="evenodd" d="M0 36.0205L0.043409 37.6863L6.31291 41.6184L0.0620129 38.4727L0.124026 40.9682L9.28953 46.3988L0.14263 41.5688L0.210844 44.3244L18.8457 54.9813L55.545 33.9957L55.5636 33.3826L51.0614 35.5437L55.5884 32.5838L55.669 30.2494L43.7191 36.6583L55.6938 29.4815L55.7682 27.1594L47.3903 31.5126L55.7992 26.1996L55.8116 25.7476L37.1209 16.0195L0 36.0205Z" fill="#4A9D35"/>
<path fill-rule="evenodd" clip-rule="evenodd" d="M0 36.0205L18.8457 46.5598L55.8116 25.7476L37.1209 16.0195L0 36.0205Z" fill="url(#paint2_linear_289_56483)"/>
<path fill-rule="evenodd" clip-rule="evenodd" d="M18.8457 46.5588V54.9802L0.210844 44.3234L0.14263 41.5678L9.28953 46.3978L0.124026 40.9672L0.0620129 38.4717L6.31291 41.6173L0.043409 37.6853L0 36.0195L18.8457 46.5588Z" fill="url(#paint3_linear_289_56483)"/>
<path fill-rule="evenodd" clip-rule="evenodd" d="M18.8457 46.5583L55.8116 25.7461L55.7992 26.1981L47.3902 31.5111L55.7682 27.1579L55.6938 29.48L43.7191 36.6569L55.669 30.2479L55.5883 32.5824L51.0614 35.5423L55.5635 33.3812L55.5449 33.9942L18.8457 54.9798V46.5583Z" fill="url(#paint4_linear_289_56483)"/>
<path fill-rule="evenodd" clip-rule="evenodd" d="M40.7051 34.2539L34.541 37.7216V45.9882L40.7051 42.4772V34.2539Z" fill="url(#paint5_linear_289_56483)"/>
<path fill-rule="evenodd" clip-rule="evenodd" d="M34.541 37.7216V45.9882L36.0789 45.1089V36.8485L34.541 37.7154V37.7216ZM39.161 35.1208V43.3565L40.6989 42.4772V34.2539L39.161 35.1208Z" fill="url(#paint6_linear_289_56483)"/>
<path fill-rule="evenodd" clip-rule="evenodd" d="M5.33398 34.795C10.2392 32.1385 15.1506 29.4883 20.0496 26.838C24.9549 24.1815 29.8601 21.5312 34.7653 18.8747C36.0676 19.5621 38.1946 19.5435 39.4845 18.8438C41.3139 19.7974 43.1432 20.7572 44.9726 21.7108C46.7958 22.6644 48.6314 23.618 50.4546 24.5716C49.1647 25.2899 49.1771 26.4417 50.4794 27.1228C45.5928 29.866 40.6999 32.6092 35.8133 35.3523C30.9267 38.0955 26.0339 40.8387 21.1473 43.5818C19.8326 42.8512 17.7056 42.845 16.4157 43.5695C14.5739 42.5415 12.7321 41.5136 10.8903 40.4857C9.04856 39.4578 7.20677 38.4299 5.36499 37.402C6.66106 36.696 6.64246 35.5257 5.33398 34.795ZM14.977 31.5565C16.4839 30.7391 18.5241 30.3737 20.6078 30.4357C22.6852 30.4976 24.8184 30.9806 26.499 31.8909C28.1733 32.8011 29.0787 33.9591 29.2027 35.1046C29.3206 36.244 28.6384 37.3772 27.1377 38.2132C25.637 39.0491 23.5906 39.4392 21.5131 39.3773C19.4295 39.3154 17.3087 38.8138 15.6219 37.8788C13.9414 36.9499 13.0298 35.7734 12.912 34.634C12.7941 33.4946 13.4763 32.3738 14.9832 31.5565H14.977ZM27.4416 28.5966C29.4074 27.5253 31.367 26.4479 33.3328 25.3704C35.2986 24.2929 37.2644 23.2217 39.2302 22.138C39.4163 22.039 39.7263 22.0328 39.9248 22.1318C40.3279 22.3424 40.7309 22.5591 41.1402 22.7758C41.3325 22.8749 41.3325 23.0421 41.1402 23.1474C39.1682 24.231 37.2148 25.3085 35.249 26.3859C33.277 27.4696 31.3174 28.547 29.3516 29.6245C29.1593 29.7298 28.8617 29.7298 28.6694 29.6245C28.2602 29.4078 27.8509 29.191 27.4416 28.9681C27.2493 28.8628 27.2493 28.6956 27.4416 28.5904V28.5966ZM31.119 30.6957C33.7793 29.2282 36.4521 27.7544 39.1186 26.2807C39.2426 26.2125 39.4597 26.2064 39.5899 26.2807C39.869 26.4293 40.1418 26.5717 40.4209 26.7203C40.5511 26.7884 40.5449 26.9061 40.4209 26.9742C37.7543 28.4541 35.0878 29.9279 32.4212 31.4079C32.291 31.476 32.0926 31.4822 31.9561 31.4079C31.6833 31.2592 31.4042 31.1044 31.1314 30.962C31.0011 30.8877 30.9887 30.7762 31.119 30.7081V30.6957Z" fill="url(#paint7_radial_289_56483)"/>
<path fill-rule="evenodd" clip-rule="evenodd" d="M15.875 27.4694L34.5409 37.7238L40.705 34.2561V34.188L21.9585 24.1875L15.875 27.4694Z" fill="#E6E6E6"/>
<path fill-rule="evenodd" clip-rule="evenodd" d="M20.4391 25.0104C26.6838 28.3666 32.9223 31.7166 39.167 35.0728V35.1286L40.705 34.2616V34.1935L21.9585 24.1992L20.4391 25.0166V25.0104ZM36.085 36.8376C29.8527 33.4381 23.6266 30.0447 17.3943 26.6452L15.875 27.4625L34.5471 37.7169L36.085 36.85V36.8314V36.8376Z" fill="url(#paint8_linear_289_56483)"/>
<path opacity="0.5" fill-rule="evenodd" clip-rule="evenodd" d="M6.48047 40.6752L18.8458 47.2948L34.2188 38.9414L18.8458 47.9264L6.48047 40.6752Z" fill="#1F3F37"/>
<path opacity="0.5" fill-rule="evenodd" clip-rule="evenodd" d="M12.2051 45.9642L18.8467 49.4442L28.8493 44.0508L18.8467 49.9644L12.2051 45.9642Z" fill="#1F3F37"/>
<path opacity="0.5" fill-rule="evenodd" clip-rule="evenodd" d="M7.92578 46.6656L18.8463 53.2232L32.9852 44.8203L18.8463 52.5978L7.92578 46.6656Z" fill="#1F3F37"/>
<path style="mix-blend-mode:multiply" fill-rule="evenodd" clip-rule="evenodd" d="M35.3842 37.2474L20.0918 25.1972L24.0668 23.0547L35.3842 37.2474Z" fill="url(#paint9_radial_289_56483)"/>
<path fill-rule="evenodd" clip-rule="evenodd" d="M19.262 15.7773L17.3086 16.7929L25.9408 26.168L19.262 15.7773Z" fill="url(#paint10_linear_289_56483)"/>
<path fill-rule="evenodd" clip-rule="evenodd" d="M20.371 13.4727L18.4238 14.4882L30.0699 27.0151L20.371 13.4727Z" fill="url(#paint11_linear_289_56483)"/>
<path fill-rule="evenodd" clip-rule="evenodd" d="M21.4866 11.1719L19.5332 12.1936L28.1654 21.5687L21.4866 11.1719Z" fill="url(#paint12_linear_289_56483)"/>
<path fill-rule="evenodd" clip-rule="evenodd" d="M20.0293 11.1719L19.7936 11.6549C21.5858 13.8655 23.4462 16.0514 25.3438 18.231C23.3842 16.2557 21.4432 14.2556 19.5394 12.1874L18.6774 13.9708L29.5048 26.2438L18.4293 14.4847L17.5487 16.3114L24.3143 23.996L17.3193 16.7882L17.0898 17.2589L51.6124 54.945L69.8256 44.1704L73.1929 38.3621L70.2225 34.9749L24.2089 8.99219L20.0293 11.1719Z" fill="url(#paint13_linear_289_56483)"/>
<path fill-rule="evenodd" clip-rule="evenodd" d="M20.0296 11.1719C31.2229 24.1509 42.8628 36.7707 54.9987 49.0004L51.6066 54.9512L17.084 17.2651L17.3134 16.7945L24.3085 24.0022L17.5429 16.3176L18.4235 14.4909L29.499 26.25L18.6715 13.977L19.5335 12.1936C21.4311 14.2618 23.3783 16.2619 25.3379 18.2372C23.4403 16.0576 21.5799 13.8717 19.7877 11.6611L20.0234 11.1781L20.0296 11.1719Z" fill="url(#paint14_linear_289_56483)"/>
<path fill-rule="evenodd" clip-rule="evenodd" d="M54.9995 49.0055L73.1879 38.3672L69.8144 44.1817L51.6074 54.9563L54.9995 49.0055Z" fill="url(#paint15_linear_289_56483)"/>
<path fill-rule="evenodd" clip-rule="evenodd" d="M22.2812 9.47266L20.334 10.4882C30.8452 23.7644 42.5284 36.4276 55.3279 48.5087L73.6217 37.666L72.2574 36.5576L22.2812 9.47266Z" fill="url(#paint16_linear_289_56483)"/>
<path fill-rule="evenodd" clip-rule="evenodd" d="M20.9238 9.69089C30.9327 24.0074 42.4423 36.6892 55.6573 47.5194L74.0007 36.6644C60.4757 25.8341 49.0157 13.5858 39.5091 0L20.9238 9.69089Z" fill="url(#paint17_radial_289_56483)"/>
<path fill-rule="evenodd" clip-rule="evenodd" d="M41.0151 4.87393C45.015 10.0383 49.114 15.1964 53.61 20.0697C58.1555 24.9926 63.1289 29.5934 68.3008 34.1138C67.0296 34.8569 67.1288 36.4297 68.5551 37.5815C66.7691 38.6342 64.9707 39.693 63.1848 40.7457C61.3926 41.7984 59.6004 42.8573 57.8144 43.91C56.3943 42.7149 54.2239 42.3371 52.9464 43.0802C47.7994 38.405 42.7949 33.668 38.1998 28.6398C33.6418 23.6489 29.4869 18.3916 25.4375 13.1034C26.7336 12.4223 26.932 10.7132 25.915 9.3014C27.732 8.35398 29.5552 7.40037 31.3659 6.44676C33.1767 5.49315 34.9937 4.53955 36.8107 3.58594C37.8215 4.973 39.7129 5.54889 41.0089 4.86154L41.0151 4.87393ZM45.6971 14.0385C46.9932 15.5927 47.5265 17.3575 47.3343 18.9489C47.142 20.5466 46.218 21.9955 44.5809 22.8996C42.9437 23.8099 40.8911 24.0018 38.9253 23.5808C36.9595 23.1597 35.0743 22.107 33.7658 20.528C32.4574 18.9428 31.9737 17.1284 32.2341 15.4999C32.4884 13.8713 33.4992 12.4223 35.1549 11.543C36.8107 10.6637 38.8013 10.5089 40.6989 10.9609C42.6027 11.4192 44.4072 12.4842 45.7033 14.0385H45.6971ZM50.3047 25.0297C52.1837 26.9741 54.0875 28.9185 56.0471 30.8009C58.0253 32.6958 60.0779 34.5349 62.1615 36.3678C62.36 36.5412 62.3786 36.7703 62.1926 36.8817C61.7895 37.1171 61.3988 37.3524 60.9957 37.5815C60.8097 37.6867 60.4934 37.631 60.2888 37.4514C58.2051 35.6185 56.1525 33.767 54.1805 31.8722C52.2085 29.9774 50.3047 28.0392 48.4257 26.0824C48.2458 25.8967 48.2583 25.6552 48.4443 25.5499C48.8412 25.3332 49.2381 25.1102 49.6411 24.8873C49.8272 24.7821 50.1186 24.8502 50.2985 25.0421L50.3047 25.0297ZM46.5095 26.9927C49.0644 29.6492 51.7 32.2685 54.4037 34.8383C54.534 34.9621 54.5402 35.1231 54.4037 35.1974C54.1309 35.3461 53.8704 35.5009 53.5976 35.6619C53.4735 35.7362 53.2565 35.6928 53.1263 35.569C50.4163 32.9992 47.7994 30.3675 45.232 27.711C45.108 27.581 45.1142 27.42 45.2444 27.3518C45.5173 27.197 45.7839 27.0422 46.0568 26.8936C46.1808 26.8255 46.3855 26.8689 46.5095 26.9989V26.9927Z" fill="url(#paint18_radial_289_56483)"/>
<path fill-rule="evenodd" clip-rule="evenodd" d="M36.4202 29.1793C37.5922 30.4735 38.7828 31.7553 39.9921 33.0123C40.0169 33.0371 40.0417 33.068 40.0665 33.0928L52.7854 26.0089L53.5605 25.5754L54.4845 25.0614L58.5526 22.7951C56.5619 20.7888 54.6271 18.7391 52.7482 16.6523L45.7593 20.5163L45.1764 20.8383L44.271 21.3399L44.2214 21.3647L41.2634 22.9994L34.3613 26.8634C34.7582 27.3216 35.1613 27.7737 35.5644 28.2257C35.8434 28.5415 36.1287 28.8573 36.414 29.1669L36.4202 29.1793Z" fill="url(#paint19_linear_289_56483)"/>
<path fill-rule="evenodd" clip-rule="evenodd" d="M39.9925 33.0115C38.7833 31.7545 37.5927 30.4727 36.4206 29.1785C36.1353 28.8627 35.8563 28.5531 35.571 28.2373C35.1679 27.7853 34.7649 27.3332 34.368 26.875L31.2363 32.7205L36.9229 38.9251L40.0732 33.092C40.0732 33.092 40.0236 33.0363 39.9988 33.0115H39.9925Z" fill="url(#paint20_linear_289_56483)"/>
<path fill-rule="evenodd" clip-rule="evenodd" d="M38.6283 31.5671C37.5865 33.4991 36.5384 35.4373 35.4966 37.3693L36.9167 38.9235L40.067 33.0904C40.067 33.0904 40.0174 33.0347 39.9925 33.0099C39.5337 32.5331 39.081 32.0501 38.6283 31.5671ZM32.6564 34.2669C33.6982 32.3288 34.7401 30.3968 35.7757 28.4586C35.7075 28.3843 35.6392 28.31 35.571 28.2295C35.1679 27.7775 34.7649 27.3254 34.368 26.8672L31.2363 32.7127L32.6564 34.2669Z" fill="url(#paint21_linear_289_56483)"/>
<path fill-rule="evenodd" clip-rule="evenodd" d="M35.7935 28.4277C41.9204 25.022 48.0472 21.6163 54.1741 18.2105C53.6966 17.6966 53.2253 17.1764 52.754 16.6562L34.3672 26.8735C34.7641 27.3317 35.1672 27.7837 35.5702 28.2358C35.6385 28.3101 35.7067 28.3844 35.7749 28.4649C35.7749 28.4525 35.7873 28.4401 35.7935 28.4339V28.4277ZM57.0763 21.2819C50.9308 24.7 44.7916 28.1181 38.6461 31.5363C38.6461 31.5486 38.6337 31.561 38.6275 31.5672C39.0802 32.0502 39.5391 32.5332 39.9918 33.01C40.0166 33.0348 40.0414 33.0658 40.0662 33.0905L58.5584 22.799C58.0623 22.2974 57.5662 21.7896 57.0701 21.2819H57.0763Z" fill="url(#paint22_linear_289_56483)"/>
<path opacity="0.5" fill-rule="evenodd" clip-rule="evenodd" d="M38.3984 38.2305L52.3017 53.7359L63.4889 46.9554L52.6428 53.1291L38.3984 38.2305Z" fill="#1F3F37"/>
<path opacity="0.5" fill-rule="evenodd" clip-rule="evenodd" d="M53.1886 52.1754L48.209 46.5156L53.4615 51.6924L58.1249 49.1411L53.1886 52.1754Z" fill="#1F3F37"/>
<path opacity="0.5" fill-rule="evenodd" clip-rule="evenodd" d="M46.8066 41.5195L54.428 50.0029L65.8632 43.1357L54.7443 49.4394L46.8066 41.5195Z" fill="#1F3F37"/>
<path fill-rule="evenodd" clip-rule="evenodd" d="M27.0879 56.0823C27.0879 58.7945 31.5094 60.999 36.9665 60.999C42.4237 60.999 46.8452 58.8007 46.8452 56.0823V53.9336H27.0941V56.0823H27.0879Z" fill="url(#paint23_linear_289_56483)"/>
<path style="mix-blend-mode:screen" opacity="0.5" fill-rule="evenodd" clip-rule="evenodd" d="M35.6753 58.8185C36.097 58.8433 36.5249 58.8619 36.9652 58.8619C37.8644 58.8619 38.7326 58.8 39.5573 58.6885V60.831C38.7326 60.9425 38.3605 61.0044 36.9652 61.0044C35.5699 61.0044 33.294 60.7381 31.7871 60.2737V58.125C32.9468 58.4842 34.2614 58.7257 35.6753 58.8123V58.8185Z" fill="url(#paint24_linear_289_56483)"/>
<path style="mix-blend-mode:multiply" opacity="0.5" fill-rule="evenodd" clip-rule="evenodd" d="M43.6934 57.5394C45.6096 56.6477 46.8188 55.3783 46.8374 53.9727V56.0904C46.8374 57.5084 45.6282 58.7902 43.6934 59.6881V57.5394Z" fill="url(#paint25_linear_289_56483)"/>
<path style="mix-blend-mode:multiply" opacity="0.5" fill-rule="evenodd" clip-rule="evenodd" d="M29.1157 56.9183V59.067C27.8444 58.2372 27.0879 57.2031 27.0879 56.0823V53.9336C27.0879 55.0544 27.8506 56.0885 29.1157 56.9183Z" fill="url(#paint26_linear_289_56483)"/>
<path style="mix-blend-mode:screen" fill-rule="evenodd" clip-rule="evenodd" d="M35.6769 58.8211C36.0986 58.8459 36.5265 58.8645 36.9668 58.8645V61.007C35.4723 61.007 34.0584 60.8398 32.7871 60.5488V58.4062C33.6863 58.6168 34.6599 58.7592 35.6769 58.8273V58.8211Z" fill="url(#paint27_linear_289_56483)"/>
<path opacity="0.65" fill-rule="evenodd" clip-rule="evenodd" d="M38.3802 59.9406C38.3802 60.2131 38.3616 60.4608 38.3244 60.6775C38.3244 60.7023 38.2996 60.7209 38.2748 60.7209C38.25 60.7209 38.2314 60.7023 38.2252 60.6775C38.188 60.4608 38.1694 60.2131 38.1694 59.9406C38.1694 59.6682 38.188 59.4205 38.2252 59.2038C38.2252 59.179 38.25 59.1604 38.2748 59.1604C38.2996 59.1604 38.3182 59.179 38.3244 59.2038C38.3616 59.4205 38.3802 59.6682 38.3802 59.9406ZM39.6763 59.8106C39.6763 60.0831 39.6577 60.3307 39.6205 60.5475C39.6205 60.5722 39.5957 60.5908 39.5709 60.5908C39.5461 60.5908 39.5275 60.5722 39.5213 60.5475C39.4841 60.3307 39.4655 60.0831 39.4655 59.8106C39.4655 59.5381 39.4841 59.2904 39.5213 59.0737C39.5213 59.0489 39.5461 59.0304 39.5709 59.0304C39.5957 59.0304 39.6143 59.0489 39.6205 59.0737C39.6577 59.2904 39.6763 59.5381 39.6763 59.8106ZM40.9662 59.5815C40.9662 59.8539 40.9476 60.1016 40.9104 60.3184C40.9104 60.3431 40.8856 60.3617 40.867 60.3617C40.8484 60.3617 40.8235 60.3431 40.8235 60.3184C40.7925 60.1016 40.7677 59.8539 40.7677 59.5815C40.7677 59.309 40.7863 59.0613 40.8235 58.8446C40.8235 58.8198 40.8484 58.8013 40.867 58.8013C40.8856 58.8013 40.9104 58.8198 40.9104 58.8446C40.9414 59.0613 40.9662 59.309 40.9662 59.5815ZM42.2312 59.2533C42.2312 59.5258 42.2126 59.7734 42.1816 59.9902C42.1816 60.0149 42.163 60.0335 42.1382 60.0335C42.1134 60.0335 42.101 60.0149 42.0948 59.9902C42.0638 59.7734 42.0452 59.5258 42.0452 59.2533C42.0452 58.9808 42.0638 58.7331 42.0948 58.5164C42.0948 58.4916 42.1134 58.4731 42.1382 58.4731C42.163 58.4731 42.1754 58.4916 42.1816 58.5164C42.2126 58.7331 42.2312 58.9808 42.2312 59.2533ZM43.4591 58.8074C43.4591 59.0799 43.4405 59.3276 43.4095 59.5443C43.4095 59.5691 43.3909 59.5877 43.3661 59.5877C43.3413 59.5877 43.3289 59.5691 43.3227 59.5443C43.2917 59.3276 43.2731 59.0799 43.2731 58.8074C43.2731 58.535 43.2917 58.2873 43.3227 58.0706C43.3227 58.0458 43.3413 58.0272 43.3661 58.0272C43.3909 58.0272 43.4033 58.0458 43.4095 58.0706C43.4405 58.2873 43.4591 58.535 43.4591 58.8074ZM44.6249 58.2192C44.6249 58.4916 44.6063 58.7393 44.5815 58.9561C44.5815 58.9808 44.5629 58.9994 44.5443 58.9994C44.5257 58.9994 44.5071 58.9808 44.5071 58.9561C44.4761 58.7393 44.4637 58.4916 44.4637 58.2192C44.4637 57.9467 44.4823 57.699 44.5071 57.4823C44.5071 57.4575 44.5257 57.439 44.5443 57.439C44.5629 57.439 44.5815 57.4575 44.5815 57.4823C44.6125 57.699 44.6249 57.9467 44.6249 58.2192ZM45.6792 57.4451C45.6792 57.7176 45.6606 57.9653 45.6357 58.182C45.6357 58.2068 45.6171 58.2254 45.5985 58.2254C45.5799 58.2254 45.5675 58.2068 45.5613 58.182C45.5365 57.9653 45.5179 57.7176 45.5179 57.4451C45.5179 57.1727 45.5365 56.925 45.5613 56.7083C45.5613 56.6835 45.5799 56.6649 45.5985 56.6649C45.6171 56.6649 45.6295 56.6835 45.6357 56.7083C45.6606 56.925 45.6792 57.1727 45.6792 57.4451ZM35.5462 59.9406C35.5462 60.2131 35.5649 60.4608 35.6021 60.6775C35.6021 60.7023 35.6269 60.7209 35.6517 60.7209C35.6765 60.7209 35.6951 60.7023 35.7013 60.6775C35.7385 60.4608 35.7571 60.2131 35.7571 59.9406C35.7571 59.6682 35.7385 59.4205 35.7013 59.2038C35.7013 59.179 35.6765 59.1604 35.6517 59.1604C35.6269 59.1604 35.6083 59.179 35.6021 59.2038C35.5649 59.4205 35.5462 59.6682 35.5462 59.9406ZM34.244 59.8106C34.244 60.0831 34.2626 60.3307 34.2998 60.5475C34.2998 60.5722 34.3246 60.5908 34.3494 60.5908C34.3742 60.5908 34.3928 60.5722 34.399 60.5475C34.4362 60.3307 34.4548 60.0831 34.4548 59.8106C34.4548 59.5381 34.4362 59.2904 34.399 59.0737C34.399 59.0489 34.3742 59.0304 34.3494 59.0304C34.3246 59.0304 34.306 59.0489 34.2998 59.0737C34.2626 59.2904 34.244 59.5381 34.244 59.8106ZM32.9541 59.5815C32.9541 59.8539 32.9727 60.1016 33.0099 60.3184C33.0099 60.3431 33.0347 60.3617 33.0533 60.3617C33.0719 60.3617 33.0967 60.3431 33.0967 60.3184C33.1277 60.1016 33.1463 59.8539 33.1463 59.5815C33.1463 59.309 33.1277 59.0613 33.0967 58.8446C33.0967 58.8198 33.0719 58.8013 33.0533 58.8013C33.0347 58.8013 33.0099 58.8198 33.0099 58.8446C32.9789 59.0613 32.9541 59.309 32.9541 59.5815ZM31.689 59.2533C31.689 59.5258 31.7077 59.7734 31.7387 59.9902C31.7387 60.0149 31.7573 60.0335 31.7821 60.0335C31.8069 60.0335 31.8193 60.0149 31.8255 59.9902C31.8565 59.7734 31.8751 59.5258 31.8751 59.2533C31.8751 58.9808 31.8565 58.7331 31.8255 58.5164C31.8255 58.4916 31.8069 58.4731 31.7821 58.4731C31.7573 58.4731 31.7449 58.4916 31.7387 58.5164C31.7077 58.7331 31.689 58.9808 31.689 59.2533ZM30.4674 58.8074C30.4674 59.0799 30.486 59.3276 30.517 59.5443C30.517 59.5691 30.5356 59.5877 30.5604 59.5877C30.5852 59.5877 30.5976 59.5691 30.6038 59.5443C30.6348 59.3276 30.6534 59.0799 30.6534 58.8074C30.6534 58.535 30.6348 58.2873 30.6038 58.0706C30.6038 58.0458 30.5852 58.0272 30.5604 58.0272C30.5356 58.0272 30.5232 58.0458 30.517 58.0706C30.486 58.2873 30.4674 58.535 30.4674 58.8074ZM29.3015 58.2192C29.3015 58.4916 29.3202 58.7393 29.345 58.9561C29.345 58.9808 29.3636 58.9994 29.3822 58.9994C29.4008 58.9994 29.4194 58.9808 29.4194 58.9561C29.4504 58.7393 29.4628 58.4916 29.4628 58.2192C29.4628 57.9467 29.4442 57.699 29.4194 57.4823C29.4194 57.4575 29.4008 57.439 29.3822 57.439C29.3636 57.439 29.345 57.4575 29.345 57.4823C29.314 57.699 29.3015 57.9467 29.3015 58.2192ZM28.2473 57.4451C28.2473 57.7176 28.2659 57.9653 28.2907 58.182C28.2907 58.2068 28.3093 58.2254 28.3279 58.2254C28.3466 58.2254 28.359 58.2068 28.3652 58.182C28.39 57.9653 28.4086 57.7176 28.4086 57.4451C28.4086 57.1727 28.39 56.925 28.3652 56.7083C28.3652 56.6835 28.3466 56.6649 28.3279 56.6649C28.3093 56.6649 28.2969 56.6835 28.2907 56.7083C28.2659 56.925 28.2473 57.1727 28.2473 57.4451ZM36.8485 59.984C36.8485 60.2564 36.8733 60.5041 36.9105 60.7209C36.9105 60.7456 36.9353 60.7642 36.9601 60.7642C36.9849 60.7642 37.0098 60.7456 37.0098 60.7209C37.047 60.5041 37.0718 60.2564 37.0718 59.984C37.0718 59.7115 37.047 59.4638 37.0098 59.2471C37.0098 59.2223 36.9849 59.2038 36.9601 59.2038C36.9353 59.2038 36.9105 59.2223 36.9105 59.2471C36.8733 59.4638 36.8485 59.7115 36.8485 59.984ZM27.4102 56.4482C27.4102 56.7207 27.4226 56.9683 27.4536 57.1851C27.4536 57.2098 27.4722 57.2284 27.4908 57.2284C27.5094 57.2284 27.5218 57.2098 27.528 57.1851C27.5528 56.9683 27.5714 56.7207 27.5714 56.4482C27.5714 56.1757 27.559 55.928 27.528 55.7113C27.528 55.6865 27.5094 55.668 27.4908 55.668C27.4722 55.668 27.4598 55.6865 27.4536 55.7113C27.4288 55.928 27.4102 56.1757 27.4102 56.4482ZM46.5101 56.4482C46.5101 56.7207 46.4977 56.9683 46.4667 57.1851C46.4667 57.2098 46.4481 57.2284 46.4295 57.2284C46.4109 57.2284 46.3985 57.2098 46.3923 57.1851C46.3675 56.9683 46.3489 56.7207 46.3489 56.4482C46.3489 56.1757 46.3613 55.928 46.3923 55.7113C46.3923 55.6865 46.4109 55.668 46.4295 55.668C46.4481 55.668 46.4605 55.6865 46.4667 55.7113C46.4915 55.928 46.5101 56.1757 46.5101 56.4482Z" fill="#663D1F"/>
<path fill-rule="evenodd" clip-rule="evenodd" d="M27.168 54.0457C27.168 56.8012 31.5213 59.0366 36.8854 59.0366C42.2495 59.0366 46.6028 56.8012 46.6028 54.0457C46.6028 51.2901 42.2495 49.0547 36.8854 49.0547C31.5213 49.0547 27.168 51.2901 27.168 54.0457Z" fill="#FFEE76"/>
<path fill-rule="evenodd" clip-rule="evenodd" d="M27.0879 53.9235C27.0879 56.6481 31.5094 58.8588 36.9665 58.8588C42.4237 58.8588 46.8452 56.6481 46.8452 53.9235C46.8452 51.1989 42.4237 48.9883 36.9665 48.9883C31.5094 48.9883 27.0879 51.1989 27.0879 53.9235Z" fill="url(#paint28_linear_289_56483)"/>
<path fill-rule="evenodd" clip-rule="evenodd" d="M28.0183 53.6933C27.9563 56.1269 31.9065 58.2013 36.8489 58.3313C41.7914 58.4614 45.847 56.5913 45.909 54.1639C45.971 51.7366 42.0208 49.656 37.0784 49.5259C32.136 49.3959 28.0803 51.2659 28.0183 53.6933Z" fill="#FFEE76"/>
<path fill-rule="evenodd" clip-rule="evenodd" d="M28.0801 53.9203C28.0801 56.3725 32.0551 58.3602 36.9603 58.3602C41.8655 58.3602 45.8406 56.3725 45.8406 53.9203C45.8406 51.4682 41.8655 49.4805 36.9603 49.4805C32.0551 49.4805 28.0801 51.4682 28.0801 53.9203Z" fill="url(#paint29_linear_289_56483)"/>
<path fill-rule="evenodd" clip-rule="evenodd" d="M45.8285 54.2006C45.5433 51.8785 41.6861 50.0394 36.9607 50.0394C32.2353 50.0394 28.3781 51.8785 28.0928 54.2006C28.0804 54.1077 28.0742 54.021 28.0742 53.9281C28.0742 51.476 32.0492 49.4883 36.9545 49.4883C41.8597 49.4883 45.8347 51.476 45.8347 53.9281C45.8347 54.021 45.8347 54.1139 45.8161 54.2006H45.8285Z" fill="url(#paint30_linear_289_56483)"/>
<path style="mix-blend-mode:multiply" fill-rule="evenodd" clip-rule="evenodd" d="M28.166 54.1029C28.166 56.524 32.0976 58.487 36.947 58.487C41.7965 58.487 45.7281 56.524 45.7281 54.1029C45.7281 51.6817 41.7965 49.7188 36.947 49.7188C32.0976 49.7188 28.166 51.6817 28.166 54.1029Z" fill="url(#paint31_linear_289_56483)"/>
<path fill-rule="evenodd" clip-rule="evenodd" d="M25.2461 53.762C25.2461 56.4742 29.6676 58.6787 35.1247 58.6787C40.5819 58.6787 45.0034 56.4804 45.0034 53.762V51.6133H25.2523V53.762H25.2461Z" fill="url(#paint32_linear_289_56483)"/>
<path style="mix-blend-mode:screen" opacity="0.5" fill-rule="evenodd" clip-rule="evenodd" d="M33.8335 56.4904C34.2552 56.5152 34.6831 56.5338 35.1234 56.5338C36.0226 56.5338 36.8908 56.4718 37.7155 56.3604V58.5029C36.8908 58.6144 36.5187 58.6763 35.1234 58.6763C33.7281 58.6763 31.4522 58.41 29.9453 57.9456V55.7969C31.105 56.156 32.4196 56.3975 33.8335 56.4842V56.4904Z" fill="url(#paint33_linear_289_56483)"/>
<path style="mix-blend-mode:multiply" opacity="0.5" fill-rule="evenodd" clip-rule="evenodd" d="M41.8516 55.2113C43.7678 54.3196 44.977 53.0502 44.9956 51.6445V53.7623C44.9956 55.1803 43.7864 56.4621 41.8516 57.36V55.2113Z" fill="url(#paint34_linear_289_56483)"/>
<path style="mix-blend-mode:multiply" opacity="0.5" fill-rule="evenodd" clip-rule="evenodd" d="M27.2739 54.5901V56.7389C26.0027 55.9091 25.2461 54.875 25.2461 53.7542V51.6055C25.2461 52.7263 26.0089 53.7604 27.2739 54.5901Z" fill="url(#paint35_linear_289_56483)"/>
<path style="mix-blend-mode:screen" fill-rule="evenodd" clip-rule="evenodd" d="M33.8351 56.493C34.2568 56.5178 34.6847 56.5364 35.125 56.5364V58.6789C33.6305 58.6789 32.2166 58.5117 30.9453 58.2206V56.0781C31.8445 56.2887 32.8181 56.4311 33.8351 56.4992V56.493Z" fill="url(#paint36_linear_289_56483)"/>
<path opacity="0.65" fill-rule="evenodd" clip-rule="evenodd" d="M36.5443 57.6125C36.5443 57.885 36.5257 58.1327 36.4885 58.3494C36.4885 58.3742 36.4637 58.3927 36.4389 58.3927C36.4141 58.3927 36.3955 58.3742 36.3893 58.3494C36.3521 58.1327 36.3335 57.885 36.3335 57.6125C36.3335 57.34 36.3521 57.0924 36.3893 56.8756C36.3893 56.8509 36.4141 56.8323 36.4389 56.8323C36.4637 56.8323 36.4823 56.8509 36.4885 56.8756C36.5257 57.0924 36.5443 57.34 36.5443 57.6125ZM37.8404 57.4825C37.8404 57.7549 37.8218 58.0026 37.7846 58.2193C37.7846 58.2441 37.7598 58.2627 37.7349 58.2627C37.7101 58.2627 37.6915 58.2441 37.6853 58.2193C37.6481 58.0026 37.6295 57.7549 37.6295 57.4825C37.6295 57.21 37.6481 56.9623 37.6853 56.7456C37.6853 56.7208 37.7101 56.7022 37.7349 56.7022C37.7598 56.7022 37.7784 56.7208 37.7846 56.7456C37.8218 56.9623 37.8404 57.21 37.8404 57.4825ZM39.1302 57.2534C39.1302 57.5258 39.1116 57.7735 39.0744 57.9902C39.0744 58.015 39.0496 58.0336 39.031 58.0336C39.0124 58.0336 38.9876 58.015 38.9876 57.9902C38.9566 57.7735 38.9318 57.5258 38.9318 57.2534C38.9318 56.9809 38.9504 56.7332 38.9876 56.5165C38.9876 56.4917 39.0124 56.4731 39.031 56.4731C39.0496 56.4731 39.0744 56.4917 39.0744 56.5165C39.1054 56.7332 39.1302 56.9809 39.1302 57.2534ZM40.3953 56.9252C40.3953 57.1976 40.3767 57.4453 40.3457 57.662C40.3457 57.6868 40.3271 57.7054 40.3023 57.7054C40.2775 57.7054 40.2651 57.6868 40.2589 57.662C40.2279 57.4453 40.2093 57.1976 40.2093 56.9252C40.2093 56.6527 40.2279 56.405 40.2589 56.1883C40.2589 56.1635 40.2775 56.1449 40.3023 56.1449C40.3271 56.1449 40.3395 56.1635 40.3457 56.1883C40.3767 56.405 40.3953 56.6527 40.3953 56.9252ZM41.6232 56.4793C41.6232 56.7518 41.6046 56.9995 41.5735 57.2162C41.5735 57.241 41.5549 57.2595 41.5301 57.2595C41.5053 57.2595 41.4929 57.241 41.4867 57.2162C41.4557 56.9995 41.4371 56.7518 41.4371 56.4793C41.4371 56.2069 41.4557 55.9592 41.4867 55.7424C41.4867 55.7177 41.5053 55.6991 41.5301 55.6991C41.5549 55.6991 41.5673 55.7177 41.5735 55.7424C41.6046 55.9592 41.6232 56.2069 41.6232 56.4793ZM42.789 55.8911C42.789 56.1635 42.7704 56.4112 42.7456 56.6279C42.7456 56.6527 42.727 56.6713 42.7084 56.6713C42.6898 56.6713 42.6712 56.6527 42.6712 56.6279C42.6402 56.4112 42.6278 56.1635 42.6278 55.8911C42.6278 55.6186 42.6464 55.3709 42.6712 55.1542C42.6712 55.1294 42.6898 55.1108 42.7084 55.1108C42.727 55.1108 42.7456 55.1294 42.7456 55.1542C42.7766 55.3709 42.789 55.6186 42.789 55.8911ZM43.8432 55.1232C43.8432 55.3957 43.8246 55.6434 43.7998 55.8601C43.7998 55.8849 43.7812 55.9034 43.7626 55.9034C43.744 55.9034 43.7316 55.8849 43.7254 55.8601C43.7006 55.6434 43.682 55.3957 43.682 55.1232C43.682 54.8508 43.7006 54.6031 43.7254 54.3863C43.7254 54.3616 43.744 54.343 43.7626 54.343C43.7812 54.343 43.7936 54.3616 43.7998 54.3863C43.8246 54.6031 43.8432 54.8508 43.8432 55.1232ZM33.7041 57.6125C33.7041 57.885 33.7227 58.1327 33.7599 58.3494C33.7599 58.3742 33.7847 58.3927 33.8095 58.3927C33.8343 58.3927 33.8529 58.3742 33.8591 58.3494C33.8963 58.1327 33.915 57.885 33.915 57.6125C33.915 57.34 33.8963 57.0924 33.8591 56.8756C33.8591 56.8509 33.8343 56.8323 33.8095 56.8323C33.7847 56.8323 33.7661 56.8509 33.7599 56.8756C33.7227 57.0924 33.7041 57.34 33.7041 57.6125ZM32.408 57.4825C32.408 57.7549 32.4266 58.0026 32.4639 58.2193C32.4639 58.2441 32.4887 58.2627 32.5135 58.2627C32.5383 58.2627 32.5569 58.2441 32.5631 58.2193C32.6003 58.0026 32.6189 57.7549 32.6189 57.4825C32.6189 57.21 32.6003 56.9623 32.5631 56.7456C32.5631 56.7208 32.5383 56.7022 32.5135 56.7022C32.4887 56.7022 32.4701 56.7208 32.4639 56.7456C32.4266 56.9623 32.408 57.21 32.408 57.4825ZM31.1182 57.2534C31.1182 57.5258 31.1368 57.7735 31.174 57.9902C31.174 58.015 31.1988 58.0336 31.2174 58.0336C31.236 58.0336 31.2608 58.015 31.2608 57.9902C31.2918 57.7735 31.3166 57.5258 31.3166 57.2534C31.3166 56.9809 31.298 56.7332 31.2608 56.5165C31.2608 56.4917 31.236 56.4731 31.2174 56.4731C31.1988 56.4731 31.174 56.4917 31.174 56.5165C31.143 56.7332 31.1182 56.9809 31.1182 57.2534ZM29.8531 56.9252C29.8531 57.1976 29.8717 57.4453 29.9027 57.662C29.9027 57.6868 29.9213 57.7054 29.9461 57.7054C29.9709 57.7054 29.9833 57.6868 29.9895 57.662C30.0205 57.4453 30.0391 57.1976 30.0391 56.9252C30.0391 56.6527 30.0205 56.405 29.9895 56.1883C29.9895 56.1635 29.9709 56.1449 29.9461 56.1449C29.9213 56.1449 29.9089 56.1635 29.9027 56.1883C29.8717 56.405 29.8531 56.6527 29.8531 56.9252ZM28.6253 56.4793C28.6253 56.7518 28.6439 56.9995 28.6749 57.2162C28.6749 57.241 28.6935 57.2595 28.7183 57.2595C28.7431 57.2595 28.7555 57.241 28.7617 57.2162C28.7927 56.9995 28.8113 56.7518 28.8113 56.4793C28.8113 56.2069 28.7927 55.9592 28.7617 55.7424C28.7617 55.7177 28.7431 55.6991 28.7183 55.6991C28.6935 55.6991 28.6811 55.7177 28.6749 55.7424C28.6439 55.9592 28.6253 56.2069 28.6253 56.4793ZM27.4594 55.8911C27.4594 56.1635 27.478 56.4112 27.5028 56.6279C27.5028 56.6527 27.5214 56.6713 27.54 56.6713C27.5586 56.6713 27.5772 56.6527 27.5772 56.6279C27.6082 56.4112 27.6206 56.1635 27.6206 55.8911C27.6206 55.6186 27.602 55.3709 27.5772 55.1542C27.5772 55.1294 27.5586 55.1108 27.54 55.1108C27.5214 55.1108 27.5028 55.1294 27.5028 55.1542C27.4718 55.3709 27.4594 55.6186 27.4594 55.8911ZM26.4052 55.1232C26.4052 55.3957 26.4238 55.6434 26.4486 55.8601C26.4486 55.8849 26.4672 55.9034 26.4858 55.9034C26.5044 55.9034 26.5168 55.8849 26.523 55.8601C26.5478 55.6434 26.5664 55.3957 26.5664 55.1232C26.5664 54.8508 26.5478 54.6031 26.523 54.3863C26.523 54.3616 26.5044 54.343 26.4858 54.343C26.4672 54.343 26.4548 54.3616 26.4486 54.3863C26.4238 54.6031 26.4052 54.8508 26.4052 55.1232ZM35.0126 57.6559C35.0126 57.9283 35.0374 58.176 35.0746 58.3927C35.0746 58.4175 35.0994 58.4361 35.1242 58.4361C35.149 58.4361 35.1738 58.4175 35.1738 58.3927C35.211 58.176 35.2358 57.9283 35.2358 57.6559C35.2358 57.3834 35.211 57.1357 35.1738 56.919C35.1738 56.8942 35.149 56.8756 35.1242 56.8756C35.0994 56.8756 35.0746 56.8942 35.0746 56.919C35.0374 57.1357 35.0126 57.3834 35.0126 57.6559ZM25.5742 54.1201C25.5742 54.3925 25.5866 54.6402 25.6176 54.8569C25.6176 54.8817 25.6362 54.9003 25.6548 54.9003C25.6734 54.9003 25.6858 54.8817 25.692 54.8569C25.7168 54.6402 25.7355 54.3925 25.7355 54.1201C25.7355 53.8476 25.723 53.5999 25.692 53.3832C25.692 53.3584 25.6734 53.3398 25.6548 53.3398C25.6362 53.3398 25.6238 53.3584 25.6176 53.3832C25.5928 53.5999 25.5742 53.8476 25.5742 54.1201ZM44.6742 54.1201C44.6742 54.3925 44.6618 54.6402 44.6308 54.8569C44.6308 54.8817 44.6122 54.9003 44.5936 54.9003C44.575 54.9003 44.5626 54.8817 44.5564 54.8569C44.5316 54.6402 44.513 54.3925 44.513 54.1201C44.513 53.8476 44.5254 53.5999 44.5564 53.3832C44.5564 53.3584 44.575 53.3398 44.5936 53.3398C44.6122 53.3398 44.6246 53.3584 44.6308 53.3832C44.6556 53.5999 44.6742 53.8476 44.6742 54.1201Z" fill="#663D1F"/>
<path fill-rule="evenodd" clip-rule="evenodd" d="M25.332 51.7253C25.332 54.4809 29.6853 56.7163 35.0495 56.7163C40.4136 56.7163 44.7669 54.4809 44.7669 51.7253C44.7669 48.9698 40.4136 46.7344 35.0495 46.7344C29.6853 46.7344 25.332 48.9698 25.332 51.7253Z" fill="#FFEE76"/>
<path fill-rule="evenodd" clip-rule="evenodd" d="M25.2461 51.5993C25.2461 54.3239 29.6676 56.5345 35.1247 56.5345C40.5819 56.5345 45.0034 54.3239 45.0034 51.5993C45.0034 48.8747 40.5819 46.6641 35.1247 46.6641C29.6676 46.6641 25.2461 48.8747 25.2461 51.5993Z" fill="url(#paint37_linear_289_56483)"/>
<path fill-rule="evenodd" clip-rule="evenodd" d="M26.1824 51.3652C26.1203 53.7987 30.0706 55.8732 35.013 56.0032C39.9554 56.1332 44.0111 54.2632 44.0731 51.8358C44.1351 49.4022 40.1849 47.3278 35.2424 47.1978C30.3 47.0678 26.2444 48.9378 26.1824 51.3652Z" fill="#FFEE76"/>
<path fill-rule="evenodd" clip-rule="evenodd" d="M26.2441 51.6C26.2441 54.0521 30.2192 56.0399 35.1244 56.0399C40.0296 56.0399 44.0046 54.0521 44.0046 51.6C44.0046 49.1479 40.0296 47.1602 35.1244 47.1602C30.2192 47.1602 26.2441 49.1479 26.2441 51.6Z" fill="url(#paint38_linear_289_56483)"/>
<path style="mix-blend-mode:multiply" fill-rule="evenodd" clip-rule="evenodd" d="M26.6523 51.7536C26.6523 54.1748 30.584 56.1377 35.4334 56.1377C40.2828 56.1377 44.2144 54.1748 44.2144 51.7536C44.2144 49.3324 40.2828 47.3633 35.4334 47.3633C30.584 47.3633 26.6523 49.3262 26.6523 51.7536Z" fill="url(#paint39_linear_289_56483)"/>
<path fill-rule="evenodd" clip-rule="evenodd" d="M43.9926 51.8725C43.7073 49.5504 39.8501 47.7113 35.1247 47.7113C30.3993 47.7113 26.5421 49.5504 26.2569 51.8725C26.2445 51.7796 26.2383 51.6929 26.2383 51.6C26.2383 49.1479 30.2133 47.1602 35.1185 47.1602C40.0237 47.1602 43.9988 49.1479 43.9988 51.6C43.9988 51.6929 43.9988 51.7858 43.9802 51.8725H43.9926Z" fill="url(#paint40_linear_289_56483)"/>
<path fill-rule="evenodd" clip-rule="evenodd" d="M26.5469 51.4339C26.5469 54.1461 30.9684 56.3505 36.4255 56.3505C41.8827 56.3505 46.3042 54.1523 46.3042 51.4339V49.2852H26.5531V51.4339H26.5469Z" fill="url(#paint41_linear_289_56483)"/>
<path style="mix-blend-mode:screen" opacity="0.5" fill-rule="evenodd" clip-rule="evenodd" d="M35.1363 54.1623C35.5579 54.1871 35.9858 54.2056 36.4261 54.2056C37.3253 54.2056 38.1935 54.1437 39.0183 54.0322V56.1748C38.1935 56.2862 37.8214 56.3482 36.4261 56.3482C35.0308 56.3482 32.755 56.0819 31.248 55.6175V53.4688C32.4077 53.8279 33.7224 54.0694 35.1363 54.1561V54.1623Z" fill="url(#paint42_linear_289_56483)"/>
<path style="mix-blend-mode:multiply" opacity="0.5" fill-rule="evenodd" clip-rule="evenodd" d="M43.1543 52.8832C45.0705 51.9915 46.2798 50.7221 46.2984 49.3164V51.4342C46.2984 52.8522 45.0891 54.134 43.1543 55.0319V52.8832Z" fill="url(#paint43_linear_289_56483)"/>
<path style="mix-blend-mode:multiply" opacity="0.5" fill-rule="evenodd" clip-rule="evenodd" d="M28.5747 52.262V54.4107C27.3034 53.581 26.5469 52.5469 26.5469 51.4261V49.2773C26.5469 50.3981 27.3096 51.4323 28.5747 52.262Z" fill="url(#paint44_linear_289_56483)"/>
<path style="mix-blend-mode:screen" fill-rule="evenodd" clip-rule="evenodd" d="M35.1359 54.1649C35.5576 54.1896 35.9855 54.2082 36.4258 54.2082V56.3507C34.9313 56.3507 33.5174 56.1836 32.2461 55.8925V53.75C33.1453 53.9605 34.1189 54.103 35.1359 54.1711V54.1649Z" fill="url(#paint45_linear_289_56483)"/>
<path opacity="0.65" fill-rule="evenodd" clip-rule="evenodd" d="M37.8412 55.2844C37.8412 55.5568 37.8226 55.8045 37.7854 56.0213C37.7854 56.046 37.7606 56.0646 37.7358 56.0646C37.7109 56.0646 37.6923 56.046 37.6861 56.0213C37.6489 55.8045 37.6303 55.5568 37.6303 55.2844C37.6303 55.0119 37.6489 54.7642 37.6861 54.5475C37.6861 54.5227 37.7109 54.5042 37.7358 54.5042C37.7606 54.5042 37.7792 54.5227 37.7854 54.5475C37.8226 54.7642 37.8412 55.0119 37.8412 55.2844ZM39.1434 55.1543C39.1434 55.4268 39.1248 55.6745 39.0876 55.8912C39.0876 55.916 39.0628 55.9346 39.038 55.9346C39.0132 55.9346 38.9946 55.916 38.9884 55.8912C38.9512 55.6745 38.9326 55.4268 38.9326 55.1543C38.9326 54.8819 38.9512 54.6342 38.9884 54.4175C38.9884 54.3927 39.0132 54.3741 39.038 54.3741C39.0628 54.3741 39.0814 54.3927 39.0876 54.4175C39.1248 54.6342 39.1434 54.8819 39.1434 55.1543ZM40.4271 54.9314C40.4271 55.2039 40.4085 55.4516 40.3775 55.6683C40.3775 55.6931 40.3527 55.7116 40.3341 55.7116C40.3155 55.7116 40.2907 55.6931 40.2907 55.6683C40.2597 55.4516 40.2349 55.2039 40.2349 54.9314C40.2349 54.659 40.2535 54.4113 40.2907 54.1945C40.2907 54.1698 40.3155 54.1512 40.3341 54.1512C40.3527 54.1512 40.3775 54.1698 40.3775 54.1945C40.4085 54.4113 40.4271 54.659 40.4271 54.9314ZM41.6922 54.597C41.6922 54.8695 41.6736 55.1172 41.6426 55.3339C41.6426 55.3587 41.624 55.3773 41.5992 55.3773C41.5744 55.3773 41.562 55.3587 41.5557 55.3339C41.5247 55.1172 41.5061 54.8695 41.5061 54.597C41.5061 54.3246 41.5247 54.0769 41.5557 53.8602C41.5557 53.8354 41.5744 53.8168 41.5992 53.8168C41.624 53.8168 41.6364 53.8354 41.6426 53.8602C41.6736 54.0769 41.6922 54.3246 41.6922 54.597ZM42.92 54.1512C42.92 54.4237 42.9014 54.6713 42.8704 54.8881C42.8704 54.9128 42.8518 54.9314 42.827 54.9314C42.8022 54.9314 42.7898 54.9128 42.7836 54.8881C42.7526 54.6713 42.734 54.4237 42.734 54.1512C42.734 53.8787 42.7526 53.631 42.7836 53.4143C42.7836 53.3896 42.8022 53.371 42.827 53.371C42.8518 53.371 42.8642 53.3896 42.8704 53.4143C42.9014 53.631 42.92 53.8787 42.92 54.1512ZM44.0859 53.5629C44.0859 53.8354 44.0673 54.0831 44.0425 54.2998C44.0425 54.3246 44.0239 54.3432 44.0053 54.3432C43.9867 54.3432 43.9681 54.3246 43.9681 54.2998C43.937 54.0831 43.9246 53.8354 43.9246 53.5629C43.9246 53.2905 43.9432 53.0428 43.9681 52.8261C43.9681 52.8013 43.9867 52.7827 44.0053 52.7827C44.0239 52.7827 44.0425 52.8013 44.0425 52.8261C44.0735 53.0428 44.0859 53.2905 44.0859 53.5629ZM45.1401 52.7951C45.1401 53.0676 45.1215 53.3152 45.0967 53.532C45.0967 53.5567 45.0781 53.5753 45.0595 53.5753C45.0409 53.5753 45.0285 53.5567 45.0223 53.532C44.9975 53.3152 44.9789 53.0676 44.9789 52.7951C44.9789 52.5226 44.9975 52.2749 45.0223 52.0582C45.0223 52.0334 45.0409 52.0149 45.0595 52.0149C45.0781 52.0149 45.0905 52.0334 45.0967 52.0582C45.1215 52.2749 45.1401 52.5226 45.1401 52.7951ZM35.0072 55.2844C35.0072 55.5568 35.0258 55.8045 35.063 56.0213C35.063 56.046 35.0878 56.0646 35.1126 56.0646C35.1374 56.0646 35.156 56.046 35.1622 56.0213C35.1994 55.8045 35.218 55.5568 35.218 55.2844C35.218 55.0119 35.1994 54.7642 35.1622 54.5475C35.1622 54.5227 35.1374 54.5042 35.1126 54.5042C35.0878 54.5042 35.0692 54.5227 35.063 54.5475C35.0258 54.7642 35.0072 55.0119 35.0072 55.2844ZM33.7049 55.1543C33.7049 55.4268 33.7235 55.6745 33.7607 55.8912C33.7607 55.916 33.7855 55.9346 33.8103 55.9346C33.8351 55.9346 33.8537 55.916 33.8599 55.8912C33.8972 55.6745 33.9158 55.4268 33.9158 55.1543C33.9158 54.8819 33.8972 54.6342 33.8599 54.4175C33.8599 54.3927 33.8351 54.3741 33.8103 54.3741C33.7855 54.3741 33.7669 54.3927 33.7607 54.4175C33.7235 54.6342 33.7049 54.8819 33.7049 55.1543ZM32.4212 54.9314C32.4212 55.2039 32.4399 55.4516 32.4709 55.6683C32.4709 55.6931 32.4957 55.7116 32.5143 55.7116C32.5329 55.7116 32.5577 55.6931 32.5577 55.6683C32.5887 55.4516 32.6135 55.2039 32.6135 54.9314C32.6135 54.659 32.5949 54.4113 32.5577 54.1945C32.5577 54.1698 32.5329 54.1512 32.5143 54.1512C32.4957 54.1512 32.4709 54.1698 32.4709 54.1945C32.4399 54.4113 32.4212 54.659 32.4212 54.9314ZM31.1562 54.597C31.1562 54.8695 31.1748 55.1172 31.2058 55.3339C31.2058 55.3587 31.2244 55.3773 31.2492 55.3773C31.274 55.3773 31.2864 55.3587 31.2926 55.3339C31.3236 55.1172 31.3422 54.8695 31.3422 54.597C31.3422 54.3246 31.3236 54.0769 31.2926 53.8602C31.2926 53.8354 31.274 53.8168 31.2492 53.8168C31.2244 53.8168 31.212 53.8354 31.2058 53.8602C31.1748 54.0769 31.1562 54.3246 31.1562 54.597ZM29.9283 54.1512C29.9283 54.4237 29.9469 54.6713 29.9779 54.8881C29.9779 54.9128 29.9965 54.9314 30.0213 54.9314C30.0462 54.9314 30.0586 54.9128 30.0648 54.8881C30.0958 54.6713 30.1144 54.4237 30.1144 54.1512C30.1144 53.8787 30.0958 53.631 30.0648 53.4143C30.0648 53.3896 30.0462 53.371 30.0213 53.371C29.9965 53.371 29.9841 53.3896 29.9779 53.4143C29.9469 53.631 29.9283 53.8787 29.9283 54.1512ZM28.7625 53.5629C28.7625 53.8354 28.7811 54.0831 28.8059 54.2998C28.8059 54.3246 28.8245 54.3432 28.8431 54.3432C28.8617 54.3432 28.8803 54.3246 28.8803 54.2998C28.9113 54.0831 28.9237 53.8354 28.9237 53.5629C28.9237 53.2905 28.9051 53.0428 28.8803 52.8261C28.8803 52.8013 28.8617 52.7827 28.8431 52.7827C28.8245 52.7827 28.8059 52.8013 28.8059 52.8261C28.7749 53.0428 28.7625 53.2905 28.7625 53.5629ZM27.7083 52.7951C27.7083 53.0676 27.7269 53.3152 27.7517 53.532C27.7517 53.5567 27.7703 53.5753 27.7889 53.5753C27.8075 53.5753 27.8199 53.5567 27.8261 53.532C27.8509 53.3152 27.8695 53.0676 27.8695 52.7951C27.8695 52.5226 27.8509 52.2749 27.8261 52.0582C27.8261 52.0334 27.8075 52.0149 27.7889 52.0149C27.7703 52.0149 27.7579 52.0334 27.7517 52.0582C27.7269 52.2749 27.7083 52.5226 27.7083 52.7951ZM36.3157 55.3277C36.3157 55.6002 36.3405 55.8479 36.3777 56.0646C36.3777 56.0894 36.4025 56.108 36.4273 56.108C36.4521 56.108 36.4769 56.0894 36.4769 56.0646C36.5141 55.8479 36.5389 55.6002 36.5389 55.3277C36.5389 55.0553 36.5141 54.8076 36.4769 54.5909C36.4769 54.5661 36.4521 54.5475 36.4273 54.5475C36.4025 54.5475 36.3777 54.5661 36.3777 54.5909C36.3405 54.8076 36.3157 55.0553 36.3157 55.3277ZM26.8711 51.7919C26.8711 52.0644 26.8835 52.3121 26.9145 52.5288C26.9145 52.5536 26.9331 52.5722 26.9517 52.5722C26.9703 52.5722 26.9827 52.5536 26.9889 52.5288C27.0137 52.3121 27.0323 52.0644 27.0323 51.7919C27.0323 51.5195 27.0199 51.2718 26.9889 51.0551C26.9889 51.0303 26.9703 51.0117 26.9517 51.0117C26.9331 51.0117 26.9207 51.0303 26.9145 51.0551C26.8897 51.2718 26.8711 51.5195 26.8711 51.7919ZM45.9773 51.7919C45.9773 52.0644 45.9649 52.3121 45.9339 52.5288C45.9339 52.5536 45.9153 52.5722 45.8967 52.5722C45.878 52.5722 45.8656 52.5536 45.8594 52.5288C45.8346 52.3121 45.816 52.0644 45.816 51.7919C45.816 51.5195 45.8284 51.2718 45.8594 51.0551C45.8594 51.0303 45.878 51.0117 45.8967 51.0117C45.9153 51.0117 45.9277 51.0303 45.9339 51.0551C45.9587 51.2718 45.9773 51.5195 45.9773 51.7919Z" fill="#663D1F"/>
<path fill-rule="evenodd" clip-rule="evenodd" d="M26.6289 49.3972C26.6289 52.1528 30.9822 54.3882 36.3463 54.3882C41.7104 54.3882 46.0638 52.1528 46.0638 49.3972C46.0638 46.6417 41.7104 44.4062 36.3463 44.4062C30.9822 44.4062 26.6289 46.6417 26.6289 49.3972Z" fill="#FFEE76"/>
<path fill-rule="evenodd" clip-rule="evenodd" d="M26.5469 49.2712C26.5469 51.9958 30.9684 54.2064 36.4255 54.2064C41.8827 54.2064 46.3042 51.9958 46.3042 49.2712C46.3042 46.5466 41.8827 44.3359 36.4255 44.3359C30.9684 44.3359 26.5469 46.5466 26.5469 49.2712Z" fill="url(#paint46_linear_289_56483)"/>
<path fill-rule="evenodd" clip-rule="evenodd" d="M27.4773 49.0371C27.4153 51.4706 31.3655 53.545 36.3079 53.6751C41.2503 53.8051 45.306 51.935 45.368 49.5077C45.43 47.0741 41.4798 44.9997 36.5374 44.8697C31.5949 44.7396 27.5393 46.6097 27.4773 49.0371Z" fill="#FFEE76"/>
<path fill-rule="evenodd" clip-rule="evenodd" d="M27.5391 49.2719C27.5391 51.724 31.5141 53.7117 36.4193 53.7117C41.3245 53.7117 45.2996 51.724 45.2996 49.2719C45.2996 46.8197 41.3245 44.832 36.4193 44.832C31.5141 44.832 27.5391 46.8197 27.5391 49.2719Z" fill="url(#paint47_linear_289_56483)"/>
<path fill-rule="evenodd" clip-rule="evenodd" d="M45.2875 49.5443C45.0022 47.2222 41.145 45.3831 36.4197 45.3831C31.6943 45.3831 27.8371 47.2222 27.5518 49.5443C27.5394 49.4515 27.5332 49.3648 27.5332 49.2719C27.5332 46.8197 31.5082 44.832 36.4135 44.832C41.3187 44.832 45.2937 46.8197 45.2937 49.2719C45.2937 49.3648 45.2937 49.4577 45.2751 49.5443H45.2875Z" fill="url(#paint48_linear_289_56483)"/>
<path style="mix-blend-mode:multiply" fill-rule="evenodd" clip-rule="evenodd" d="M27.5957 49.1911C27.5957 51.6123 31.5273 53.5752 36.3767 53.5752C41.2261 53.5752 45.1578 51.6123 45.1578 49.1911C45.1578 46.7699 41.2261 44.8008 36.3767 44.8008C31.5273 44.8008 27.5957 46.7637 27.5957 49.1911Z" fill="url(#paint49_linear_289_56483)"/>
<path fill-rule="evenodd" clip-rule="evenodd" d="M27.168 48.8557C27.168 51.568 31.5895 53.7724 37.0466 53.7724C42.5038 53.7724 46.9253 51.5742 46.9253 48.8557V46.707H27.1742V48.8557H27.168Z" fill="url(#paint50_linear_289_56483)"/>
<path style="mix-blend-mode:screen" opacity="0.5" fill-rule="evenodd" clip-rule="evenodd" d="M35.7573 51.5881C36.179 51.6128 36.6069 51.6314 37.0472 51.6314C37.9464 51.6314 38.8146 51.5695 39.6394 51.458V53.6005C38.8146 53.712 38.4425 53.7739 37.0472 53.7739C35.6519 53.7739 33.3761 53.5077 31.8691 53.0432V50.8945C33.0288 51.2537 34.3435 51.4952 35.7573 51.5819V51.5881Z" fill="url(#paint51_linear_289_56483)"/>
<path style="mix-blend-mode:multiply" opacity="0.5" fill-rule="evenodd" clip-rule="evenodd" d="M43.7754 50.305C45.6916 49.4133 46.9008 48.1439 46.9194 46.7383V48.856C46.9194 50.2741 45.7102 51.5559 43.7754 52.4537V50.305Z" fill="url(#paint52_linear_289_56483)"/>
<path style="mix-blend-mode:multiply" opacity="0.5" fill-rule="evenodd" clip-rule="evenodd" d="M29.1958 49.6917V51.8404C27.9245 51.0107 27.168 49.9765 27.168 48.8557V46.707C27.168 47.8278 27.9307 48.8619 29.1958 49.6917Z" fill="url(#paint53_linear_289_56483)"/>
<path style="mix-blend-mode:screen" fill-rule="evenodd" clip-rule="evenodd" d="M35.757 51.5868C36.1787 51.6115 36.6066 51.6301 37.0469 51.6301V53.7726C35.5523 53.7726 34.1385 53.6054 32.8672 53.3144V51.1719C33.7664 51.3824 34.74 51.5248 35.757 51.5929V51.5868Z" fill="url(#paint54_linear_289_56483)"/>
<path opacity="0.65" fill-rule="evenodd" clip-rule="evenodd" d="M38.4603 52.7141C38.4603 52.9865 38.4417 53.2342 38.4045 53.4509C38.4045 53.4757 38.3797 53.4943 38.3549 53.4943C38.3301 53.4943 38.3115 53.4757 38.3053 53.4509C38.2681 53.2342 38.2495 52.9865 38.2495 52.7141C38.2495 52.4416 38.2681 52.1939 38.3053 51.9772C38.3053 51.9524 38.3301 51.9338 38.3549 51.9338C38.3797 51.9338 38.3983 51.9524 38.4045 51.9772C38.4417 52.1939 38.4603 52.4416 38.4603 52.7141ZM39.7564 52.5778C39.7564 52.8503 39.7378 53.098 39.7006 53.3147C39.7006 53.3395 39.6758 53.3581 39.651 53.3581C39.6262 53.3581 39.6076 53.3395 39.6014 53.3147C39.5641 53.098 39.5455 52.8503 39.5455 52.5778C39.5455 52.3054 39.5641 52.0577 39.6014 51.841C39.6014 51.8162 39.6262 51.7976 39.651 51.7976C39.6758 51.7976 39.6944 51.8162 39.7006 51.841C39.7378 52.0577 39.7564 52.3054 39.7564 52.5778ZM41.0463 52.3549C41.0463 52.6274 41.0277 52.8751 40.9966 53.0918C40.9966 53.1166 40.9718 53.1351 40.9532 53.1351C40.9346 53.1351 40.9098 53.1166 40.9098 53.0918C40.8788 52.8751 40.854 52.6274 40.854 52.3549C40.854 52.0825 40.8726 51.8348 40.9098 51.618C40.9098 51.5933 40.9346 51.5747 40.9532 51.5747C40.9718 51.5747 40.9966 51.5933 40.9966 51.618C41.0277 51.8348 41.0463 52.0825 41.0463 52.3549ZM42.3113 52.0267C42.3113 52.2992 42.2927 52.5469 42.2617 52.7636C42.2617 52.7884 42.2431 52.807 42.2183 52.807C42.1935 52.807 42.1811 52.7884 42.1749 52.7636C42.1439 52.5469 42.1253 52.2992 42.1253 52.0267C42.1253 51.7543 42.1439 51.5066 42.1749 51.2898C42.1749 51.2651 42.1935 51.2465 42.2183 51.2465C42.2431 51.2465 42.2555 51.2651 42.2617 51.2898C42.2927 51.5066 42.3113 51.7543 42.3113 52.0267ZM43.5392 51.5747C43.5392 51.8472 43.5206 52.0948 43.4896 52.3116C43.4896 52.3363 43.471 52.3549 43.4462 52.3549C43.4213 52.3549 43.4089 52.3363 43.4027 52.3116C43.3717 52.0948 43.3531 51.8472 43.3531 51.5747C43.3531 51.3022 43.3717 51.0545 43.4027 50.8378C43.4027 50.813 43.4213 50.7945 43.4462 50.7945C43.471 50.7945 43.4834 50.813 43.4896 50.8378C43.5206 51.0545 43.5392 51.3022 43.5392 51.5747ZM44.705 50.9864C44.705 51.2589 44.6864 51.5066 44.6616 51.7233C44.6616 51.7481 44.643 51.7666 44.6244 51.7666C44.6058 51.7666 44.5872 51.7481 44.5872 51.7233C44.5562 51.5066 44.5438 51.2589 44.5438 50.9864C44.5438 50.714 44.5624 50.4663 44.5872 50.2495C44.5872 50.2248 44.6058 50.2062 44.6244 50.2062C44.643 50.2062 44.6616 50.2248 44.6616 50.2495C44.6926 50.4663 44.705 50.714 44.705 50.9864ZM45.7592 50.2186C45.7592 50.491 45.7406 50.7387 45.7158 50.9555C45.7158 50.9802 45.6972 50.9988 45.6786 50.9988C45.66 50.9988 45.6476 50.9802 45.6414 50.9555C45.6166 50.7387 45.598 50.491 45.598 50.2186C45.598 49.9461 45.6166 49.6984 45.6414 49.4817C45.6414 49.4569 45.66 49.4384 45.6786 49.4384C45.6972 49.4384 45.7096 49.4569 45.7158 49.4817C45.7406 49.6984 45.7592 49.9461 45.7592 50.2186ZM35.6263 52.7141C35.6263 52.9865 35.6449 53.2342 35.6821 53.4509C35.6821 53.4757 35.7069 53.4943 35.7317 53.4943C35.7566 53.4943 35.7752 53.4757 35.7814 53.4509C35.8186 53.2342 35.8372 52.9865 35.8372 52.7141C35.8372 52.4416 35.8186 52.1939 35.7814 51.9772C35.7814 51.9524 35.7566 51.9338 35.7317 51.9338C35.7069 51.9338 35.6883 51.9524 35.6821 51.9772C35.6449 52.1939 35.6263 52.4416 35.6263 52.7141ZM34.3241 52.5778C34.3241 52.8503 34.3427 53.098 34.3799 53.3147C34.3799 53.3395 34.4047 53.3581 34.4295 53.3581C34.4543 53.3581 34.4729 53.3395 34.4791 53.3147C34.5163 53.098 34.5349 52.8503 34.5349 52.5778C34.5349 52.3054 34.5163 52.0577 34.4791 51.841C34.4791 51.8162 34.4543 51.7976 34.4295 51.7976C34.4047 51.7976 34.3861 51.8162 34.3799 51.841C34.3427 52.0577 34.3241 52.3054 34.3241 52.5778ZM33.0342 52.3549C33.0342 52.6274 33.0528 52.8751 33.09 53.0918C33.09 53.1166 33.1148 53.1351 33.1334 53.1351C33.152 53.1351 33.1768 53.1166 33.1768 53.0918C33.2078 52.8751 33.2326 52.6274 33.2326 52.3549C33.2326 52.0825 33.214 51.8348 33.1768 51.618C33.1768 51.5933 33.152 51.5747 33.1334 51.5747C33.1148 51.5747 33.09 51.5933 33.09 51.618C33.059 51.8348 33.0342 52.0825 33.0342 52.3549ZM31.7753 52.0267C31.7753 52.2992 31.7939 52.5469 31.8249 52.7636C31.8249 52.7884 31.8435 52.807 31.8683 52.807C31.8931 52.807 31.9056 52.7884 31.9118 52.7636C31.9428 52.5469 31.9614 52.2992 31.9614 52.0267C31.9614 51.7543 31.9428 51.5066 31.9118 51.2898C31.9118 51.2651 31.8931 51.2465 31.8683 51.2465C31.8435 51.2465 31.8311 51.2651 31.8249 51.2898C31.7939 51.5066 31.7753 51.7543 31.7753 52.0267ZM30.5475 51.5747C30.5475 51.8472 30.5661 52.0948 30.5971 52.3116C30.5971 52.3363 30.6157 52.3549 30.6405 52.3549C30.6653 52.3549 30.6777 52.3363 30.6839 52.3116C30.7149 52.0948 30.7335 51.8472 30.7335 51.5747C30.7335 51.3022 30.7149 51.0545 30.6839 50.8378C30.6839 50.813 30.6653 50.7945 30.6405 50.7945C30.6157 50.7945 30.6033 50.813 30.5971 50.8378C30.5661 51.0545 30.5475 51.3022 30.5475 51.5747ZM29.3816 50.9864C29.3816 51.2589 29.4002 51.5066 29.425 51.7233C29.425 51.7481 29.4436 51.7666 29.4622 51.7666C29.4808 51.7666 29.4995 51.7481 29.4995 51.7233C29.5305 51.5066 29.5429 51.2589 29.5429 50.9864C29.5429 50.714 29.5243 50.4663 29.4995 50.2495C29.4995 50.2248 29.4808 50.2062 29.4622 50.2062C29.4436 50.2062 29.425 50.2248 29.425 50.2495C29.394 50.4663 29.3816 50.714 29.3816 50.9864ZM28.3274 50.2186C28.3274 50.491 28.346 50.7387 28.3708 50.9555C28.3708 50.9802 28.3894 50.9988 28.408 50.9988C28.4266 50.9988 28.439 50.9802 28.4452 50.9555C28.47 50.7387 28.4886 50.491 28.4886 50.2186C28.4886 49.9461 28.47 49.6984 28.4452 49.4817C28.4452 49.4569 28.4266 49.4384 28.408 49.4384C28.3894 49.4384 28.377 49.4569 28.3708 49.4817C28.346 49.6984 28.3274 49.9461 28.3274 50.2186ZM36.9286 52.7574C36.9286 53.0299 36.9534 53.2776 36.9906 53.4943C36.9906 53.5191 37.0154 53.5376 37.0402 53.5376C37.065 53.5376 37.0898 53.5191 37.0898 53.4943C37.127 53.2776 37.1518 53.0299 37.1518 52.7574C37.1518 52.485 37.127 52.2373 37.0898 52.0205C37.0898 51.9958 37.065 51.9772 37.0402 51.9772C37.0154 51.9772 36.9906 51.9958 36.9906 52.0205C36.9534 52.2373 36.9286 52.485 36.9286 52.7574ZM27.4902 49.2216C27.4902 49.4941 27.5026 49.7418 27.5336 49.9585C27.5336 49.9833 27.5522 50.0019 27.5708 50.0019C27.5895 50.0019 27.6019 49.9833 27.6081 49.9585C27.6329 49.7418 27.6515 49.4941 27.6515 49.2216C27.6515 48.9492 27.6391 48.7015 27.6081 48.4848C27.6081 48.46 27.5895 48.4414 27.5708 48.4414C27.5522 48.4414 27.5398 48.46 27.5336 48.4848C27.5088 48.7015 27.4902 48.9492 27.4902 49.2216ZM46.5902 49.2216C46.5902 49.4941 46.5778 49.7418 46.5468 49.9585C46.5468 49.9833 46.5282 50.0019 46.5096 50.0019C46.491 50.0019 46.4786 49.9833 46.4724 49.9585C46.4476 49.7418 46.429 49.4941 46.429 49.2216C46.429 48.9492 46.4414 48.7015 46.4724 48.4848C46.4724 48.46 46.491 48.4414 46.5096 48.4414C46.5282 48.4414 46.5406 48.46 46.5468 48.4848C46.5716 48.7015 46.5902 48.9492 46.5902 49.2216Z" fill="#663D1F"/>
<path fill-rule="evenodd" clip-rule="evenodd" d="M27.248 46.8191C27.248 49.5746 31.6014 51.8101 36.9655 51.8101C42.3296 51.8101 46.6829 49.5746 46.6829 46.8191C46.6829 44.0635 42.3296 41.8281 36.9655 41.8281C31.6014 41.8281 27.248 44.0635 27.248 46.8191Z" fill="#FFEE76"/>
<path fill-rule="evenodd" clip-rule="evenodd" d="M27.168 46.697C27.168 49.4216 31.5895 51.6322 37.0466 51.6322C42.5038 51.6322 46.9253 49.4216 46.9253 46.697C46.9253 43.9724 42.5038 41.7617 37.0466 41.7617C31.5895 41.7617 27.168 43.9724 27.168 46.697Z" fill="url(#paint55_linear_289_56483)"/>
<path fill-rule="evenodd" clip-rule="evenodd" d="M28.0984 46.4589C28.0364 48.8925 31.9866 50.9669 36.929 51.0969C41.8714 51.227 45.9271 49.3569 45.9891 46.9296C46.0511 44.496 42.1009 42.4216 37.1585 42.2915C32.216 42.1615 28.1604 44.0316 28.0984 46.4589Z" fill="#FFEE76"/>
<path fill-rule="evenodd" clip-rule="evenodd" d="M28.1602 46.6977C28.1602 49.1498 32.1352 51.1375 37.0404 51.1375C41.9456 51.1375 45.9207 49.1498 45.9207 46.6977C45.9207 44.2455 41.9456 42.2578 37.0404 42.2578C32.1352 42.2578 28.1602 44.2455 28.1602 46.6977Z" fill="url(#paint56_linear_289_56483)"/>
<path fill-rule="evenodd" clip-rule="evenodd" d="M45.9086 46.9701C45.6233 44.648 41.7661 42.8089 37.0407 42.8089C32.3154 42.8089 28.4582 44.648 28.1729 46.9701C28.1605 46.8772 28.1543 46.7906 28.1543 46.6977C28.1543 44.2455 32.1293 42.2578 37.0345 42.2578C41.9398 42.2578 45.9148 44.2455 45.9148 46.6977C45.9148 46.7906 45.9148 46.8834 45.8962 46.9701H45.9086Z" fill="url(#paint57_linear_289_56483)"/>
<path style="mix-blend-mode:screen" fill-rule="evenodd" clip-rule="evenodd" d="M37.0397 42.807C32.4942 42.807 28.7486 44.5098 28.2215 46.7081C28.2029 46.7948 28.1843 46.8815 28.1719 46.9682C28.1905 47.1044 28.2153 47.2344 28.2587 47.3645C28.3579 47.6989 28.5316 48.0147 28.7734 48.3181L28.854 48.3057L39.8737 46.7019L45.5045 45.8845C44.3572 44.095 41.0023 42.8008 37.0459 42.8008L37.0397 42.807Z" fill="url(#paint58_linear_289_56483)"/>
<path style="mix-blend-mode:screen" fill-rule="evenodd" clip-rule="evenodd" d="M28.0985 46.4616C28.1543 44.2944 31.3728 42.5791 35.5649 42.319C36.0424 42.2819 36.5385 42.2571 37.0408 42.2571C41.4871 42.2571 45.1769 43.8919 45.8218 46.022C45.8466 46.0839 45.8652 46.1396 45.8838 46.2016L46.8388 46.0653C46.2187 43.638 42.07 41.7617 37.0408 41.7617C31.5836 41.7617 27.1621 43.9724 27.1621 46.697V46.7093C27.1621 47.4524 27.497 48.1583 28.0923 48.7899L29.0597 48.6475C28.9543 48.5422 28.8613 48.4308 28.7744 48.3193C28.5326 48.0159 28.359 47.6939 28.2597 47.3657C28.1729 47.149 28.1233 46.9323 28.1047 46.7093C28.0985 46.6288 28.0923 46.5421 28.0985 46.4616Z" fill="url(#paint59_linear_289_56483)"/>
</g>
<defs>
<linearGradient id="paint0_linear_289_56483" x1="0.142578" y1="43.3785" x2="10.629" y2="43.3785" gradientUnits="userSpaceOnUse">
<stop stop-color="#157519"/>
<stop offset="1" stop-color="#154522"/>
</linearGradient>
<linearGradient id="paint1_linear_289_56483" x1="0.0625" y1="40.2747" x2="10.5489" y2="40.2747" gradientUnits="userSpaceOnUse">
<stop stop-color="#157519"/>
<stop offset="1" stop-color="#154522"/>
</linearGradient>
<linearGradient id="paint2_linear_289_56483" x1="0" y1="31.2897" x2="55.8116" y2="31.2897" gradientUnits="userSpaceOnUse">
<stop stop-color="#51B850"/>
<stop offset="1" stop-color="#309631"/>
</linearGradient>
<linearGradient id="paint3_linear_289_56483" x1="0" y1="45.4999" x2="18.8457" y2="45.4999" gradientUnits="userSpaceOnUse">
<stop stop-color="#2C8A30"/>
<stop offset="1" stop-color="#257D2B"/>
</linearGradient>
<linearGradient id="paint4_linear_289_56483" x1="18.8457" y1="40.366" x2="55.8116" y2="40.366" gradientUnits="userSpaceOnUse">
<stop stop-color="#1E7321"/>
<stop offset="0.54" stop-color="#106615"/>
</linearGradient>
<linearGradient id="paint5_linear_289_56483" x1="41.4741" y1="43.3875" x2="17.8079" y2="23.2596" gradientUnits="userSpaceOnUse">
<stop stop-color="#7688AD"/>
<stop offset="0.39" stop-color="#8594B6"/>
<stop offset="1" stop-color="#A5AFCC"/>
</linearGradient>
<linearGradient id="paint6_linear_289_56483" x1="34.541" y1="40.1242" x2="40.7051" y2="40.1242" gradientUnits="userSpaceOnUse">
<stop stop-color="#8E2B0A"/>
<stop offset="0.71" stop-color="#662009"/>
</linearGradient>
<radialGradient id="paint7_radial_289_56483" cx="0" cy="0" r="1" gradientUnits="userSpaceOnUse" gradientTransform="translate(42.4921 7.35091) scale(44.6493 44.5843)">
<stop stop-color="#5CB04D"/>
<stop offset="1" stop-color="#81E371"/>
</radialGradient>
<linearGradient id="paint8_linear_289_56483" x1="15.875" y1="30.955" x2="40.705" y2="30.955" gradientUnits="userSpaceOnUse">
<stop stop-color="#E85731"/>
<stop offset="1" stop-color="#992700"/>
</linearGradient>
<radialGradient id="paint9_radial_289_56483" cx="0" cy="0" r="1" gradientUnits="userSpaceOnUse" gradientTransform="translate(40.8599 39.0988) scale(37.4062 37.3517)">
<stop stop-color="#00562F"/>
<stop offset="1" stop-color="white"/>
</radialGradient>
<linearGradient id="paint10_linear_289_56483" x1="17.3086" y1="20.9727" x2="25.9408" y2="20.9727" gradientUnits="userSpaceOnUse">
<stop stop-color="#157519"/>
<stop offset="1" stop-color="#154522"/>
</linearGradient>
<linearGradient id="paint11_linear_289_56483" x1="18.4238" y1="20.247" x2="30.0699" y2="20.247" gradientUnits="userSpaceOnUse">
<stop stop-color="#157519"/>
<stop offset="1" stop-color="#154522"/>
</linearGradient>
<linearGradient id="paint12_linear_289_56483" x1="19.5332" y1="16.3734" x2="28.1654" y2="16.3734" gradientUnits="userSpaceOnUse">
<stop stop-color="#157519"/>
<stop offset="1" stop-color="#154522"/>
</linearGradient>
<linearGradient id="paint13_linear_289_56483" x1="17.0836" y1="31.9779" x2="73.1867" y2="31.9779" gradientUnits="userSpaceOnUse">
<stop stop-color="#25752C"/>
<stop offset="1" stop-color="#1C5C25"/>
</linearGradient>
<linearGradient id="paint14_linear_289_56483" x1="17.8157" y1="14.2432" x2="56.5333" y2="54.8403" gradientUnits="userSpaceOnUse">
<stop stop-color="#309634"/>
<stop offset="1" stop-color="#257D2B"/>
</linearGradient>
<linearGradient id="paint15_linear_289_56483" x1="51.6074" y1="46.6648" x2="73.1879" y2="46.6648" gradientUnits="userSpaceOnUse">
<stop stop-color="#1E7321"/>
<stop offset="0.54" stop-color="#106615"/>
</linearGradient>
<linearGradient id="paint16_linear_289_56483" x1="20.334" y1="28.9907" x2="73.6217" y2="28.9907" gradientUnits="userSpaceOnUse">
<stop stop-color="#29802C"/>
<stop offset="1" stop-color="#1E6122"/>
</linearGradient>
<radialGradient id="paint17_radial_289_56483" cx="0" cy="0" r="1" gradientUnits="userSpaceOnUse" gradientTransform="translate(21.7982 12.0811) scale(59.9045 59.8173)">
<stop stop-color="#2C8A33"/>
<stop offset="1" stop-color="#216E27"/>
</radialGradient>
<radialGradient id="paint18_radial_289_56483" cx="0" cy="0" r="1" gradientUnits="userSpaceOnUse" gradientTransform="translate(60.0593 8.64502) scale(42.0199 41.9588)">
<stop stop-color="#5CB04D"/>
<stop offset="1" stop-color="#7AD66B"/>
</radialGradient>
<linearGradient id="paint19_linear_289_56483" x1="34.3675" y1="24.8757" x2="58.5588" y2="24.8757" gradientUnits="userSpaceOnUse">
<stop stop-color="#D5DCEB"/>
<stop offset="0.38" stop-color="#C5CDE1"/>
<stop offset="1" stop-color="#A5AFCC"/>
</linearGradient>
<linearGradient id="paint20_linear_289_56483" x1="35.571" y1="40.2193" x2="35.7689" y2="22.528" gradientUnits="userSpaceOnUse">
<stop stop-color="#ACBAD6"/>
<stop offset="0.25" stop-color="#C1CCE1"/>
<stop offset="0.74" stop-color="#E8EDF6"/>
<stop offset="1" stop-color="#F8FAFF"/>
</linearGradient>
<linearGradient id="paint21_linear_289_56483" x1="33.7665" y1="22.1239" x2="36.9944" y2="40.628" gradientUnits="userSpaceOnUse">
<stop stop-color="#0FB6F2"/>
<stop offset="1" stop-color="#1099DE"/>
</linearGradient>
<linearGradient id="paint22_linear_289_56483" x1="26.0637" y1="24.8734" x2="69.5347" y2="24.8734" gradientUnits="userSpaceOnUse">
<stop stop-color="#00A9F7"/>
<stop offset="1" stop-color="#0048A6"/>
</linearGradient>
<linearGradient id="paint23_linear_289_56483" x1="27.0879" y1="57.4694" x2="46.839" y2="57.4694" gradientUnits="userSpaceOnUse">
<stop stop-color="#B38746"/>
<stop offset="0.39" stop-color="#D9973B"/>
<stop offset="0.75" stop-color="#AD6C10"/>
<stop offset="0.86" stop-color="#D3953D"/>
<stop offset="1" stop-color="#B07F35"/>
</linearGradient>
<linearGradient id="paint24_linear_289_56483" x1="31.7809" y1="59.5616" x2="39.5511" y2="59.5616" gradientUnits="userSpaceOnUse">
<stop stop-color="#FFEE76"/>
<stop offset="1" stop-color="#1D1D1B"/>
</linearGradient>
<linearGradient id="paint25_linear_289_56483" x1="43.6934" y1="56.8273" x2="46.8374" y2="56.8273" gradientUnits="userSpaceOnUse">
<stop stop-color="white"/>
<stop offset="1" stop-color="#663D1F"/>
</linearGradient>
<linearGradient id="paint26_linear_289_56483" x1="27.0879" y1="56.5034" x2="29.1157" y2="56.5034" gradientUnits="userSpaceOnUse">
<stop stop-color="#663D1F"/>
<stop offset="1" stop-color="white"/>
</linearGradient>
<linearGradient id="paint27_linear_289_56483" x1="32.7809" y1="59.7004" x2="36.9606" y2="59.7004" gradientUnits="userSpaceOnUse">
<stop stop-color="#FFEE76"/>
<stop offset="1" stop-color="#1D1D1B"/>
</linearGradient>
<linearGradient id="paint28_linear_289_56483" x1="27.0879" y1="53.9235" x2="46.839" y2="53.9235" gradientUnits="userSpaceOnUse">
<stop stop-color="#FFE878"/>
<stop offset="1" stop-color="#E6A729"/>
</linearGradient>
<linearGradient id="paint29_linear_289_56483" x1="28.0801" y1="53.9203" x2="45.8406" y2="53.9203" gradientUnits="userSpaceOnUse">
<stop stop-color="#F0CC62"/>
<stop offset="1" stop-color="#ED9E1F"/>
</linearGradient>
<linearGradient id="paint30_linear_289_56483" x1="28.0804" y1="51.8413" x2="45.8409" y2="51.8413" gradientUnits="userSpaceOnUse">
<stop stop-color="#B38746"/>
<stop offset="0.39" stop-color="#D9973B"/>
<stop offset="0.75" stop-color="#AD6C10"/>
<stop offset="0.86" stop-color="#D3953D"/>
<stop offset="1" stop-color="#B07F35"/>
</linearGradient>
<linearGradient id="paint31_linear_289_56483" x1="28.166" y1="54.1029" x2="45.7281" y2="54.1029" gradientUnits="userSpaceOnUse">
<stop stop-color="#663D1F"/>
<stop offset="1" stop-color="#E0C0A8"/>
</linearGradient>
<linearGradient id="paint32_linear_289_56483" x1="25.2461" y1="55.1429" x2="45.0034" y2="55.1429" gradientUnits="userSpaceOnUse">
<stop stop-color="#B38746"/>
<stop offset="0.39" stop-color="#D9973B"/>
<stop offset="0.75" stop-color="#AD6C10"/>
<stop offset="0.86" stop-color="#D3953D"/>
<stop offset="1" stop-color="#B07F35"/>
</linearGradient>
<linearGradient id="paint33_linear_289_56483" x1="29.9453" y1="57.2335" x2="37.7155" y2="57.2335" gradientUnits="userSpaceOnUse">
<stop stop-color="#FFEE76"/>
<stop offset="1" stop-color="#1D1D1B"/>
</linearGradient>
<linearGradient id="paint34_linear_289_56483" x1="41.8516" y1="54.4992" x2="45.0018" y2="54.4992" gradientUnits="userSpaceOnUse">
<stop stop-color="white"/>
<stop offset="1" stop-color="#663D1F"/>
</linearGradient>
<linearGradient id="paint35_linear_289_56483" x1="25.2461" y1="54.1753" x2="27.2739" y2="54.1753" gradientUnits="userSpaceOnUse">
<stop stop-color="#663D1F"/>
<stop offset="1" stop-color="white"/>
</linearGradient>
<linearGradient id="paint36_linear_289_56483" x1="30.9453" y1="57.3723" x2="35.125" y2="57.3723" gradientUnits="userSpaceOnUse">
<stop stop-color="#FFEE76"/>
<stop offset="1" stop-color="#1D1D1B"/>
</linearGradient>
<linearGradient id="paint37_linear_289_56483" x1="25.2461" y1="51.5993" x2="45.0034" y2="51.5993" gradientUnits="userSpaceOnUse">
<stop stop-color="#FFE878"/>
<stop offset="1" stop-color="#E6A729"/>
</linearGradient>
<linearGradient id="paint38_linear_289_56483" x1="26.2441" y1="51.6" x2="44.0046" y2="51.6" gradientUnits="userSpaceOnUse">
<stop stop-color="#F0CC62"/>
<stop offset="1" stop-color="#ED9E1F"/>
</linearGradient>
<linearGradient id="paint39_linear_289_56483" x1="26.6523" y1="51.7536" x2="44.2144" y2="51.7536" gradientUnits="userSpaceOnUse">
<stop stop-color="#E0C0A8"/>
<stop offset="1" stop-color="#663D1F"/>
</linearGradient>
<linearGradient id="paint40_linear_289_56483" x1="26.2445" y1="49.5132" x2="44.005" y2="49.5132" gradientUnits="userSpaceOnUse">
<stop stop-color="#B38746"/>
<stop offset="0.39" stop-color="#D9973B"/>
<stop offset="0.75" stop-color="#AD6C10"/>
<stop offset="0.86" stop-color="#D3953D"/>
<stop offset="1" stop-color="#B07F35"/>
</linearGradient>
<linearGradient id="paint41_linear_289_56483" x1="26.5469" y1="52.8147" x2="46.298" y2="52.8147" gradientUnits="userSpaceOnUse">
<stop stop-color="#B38746"/>
<stop offset="0.39" stop-color="#D9973B"/>
<stop offset="0.75" stop-color="#AD6C10"/>
<stop offset="0.86" stop-color="#D3953D"/>
<stop offset="1" stop-color="#B07F35"/>
</linearGradient>
<linearGradient id="paint42_linear_289_56483" x1="31.248" y1="54.9115" x2="39.0183" y2="54.9115" gradientUnits="userSpaceOnUse">
<stop stop-color="#FFEE76"/>
<stop offset="1" stop-color="#1D1D1B"/>
</linearGradient>
<linearGradient id="paint43_linear_289_56483" x1="43.1543" y1="52.171" x2="46.2984" y2="52.171" gradientUnits="userSpaceOnUse">
<stop stop-color="white"/>
<stop offset="1" stop-color="#663D1F"/>
</linearGradient>
<linearGradient id="paint44_linear_289_56483" x1="26.5469" y1="51.8471" x2="28.5747" y2="51.8471" gradientUnits="userSpaceOnUse">
<stop stop-color="#663D1F"/>
<stop offset="1" stop-color="white"/>
</linearGradient>
<linearGradient id="paint45_linear_289_56483" x1="32.2399" y1="55.0442" x2="36.4196" y2="55.0442" gradientUnits="userSpaceOnUse">
<stop stop-color="#FFEE76"/>
<stop offset="1" stop-color="#1D1D1B"/>
</linearGradient>
<linearGradient id="paint46_linear_289_56483" x1="26.5469" y1="49.2712" x2="46.298" y2="49.2712" gradientUnits="userSpaceOnUse">
<stop stop-color="#FFE878"/>
<stop offset="1" stop-color="#E6A729"/>
</linearGradient>
<linearGradient id="paint47_linear_289_56483" x1="27.5391" y1="49.2719" x2="45.3058" y2="49.2719" gradientUnits="userSpaceOnUse">
<stop stop-color="#F0CC62"/>
<stop offset="1" stop-color="#ED9E1F"/>
</linearGradient>
<linearGradient id="paint48_linear_289_56483" x1="27.5394" y1="47.1913" x2="45.3061" y2="47.1913" gradientUnits="userSpaceOnUse">
<stop stop-color="#B38746"/>
<stop offset="0.39" stop-color="#D9973B"/>
<stop offset="0.75" stop-color="#AD6C10"/>
<stop offset="0.86" stop-color="#D3953D"/>
<stop offset="1" stop-color="#B07F35"/>
</linearGradient>
<linearGradient id="paint49_linear_289_56483" x1="27.5957" y1="49.1911" x2="45.1578" y2="49.1911" gradientUnits="userSpaceOnUse">
<stop stop-color="#663D1F"/>
<stop offset="1" stop-color="#E0C0A8"/>
</linearGradient>
<linearGradient id="paint50_linear_289_56483" x1="27.168" y1="50.2428" x2="46.9191" y2="50.2428" gradientUnits="userSpaceOnUse">
<stop stop-color="#B38746"/>
<stop offset="0.39" stop-color="#D9973B"/>
<stop offset="0.75" stop-color="#AD6C10"/>
<stop offset="0.86" stop-color="#D3953D"/>
<stop offset="1" stop-color="#B07F35"/>
</linearGradient>
<linearGradient id="paint51_linear_289_56483" x1="31.8691" y1="52.3373" x2="39.6332" y2="52.3373" gradientUnits="userSpaceOnUse">
<stop stop-color="#FFEE76"/>
<stop offset="1" stop-color="#1D1D1B"/>
</linearGradient>
<linearGradient id="paint52_linear_289_56483" x1="43.7754" y1="49.5929" x2="46.9194" y2="49.5929" gradientUnits="userSpaceOnUse">
<stop stop-color="white"/>
<stop offset="1" stop-color="#663D1F"/>
</linearGradient>
<linearGradient id="paint53_linear_289_56483" x1="27.168" y1="49.2768" x2="29.1958" y2="49.2768" gradientUnits="userSpaceOnUse">
<stop stop-color="#663D1F"/>
<stop offset="1" stop-color="white"/>
</linearGradient>
<linearGradient id="paint54_linear_289_56483" x1="32.861" y1="52.4722" x2="37.0407" y2="52.4722" gradientUnits="userSpaceOnUse">
<stop stop-color="#FFEE76"/>
<stop offset="1" stop-color="#1D1D1B"/>
</linearGradient>
<linearGradient id="paint55_linear_289_56483" x1="27.168" y1="46.697" x2="46.9191" y2="46.697" gradientUnits="userSpaceOnUse">
<stop stop-color="#FFE878"/>
<stop offset="1" stop-color="#E6A729"/>
</linearGradient>
<linearGradient id="paint56_linear_289_56483" x1="28.1602" y1="46.6977" x2="45.9269" y2="46.6977" gradientUnits="userSpaceOnUse">
<stop stop-color="#F0CC62"/>
<stop offset="1" stop-color="#ED9E1F"/>
</linearGradient>
<linearGradient id="paint57_linear_289_56483" x1="28.1605" y1="44.6171" x2="45.9272" y2="44.6171" gradientUnits="userSpaceOnUse">
<stop stop-color="#B38746"/>
<stop offset="0.39" stop-color="#D9973B"/>
<stop offset="0.75" stop-color="#AD6C10"/>
<stop offset="0.86" stop-color="#D3953D"/>
<stop offset="1" stop-color="#B07F35"/>
</linearGradient>
<linearGradient id="paint58_linear_289_56483" x1="28.1781" y1="45.5625" x2="45.5045" y2="45.5625" gradientUnits="userSpaceOnUse">
<stop stop-color="#FFEE76"/>
<stop offset="1" stop-color="#1D1D1B"/>
</linearGradient>
<linearGradient id="paint59_linear_289_56483" x1="27.1683" y1="45.2789" x2="46.8388" y2="45.2789" gradientUnits="userSpaceOnUse">
<stop stop-color="#FFEE76"/>
<stop offset="1" stop-color="#1D1D1B"/>
</linearGradient>
<clipPath id="clip0_289_56483">
<rect width="74" height="61" fill="white"/>
</clipPath>
</defs>
</svg>
