<svg width="612" height="72" viewBox="0 0 612 72" fill="none" xmlns="http://www.w3.org/2000/svg">
<path d="M10.192 70.658C6.46801 70.658 3.82201 69.9393 2.25401 68.502C0.751348 66.9993 1.44318e-05 64.8106 1.44318e-05 61.936C1.44318e-05 61.0866 0.032681 59.7473 0.0980143 57.918C0.228681 56.0233 0.392014 53.802 0.588015 51.254C0.784014 48.706 0.980014 45.9293 1.17601 42.924C1.43735 39.9186 1.69868 36.848 1.96001 33.712C2.28668 29.8573 2.54801 26.558 2.74401 23.814C3.00535 21.0046 3.20135 18.62 3.33201 16.66C3.46268 14.6346 3.56068 12.9686 3.62601 11.662C3.75668 10.29 3.82201 9.11396 3.82201 8.13396C3.88735 7.08862 3.92001 6.14129 3.92001 5.29195C3.98535 4.44262 4.01801 3.52796 4.01801 2.54795C4.01801 2.02529 4.18135 1.66596 4.50801 1.46996C4.83468 1.20862 5.16135 1.07796 5.48801 1.07796C7.18668 1.07796 9.04868 1.04529 11.074 0.979957C13.0993 0.849288 15.1247 0.718621 17.15 0.587956C19.1753 0.457291 21.1353 0.35929 23.03 0.293954C24.9247 0.163289 26.5907 0.0979562 28.028 0.0979562C32.2093 0.0979562 35.8027 0.620622 38.808 1.66595C41.8134 2.64596 44.2307 4.11596 46.06 6.07596C47.9547 7.97062 49.3267 10.29 50.176 13.034C51.0907 15.778 51.548 18.914 51.548 22.442C51.548 26.2966 51.0254 30.0206 49.98 33.614C49 37.142 47.432 40.278 45.276 43.022C43.12 45.766 40.3433 47.9546 36.946 49.588C33.5487 51.2213 29.498 52.038 24.794 52.038C21.9847 52.038 19.6 51.744 17.64 51.156L16.268 69.188C16.2027 69.7106 16.072 70.1026 15.876 70.364C15.68 70.56 15.288 70.658 14.7 70.658H10.192ZM26.068 14.798C25.2187 14.798 24.2713 14.8633 23.226 14.994C22.1807 15.0593 21.07 15.1573 19.894 15.288C19.7633 18.032 19.6 21.364 19.404 25.284C19.208 29.204 18.9467 33.32 18.62 37.632C19.6 37.8933 20.5473 38.0893 21.462 38.22C22.442 38.2853 23.324 38.318 24.108 38.318C26.3947 38.318 28.224 37.7953 29.596 36.75C31.0333 35.6393 32.144 34.3 32.928 32.732C33.712 31.164 34.2347 29.5306 34.496 27.832C34.7573 26.1333 34.888 24.6633 34.888 23.422C34.888 20.6126 34.2347 18.4893 32.928 17.052C31.6867 15.5493 29.4 14.798 26.068 14.798ZM67.8053 70.658C64.0813 70.658 61.4353 69.9393 59.8673 68.502C58.3646 66.9993 57.6133 64.8106 57.6133 61.936C57.6133 61.152 57.646 59.8453 57.7113 58.016C57.842 56.1213 58.0053 53.9 58.2013 51.352C58.3973 48.804 58.5933 46.0273 58.7893 43.022C59.0506 39.9513 59.312 36.848 59.5733 33.712C60.096 27.1133 60.4553 21.756 60.6513 17.64C60.9126 13.524 61.1086 10.29 61.2393 7.93795C61.4353 4.99795 61.6313 3.13595 61.8273 2.35196C62.0233 1.50262 62.448 1.07796 63.1013 1.07796C65.1266 1.07796 67.1846 1.04529 69.2753 0.979957C71.4313 0.849288 73.4893 0.718621 75.4493 0.587956C77.4093 0.457291 79.2386 0.35929 80.9373 0.293954C82.7013 0.163289 84.2693 0.0979562 85.6413 0.0979562C89.8226 0.0979562 93.416 0.620622 96.4213 1.66595C99.4266 2.71129 101.844 4.18129 103.673 6.07596C105.568 7.97062 106.94 10.2573 107.789 12.936C108.704 15.6146 109.161 18.62 109.161 21.952C109.161 27.048 108.149 31.5886 106.123 35.574C104.098 39.5593 100.864 42.5973 96.4213 44.688L104.653 56.448C106.156 58.6693 107.299 60.4006 108.083 61.642C108.867 62.818 109.259 63.7 109.259 64.288C109.259 64.7453 108.965 65.3986 108.377 66.248C107.855 67.032 107.038 67.8486 105.927 68.698C104.882 69.482 103.575 70.168 102.007 70.756C100.505 71.344 98.806 71.638 96.9113 71.638C94.8206 71.638 92.9913 70.952 91.4233 69.58C89.9206 68.208 88.5486 66.4113 87.3073 64.19C86.1313 61.9033 85.086 59.29 84.1713 56.35C83.322 53.41 82.5053 50.3393 81.7213 47.138C79.3693 47.0073 77.442 46.7786 75.9393 46.452C75.7433 49.3266 75.5473 52.0706 75.3513 54.684C75.1553 57.2973 74.992 59.6493 74.8613 61.74C74.7306 63.7653 74.6 65.464 74.4693 66.836C74.3386 68.1426 74.2733 68.9266 74.2733 69.188C74.208 69.7106 74.0773 70.1026 73.8813 70.364C73.6853 70.56 73.2933 70.658 72.7053 70.658H67.8053ZM83.6813 14.798C82.8973 14.798 82.0153 14.8633 81.0353 14.994C80.0553 15.0593 79.01 15.1573 77.8993 15.288C77.7686 17.5746 77.6053 20.3186 77.4093 23.52C77.2786 26.656 77.0826 30.0206 76.8213 33.614C79.108 34.1366 81.1006 34.398 82.7993 34.398C84.8246 34.398 86.458 34.006 87.6993 33.222C89.006 32.438 90.0186 31.4906 90.7373 30.38C91.456 29.204 91.9133 27.9626 92.1093 26.656C92.3706 25.3493 92.5013 24.1733 92.5013 23.128C92.5013 20.4493 91.848 18.3913 90.5413 16.954C89.2346 15.5166 86.948 14.798 83.6813 14.798ZM152.79 -4.25577e-05C157.559 -4.25577e-05 161.642 0.685956 165.04 2.05795C168.437 3.36462 171.214 5.32462 173.37 7.93795C175.526 10.486 177.094 13.622 178.074 17.346C179.054 21.0046 179.544 25.186 179.544 29.89C179.544 32.5033 179.348 35.3453 178.956 38.416C178.629 41.4866 177.976 44.59 176.996 47.726C176.081 50.7966 174.807 53.7693 173.174 56.644C171.54 59.5186 169.417 62.0666 166.804 64.288C164.256 66.5093 161.185 68.306 157.592 69.678C153.998 70.9846 149.752 71.638 144.852 71.638C139.429 71.638 134.921 70.8213 131.328 69.188C127.8 67.5546 124.958 65.366 122.802 62.622C120.711 59.8126 119.208 56.5133 118.294 52.724C117.444 48.9346 117.02 44.884 117.02 40.572C117.02 35.476 117.608 30.5106 118.784 25.676C119.96 20.776 121.92 16.4313 124.664 12.642C127.473 8.85262 131.164 5.81462 135.738 3.52795C140.311 1.17596 145.995 -4.25577e-05 152.79 -4.25577e-05ZM150.732 15.19C148.445 15.19 146.452 15.6146 144.754 16.464C143.12 17.248 141.716 18.326 140.54 19.698C139.429 21.07 138.514 22.6053 137.796 24.304C137.142 26.0026 136.62 27.7666 136.228 29.596C135.836 31.36 135.574 33.0913 135.444 34.79C135.313 36.4233 135.248 37.8933 135.248 39.2C135.248 45.1453 136.228 49.49 138.188 52.234C140.213 54.978 143.055 56.35 146.714 56.35C149.719 56.35 152.169 55.4026 154.064 53.508C155.958 51.548 157.428 49.2286 158.474 46.55C159.584 43.806 160.336 40.9966 160.728 38.122C161.12 35.182 161.316 32.6993 161.316 30.674C161.316 25.9046 160.499 22.148 158.866 19.404C157.232 16.5946 154.521 15.19 150.732 15.19ZM249.902 18.424C249.379 19.992 248.693 22.05 247.844 24.598C247.06 27.0806 246.178 29.8246 245.198 32.83C244.218 35.8353 243.205 39.0366 242.16 42.434C241.114 45.766 240.036 49.0326 238.926 52.234C237.88 55.4353 236.835 58.506 235.79 61.446C234.744 64.3206 233.797 66.836 232.948 68.992C232.686 69.5146 232.131 69.9393 231.282 70.266C230.498 70.5273 229.224 70.658 227.46 70.658C226.349 70.658 225.206 70.5926 224.03 70.462C222.854 70.3313 221.743 70.07 220.698 69.678C219.718 69.286 218.836 68.7633 218.052 68.11C217.333 67.4566 216.778 66.64 216.386 65.66C215.406 62.328 214.458 58.6366 213.544 54.586C212.694 50.47 211.845 46.2886 210.996 42.042C210.146 37.7953 209.297 33.6466 208.448 29.596C207.664 25.48 206.847 21.756 205.998 18.424C205.998 19.3386 205.965 20.9066 205.9 23.128C205.834 25.3493 205.769 27.93 205.704 30.87C205.638 33.81 205.54 36.9786 205.41 40.376C205.344 43.7733 205.279 47.1053 205.214 50.372C205.148 53.5733 205.083 56.5786 205.018 59.388C204.952 62.132 204.92 64.386 204.92 66.15C204.92 68.11 204.789 69.3513 204.528 69.874C204.332 70.3966 203.94 70.658 203.352 70.658H197.962C194.238 70.658 191.592 69.9393 190.024 68.502C188.521 66.9993 187.77 64.8106 187.77 61.936C187.77 61.152 187.802 59.8453 187.868 58.016C187.998 56.1213 188.162 53.9 188.358 51.352C188.554 48.804 188.75 46.0273 188.946 43.022C189.207 39.9513 189.468 36.848 189.73 33.712C190.056 29.4653 190.318 25.9373 190.514 23.128C190.775 20.2533 190.971 17.8686 191.102 15.974C191.232 14.0793 191.33 12.544 191.396 11.368C191.526 10.192 191.592 9.14662 191.592 8.23196C191.657 7.31729 191.69 6.46796 191.69 5.68395C191.755 4.83462 191.788 3.78929 191.788 2.54795C191.788 2.02529 191.984 1.66596 192.376 1.46996C192.768 1.20862 193.127 1.07796 193.454 1.07796H207.174C209.722 1.07796 211.812 1.50262 213.446 2.35196C215.079 3.13595 216.418 4.37729 217.464 6.07596C218.509 7.77462 219.358 9.99596 220.012 12.74C220.665 15.4186 221.253 18.62 221.776 22.344C222.364 26.068 222.984 30.38 223.638 35.28C224.356 40.1146 225.271 45.57 226.382 51.646C227.427 47.5953 228.309 44.2306 229.028 41.552C229.746 38.8733 230.334 36.652 230.792 34.888C231.314 33.0586 231.739 31.556 232.066 30.38C232.392 29.204 232.686 28.126 232.948 27.146C233.209 26.1006 233.503 24.99 233.83 23.814C234.156 22.638 234.548 21.168 235.006 19.404C235.463 17.64 236.018 15.4513 236.672 12.838C237.39 10.1593 238.272 6.79462 239.318 2.74396C239.448 2.35195 239.677 1.99262 240.004 1.66595C240.33 1.27395 240.918 1.07796 241.768 1.07796H257.056C259.146 1.07796 260.812 1.30662 262.054 1.76396C263.36 2.15596 264.373 2.74396 265.092 3.52795C265.81 4.31195 266.3 5.29196 266.562 6.46796C266.823 7.57862 266.954 8.88529 266.954 10.388C266.954 11.8906 266.856 14.3406 266.66 17.738C266.529 21.07 266.3 24.8593 265.974 29.106C265.712 33.2873 265.418 37.632 265.092 42.14C264.83 46.648 264.536 50.8293 264.21 54.684C263.948 58.5386 263.72 61.8053 263.524 64.484C263.328 67.1626 263.197 68.7306 263.132 69.188C263.066 69.7106 262.936 70.1026 262.74 70.364C262.544 70.56 262.152 70.658 261.564 70.658H256.174C252.45 70.658 249.804 69.9393 248.236 68.502C246.733 66.9993 245.982 65.072 245.982 62.72C245.982 62.0013 246.047 60.6946 246.178 58.8C246.374 56.9053 246.602 54.684 246.864 52.136C247.125 49.588 247.419 46.8113 247.746 43.806C248.072 40.7353 248.366 37.6973 248.628 34.692C248.889 31.6866 249.118 28.7793 249.314 25.97C249.575 23.0953 249.771 20.58 249.902 18.424ZM311.465 -4.25577e-05C316.235 -4.25577e-05 320.318 0.685956 323.715 2.05795C327.113 3.36462 329.889 5.32462 332.045 7.93795C334.201 10.486 335.769 13.622 336.749 17.346C337.729 21.0046 338.219 25.186 338.219 29.89C338.219 32.5033 338.023 35.3453 337.631 38.416C337.305 41.4866 336.651 44.59 335.671 47.726C334.757 50.7966 333.483 53.7693 331.849 56.644C330.216 59.5186 328.093 62.0666 325.479 64.288C322.931 66.5093 319.861 68.306 316.267 69.678C312.674 70.9846 308.427 71.638 303.527 71.638C298.105 71.638 293.597 70.8213 290.003 69.188C286.475 67.5546 283.633 65.366 281.477 62.622C279.387 59.8126 277.884 56.5133 276.969 52.724C276.12 48.9346 275.695 44.884 275.695 40.572C275.695 35.476 276.283 30.5106 277.459 25.676C278.635 20.776 280.595 16.4313 283.339 12.642C286.149 8.85262 289.84 5.81462 294.413 3.52795C298.987 1.17596 304.671 -4.25577e-05 311.465 -4.25577e-05ZM309.407 15.19C307.121 15.19 305.128 15.6146 303.429 16.464C301.796 17.248 300.391 18.326 299.215 19.698C298.105 21.07 297.19 22.6053 296.471 24.304C295.818 26.0026 295.295 27.7666 294.903 29.596C294.511 31.36 294.25 33.0913 294.119 34.79C293.989 36.4233 293.923 37.8933 293.923 39.2C293.923 45.1453 294.903 49.49 296.863 52.234C298.889 54.978 301.731 56.35 305.389 56.35C308.395 56.35 310.845 55.4026 312.739 53.508C314.634 51.548 316.104 49.2286 317.149 46.55C318.26 43.806 319.011 40.9966 319.403 38.122C319.795 35.182 319.991 32.6993 319.991 30.674C319.991 25.9046 319.175 22.148 317.541 19.404C315.908 16.5946 313.197 15.19 309.407 15.19ZM377.145 14.798L373.421 69.188C373.355 70.168 372.996 70.658 372.343 70.658H366.953C363.294 70.658 360.681 69.9393 359.113 68.502C357.545 67.0646 356.761 65.0066 356.761 62.328C356.761 61.348 356.793 59.878 356.859 57.918C356.989 55.958 357.153 53.6713 357.349 51.058C357.545 48.3793 357.741 45.5046 357.937 42.434C358.198 39.298 358.459 36.162 358.721 33.026C358.982 29.8246 359.211 26.656 359.407 23.52C359.668 20.384 359.897 17.4766 360.093 14.798H344.413C343.694 14.798 343.335 14.3406 343.335 13.426L343.629 7.93795C343.694 7.08862 343.825 6.27195 344.021 5.48796C344.282 4.63862 344.674 3.88729 345.197 3.23396C345.719 2.58062 346.373 2.05796 347.157 1.66595C348.006 1.27395 349.019 1.07796 350.195 1.07796H394.001C394.393 1.07796 394.752 1.17596 395.079 1.37196C395.405 1.56795 395.569 1.92729 395.569 2.44996L395.177 8.23196C395.046 10.192 394.491 11.7926 393.511 13.034C392.596 14.21 390.669 14.798 387.729 14.798H377.145ZM408.891 70.658C405.233 70.658 402.619 69.9393 401.051 68.502C399.483 67.0646 398.699 65.0066 398.699 62.328C398.699 61.0213 398.797 58.8 398.993 55.664C399.189 52.4626 399.451 48.8366 399.777 44.786C400.104 40.7353 400.431 36.456 400.757 31.948C401.084 27.44 401.411 23.1933 401.737 19.208C402.064 15.2226 402.325 11.7273 402.521 8.72196C402.717 5.71662 402.815 3.65862 402.815 2.54795C402.815 1.56795 403.338 1.07796 404.383 1.07796H409.773C413.759 1.07796 416.437 1.92729 417.809 3.62596C419.181 5.32462 419.867 7.83995 419.867 11.172C419.867 11.4986 419.802 12.544 419.671 14.308C419.606 16.072 419.475 18.2933 419.279 20.972C419.083 23.6506 418.855 26.656 418.593 29.988C418.397 33.2546 418.169 36.6193 417.907 40.082C417.711 43.5446 417.483 46.942 417.221 50.274C417.025 53.5406 416.829 56.5133 416.633 59.192C416.437 61.8706 416.274 64.1246 416.143 65.954C416.013 67.718 415.915 68.796 415.849 69.188C415.784 69.7106 415.653 70.1026 415.457 70.364C415.261 70.56 414.869 70.658 414.281 70.658H408.891ZM464.208 -4.25577e-05C468.977 -4.25577e-05 473.06 0.685956 476.458 2.05795C479.855 3.36462 482.632 5.32462 484.788 7.93795C486.944 10.486 488.512 13.622 489.492 17.346C490.472 21.0046 490.962 25.186 490.962 29.89C490.962 32.5033 490.766 35.3453 490.374 38.416C490.047 41.4866 489.394 44.59 488.414 47.726C487.499 50.7966 486.225 53.7693 484.592 56.644C482.958 59.5186 480.835 62.0666 478.222 64.288C475.674 66.5093 472.603 68.306 469.01 69.678C465.416 70.9846 461.17 71.638 456.27 71.638C450.847 71.638 446.339 70.8213 442.746 69.188C439.218 67.5546 436.376 65.366 434.22 62.622C432.129 59.8126 430.626 56.5133 429.712 52.724C428.862 48.9346 428.438 44.884 428.438 40.572C428.438 35.476 429.026 30.5106 430.202 25.676C431.378 20.776 433.338 16.4313 436.082 12.642C438.891 8.85262 442.582 5.81462 447.156 3.52795C451.729 1.17596 457.413 -4.25577e-05 464.208 -4.25577e-05ZM462.15 15.19C459.863 15.19 457.87 15.6146 456.172 16.464C454.538 17.248 453.134 18.326 451.958 19.698C450.847 21.07 449.932 22.6053 449.214 24.304C448.56 26.0026 448.038 27.7666 447.646 29.596C447.254 31.36 446.992 33.0913 446.862 34.79C446.731 36.4233 446.666 37.8933 446.666 39.2C446.666 45.1453 447.646 49.49 449.606 52.234C451.631 54.978 454.473 56.35 458.132 56.35C461.137 56.35 463.587 55.4026 465.482 53.508C467.376 51.548 468.846 49.2286 469.892 46.55C471.002 43.806 471.754 40.9966 472.146 38.122C472.538 35.182 472.734 32.6993 472.734 30.674C472.734 25.9046 471.917 22.148 470.284 19.404C468.65 16.5946 465.939 15.19 462.15 15.19ZM543.092 70.658C540.413 70.658 538.42 70.266 537.114 69.482C535.807 68.698 534.86 67.718 534.272 66.542C530.874 59.5513 527.673 52.8546 524.668 46.452C521.728 40.0493 518.722 33.5813 515.652 27.048C515.717 34.104 515.815 41.1273 515.946 48.118C516.076 55.1086 516.207 62.132 516.338 69.188C516.338 70.168 515.815 70.658 514.77 70.658H509.38C505.656 70.658 503.01 69.9393 501.442 68.502C499.939 66.9993 499.188 64.8106 499.188 61.936C499.188 61.152 499.22 59.8453 499.286 58.016C499.416 56.1213 499.58 53.9 499.776 51.352C499.972 48.804 500.168 46.0273 500.364 43.022C500.625 39.9513 500.886 36.848 501.148 33.712C501.54 28.7466 501.866 24.6306 502.128 21.364C502.389 18.0973 502.585 15.3533 502.716 13.132C502.912 10.8453 503.042 8.91796 503.108 7.34996C503.173 5.71662 503.238 4.11596 503.304 2.54795C503.304 1.56795 503.826 1.07796 504.872 1.07796H512.712C514.868 1.07796 516.632 1.33929 518.004 1.86196C519.376 2.31929 520.486 2.97262 521.336 3.82195C522.25 4.67129 522.969 5.65129 523.492 6.76196C524.014 7.80729 524.504 8.91796 524.962 10.094C526.53 14.1446 527.902 17.64 529.078 20.58C530.319 23.52 531.397 26.1006 532.312 28.322C533.226 30.5433 534.01 32.4706 534.664 34.104C535.382 35.7373 536.036 37.24 536.624 38.612C537.212 39.984 537.8 41.3233 538.388 42.63C538.976 43.8713 539.596 45.2433 540.25 46.746C540.25 42.8913 540.217 38.9386 540.152 34.888C540.152 30.772 540.119 26.7866 540.054 22.932C540.054 19.012 540.021 15.2553 539.956 11.662C539.956 8.06862 539.956 4.83462 539.956 1.95996C539.956 1.37196 540.511 1.07796 541.622 1.07796H547.012C549.168 1.07796 550.866 1.30662 552.108 1.76396C553.414 2.15596 554.427 2.77662 555.146 3.62596C555.864 4.40996 556.322 5.38995 556.518 6.56595C556.779 7.74196 556.91 9.08129 556.91 10.584C556.91 12.2173 556.812 14.7326 556.616 18.13C556.42 21.462 556.191 25.2186 555.93 29.4C555.668 33.5813 555.374 37.926 555.048 42.434C554.721 46.8766 554.394 50.9926 554.068 54.782C553.806 58.5713 553.545 61.8053 553.284 64.484C553.088 67.0973 552.957 68.6326 552.892 69.09C552.892 69.6126 552.696 70.0046 552.304 70.266C551.977 70.5273 551.585 70.658 551.128 70.658H543.092ZM593.608 0.0979562C599.75 0.0979562 604.29 1.43729 607.23 4.11596C610.236 6.79462 611.738 10.29 611.738 14.602C611.738 18.2606 610.726 21.07 608.7 23.03C606.675 24.9246 603.768 25.872 599.978 25.872C598.802 25.872 598.051 25.774 597.724 25.578C597.398 25.3166 597.234 24.8266 597.234 24.108C597.234 23.4546 597.169 22.6053 597.038 21.56C596.973 20.5146 596.744 19.502 596.352 18.522C595.96 17.542 595.34 16.7253 594.49 16.072C593.641 15.3533 592.465 14.994 590.962 14.994C588.872 14.994 587.01 15.6473 585.376 16.954C583.743 18.1953 582.926 19.8286 582.926 21.854C582.926 23.618 583.58 25.0553 584.886 26.166C586.258 27.2766 587.957 28.322 589.982 29.302C592.008 30.2166 594.196 31.164 596.548 32.144C598.966 33.124 601.187 34.4306 603.212 36.064C605.238 37.632 606.904 39.6246 608.21 42.042C609.582 44.394 610.268 47.3993 610.268 51.058C610.268 53.9326 609.778 56.644 608.798 59.192C607.884 61.6746 606.479 63.8633 604.584 65.758C602.755 67.5873 600.403 69.0246 597.528 70.07C594.719 71.1153 591.42 71.638 587.63 71.638C584.364 71.638 581.326 71.2786 578.516 70.56C575.772 69.8413 573.355 68.9593 571.264 67.914C569.239 66.8033 567.638 65.6273 566.462 64.386C565.286 63.0793 564.698 61.9033 564.698 60.858C564.698 56.546 564.927 53.4426 565.384 51.548C565.907 49.6533 566.822 48.706 568.128 48.706C569.043 48.706 569.99 49.098 570.97 49.882C572.016 50.666 573.192 51.548 574.498 52.528C575.805 53.508 577.308 54.39 579.006 55.174C580.77 55.958 582.796 56.35 585.082 56.35C585.997 56.35 586.879 56.2846 587.728 56.154C588.643 55.958 589.427 55.664 590.08 55.272C590.799 54.88 591.354 54.3573 591.746 53.704C592.204 53.0506 592.432 52.2666 592.432 51.352C592.432 49.7186 591.812 48.412 590.57 47.432C589.329 46.452 587.761 45.57 585.866 44.786C583.972 43.9366 581.914 43.0873 579.692 42.238C577.536 41.3233 575.511 40.1146 573.616 38.612C571.722 37.044 570.154 35.0513 568.912 32.634C567.671 30.2166 567.05 27.1133 567.05 23.324C567.05 19.0773 567.834 15.484 569.402 12.544C571.036 9.60396 573.094 7.21929 575.576 5.38996C578.124 3.49529 580.966 2.15595 584.102 1.37196C587.304 0.522623 590.472 0.0979562 593.608 0.0979562Z" fill="#F4FFFB"/>
</svg>
