<svg width="113" height="149" viewBox="0 0 113 149" fill="none" xmlns="http://www.w3.org/2000/svg">
<path d="M70.0327 149.002H42.9657C-4.09506 149.002 -8.19778 94.0636 10.0975 71.1091C19.5705 59.2274 26.7408 47.5501 31.4562 39.0443C33.7758 34.851 35.5039 31.4325 36.6152 29.1422C36.9025 28.5547 36.9448 27.8821 36.7462 27.2648C36.7462 27.2563 36.7377 27.2435 36.7377 27.2307C35.1237 22.3265 32.5209 15.7918 28.8914 10.9599C22.2916 2.18169 32.5928 -3.58674 44.3305 2.55632C56.0682 8.69938 70.0031 -3.00351 80.2704 1.09186C87.7533 4.07612 82.9028 18.4057 76.8818 27.3201C76.7043 27.5841 76.5818 27.8778 76.5142 28.1801C76.3959 28.725 76.4635 29.3082 76.717 29.8276C77.0846 30.5768 77.5071 31.4197 77.9804 32.3521C82.1803 40.5854 90.5969 55.6769 102.901 71.1048C121.2 94.0593 117.093 148.998 70.0327 148.998V149.002Z" fill="#C49452"/>
<g style="mix-blend-mode:multiply" opacity="0.5">
<path d="M102.897 71.1105C89.2028 53.9329 80.3171 37.1768 76.713 29.8332C76.3158 29.0286 76.3749 28.0665 76.8735 27.3215C82.8945 18.407 87.7451 4.08173 80.2622 1.09322C75.6651 -0.741609 70.3328 0.590877 64.7893 2.07236C69.8258 6.44019 65.2921 19.152 59.7782 27.3172C59.2754 28.0622 59.2204 29.0201 59.6176 29.8289C63.2218 37.1725 72.1032 53.9286 85.8015 71.1062C104.101 94.0607 99.9941 148.995 52.9375 148.995H70.0328C117.089 148.995 121.196 94.0564 102.897 71.1062V71.1105Z" fill="#C49452"/>
<path d="M55.1641 28.9221C55.1641 28.9221 57.8429 20.7697 56.7992 12.166C56.7992 12.166 60.4752 19.6586 57.8767 29.0669L55.1641 28.9221Z" fill="#C49452"/>
<path d="M51.1707 30.0116C51.1707 30.0116 50.7186 21.4335 46.6328 13.8047C46.6328 13.8047 52.7636 19.4326 53.7439 29.1474L51.1665 30.0074L51.1707 30.0116Z" fill="#C49452"/>
</g>
<g style="mix-blend-mode:multiply" opacity="0.5">
<path d="M76.1514 40.5564C72.9824 46.1801 68.4023 39.9604 68.4023 39.9604C68.4023 39.9604 67.9037 48.4236 67.3079 51.7229C66.7122 55.0264 61.5954 54.8604 63.7418 49.9306C65.8882 44.9966 65.5798 37.8148 65.5798 37.8148C65.5798 37.8148 60.1039 46.1673 58.1941 44.6816C56.2843 43.2001 59.1912 40.3095 59.1912 40.3095C52.7984 36.9634 61.8447 30.9438 61.8447 30.9438C50.8759 31.7654 37.4016 36.6867 31.4609 39.0451C33.7806 34.8518 35.5087 31.4333 36.62 29.143C36.9073 28.5555 36.9495 27.8829 36.7509 27.2656C36.7509 27.2571 36.7425 27.2443 36.7425 27.2315C36.9749 27.1975 37.2073 27.1634 37.4481 27.1336C47.4915 25.8309 70.5656 28.1809 70.5656 28.1809H76.5232C76.4049 28.7258 76.4725 29.309 76.726 29.8284C77.0936 30.5777 77.5161 31.4206 77.9894 32.3529L71.8289 31.6079C71.8289 31.6079 79.3245 34.9285 76.1598 40.5479L76.1514 40.5564Z" fill="#C49452"/>
</g>
<path d="M44.3274 4.14884C56.0651 10.2962 70 -1.41099 80.2673 2.68439C82.7687 3.68056 83.8884 5.94536 84.0531 8.84873C84.2433 5.19184 83.2081 2.26719 80.2673 1.09647C70 -2.9989 56.0609 8.70399 44.3274 2.56093C34.698 -2.48379 26.0363 0.496214 26.8813 6.57967C27.6292 1.60733 35.5811 -0.431843 44.3274 4.14884Z" fill="#E0AA69"/>
<path d="M77.5126 28.9504C77.5126 28.9504 77.5041 28.9546 77.4999 28.9589C77.3943 29.1036 77.2591 29.2186 77.1027 29.3037C76.9211 29.4059 76.714 29.4655 76.4901 29.4612C71.7536 29.3888 67.2072 29.491 62.9651 29.6954C48.2739 30.4021 37.246 32.3561 34.77 32.8244L34.0644 34.2079C32.7588 33.1479 32.7799 31.9474 32.7799 31.9474C32.6405 31.2663 33.0757 30.6064 33.7517 30.4659C33.8447 30.4446 38.4037 29.5634 45.7261 28.6864C52.8287 27.835 62.5341 26.9921 73.2873 26.958C74.5465 26.9495 75.8225 26.958 77.107 26.9751C77.3394 26.6217 77.6901 26.0853 77.8591 25.8086C77.8591 25.8086 78.5562 27.8818 77.5126 28.9504Z" fill="#684419"/>
<g style="mix-blend-mode:multiply" opacity="0.3">
<path d="M77.1032 29.3047C76.9216 29.4068 76.7145 29.4664 76.4906 29.4622C71.7541 29.3898 67.2077 29.492 62.9656 29.6963C61.229 29.4409 59.2938 29.2153 57.2488 29.0663C53.3024 28.7768 48.9673 28.6959 45.7266 28.6874C52.8292 27.836 62.5346 26.993 73.2878 26.959L77.1032 29.3047Z" fill="#684419"/>
</g>
<path d="M79.3473 30.7981C79.284 32.1264 78.1136 32.6159 78.1136 32.6159C77.9065 32.2158 77.7544 31.8752 77.6446 31.5985C76.3094 31.2026 74.9615 30.8492 73.6094 30.5342C69.4222 29.5508 65.1885 28.925 61.1407 28.5461C49.5974 27.4563 39.6047 28.3588 36.7822 28.6653C36.6808 29.2826 36.2752 29.853 36.2752 29.853C34.5682 29.3677 34.5935 27.6819 34.5935 27.6819C34.5006 26.9922 34.9822 26.3622 35.6625 26.2728C35.8315 26.2515 48.5791 24.5997 63.2956 26.243C65.4927 26.4899 67.7321 26.8092 69.9757 27.2179C72.832 27.7372 75.6967 28.4014 78.5065 29.24C79.1656 29.4358 79.5417 30.134 79.3473 30.7981Z" fill="#684419"/>
<g style="mix-blend-mode:multiply" opacity="0.3">
<path d="M61.1367 28.5473C62.3747 27.4574 63.4437 26.9593 63.4437 26.9593L63.2916 26.2441C65.4887 26.4911 67.7281 26.8103 69.9717 27.219C72.1055 28.5217 73.1111 29.6797 73.6054 30.5353C69.4182 29.5519 65.1845 28.9261 61.1367 28.5473Z" fill="#684419"/>
</g>
<path d="M67.92 29.9864C67.8989 31.7531 67.6242 34.6479 66.3524 37.7088C65.4186 39.9651 63.9398 42.3151 61.6244 44.367C61.3878 44.5799 61.092 44.682 60.8004 44.682C60.454 44.682 60.1117 44.5373 59.8667 44.2563C59.4103 43.7369 59.461 42.9409 59.9765 42.4853C61.5314 41.1103 62.6469 39.5649 63.4455 38.0239C64.9623 35.0949 65.3468 32.1618 65.4144 30.3482C65.4567 29.2456 65.3848 28.556 65.3806 28.5347C65.3046 27.845 65.7947 27.2235 66.475 27.1426C67.1594 27.066 67.7763 27.5598 67.8566 28.2452C67.8651 28.3431 67.9327 28.9817 67.92 29.9864Z" fill="#684419"/>
<g style="mix-blend-mode:multiply" opacity="0.3">
<path d="M67.9198 29.9863C67.8987 31.753 67.6241 34.6479 66.3523 37.7088C66.179 36.5892 65.803 35.6866 65.803 35.6866C65.4354 36.5636 64.4087 37.398 63.4453 38.0238C64.9622 35.0949 65.3467 32.1617 65.4143 30.3482L67.9198 29.9863Z" fill="#684419"/>
</g>
<path d="M67.1621 27.9246C67.0733 27.6947 66.917 27.4904 66.7015 27.3457C66.5917 27.269 66.4691 27.2137 66.3424 27.1839C66.0551 27.0987 65.7424 27.1243 65.4677 27.2605C65.2607 27.3627 64.6818 27.6522 63.9255 28.0907C63.8537 28.1332 63.7819 28.1758 63.71 28.2184C63.1523 28.5547 62.5143 28.9676 61.8678 29.4359C59.582 31.1047 57.1778 33.5483 57.744 36.1963C58.0905 37.8097 59.2144 38.8101 60.6805 38.8144C62.4636 38.8144 64.4199 37.2989 65.7382 34.6339C66.2072 33.6803 66.5959 32.5819 66.8663 31.3516C66.8874 31.2495 66.9128 31.1473 66.9297 31.0409C67.0945 30.232 67.2043 29.3721 67.255 28.461C67.2677 28.2737 67.2339 28.0949 67.1663 27.9246H67.1621ZM60.6763 36.3027C60.558 36.3027 60.3087 36.3027 60.1735 35.6684C59.9665 34.702 60.9298 33.4589 62.2904 32.2925C62.5861 32.0413 62.8988 31.7944 63.2241 31.5517C63.6255 31.2537 64.0438 30.9642 64.4664 30.696C64.2889 31.5687 64.0481 32.3308 63.7692 32.9864C63.6255 33.3355 63.4692 33.6505 63.3086 33.94C62.3918 35.579 61.2805 36.3027 60.6763 36.3027Z" fill="#684419"/>
<g style="mix-blend-mode:multiply" opacity="0.3">
<path d="M67.2532 28.461C67.2659 28.2737 67.2321 28.0949 67.1645 27.9246L66.4673 27.9842L66.3448 27.1839C66.0575 27.0987 65.7448 27.1243 65.4702 27.2605C65.2631 27.3627 64.6843 27.6522 63.928 28.0907C63.873 28.9761 63.7082 30.3384 63.2266 31.5517C63.628 31.2537 64.0463 30.9642 64.4688 30.696C64.4054 31.0068 64.3294 31.3005 64.2533 31.5858C64.1857 31.8284 64.1139 32.0583 64.0378 32.2797C64.0294 32.301 64.0251 32.3223 64.0167 32.3435C63.9406 32.5692 63.8561 32.782 63.7716 32.9864C63.628 33.3355 63.4716 33.6505 63.3111 33.94C63.8815 34.238 64.7181 34.5573 65.7364 34.6339C66.2054 33.6803 66.5941 32.5819 66.8645 31.3516C66.9321 31.3176 66.9659 31.2963 66.9659 31.2963L66.9279 31.0409C67.0927 30.232 67.2025 29.3721 67.2532 28.461Z" fill="#684419"/>
</g>
<path d="M70.4126 28.6831C69.3479 28.0318 68.4648 27.5677 68.0296 27.3549C67.9535 27.3123 67.8944 27.2825 67.8479 27.2612C67.4507 27.0654 66.9817 27.0995 66.6141 27.3464C66.2466 27.5933 66.0353 28.0147 66.0606 28.4617C66.2128 31.1352 66.7747 33.4681 67.5902 35.3839C68.355 37.1804 69.3437 38.6108 70.4253 39.6155C71.5915 40.701 72.8675 41.2843 74.0759 41.2843C75.7703 41.2843 77.0759 40.1135 77.4773 38.2276C78.3223 34.2685 73.5774 30.6286 70.4126 28.6831ZM75.0435 37.6997C74.8111 38.7768 74.2787 38.7768 74.0759 38.7768C73.045 38.7768 71.4774 37.5976 70.269 35.2391C69.8042 34.3366 69.3944 33.2595 69.0901 32.0079C69.0732 31.9526 69.0606 31.8973 69.0479 31.8419C68.9549 31.4588 68.8747 31.0586 68.8028 30.6414C69.2592 30.9181 69.7366 31.2246 70.2056 31.5482C72.8506 33.3532 75.4576 35.7713 75.0435 37.6997Z" fill="#684419"/>
<g style="mix-blend-mode:multiply" opacity="0.3">
<path d="M70.2074 31.5488C69.7384 31.2252 69.261 30.9187 68.8046 30.642C68.8765 31.0592 68.9567 31.4594 69.0497 31.8425L67.9258 30.8165L68.0314 27.3555C68.4666 27.5683 69.3497 28.0324 70.4145 28.6837C70.4483 29.4372 70.4356 30.5058 70.2074 31.5488Z" fill="#684419"/>
</g>
<g style="mix-blend-mode:multiply" opacity="0.3">
<path d="M70.4258 39.6162C69.3441 38.6115 68.3554 37.1811 67.5906 35.3846L67.2695 30.7656L69.0906 32.0087C69.3948 33.2603 69.8047 34.3374 70.2695 35.2399C70.392 36.6149 70.4892 38.2837 70.4258 39.6162Z" fill="#684419"/>
</g>
<path d="M67.3077 51.7218C67.0795 52.2241 66.564 52.5008 66.0485 52.4497C65.9176 52.4327 65.7866 52.3987 65.6598 52.3433C65.0345 52.0538 64.7556 51.3088 65.0429 50.6788C67.4936 45.2637 67.2992 39.0057 66.6739 34.6293C66.2133 31.3684 65.5162 29.1546 65.4993 29.0993C65.3809 28.7374 65.4359 28.3586 65.626 28.0563C65.7697 27.8094 66.0063 27.6136 66.2978 27.5199C66.7837 27.3624 67.295 27.5199 67.6119 27.8818C67.7217 28.0052 67.8105 28.1542 67.8654 28.3245C67.933 28.5416 68.6217 30.7213 69.1034 33.9312C69.8175 38.6438 70.0879 45.5745 67.3077 51.7218Z" fill="#684419"/>
<g style="mix-blend-mode:multiply" opacity="0.3">
<path d="M69.1038 33.9322C68.2377 34.3664 67.418 34.5708 66.6743 34.6304C66.2138 31.3694 65.5166 29.1557 65.4997 29.1004C65.3814 28.7385 65.4363 28.3596 65.6265 28.0574L67.6123 27.8828C67.7222 28.0063 67.8109 28.1553 67.8658 28.3256C67.9334 28.5427 68.6222 30.7223 69.1038 33.9322Z" fill="#684419"/>
</g>
<path d="M66.9213 33.1361C66.3044 33.2808 65.5523 33.2468 64.6523 32.9743C64.6523 32.9743 67.5171 30.6201 66.3974 25.8096C66.3974 25.8096 66.8326 25.5116 67.4283 25.4945C67.8424 25.486 68.341 25.6137 68.8227 26.082C69.8029 27.0356 70.1029 32.4039 66.9213 33.1361Z" fill="#684419"/>
<g style="mix-blend-mode:multiply" opacity="0.3">
<path d="M68.0748 29.9854C67.779 31.3562 67.3438 32.3907 66.9213 33.1357C66.3044 33.2805 65.5523 33.2464 64.6523 32.9739C64.6523 32.9739 67.5171 30.6197 66.3974 25.8092C66.3974 25.8092 66.8326 25.5112 67.4283 25.4941C67.9269 26.2647 68.548 27.7504 68.0748 29.9854Z" fill="#684419"/>
</g>
<path d="M67.1185 26.1589C66.9495 25.614 66.6157 25.2138 65.8932 25.1116C65.8932 25.1116 65.8932 25.1116 65.8889 25.1116C63.7087 24.8179 63.4172 26.2653 63.4172 26.2653C63.8228 26.3079 64.465 26.3973 64.8876 26.4526C64.896 26.5207 64.9087 26.5931 64.9256 26.6612C65.0185 26.9805 65.6143 29.2921 63.882 31.0886C63.5397 31.4462 63.1045 31.7826 62.551 32.0806C62.551 32.0806 62.5468 32.0806 62.5426 32.0806C62.0059 32.5233 61.5158 32.9831 61.1229 33.4343C61.1144 33.6131 61.1355 33.7919 61.1989 33.9707C61.3891 34.4986 61.8834 34.8051 62.382 34.7455C62.4707 34.737 62.5637 34.7115 62.6524 34.6774C62.7454 34.6391 62.8383 34.6008 62.9313 34.5582C67.634 32.4807 67.7565 28.2576 67.1185 26.1674V26.1589Z" fill="#684419"/>
</svg>
