<svg width="34" height="34" viewBox="0 0 34 34" fill="none" xmlns="http://www.w3.org/2000/svg">
<g clip-path="url(#clip0_2398_33968)">
<path d="M15.6141 11.9051C15.6141 11.9051 16.8833 13.1748 19.0348 16.9014C21.1864 20.628 21.6514 22.362 21.6514 22.362M16.2721 24.1434L16.6326 25.4896C16.7273 25.8431 16.7514 26.2118 16.7036 26.5746C16.6558 26.9374 16.537 27.2872 16.354 27.6041C16.171 27.9211 15.9274 28.1988 15.6371 28.4216C15.3467 28.6443 15.0153 28.8077 14.6619 28.9024C14.3084 28.9971 13.9397 29.0212 13.5769 28.9734C13.2141 28.9256 12.8642 28.8069 12.5473 28.6239C12.2304 28.4409 11.9526 28.1972 11.7299 27.9069C11.5071 27.6165 11.3437 27.2852 11.249 26.9317L10.9492 25.8101M18.3053 8.20703C18.3053 8.20703 19.7601 9.79782 22.6546 14.8117C25.5491 19.8256 26.1998 21.8807 26.1998 21.8807" stroke="#B3BEC1" stroke-width="2" stroke-linecap="round" stroke-linejoin="round"/>
<path d="M18.7701 9.01172C13.4175 13.6839 7.65466 19.5603 5.60746 21.6785C5.12797 22.1744 4.97503 22.8972 5.25118 23.5285C5.4017 23.8714 5.57954 24.2459 5.76344 24.5645C5.94734 24.8831 6.18283 25.2242 6.40497 25.5259C6.81283 26.0812 7.51567 26.3094 8.18451 26.1425C11.0426 25.4282 19.0135 23.3761 25.7359 21.077" stroke="#B3BEC1" stroke-width="2" stroke-linecap="round" stroke-linejoin="round"/>
<path d="M28.6359 12.3179L26.8151 12.3179M8 12.3179L9.82081 12.3179M18.3179 2L18.3179 3.82081M11.0219 5.02255L12.3087 6.31047M25.6133 5.02255L24.3254 6.31047" stroke="#B93DEB" stroke-width="2" stroke-linecap="round" stroke-linejoin="round"/>
</g>
<defs>
<clipPath id="clip0_2398_33968">
<rect width="34" height="34" fill="white"/>
</clipPath>
</defs>
</svg>
