<svg width="24" height="24" viewBox="0 0 24 24" fill="none" xmlns="http://www.w3.org/2000/svg">
<path d="M19.9957 18.2339V11.6484L16.0545 15.9281L12.1836 19.3834L16.5921 20.8445C17.7441 21.2262 18.3192 21.4171 18.7767 21.2913C19.177 21.1811 19.5224 20.9159 19.7432 20.5492C19.9949 20.1298 19.9949 19.4981 19.9949 18.2331L19.9957 18.2339Z" fill="#B93DEB"/>
<path fill-rule="evenodd" clip-rule="evenodd" d="M4.53431 5.46807C4 6.56708 4 8.00503 4 10.8809V11.2088C4 14.0847 4 15.5226 4.53431 16.6216C5.00427 17.5879 5.75415 18.3735 6.67647 18.8659C7.72549 19.4256 9.09804 19.4256 11.8431 19.4256H12.1569C14.902 19.4256 16.2745 19.4256 17.3235 18.8659C18.2459 18.3735 18.9957 17.5879 19.4657 16.6216C20 15.5235 20 14.0855 20 11.2088V10.8809C20 8.00503 20 6.56708 19.4657 5.46807C18.9957 4.5018 18.2459 3.71619 17.3235 3.22384C16.2745 2.66406 14.902 2.66406 12.1569 2.66406H11.8431C9.09804 2.66406 7.72549 2.66406 6.67647 3.22384C5.75415 3.71619 5.00427 4.5018 4.53431 5.46807ZM9.66177 12.1605H14.4003C14.6724 12.1605 14.808 12.1605 14.9297 12.2436C15.0204 12.3052 15.116 12.4481 15.1405 12.5594C15.1732 12.7075 15.1356 12.8136 15.0613 13.0242C14.7181 14.0034 13.8668 15.1315 12.1013 15.1315C10.3619 15.1315 9.43546 14.0376 9.01634 13.0687C8.92157 12.8504 8.875 12.7417 8.90033 12.5851C8.93008 12.4515 9.00313 12.333 9.10703 12.2496C9.23203 12.1605 9.375 12.1605 9.66177 12.1605Z" fill="#B3BEC1"/>
</svg>
