<svg width="19" height="21" viewBox="0 0 19 21" fill="none" xmlns="http://www.w3.org/2000/svg">
<path d="M0.75 17.5786V7.80714C0.75 7.46333 0.825437 7.13762 0.976312 6.83C1.12719 6.52238 1.33508 6.26905 1.6 6.07L7.975 1.18429C8.34687 0.894762 8.77187 0.75 9.25 0.75C9.72812 0.75 10.1531 0.894762 10.525 1.18429L16.9 6.07C17.1656 6.26905 17.3739 6.52238 17.5247 6.83C17.6756 7.13762 17.7507 7.46333 17.75 7.80714V17.5786C17.75 18.1757 17.5417 18.6871 17.1252 19.1127C16.7087 19.5383 16.2087 19.7507 15.625 19.75H12.4375C12.1365 19.75 11.8843 19.6458 11.681 19.4373C11.4777 19.2289 11.3757 18.9712 11.375 18.6643V13.2357C11.375 12.9281 11.273 12.6704 11.069 12.4627C10.865 12.255 10.6128 12.1507 10.3125 12.15H8.1875C7.88646 12.15 7.63429 12.2542 7.431 12.4627C7.22771 12.6711 7.12571 12.9288 7.125 13.2357V18.6643C7.125 18.9719 7.023 19.2299 6.819 19.4384C6.615 19.6469 6.36283 19.7507 6.0625 19.75H2.875C2.29062 19.75 1.79054 19.5376 1.37475 19.1127C0.958958 18.6878 0.750708 18.1764 0.75 17.5786Z" stroke="#B93DEB" stroke-width="1.5"/>
<path d="M6.75 19.75H15.625C16.2087 19.7507 16.7087 19.5383 17.1252 19.1127C17.5417 18.6871 17.75 18.1757 17.75 17.5786V7.80714C17.7507 7.46333 17.6756 7.13762 17.5247 6.83C17.3739 6.52238 17.1656 6.26905 16.9 6.07L10.525 1.18429C10.1531 0.894762 9.72812 0.75 9.25 0.75C8.77187 0.75 8.34687 0.894762 7.975 1.18429L1.6 6.07C1.33508 6.26905 1.12719 6.52238 0.976312 6.83C0.825437 7.13762 0.75 7.46333 0.75 7.80714V17.5786C0.750708 18.1764 0.958958 18.6878 1.37475 19.1127C1.79054 19.5376 2.29062 19.75 2.875 19.75H7.25" stroke="#9DA8AA" stroke-width="1.5" stroke-linecap="round"/>
</svg>
