<svg width="52" height="54" viewBox="0 0 52 54" fill="none" xmlns="http://www.w3.org/2000/svg">
<path d="M29.7123 1.54881C28.7217 0.556171 27.3886 0 26 0C24.6114 0 23.2783 0.556171 22.2877 1.54881L1.51703 23.194C0.948188 23.7932 0.52054 24.5166 0.266515 25.3095C0.0124893 26.1023 -0.0612462 26.9438 0.0508989 27.7701L2.87119 48.3479C3.04434 49.6278 3.66249 50.8017 4.61301 51.6556C5.56353 52.5095 6.78315 52.9866 8.04964 53H43.9504C45.2168 52.9866 46.4365 52.5095 47.387 51.6556C48.3375 50.8017 48.9557 49.6278 49.1288 48.3479L51.9491 27.7701C52.0612 26.9438 51.9875 26.1023 51.7335 25.3095C51.4795 24.5166 51.0518 23.7932 50.483 23.194L29.7123 1.54881Z" fill="url(#paint0_linear_1570_864)"/>
<path d="M29.4135 7.49958C28.5021 6.60359 27.2756 6.10156 25.9981 6.10156C24.7206 6.10156 23.4942 6.60359 22.5828 7.49958L3.4738 27.0374C2.95046 27.5783 2.55702 28.2313 2.32332 28.947C2.08962 29.6626 2.02178 30.4222 2.12495 31.168L4.71962 49.7423C4.87892 50.8977 5.44762 51.9572 6.3221 52.728C7.19658 53.4988 8.31863 53.9295 9.48379 53.9416H42.5125C43.6776 53.9295 44.7997 53.4988 45.6742 52.728C46.5486 51.9572 47.1173 50.8977 47.2766 49.7423L49.8713 31.168C49.9745 30.4222 49.9066 29.6626 49.6729 28.947C49.4392 28.2313 49.0458 27.5783 48.5225 27.0374L29.4135 7.49958Z" fill="url(#paint1_linear_1570_864)"/>
<g filter="url(#filter0_d_1570_864)">
<path d="M29.6602 16.3213C30.3211 15.3046 31.084 14.8575 31.4961 15.04C31.8626 15.2029 32.3757 15.7112 32.3047 16.3926C32.1214 15.8645 31.3905 15.8385 31.1865 16.0312C31.0645 16.1472 30.9806 16.4365 31.0947 16.5352C32.2948 16.0729 32.3011 16.6247 32.3047 16.668C32.3823 16.7877 32.5145 16.9061 32.5518 17.0234C33.0149 18.4903 30.5367 19.7761 30.6777 21.1182C30.8961 21.0474 31.9748 20.4721 32.5088 20.2383C33.0422 20.0046 32.9157 19.694 32.7227 19.3535C32.9362 19.4301 33.2255 19.7349 33.2256 20.0049C33.3142 19.9934 33.3849 19.9984 33.4297 20.0244C33.7956 20.2387 33.8159 21.6373 33.165 22.0645C32.5139 22.4917 30.5305 23.2391 30.4033 25.2734C30.3373 26.3291 31.1907 27.1202 32.5088 27.7646C32.1858 28.0426 31.3096 28.144 30.5107 27.6699C31.8208 28.7034 34.1553 31.7171 32.6396 33.4248C31.9906 31.1938 31.1247 29.8094 29.4668 28.3701C28.0355 27.1275 27.9954 26.293 27.8584 25.2734C27.1807 26.6318 27.7144 27.5694 28.3057 28.168C28.94 28.7642 29.902 29.9802 30.7324 31.4629C31.5727 32.8084 32.3456 34.6132 32.373 36.3721C32.4234 39.6027 31.8682 42.8121 30.498 44.4707C29.1279 46.129 27.2508 46.7921 25.5166 46.6943C23.9086 46.6038 22.9875 45.5738 22.6533 44.0596C22.6277 43.9432 22.6752 43.7234 22.5928 43.6621L22.4404 43.6406C21.5455 45.5815 19.5858 47.665 17.2168 46.7949C14.2155 45.6927 15.4986 39.777 16.126 37.458C16.4376 36.3069 16.9306 35.1396 17.1689 33.9707C17.7239 31.2478 14.0693 31.6672 12.3037 32.2783C13.0874 31.2624 15.6815 29.9579 16.9258 29.6562C23.2929 28.1138 19.3214 37.5444 18.6836 40.3203C18.4657 41.2681 18.2076 42.5458 18.3701 43.5049C18.5792 44.7385 19.9043 44.2347 20.5605 43.6406C21.2167 43.0466 21.2677 41.4491 21.6426 41.2686C22.0176 41.0883 22.328 41.2734 23.9648 40.8115C25.6011 40.3498 26.4736 38.5824 26.8633 38.5498C27.8223 38.4731 24.9746 44.686 27.6572 44.0596C28.7962 43.3867 29.4484 41.5491 29.8135 40.3203C30.2071 38.9951 30.266 37.5047 30.0771 36.0078C30.0756 36.0074 30.0738 36.0073 30.0723 36.0068C30.074 35.9989 30.0729 35.9898 30.0742 35.9805C29.9974 35.3811 29.8803 34.7813 29.7285 34.1904C29.3559 32.989 28.6878 31.4651 27.7148 30.416C25.7859 28.3365 24.4989 26.1344 25.9424 23.1221C25.1438 23.4834 23.3263 26.3147 25.6084 28.8457C27.4184 30.8526 28.0029 32.7255 27.4189 34.3408C27.4187 33.2575 26.4015 31.5505 25.1182 30.416C23.8347 29.2814 22.7795 28.0166 23.0488 25.5361C22.1043 26.5025 22.6419 29.2555 24.4219 30.8525C23.5978 30.8523 21.411 29.3881 21.1514 27.1201C20.8921 24.8521 21.6801 23.5293 22.3564 22.7969C20.9502 23.4235 19.8833 25.8532 20.1211 27.5693C20.3591 29.2856 21.7286 29.9348 21.332 31.2617C20.4048 29.6135 19.3096 27.9997 15.6836 29.2354C16.2228 28.7267 17.4894 27.7608 17.876 26.8506C17.0012 27.1201 16.4409 26.6975 16.2324 26.4482C17.2751 25.7616 18.7862 25.0342 19.3457 24.0576C18.6269 24.1407 17.5039 24.2206 16.8936 22.9189C18.5618 23.1224 20.8455 22.7961 22.0459 21.3975C21.3745 22.0178 19.5698 22.2418 19.0254 20.9199C19.7936 21.1995 21.4362 21.3059 22.2041 20.416C22.9721 19.5259 23.4605 18.3608 23.5215 17.7148C24.0759 18.1421 24.0197 19.3787 23.7705 19.8975C24.4621 18.743 25.7438 18.4278 27.3711 18.4785C27.9136 18.0987 29.1312 17.1351 29.6602 16.3213ZM27.8906 19.1318C27.7431 19.2539 27.3409 19.2998 27.0459 19.2998C26.0699 19.3457 25.9679 19.7425 25.8408 19.9561C25.7391 20.1269 25.5036 20.4479 25.3984 20.5869C25.4514 20.5866 25.6935 20.4598 25.8408 20.4141C26.0958 20.335 26.7157 20.266 26.8887 20.0117C27.0616 19.7576 27.3517 19.5741 27.8906 19.1318Z" fill="#FCFCFC"/>
<path d="M22.3132 30.6442C23.9213 32.3533 24.5886 32.9524 25.2987 35.0288C26.0089 37.1051 23.7177 39.0694 21.7407 40.4316C25.0969 40.4316 27.9887 37.1499 26.741 34.2139C25.4933 31.2778 23.0271 30.947 22.3132 30.6442Z" fill="#FCFCFC"/>
</g>
<defs>
<filter id="filter0_d_1570_864" x="12.3037" y="15" width="22.3809" height="33" filterUnits="userSpaceOnUse" color-interpolation-filters="sRGB">
<feFlood flood-opacity="0" result="BackgroundImageFix"/>
<feColorMatrix in="SourceAlpha" type="matrix" values="0 0 0 0 0 0 0 0 0 0 0 0 0 0 0 0 0 0 127 0" result="hardAlpha"/>
<feOffset dx="1" dy="1"/>
<feComposite in2="hardAlpha" operator="out"/>
<feColorMatrix type="matrix" values="0 0 0 0 0 0 0 0 0 0 0 0 0 0 0 0 0 0 0.55 0"/>
<feBlend mode="normal" in2="BackgroundImageFix" result="effect1_dropShadow_1570_864"/>
<feBlend mode="normal" in="SourceGraphic" in2="effect1_dropShadow_1570_864" result="shape"/>
</filter>
<linearGradient id="paint0_linear_1570_864" x1="26" y1="0" x2="26" y2="53" gradientUnits="userSpaceOnUse">
<stop stop-color="#FE55F8"/>
<stop offset="1" stop-color="#983395"/>
</linearGradient>
<linearGradient id="paint1_linear_1570_864" x1="25.9981" y1="6.10156" x2="25.9981" y2="53.9416" gradientUnits="userSpaceOnUse">
<stop stop-color="#FFA5F0"/>
<stop offset="1" stop-color="#9318B2"/>
</linearGradient>
</defs>
</svg>
