<svg width="34" height="34" viewBox="0 0 34 34" fill="none" xmlns="http://www.w3.org/2000/svg">
<path d="M22.7032 20.4098C23.5812 22.061 23.4887 24.3291 21.6758 25.2931C19.8629 26.257 17.9307 25.0652 17.0527 23.4141C18.9362 22.4126 18.3176 22.7415 19.8779 21.9119C21.4383 21.0822 21.7615 20.9106 22.7032 20.4098Z" fill="#B93DEB" stroke="#B93DEB" stroke-width="0.6"/>
<path d="M21.9709 20.072L16.6786 22.9221ZM21.9709 20.072L25.1375 18.3666C26.7813 17.4813 25.5459 15.808 24.2283 15.3306C19.4853 13.6162 19.7226 3.67978 12.1162 7.77619C4.50985 11.8726 12.7809 17.2256 11.5346 22.1668C11.2021 23.4875 11.8375 25.5293 13.5129 24.627L16.6786 22.9221" stroke="#B7C1C3" stroke-width="1.5" stroke-linecap="round" stroke-linejoin="round"/>
</svg>
