<svg width="21" height="23" viewBox="0 0 21 23" fill="none" xmlns="http://www.w3.org/2000/svg">
<g clip-path="url(#clip0_2411_34103)">
<path d="M16.75 10.75C18.4069 10.75 19.75 9.40685 19.75 7.75C19.75 6.09315 18.4069 4.75 16.75 4.75" stroke="#B93DEB" stroke-width="1.5"/>
<path d="M3.75 10.75C2.09315 10.75 0.75 9.40685 0.75 7.75C0.75 6.09315 2.09315 4.75 3.75 4.75" stroke="#B93DEB" stroke-width="1.5"/>
<path d="M5.58268 21.75H14.916M10.2493 16.8088V21.75M10.2493 16.8088C11.7964 16.8088 13.2802 16.1581 14.3741 14.9998C15.4681 13.8415 16.0827 12.2705 16.0827 10.6324V0.75H4.41602V10.6324C4.41602 12.2705 5.0306 13.8415 6.12456 14.9998C7.21852 16.1581 8.70225 16.8088 10.2493 16.8088Z" stroke="#9DA8AA" stroke-width="1.5" stroke-linecap="round" stroke-linejoin="round"/>
</g>
<defs>
<clipPath id="clip0_2411_34103">
<rect width="21" height="23" fill="white"/>
</clipPath>
</defs>
</svg>
