<svg width="24" height="24" viewBox="0 0 24 24" fill="none" xmlns="http://www.w3.org/2000/svg">
<path fill-rule="evenodd" clip-rule="evenodd" d="M14.1016 16.3022C12.8833 17.2792 11.3367 17.8636 9.65346 17.8636C5.72375 17.8636 2.53809 14.6779 2.53809 10.7482C2.53809 6.81847 5.72375 3.63281 9.65346 3.63281C13.5832 3.63281 16.7689 6.81847 16.7689 10.7482C16.7689 12.4486 16.1724 14.0097 15.1773 15.2337L15.9159 15.9723L14.8438 17.0444L14.1016 16.3022ZM14.5018 10.7481C14.5018 13.4257 12.3311 15.5963 9.65347 15.5963C6.97586 15.5963 4.80522 13.4257 4.80522 10.7481C4.80522 8.07042 6.97586 5.89979 9.65347 5.89979C12.3311 5.89979 14.5018 8.07042 14.5018 10.7481Z" fill="#B3BEC1"/>
<path fill-rule="evenodd" clip-rule="evenodd" d="M18.7108 21.0391C18.5763 21.1736 18.3582 21.1733 18.2241 21.0384L14.7092 17.5016C14.5758 17.3673 14.5761 17.1503 14.71 17.0164L15.8992 15.8272C16.0337 15.6927 16.2519 15.6931 16.3859 15.828L19.9008 19.3647C20.0343 19.499 20.034 19.716 19.9001 19.8499L18.7108 21.0391Z" fill="#B3BEC1"/>
<path d="M22.88 4.78739C22.2726 5.03906 21.7877 5.26556 21.4253 5.4669C21.0662 5.66824 20.7861 5.86789 20.5847 6.06588C20.3867 6.26386 20.1871 6.54237 19.9857 6.90142C19.7844 7.26047 19.5545 7.75207 19.2962 8.37621H19.0898C18.8281 7.75207 18.5965 7.26047 18.3952 6.90142C18.1938 6.54237 17.9959 6.26386 17.8012 6.06588C17.5999 5.86789 17.318 5.66824 16.9556 5.4669C16.5966 5.26556 16.1117 5.03906 15.501 4.78739V4.58102C16.115 4.32935 16.6016 4.10284 16.9607 3.90151C17.3231 3.70017 17.6033 3.50051 17.8012 3.30253C17.9959 3.10455 18.1938 2.82603 18.3952 2.46698C18.5965 2.10793 18.8281 1.61633 19.0898 0.992188H19.2962C19.5545 1.61633 19.7844 2.10793 19.9857 2.46698C20.1871 2.82603 20.3867 3.10455 20.5847 3.30253C20.7793 3.50051 21.0562 3.70017 21.4152 3.90151C21.7776 4.10284 22.2659 4.32935 22.88 4.58102V4.78739Z" fill="#B93DEB"/>
</svg>
