<svg width="25" height="25" viewBox="0 0 25 25" fill="none" xmlns="http://www.w3.org/2000/svg">
<path d="M8.16667 14.9961C7.59203 14.9961 7.04093 15.1937 6.6346 15.5455C6.22827 15.8973 6 16.3744 6 16.8718V18.1204C6 18.6178 6.22827 19.0949 6.6346 19.4467C7.04093 19.7985 7.59203 19.9961 8.16667 19.9961H16.8333C17.408 19.9961 17.9591 19.7985 18.3654 19.4467C18.7717 19.0949 19 18.6178 19 18.1204V16.8718C19 16.3744 18.7717 15.8973 18.3654 15.5455C17.9591 15.1937 17.408 14.9961 16.8333 14.9961H8.16667ZM17.5578 16.8718V18.1204C17.5578 18.2867 17.4815 18.4462 17.3456 18.5639C17.2098 18.6815 17.0255 18.7476 16.8333 18.7476H8.16667C7.97452 18.7476 7.79025 18.6815 7.65438 18.5639C7.51852 18.4462 7.44219 18.2867 7.44219 18.1204V16.8718C7.44397 16.7065 7.52109 16.5485 7.65676 16.4321C7.79243 16.3158 7.97569 16.2505 8.16667 16.2505H16.8333C17.0243 16.2505 17.2076 16.3158 17.3432 16.4321C17.4789 16.5485 17.556 16.7065 17.5578 16.8718Z" fill="#B93DEB"/>
<path d="M22.9689 9.35658L22.2158 4.92689C22.0798 4.108 21.6488 3.36334 21.0005 2.82683C20.3522 2.29031 19.5291 1.99714 18.6791 2.00002H6.32088C5.4709 1.99714 4.64776 2.29031 3.99946 2.82683C3.35116 3.36334 2.92024 4.108 2.78419 4.92689L2.03113 9.35658C1.95305 9.79691 2.02279 10.2501 2.22997 10.6486C2.43715 11.0471 2.77068 11.3696 3.18089 11.5681V19.5022C3.18089 20.4299 3.55846 21.3196 4.23054 21.9755C4.90263 22.6315 5.81417 23 6.76464 23H18.2354C19.1858 23 20.0974 22.6315 20.7695 21.9755C21.4415 21.3196 21.8191 20.4299 21.8191 19.5022V11.5616C22.2293 11.3631 22.5629 11.0405 22.77 10.642C22.9772 10.2435 23.047 9.79035 22.9689 9.35001V9.35658ZM20.7971 5.15658L21.5569 9.58626C21.5734 9.68627 21.5675 9.78858 21.5397 9.88616C21.5118 9.98375 21.4627 10.0743 21.3956 10.1516C21.3286 10.2289 21.2452 10.2911 21.1511 10.334C21.0571 10.3769 20.9547 10.3994 20.8509 10.4H18.8338L17.6504 3.39783H18.6791C19.1887 3.39767 19.6816 3.57456 20.0697 3.89682C20.4578 4.21908 20.7156 4.66566 20.7971 5.15658ZM7.60511 10.4066L8.80194 3.39783H11.7806V10.4L7.60511 10.4066ZM13.2194 3.39783H16.1981L17.3882 10.4H13.2194V3.39783ZM4.2029 5.15658C4.28436 4.66566 4.54222 4.21908 4.9303 3.89682C5.31839 3.57456 5.81134 3.39767 6.32088 3.39783H7.34961L6.15278 10.4H4.13566C4.03188 10.3994 3.92946 10.3769 3.83543 10.334C3.7414 10.2911 3.65799 10.2289 3.59092 10.1516C3.52385 10.0743 3.47472 9.98375 3.44688 9.88616C3.41905 9.78858 3.41317 9.68627 3.42966 9.58626L4.2029 5.15658ZM20.387 19.5022C20.387 20.0591 20.1603 20.5933 19.7568 20.9871C19.3533 21.3809 18.806 21.6022 18.2354 21.6022H6.76464C6.194 21.6022 5.64674 21.3809 5.24323 20.9871C4.83973 20.5933 4.61304 20.0591 4.61304 19.5022V11.7978H20.387V19.5022Z" fill="#9DA8AA"/>
</svg>
