<svg width="64" height="44" viewBox="0 0 64 44" fill="none" xmlns="http://www.w3.org/2000/svg">
<path d="M59.63 6.96V32.58C59.63 36.42 56.51 39.54 52.67 39.54H6.95C3.11 39.53 0 36.42 0 32.57V6.96C0 3.12 3.11 0 6.96 0H52.68C56.51 0 59.63 3.11 59.63 6.96Z" fill="#9590C0"/>
<path d="M63.9994 11.3194V36.9394C63.9994 40.7794 60.8794 43.8994 57.0394 43.8994H11.3194C7.47937 43.8994 4.35938 40.7894 4.35938 36.9394V11.3194C4.35938 7.47938 7.46937 4.35938 11.3194 4.35938H57.0394C60.8794 4.36937 63.9994 7.47938 63.9994 11.3194Z" fill="#088EF9"/>
<path d="M17.5281 38.9395H9.82812C9.54812 38.9395 9.32812 38.7195 9.32812 38.4395C9.32812 38.1595 9.54812 37.9395 9.82812 37.9395H17.5281C17.8081 37.9395 18.0281 38.1595 18.0281 38.4395C18.0281 38.7195 17.8081 38.9395 17.5281 38.9395Z" fill="#EFEFED"/>
<path d="M25.2281 34.7891H9.82812C9.54812 34.7891 9.32812 34.5691 9.32812 34.2891C9.32812 34.0091 9.54812 33.7891 9.82812 33.7891H25.2381C25.5181 33.7891 25.7381 34.0091 25.7381 34.2891C25.7381 34.5691 25.5081 34.7891 25.2281 34.7891Z" fill="#EFEFED"/>
<path d="M45.2798 28.2802C45.2798 29.3102 44.4398 30.1502 43.4098 30.1502H38.1998C37.1698 30.1502 36.3398 29.3102 36.3398 28.2802C36.3398 27.2502 37.1698 26.4102 38.1998 26.4102H43.4098C44.4398 26.4102 45.2798 27.2502 45.2798 28.2802Z" fill="white"/>
<path d="M32.0181 28.2802C32.0181 29.3102 31.1881 30.1502 30.1581 30.1502H24.9481C23.9181 30.1502 23.0781 29.3102 23.0781 28.2802C23.0781 27.2502 23.9181 26.4102 24.9481 26.4102H30.1581C31.1881 26.4102 32.0181 27.2502 32.0181 28.2802Z" fill="white"/>
<path d="M18.7603 28.2802C18.7603 29.3102 17.9303 30.1502 16.8903 30.1502H11.6903C10.6503 30.1502 9.82031 29.3102 9.82031 28.2802C9.82031 27.2502 10.6503 26.4102 11.6903 26.4102H16.8903C17.9303 26.4102 18.7603 27.2502 18.7603 28.2802Z" fill="white"/>
<path d="M58.5416 28.2802C58.5416 29.3102 57.7116 30.1502 56.6716 30.1502H51.4716C50.4316 30.1502 49.6016 29.3102 49.6016 28.2802C49.6016 27.2502 50.4316 26.4102 51.4716 26.4102H56.6716C57.7116 26.4102 58.5416 27.2502 58.5416 28.2802Z" fill="white"/>
<path d="M18.8381 11.3995V17.1495C18.8381 18.0495 18.1081 18.7795 17.2081 18.7795H11.4581C10.5581 18.7795 9.82812 18.0495 9.82812 17.1495V11.3995C9.82812 10.4995 10.5581 9.76953 11.4581 9.76953H17.2081C18.0981 9.76953 18.8381 10.4995 18.8381 11.3995Z" fill="#FBE063"/>
<path d="M52.5198 15.0597L48.9698 18.6097C48.5398 19.0397 47.8298 19.0397 47.3998 18.6097L43.8498 15.0597C43.4198 14.6297 43.4198 13.9197 43.8498 13.4897L47.3998 9.93969C47.8298 9.50969 48.5398 9.50969 48.9698 9.93969L52.5198 13.4897C52.9598 13.9197 52.9598 14.6297 52.5198 15.0597Z" fill="#54E28E"/>
<path d="M57.5706 15.0597L54.0206 18.6097C53.5906 19.0397 52.8806 19.0397 52.4506 18.6097L48.9006 15.0597C48.4706 14.6297 48.4706 13.9197 48.9006 13.4897L52.4506 9.93969C52.8806 9.50969 53.5906 9.50969 54.0206 9.93969L57.5706 13.4897C58.0006 13.9197 58.0006 14.6297 57.5706 15.0597Z" fill="white"/>
</svg>
