<svg width="9" height="9" viewBox="0 0 9 9" fill="none" xmlns="http://www.w3.org/2000/svg">
<path opacity="0.2" d="M4.05 6.75H4.95V4.05H4.05V6.75ZM4.5 3.15C4.6275 3.15 4.73445 3.1068 4.82085 3.0204C4.90725 2.934 4.9503 2.8272 4.95 2.7C4.9497 2.5728 4.9065 2.466 4.8204 2.3796C4.7343 2.2932 4.6275 2.25 4.5 2.25C4.3725 2.25 4.2657 2.2932 4.1796 2.3796C4.0935 2.466 4.0503 2.5728 4.05 2.7C4.0497 2.8272 4.0929 2.93415 4.1796 3.02085C4.2663 3.10755 4.3731 3.1506 4.5 3.15ZM4.5 9C3.8775 9 3.2925 8.8818 2.745 8.6454C2.1975 8.409 1.72125 8.08845 1.31625 7.68375C0.91125 7.27905 0.5907 6.8028 0.3546 6.255C0.118501 5.7072 0.000300569 5.1222 5.6962e-07 4.5C-0.00029943 3.8778 0.117901 3.2928 0.3546 2.745C0.5913 2.1972 0.91185 1.72095 1.31625 1.31625C1.72065 0.91155 2.1969 0.591 2.745 0.3546C3.2931 0.1182 3.8781 0 4.5 0C5.1219 0 5.7069 0.1182 6.255 0.3546C6.8031 0.591 7.27935 0.91155 7.68375 1.31625C8.08815 1.72095 8.40884 2.1972 8.64584 2.745C8.88284 3.2928 9.00089 3.8778 8.99999 4.5C8.99909 5.1222 8.88089 5.7072 8.6454 6.255C8.40989 6.8028 8.08935 7.27905 7.68375 7.68375C7.27815 8.08845 6.8019 8.40915 6.255 8.64585C5.7081 8.88255 5.1231 9.0006 4.5 9Z" fill="white"/>
</svg>
