<svg width="25" height="24" viewBox="0 0 25 24" fill="none" xmlns="http://www.w3.org/2000/svg">
<g filter="url(#filter0_d_236_28902)">
<path d="M10.8834 6.03846C11.3665 5.04609 12.7805 5.04609 13.2636 6.03846L14.3242 8.21719C14.5155 8.60998 14.8882 8.88312 15.3203 8.94717L17.7243 9.30346C18.8039 9.46345 19.2368 10.7877 18.4603 11.5546L16.6997 13.2934C16.3927 13.5966 16.2527 14.0305 16.3247 14.4559L16.7367 16.892C16.9201 17.9758 15.7788 18.7979 14.8088 18.2807L12.6963 17.1542C12.307 16.9466 11.84 16.9466 11.4507 17.1542L9.33817 18.2807C8.3682 18.7979 7.22694 17.9758 7.41028 16.892L7.82233 14.4559C7.8943 14.0305 7.75435 13.5966 7.44733 13.2934L5.68667 11.5546C4.91018 10.7877 5.34316 9.46345 6.42271 9.30346L8.82672 8.94717C9.25886 8.88312 9.63156 8.60997 9.82278 8.21719L10.8834 6.03846Z" fill="url(#paint0_linear_236_28902)"/>
</g>
<defs>
<filter id="filter0_d_236_28902" x="-0.0015769" y="0.000376225" width="24.1516" height="23.7336" filterUnits="userSpaceOnUse" color-interpolation-filters="sRGB">
<feFlood flood-opacity="0" result="BackgroundImageFix"/>
<feColorMatrix in="SourceAlpha" type="matrix" values="0 0 0 0 0 0 0 0 0 0 0 0 0 0 0 0 0 0 127 0" result="hardAlpha"/>
<feOffset/>
<feGaussianBlur stdDeviation="2.64727"/>
<feComposite in2="hardAlpha" operator="out"/>
<feColorMatrix type="matrix" values="0 0 0 0 0.933333 0 0 0 0 0.741176 0 0 0 0 0.113725 0 0 0 1 0"/>
<feBlend mode="normal" in2="BackgroundImageFix" result="effect1_dropShadow_236_28902"/>
<feBlend mode="normal" in="SourceGraphic" in2="effect1_dropShadow_236_28902" result="shape"/>
</filter>
<linearGradient id="paint0_linear_236_28902" x1="12.0735" y1="3.59375" x2="12.0735" y2="19.5483" gradientUnits="userSpaceOnUse">
<stop stop-color="#D89C1C"/>
<stop offset="1" stop-color="#FBCF1F"/>
</linearGradient>
</defs>
</svg>
