<svg width="20" height="20" viewBox="0 0 20 20" fill="none" xmlns="http://www.w3.org/2000/svg">
<path d="M5.97309 3.33398C7.38673 3.34285 8.74935 3.54835 10.0389 3.92447L9.93416 3.89843L11.1517 4.22303C12.1205 4.51439 13.2361 4.68943 14.3894 4.70605H14.3982C14.4326 4.7066 14.4736 4.70715 14.5146 4.70715C15.3305 4.70715 16.1065 4.53821 16.81 4.233L16.7729 4.2474C16.8665 4.20475 16.9757 4.17927 17.0908 4.17927C17.411 4.17927 17.6858 4.37203 17.806 4.64788L17.8077 4.65287C17.8503 4.74703 17.8758 4.85727 17.8769 4.97303V15.0505C17.8719 15.3114 17.7445 15.5413 17.55 15.6864L17.5479 15.6881C16.7352 16.2531 15.7277 16.591 14.6409 16.591C14.5528 16.591 14.4653 16.5888 14.3777 16.5844L14.3899 16.5849C13.0821 16.5683 11.8275 16.3667 10.6427 16.0039L10.7374 16.0287L10.076 15.8504C8.85291 15.4627 7.44429 15.2284 5.98473 15.2051H5.97254C5.91881 15.2034 5.85511 15.2029 5.79141 15.2029C4.85916 15.2029 3.96734 15.3751 3.14533 15.6887L3.19628 15.6715C3.11043 15.7069 3.01072 15.728 2.90603 15.728C2.577 15.728 2.29616 15.5236 2.18371 15.2344L2.18205 15.2295C2.1466 15.143 2.12611 15.0428 2.125 14.9375V4.99797C2.12666 4.74815 2.24133 4.52547 2.41969 4.37812L2.42079 4.37702C3.28122 3.68166 4.46495 3.33398 5.97199 3.33398H5.97309ZM14.7844 13.391C14.3124 13.8457 13.99 14.4529 13.8975 15.133L13.8959 15.1486C14.0528 15.1486 14.2151 15.1486 14.3827 15.1486C14.427 15.1502 14.4785 15.1514 14.5312 15.1514C15.1693 15.1514 15.7759 15.0145 16.322 14.7686L16.2944 14.7797L16.4527 14.6982V12.462C15.7886 12.5944 15.2169 12.9257 14.7865 13.3893L14.7849 13.3915L14.7844 13.391ZM10.0073 5.51754C8.06304 5.51754 6.48435 7.4208 6.48435 9.82373C6.48435 12.2267 8.06304 14.1825 10.0073 14.1825C11.9516 14.1825 13.5341 12.2305 13.5341 9.82761C13.5341 7.42467 11.9555 5.51754 10.0073 5.51754ZM3.53418 11.5121V14.0651L3.77347 14.008C4.32906 13.8795 4.97105 13.7992 5.63022 13.7848H6.3226L6.27385 13.6142C6.08499 12.9717 5.69392 12.4382 5.17489 12.0737L5.16603 12.0677C4.70572 11.7552 4.14737 11.5536 3.5447 11.5121H3.53418ZM10.3967 6.95055V7.32773C10.7152 7.36211 10.9955 7.50167 11.2088 7.70942C11.3667 7.89661 11.4664 8.13761 11.4763 8.40123V8.78898H10.2588V8.42398C10.2588 8.18467 10.1857 8.0628 10.0355 8.0628C9.88548 8.0628 9.80848 8.17636 9.80848 8.39573C9.80735 8.4118 9.80623 8.43005 9.80623 8.44892C9.80623 8.55805 9.8306 8.66105 9.87491 8.75298L9.87329 8.74855C9.92423 8.8128 9.98185 8.8693 10.0455 8.91748L10.0477 8.91917L11.1152 9.60492C11.4187 9.86473 11.6098 10.2486 11.6098 10.6762C11.6098 10.7105 11.6087 10.7444 11.6059 10.7781V10.7737C11.6059 11.6153 11.2379 12.1037 10.502 12.2389H10.3602V12.7014H9.83673V12.2632C9.45948 12.2427 9.1266 12.0682 8.89666 11.8024L8.89504 11.8007C8.71891 11.553 8.61254 11.2451 8.61085 10.9122V10.5062H9.82841V11.0014C9.82785 11.0163 9.82729 11.0335 9.82729 11.0512C9.82729 11.1941 9.84998 11.332 9.89154 11.4617L9.88879 11.4522C9.91366 11.5082 9.9691 11.5464 10.0333 11.5464C10.0394 11.5464 10.0455 11.5459 10.0516 11.5453C10.2139 11.5453 10.2948 11.44 10.2948 11.2207C10.3004 11.1792 10.3037 11.1315 10.3037 11.0828C10.3037 10.8119 10.2034 10.5643 10.0378 10.3749L10.0389 10.376C9.99848 10.3394 9.77523 10.1932 9.37747 9.94173C8.91997 9.67142 8.61754 9.18061 8.61754 8.61948C8.61754 8.60067 8.6181 8.58186 8.6186 8.56298V8.5658C8.61698 8.54361 8.61641 8.51761 8.61641 8.49155C8.61641 7.87723 9.10054 7.37592 9.70816 7.34823H9.71097L9.83673 7.32773V6.95055H10.3967ZM16.4522 5.86651L16.2329 5.92357C15.7825 6.03546 15.2596 6.10858 14.7234 6.1263L14.7112 6.12685H14.1108C14.2659 6.68186 14.5583 7.15548 14.9494 7.52548L14.951 7.52661C15.3443 7.9443 15.8562 8.24673 16.4328 8.37911L16.4527 8.38298L16.4522 5.86651ZM5.9526 4.75867H5.97309C5.91216 4.7559 5.84015 4.75424 5.76814 4.75424C5.01149 4.75424 4.29582 4.93094 3.66047 5.24612L3.68817 5.23393L3.53418 5.32312V7.69336C4.25206 7.55542 4.86691 7.18598 5.31226 6.66636L5.31559 6.66248C5.71331 6.17727 5.95481 5.55022 5.95481 4.86724C5.95481 4.82902 5.95426 4.79135 5.9526 4.75368V4.75867Z" fill="#B3BEC1"/>
</svg>
