<svg width="20" height="20" viewBox="0 0 20 20" fill="none" xmlns="http://www.w3.org/2000/svg">
<path d="M10.0114 3.6543C5.8696 3.6543 2.5 7.20124 2.5 11.561C2.49903 12.7813 2.76939 13.9849 3.28945 15.0755C3.41714 15.3444 3.67703 15.5144 3.96171 15.5144H16.0603C16.3449 15.5144 16.6056 15.3444 16.7333 15.0755C17.2533 13.9849 17.5237 12.7813 17.5227 11.561C17.5227 7.20124 14.1531 3.6543 10.0114 3.6543ZM13.7836 7.62505L10.8076 12.3991C10.7248 12.5322 10.6179 12.6468 10.4929 12.7364C10.368 12.8259 10.2275 12.8886 10.0796 12.9209C9.93157 12.9532 9.77894 12.9545 9.6305 12.9247C9.48207 12.8948 9.34069 12.8344 9.21438 12.747C9.05463 12.637 8.92338 12.4869 8.83256 12.31C8.74175 12.1333 8.69413 11.9355 8.69413 11.7345C8.69413 11.5335 8.74175 11.3358 8.83256 11.159C8.92338 10.9822 9.05463 10.8321 9.21438 10.7221L13.7498 7.58948C13.7553 7.58586 13.7619 7.58467 13.7682 7.58617C13.7745 7.58767 13.78 7.59167 13.7836 7.59736C13.7859 7.60155 13.7872 7.6063 13.7872 7.61117C13.7872 7.61605 13.7859 7.62086 13.7836 7.62505Z" fill="white"/>
</svg>
