<svg width="38" height="38" viewBox="0 0 38 38" fill="none" xmlns="http://www.w3.org/2000/svg">
<path d="M36.8867 17.3524H33.9055C33.8153 17.3524 33.726 17.3562 33.6373 17.362C32.9676 16.7645 32.2269 16.271 31.4345 15.8909C33.2416 14.6075 34.4227 12.4983 34.4227 10.1184C34.4227 6.21698 31.2487 3.04297 27.3473 3.04297C23.4456 3.04297 20.2716 6.21698 20.2716 10.1184C20.2716 11.9933 21.0051 13.7 22.1995 14.9673H16.9932C18.1877 13.7 18.9209 11.9933 18.9209 10.1184C18.9209 6.21698 15.7468 3.04297 11.8454 3.04297C7.94402 3.04297 4.76971 6.21698 4.76971 10.1184C4.76971 12.3064 5.76819 14.2654 7.33316 15.5645C6.24945 15.9695 5.24402 16.5751 4.36238 17.362C4.27367 17.3562 4.18466 17.3524 4.0945 17.3524H1.11328C0.498367 17.3524 0 17.8508 0 18.4657V24.4278C0 25.0427 0.498367 25.5411 1.11328 25.5411H1.19243V33.9675C1.19243 34.5822 1.6908 35.0808 2.30571 35.0808H35.6943C36.3092 35.0808 36.8076 34.5822 36.8076 33.9675V25.5411H36.8867C37.5016 25.5411 38 25.0427 38 24.4278V18.4657C38 17.8508 37.5016 17.3524 36.8867 17.3524ZM35.7734 23.3145H33.9055C32.8757 23.3145 32.0376 22.4767 32.0376 21.4466C32.0376 20.4168 32.8757 19.579 33.9055 19.579H35.7734V23.3145ZM22.4981 10.1184C22.4981 7.44478 24.6734 5.26953 27.347 5.26953C30.0206 5.26953 32.1962 7.44478 32.1962 10.1184C32.1962 12.7923 30.0209 14.9673 27.3473 14.9673C24.6734 14.9673 22.4981 12.7923 22.4981 10.1184ZM11.8454 5.26953C14.519 5.26953 16.6943 7.44478 16.6943 10.1184C16.6943 12.792 14.519 14.9673 11.8454 14.9673C9.17152 14.9673 6.99628 12.7923 6.99628 10.1184C6.99628 7.44478 9.17152 5.26953 11.8454 5.26953ZM2.22656 19.579H4.0945C5.12428 19.579 5.96243 20.4168 5.96243 21.4469C5.96243 22.4767 5.12428 23.3145 4.0945 23.3145H2.22656V19.579ZM3.41899 25.5411H4.0945C6.35208 25.5411 8.189 23.7045 8.189 21.4466C8.189 20.1965 7.62482 19.076 6.73883 18.3245H6.76521C7.91589 17.5884 9.25415 17.1941 10.653 17.1941H21.2579C19.1977 18.9307 17.8867 21.5289 17.8867 24.4278V32.8543H8.18871V28.0051C8.18871 27.3905 7.69034 26.8918 7.07542 26.8918C6.4608 26.8918 5.96214 27.3905 5.96214 28.0051V32.854H3.41899V25.5411ZM34.581 32.854H32.0376V28.0051C32.0376 27.3905 31.5392 26.8918 30.9243 26.8918C30.3097 26.8918 29.811 27.3905 29.811 28.0051V32.854H20.1133V24.4278C20.1133 20.4391 23.3583 17.1941 27.3473 17.1941C28.7525 17.1941 30.0963 17.5919 31.2499 18.3341C30.3703 19.0858 29.8113 20.2017 29.8113 21.4469C29.8113 23.7045 31.6479 25.5411 33.9058 25.5411H34.581V32.854Z" fill="#CA6BEF"/>
</svg>
