<svg width="20" height="20" viewBox="0 0 20 20" fill="none" xmlns="http://www.w3.org/2000/svg">
<path d="M13.0428 13.7506C12.9431 13.8288 12.8416 13.9086 12.7362 13.9799C11.5863 14.7578 10.1917 15.0309 8.83157 14.6883C8.1395 14.5139 7.5125 14.1987 6.95057 13.7427C6.949 13.7414 6.947 13.7408 6.945 13.7409C6.943 13.741 6.94107 13.7419 6.93969 13.7433L5.51577 15.1672C5.50751 15.1754 5.5058 15.1849 5.51063 15.1956C5.81427 15.8597 5.59462 16.6104 4.99884 17.0062C4.25199 17.5026 3.21299 17.2056 2.86162 16.3546C2.56554 15.6367 2.8876 14.7929 3.60847 14.4771C4.00566 14.3031 4.40487 14.3068 4.80608 14.488C4.81595 14.4927 4.82481 14.4911 4.83267 14.4832L6.25175 13.0638C6.25432 13.0613 6.25588 13.0579 6.25613 13.0543C6.25632 13.0508 6.25519 13.0473 6.25294 13.0445C5.40096 11.9973 5.02935 10.6626 5.21515 9.32176C5.31485 8.6007 5.5782 7.9207 6.0052 7.28182C6.03884 7.23126 6.12032 7.12188 6.24962 6.9537C6.25607 6.94526 6.25557 6.93732 6.24811 6.92982L4.83569 5.51742C4.82622 5.50795 4.81535 5.50594 4.80306 5.51138C4.41372 5.68238 4.03426 5.69305 3.66467 5.5434C3.30172 5.39617 3.03867 5.14279 2.87552 4.78327C2.53684 4.03702 2.91057 3.14123 3.67161 2.84968C4.03759 2.7095 4.40184 2.71433 4.76439 2.86418C5.5206 3.17628 5.85686 4.06875 5.50852 4.80653C5.507 4.80987 5.50654 4.8136 5.50718 4.81721C5.50783 4.82083 5.50956 4.82416 5.51214 4.82677L6.93119 6.24584C6.93907 6.2537 6.94732 6.2542 6.956 6.24735C8.75088 4.81106 11.2516 4.80078 13.0456 6.24795C13.0538 6.25457 13.0617 6.2542 13.0691 6.24675L14.4888 4.82707C14.4913 4.82459 14.4929 4.82138 14.4935 4.81788C14.4941 4.81437 14.4936 4.81073 14.4921 4.80743C14.357 4.51619 14.3191 4.22142 14.3785 3.92312C14.6009 2.80406 15.9595 2.36205 16.7943 3.14395C17.5789 3.87871 17.3061 5.2008 16.2928 5.56032C15.9216 5.69185 15.5565 5.67493 15.1976 5.50957C15.1865 5.50453 15.1768 5.50624 15.1683 5.5147L13.7486 6.9347C13.7468 6.93638 13.7458 6.93876 13.7457 6.94126C13.7456 6.94382 13.7464 6.94626 13.748 6.94826C14.5371 7.9447 14.8956 9.06888 14.8233 10.3209C14.7658 11.3124 14.3746 12.2671 13.7504 13.043C13.7478 13.0463 13.7464 13.0504 13.7466 13.0547C13.7468 13.0589 13.7486 13.0629 13.7516 13.0659L15.1656 14.4802C15.1742 14.4886 15.184 14.4906 15.1949 14.4862C15.2299 14.4717 15.2648 14.4579 15.2994 14.4448C15.9822 14.1847 16.7324 14.4805 17.0759 15.1149C17.4994 15.8965 17.1179 16.8923 16.2544 17.1754C15.0538 17.5694 13.9546 16.3416 14.4921 15.1899C14.4956 15.1828 14.4944 15.1764 14.4888 15.1705L13.0706 13.7521C13.0618 13.7434 13.0525 13.7429 13.0428 13.7506ZM11.4488 8.06495C11.4488 7.68076 11.2963 7.31238 11.0246 7.04076C10.753 6.76913 10.3846 6.61657 10.0004 6.61657C9.61632 6.61657 9.24794 6.76913 8.97632 7.04076C8.70469 7.31238 8.55207 7.68076 8.55207 8.06495C8.55207 8.44907 8.70469 8.81745 8.97632 9.08907C9.24794 9.3607 9.61632 9.51332 10.0004 9.51332C10.3846 9.51332 10.753 9.3607 11.0246 9.08907C11.2963 8.81745 11.4488 8.44907 11.4488 8.06495ZM10.0219 10.0003C9.00288 9.98038 8.10225 10.8079 8.07144 11.8375C8.06519 12.0416 8.06357 12.2556 8.06657 12.4798C8.06919 12.6836 8.15107 12.8324 8.31219 12.9261C9.35663 13.5333 10.6554 13.5339 11.6975 12.9209C11.7885 12.8676 11.8558 12.7887 11.8993 12.6844C11.9239 12.6251 11.9357 12.5302 11.9346 12.3994C11.9334 12.2434 11.9318 12.0851 11.9295 11.9248C11.9221 11.3913 11.7374 10.9417 11.3758 10.5761C11.0061 10.2028 10.5549 10.0108 10.0219 10.0003Z" fill="#B3BEC1"/>
</svg>
