<svg width="20" height="20" viewBox="0 0 20 20" fill="none" xmlns="http://www.w3.org/2000/svg">
<path d="M17.9554 7.0025V7.08987C17.9438 7.19993 17.9144 7.29393 17.8674 7.37187C17.7333 7.59424 17.6478 7.73418 17.6109 7.79156C17.545 7.89356 17.4387 7.91093 17.3414 7.85031C15.6111 6.77543 13.8758 5.69459 12.1351 4.60771C12.026 4.53931 12.0008 4.41775 12.0693 4.30303C12.1364 4.18986 12.2063 4.07639 12.2788 3.9626C12.4352 3.71761 12.7249 3.59948 13.0016 3.6828C13.0584 3.7 13.1536 3.74953 13.2873 3.8314C14.7272 4.71413 16.1813 5.60578 17.6495 6.50631C17.8254 6.61431 17.9274 6.77968 17.9554 7.0025Z" fill="#B3BEC1"/>
<path d="M2.03906 6.30864V6.22034C2.07844 5.93764 2.23068 5.7512 2.49577 5.66104C4.10205 5.11429 5.70844 4.56773 7.31493 4.02139C7.46518 3.97019 7.57162 3.94263 7.63424 3.93869C7.90906 3.92128 8.16799 4.09632 8.26349 4.35435C8.31593 4.49571 8.36624 4.64214 8.41456 4.79365C8.45781 4.93013 8.37849 5.00723 8.26256 5.04672C6.32937 5.70643 4.39657 6.36614 2.46406 7.02589C2.36457 7.05977 2.25638 7.01964 2.22001 6.91364C2.15378 6.72152 2.06549 6.5132 2.03906 6.30864Z" fill="#B3BEC1"/>
<path d="M11.9916 15.0654C12.2707 14.9715 12.4529 14.7626 12.4679 14.4623C12.4716 14.3851 12.4517 14.2829 12.4082 14.1554C11.6027 11.8034 10.8534 9.60225 10.1601 7.552C10.1387 7.489 10.1467 7.42725 10.184 7.36669C10.5815 6.72044 10.9754 6.08178 11.3654 5.45067C11.4506 5.31294 11.5728 5.3574 11.6912 5.43108C13.4182 6.50613 15.1449 7.58125 16.8714 8.65631C16.9677 8.71631 16.9755 8.83475 16.9211 8.92338C15.5244 11.1979 14.13 13.4721 12.738 15.7463C12.6448 15.8986 12.5685 15.9972 12.5092 16.0422C12.3581 16.157 12.1912 16.2006 12.0084 16.1728C11.9176 16.1591 11.8293 16.1209 11.7515 16.0736C11.5702 15.9631 11.3689 15.8408 11.1475 15.7068C11.1035 15.6802 11.072 15.6526 11.0527 15.6241C10.9884 15.5295 11.0319 15.3924 11.1444 15.3536C11.4441 15.2506 11.7265 15.1545 11.9916 15.0654ZM12.7097 9.547C12.5845 9.56319 12.4834 9.49413 12.4862 9.36044C12.4896 9.21438 12.526 9.05919 12.4999 8.91713C12.42 8.48344 11.8287 8.40325 11.6291 8.7965C11.5978 8.85806 11.577 8.95519 11.5669 9.08781C11.5414 9.42713 11.5145 9.752 11.4864 10.0624C11.4721 10.2225 11.5169 10.3538 11.621 10.4564C11.768 10.6016 11.931 10.6056 12.1368 10.5745C12.7314 10.4846 13.2669 10.4094 13.7432 10.3491C13.8824 10.3313 13.9879 10.3034 14.0594 10.2655C14.4274 10.0703 14.3519 9.5125 13.9509 9.41081C13.8756 9.392 13.759 9.39475 13.6011 9.41925C13.3062 9.46525 13.009 9.50781 12.7097 9.547Z" fill="#B3BEC1"/>
<path d="M10.9607 14.6545C9.15671 15.2725 7.53008 15.8261 6.08091 16.3152C6.01853 16.3361 5.95418 16.3454 5.88785 16.3429C5.68785 16.335 5.52069 16.2527 5.38638 16.096C5.34472 16.0475 5.28606 15.9122 5.21041 15.69C4.35421 13.1718 3.49863 10.656 2.64368 8.14277C2.60264 8.02246 2.68347 7.94039 2.79197 7.90308C4.72594 7.24002 6.66571 6.57771 8.61127 5.91614C8.7114 5.88194 8.80996 5.94008 8.84196 6.03398C9.73152 8.64527 10.6118 11.2325 11.4827 13.7955C11.5747 14.0662 11.4827 14.3712 11.2458 14.532C11.1965 14.5655 11.1015 14.6063 10.9607 14.6545ZM6.93683 8.67408C6.8454 8.89946 6.75958 9.12271 6.66977 9.34283C6.61283 9.48271 6.50527 9.53339 6.3679 9.45227C6.15273 9.32521 5.94599 9.20464 5.74764 9.09071C5.30959 8.83914 4.83735 9.35496 5.13393 9.76564C5.17643 9.82452 5.24565 9.88096 5.34161 9.93508C5.59198 10.076 5.84661 10.2253 6.10548 10.3831C6.17605 10.4263 6.2003 10.5201 6.17076 10.5973C6.08558 10.8196 5.99666 11.043 5.90402 11.2673C5.86111 11.3711 5.8407 11.4594 5.84277 11.5321C5.85303 11.8878 6.21771 12.1135 6.53671 11.9291C6.62415 11.8788 6.68777 11.8077 6.72758 11.7159C6.80177 11.5446 6.86996 11.3745 6.93215 11.2054C6.98621 11.058 7.08602 10.9501 7.24552 11.0443C7.43208 11.1546 7.61365 11.26 7.79021 11.3605C8.35571 11.6823 8.81833 10.8842 8.24383 10.5466C8.0179 10.4138 7.78546 10.2783 7.54646 10.1403C7.46408 10.0927 7.41496 10.0063 7.45165 9.90927C7.54246 9.66946 7.64365 9.41483 7.7554 9.14539C7.8099 9.01377 7.83615 8.91308 7.83402 8.84321C7.81915 8.32277 7.13052 8.19652 6.93683 8.67408Z" fill="#B3BEC1"/>
</svg>
