<svg width="24" height="24" viewBox="0 0 24 24" fill="none" xmlns="http://www.w3.org/2000/svg">
<path d="M13.7142 3H14.0268C15.7853 3.06292 17.3699 3.95498 18.3374 5.403C19.8662 7.69155 19.4427 10.7744 17.3657 12.5574C16.6691 13.1553 15.8791 13.549 14.9956 13.7385C11.5598 14.4756 8.38577 11.758 8.48672 8.27415C8.53757 6.51253 9.4213 4.91376 10.8721 3.9204C11.7098 3.34714 12.6572 3.04033 13.7142 3ZM15.4886 5.89213C15.5412 5.76702 15.5419 5.62614 15.4907 5.50048C15.4394 5.37483 15.3403 5.27469 15.2152 5.22209L15.2037 5.21727C15.0785 5.16468 14.9377 5.16394 14.8121 5.21522C14.6864 5.2665 14.5862 5.3656 14.5337 5.49071L12.2559 10.9093C12.2033 11.0344 12.2026 11.1753 12.2538 11.3009C12.3051 11.4265 12.4042 11.5268 12.5293 11.5793L12.5408 11.5841C12.6659 11.6367 12.8068 11.6375 12.9324 11.5862C13.0581 11.5349 13.1582 11.4359 13.2108 11.3107L15.4886 5.89213ZM12.9653 6.94196C12.9653 6.7659 12.8954 6.59705 12.7709 6.47255C12.6464 6.34805 12.4775 6.27811 12.3014 6.27811C12.1254 6.27811 11.9565 6.34805 11.8321 6.47255C11.7076 6.59705 11.6376 6.7659 11.6376 6.94196C11.6376 7.11802 11.7076 7.28688 11.8321 7.41137C11.9565 7.53585 12.1254 7.60582 12.3014 7.60582C12.4775 7.60582 12.6464 7.53585 12.7709 7.41137C12.8954 7.28688 12.9653 7.11802 12.9653 6.94196ZM16.0325 9.9756C16.0325 9.79965 15.9626 9.6309 15.8382 9.50647C15.7137 9.38205 15.545 9.31215 15.369 9.31215C15.1931 9.31215 15.0242 9.38205 14.8998 9.50647C14.7754 9.6309 14.7055 9.79965 14.7055 9.9756C14.7055 10.1516 14.7754 10.3204 14.8998 10.4448C15.0242 10.5692 15.1931 10.6391 15.369 10.6391C15.545 10.6391 15.7137 10.5692 15.8382 10.4448C15.9626 10.3204 16.0325 10.1516 16.0325 9.9756Z" fill="#B3BEC1"/>
<path d="M15.6268 20.7052H6.56285C6.56262 19.1316 6.5625 17.5578 6.5625 15.984C6.5625 15.6926 6.57645 15.4918 6.60434 15.3816C6.73988 14.8482 7.05025 14.4651 7.53545 14.232C7.64217 14.1806 7.78865 14.1323 7.97495 14.0871C8.5067 13.9581 9.0389 13.9064 9.57162 13.9323C10.4868 13.9765 11.2634 14.4028 12.0773 14.7756C12.4735 14.9571 12.8919 15.0881 13.3224 15.087C13.8129 15.0861 14.3707 15.086 14.9958 15.0867C15.0777 15.0867 15.1527 15.1031 15.2209 15.1358C15.3924 15.2176 15.4917 15.3473 15.519 15.5248C15.5487 15.7194 15.51 16.0248 15.4446 16.2253C15.27 16.7616 14.7697 17.1183 14.1985 17.1191C13.2294 17.1204 12.1849 17.1207 11.0649 17.1198C10.8741 17.1198 10.6808 17.229 10.5992 17.3974C10.419 17.7691 10.6763 18.1581 11.0839 18.1577C12.0687 18.1566 13.0741 18.1569 14.1003 18.1587C14.5097 18.1594 14.8524 18.0381 15.1455 17.7459C15.8583 17.0358 16.5675 16.3265 17.2733 15.6181C17.7966 15.0928 18.4066 14.8343 19.1034 14.8426C19.7041 14.8497 20.229 15.0399 20.6783 15.4131C20.8392 15.5468 20.9355 15.6604 20.9673 15.754C21.0338 15.9487 20.9892 16.1637 20.8443 16.3086C19.6309 17.5192 18.4271 18.7233 17.2329 19.9211C17.0718 20.0826 16.931 20.2056 16.8107 20.29C16.464 20.5332 16.0694 20.6716 15.6268 20.7052Z" fill="#B3BEC1"/>
<path d="M5.57405 20.7078H4.33555C4.02829 20.6393 3.87478 20.4405 3.875 20.1113C3.87616 18.9074 3.87616 17.6444 3.875 16.3222C3.875 16.1192 3.88837 15.9872 3.91511 15.9263C4.00777 15.7151 4.20244 15.6041 4.43236 15.6055C4.83183 15.608 5.20501 15.6081 5.55192 15.6058C5.56598 15.6058 5.57301 15.6128 5.57301 15.6269L5.57405 20.7078Z" fill="#B3BEC1"/>
</svg>
