<svg width="18" height="18" viewBox="0 0 18 18" fill="none" xmlns="http://www.w3.org/2000/svg">
<path d="M12.3514 13.203C12.2318 13.2969 12.11 13.3926 11.9834 13.4782C10.6036 14.4117 8.93003 14.7395 7.29788 14.3283C6.46741 14.1191 5.71501 13.7408 5.04068 13.1936C5.03881 13.1921 5.03641 13.1913 5.03401 13.1915C5.03161 13.1916 5.02928 13.1926 5.02763 13.1943L3.31892 14.903C3.30901 14.9129 3.30696 14.9243 3.31276 14.9371C3.67712 15.734 3.41355 16.6349 2.6986 17.1098C1.80239 17.7055 0.555591 17.3491 0.133948 16.3278C-0.221349 15.4664 0.165126 14.4538 1.03016 14.0749C1.50679 13.8661 1.98584 13.8705 2.4673 14.088C2.47915 14.0936 2.48977 14.0916 2.4992 14.0822L4.20211 12.3789C4.20518 12.3759 4.20706 12.3718 4.20736 12.3675C4.20758 12.3633 4.20623 12.3591 4.20353 12.3558C3.18115 11.0991 2.73522 9.49743 2.95819 7.88845C3.07783 7.02318 3.39385 6.20718 3.90625 5.44053C3.94661 5.37985 4.04438 5.2486 4.19955 5.04678C4.20728 5.03665 4.20668 5.02713 4.19773 5.01813L2.50283 3.32325C2.49147 3.31189 2.47842 3.30947 2.46367 3.316C1.99647 3.5212 1.54111 3.53401 1.0976 3.35443C0.662061 3.17775 0.346401 2.87369 0.150628 2.44226C-0.255789 1.54677 0.192681 0.471817 1.10593 0.121965C1.5451 -0.0462604 1.98221 -0.0404629 2.41727 0.139365C3.32473 0.513877 3.72823 1.58484 3.31022 2.47018C3.3084 2.47419 3.30784 2.47866 3.30862 2.48299C3.3094 2.48734 3.31147 2.49133 3.31457 2.49447L5.01743 4.19735C5.02688 4.20678 5.03678 4.20738 5.04721 4.19916C7.20106 2.47561 10.2019 2.46328 12.3547 4.19989C12.3646 4.20783 12.374 4.20738 12.383 4.19844L14.0866 2.49483C14.0895 2.49185 14.0915 2.488 14.0922 2.4838C14.0929 2.47958 14.0924 2.47522 14.0906 2.47126C13.9284 2.12177 13.883 1.76804 13.9542 1.41009C14.2211 0.0672144 15.8514 -0.463193 16.8532 0.47508C17.7947 1.35679 17.4673 2.9433 16.2513 3.37473C15.8059 3.53256 15.3678 3.51226 14.9371 3.31382C14.9238 3.30778 14.9121 3.30983 14.9019 3.31999L13.1984 5.02398C13.1962 5.026 13.195 5.02885 13.1948 5.03185C13.1947 5.03493 13.1957 5.03785 13.1976 5.04025C14.1446 6.23598 14.5747 7.585 14.4879 9.0874C14.419 10.2773 13.9495 11.4229 13.2005 12.354C13.1973 12.3579 13.1957 12.3629 13.196 12.368C13.1962 12.3731 13.1984 12.3779 13.202 12.3815L14.8987 14.0786C14.909 14.0887 14.9208 14.0911 14.9339 14.0858C14.9759 14.0684 15.0177 14.0519 15.0593 14.0361C15.8786 13.724 16.7789 14.079 17.1911 14.8403C17.6993 15.7782 17.2415 16.9731 16.2053 17.3129C14.7645 17.7856 13.4456 16.3122 14.0906 14.9302C14.0947 14.9217 14.0933 14.914 14.0866 14.907L12.3848 13.2048C12.3741 13.1944 12.363 13.1938 12.3514 13.203ZM10.4386 6.38028C10.4386 5.91925 10.2555 5.4772 9.92955 5.15126C9.60361 4.8253 9.16156 4.64223 8.70053 4.64223C8.23958 4.64223 7.79753 4.8253 7.47158 5.15126C7.14563 5.4772 6.96248 5.91925 6.96248 6.38028C6.96248 6.84123 7.14563 7.28328 7.47158 7.60923C7.79753 7.93518 8.23958 8.11833 8.70053 8.11833C9.16156 8.11833 9.60361 7.93518 9.92955 7.60923C10.2555 7.28328 10.4386 6.84123 10.4386 6.38028ZM8.72633 8.70273C7.50346 8.6788 6.42271 9.6718 6.38573 10.9074C6.37823 11.1522 6.37628 11.4091 6.37988 11.6781C6.38303 11.9227 6.48128 12.1012 6.67463 12.2136C7.92796 12.9423 9.48653 12.9431 10.737 12.2075C10.8462 12.1434 10.927 12.0488 10.9792 11.9236C11.0087 11.8525 11.0228 11.7386 11.0216 11.5817C11.0201 11.3944 11.0181 11.2045 11.0154 11.0121C11.0065 10.3719 10.7849 9.83238 10.3509 9.3937C9.90736 8.94565 9.36586 8.71525 8.72633 8.70273Z" fill="#24EE89"/>
</svg>
