<svg width="14" height="14" viewBox="0 0 14 14" fill="none" xmlns="http://www.w3.org/2000/svg">
<path d="M6.19202 11.6005L3.46972 13.0954C3.04131 13.3302 2.51184 13.1588 2.28696 12.7114C2.19729 12.5335 2.16645 12.3293 2.19871 12.1311L2.71869 8.9649C2.76756 8.6681 2.67315 8.36537 2.46677 8.15528L0.264446 5.91315C-0.0818838 5.56036 -0.0890039 4.98112 0.248786 4.61941C0.383526 4.47522 0.559546 4.38157 0.750266 4.35283L3.79376 3.89103C4.07889 3.84792 4.3256 3.66063 4.45322 3.39058L5.81437 0.510255C6.02834 0.0573654 6.55354 -0.128935 6.98764 0.0945354C7.16034 0.183725 7.30029 0.329395 7.38569 0.510255L8.7468 3.39058C8.8745 3.66063 9.1212 3.84792 9.4063 3.89103L12.4498 4.35283C12.9285 4.42567 13.2601 4.88995 13.1909 5.38991C13.1633 5.5891 13.0732 5.77293 12.9356 5.91365L10.7333 8.15577C10.5269 8.36586 10.4325 8.6686 10.4814 8.9654L11.0013 12.1316C11.0829 12.6296 10.7627 13.1023 10.2859 13.188C10.0961 13.2222 9.9007 13.1895 9.7303 13.0959L7.00804 11.601C6.7528 11.4607 6.44821 11.4607 6.19297 11.601L6.19202 11.6005Z" fill="#B3BEC1"/>
</svg>
