<svg width="16" height="16" viewBox="0 0 16 16" fill="none" xmlns="http://www.w3.org/2000/svg">
<path d="M5.59025 11.7332C6.28455 12.1828 7.11215 12.4434 8.00061 12.4434C8.70951 12.4434 9.3794 12.2775 9.97385 11.9822L10.0999 11.9171L10.9862 13.1377L11.0217 13.1818C11.0222 13.1822 11.0226 13.1827 11.023 13.1835C10.1354 13.7025 9.10251 14 8.00021 14C6.82586 14 5.73041 13.6623 4.80552 13.079L4.67438 12.9941L5.58941 11.7328L5.59025 11.7332ZM13.7878 6.40371C13.9267 6.91076 14.0008 7.4443 14.0008 7.9955C14.0008 9.8118 13.1951 11.44 11.9218 12.5411L11.9046 12.5124L11.8853 12.4845L11.0059 11.2729C11.8905 10.4599 12.4451 9.2928 12.4451 7.9959C12.4451 7.6676 12.4095 7.34745 12.3422 7.0393L12.3058 6.8863L13.7878 6.40371ZM2.17872 6.537L3.55791 6.9853L3.61277 6.99986C3.63034 7.00376 3.64791 7.00675 3.66548 7.00845C3.59348 7.3256 3.55576 7.65605 3.55576 7.99505C3.55576 9.11235 3.96721 10.1333 4.64694 10.9146L4.73695 11.0153L3.80949 12.2929C2.69302 11.2026 2 9.6798 2 7.9955C2 7.4923 2.06214 7.00376 2.17872 6.537ZM8.00061 4.25007C10.0716 4.25007 11.7508 5.92926 11.7508 8.00021C11.7508 10.0711 10.0716 11.7503 8.00061 11.7503C5.92971 11.7503 4.2505 10.0711 4.2505 8.00021C4.2505 5.92926 5.92971 4.25007 8.00061 4.25007ZM7.7156 5.63655H7.46745L7.44775 5.6391L7.43015 5.64685C7.41905 5.65325 7.41006 5.6627 7.4036 5.6734L7.39591 5.69095L7.3933 5.7107V6.42985H6.57471L6.55501 6.4324L6.53746 6.4397C6.52631 6.44616 6.51731 6.45555 6.51086 6.4663L6.50355 6.48385L6.50101 6.50355V6.75385L6.50446 6.77615L6.51345 6.79586C6.52545 6.81386 6.5447 6.8267 6.56785 6.82886C6.80746 6.85071 6.95146 6.99176 6.98785 7.17646L6.99475 7.2236L6.99685 7.27245V8.8102L6.99515 8.85396L6.9896 8.89935C6.96215 9.06311 6.85501 9.18526 6.65616 9.20411C6.63646 9.20626 6.61846 9.21525 6.60601 9.22935L6.5953 9.24525L6.5893 9.26365L6.54171 9.51655L6.54045 9.53541L6.54516 9.5568C6.5503 9.5701 6.5597 9.5821 6.5717 9.59025L6.59145 9.60011L6.61371 9.60355H7.3929V10.3227L7.39545 10.3424L7.40315 10.36C7.40961 10.3712 7.41905 10.3802 7.42975 10.3866L7.44731 10.3943L7.46705 10.3969H7.71521L7.7349 10.3943L7.75245 10.3866C7.7636 10.3802 7.7726 10.3707 7.77906 10.36L7.78676 10.3424L7.78935 10.3227V9.60355H8.18621V10.3227L8.18875 10.3424L8.19651 10.36C8.20291 10.3712 8.21236 10.3802 8.22306 10.3866L8.24066 10.3943L8.26035 10.3969H8.50851L8.52821 10.3943L8.5458 10.3866C8.5569 10.3802 8.5659 10.3707 8.57235 10.36L8.58005 10.3424L8.58266 10.3227V9.60355H8.91736L8.9735 9.60141L9.03396 9.59495C9.45141 9.5341 9.7728 9.1501 9.7728 8.68596C9.77325 8.36966 9.6241 8.09105 9.39741 7.92605C9.50841 7.76921 9.5748 7.57245 9.5748 7.35906C9.5748 6.89015 9.2555 6.50231 8.8402 6.43841L8.78021 6.43155L8.71895 6.4294H8.58266V5.71025L8.58005 5.69056L8.57235 5.67296C8.5659 5.66185 8.5565 5.65285 8.5458 5.6464L8.52821 5.6387L8.50851 5.63611H8.26035L8.24066 5.6387L8.22306 5.6464C8.21191 5.65285 8.20291 5.66226 8.19651 5.67296L8.18875 5.69056L8.18621 5.71025V6.4294H7.78935V5.71025L7.78676 5.69056L7.77906 5.67296C7.76621 5.6511 7.74221 5.63611 7.71476 5.63611L7.7156 5.63655ZM8.59596 8.21535C8.82181 8.21535 9.0052 8.39835 9.0052 8.62465C9.0052 8.8192 8.86935 8.9821 8.6872 9.02365L8.64095 9.03135L8.59635 9.03395H7.79021V8.21535H8.59596ZM8.39751 7.02516C8.62336 7.02516 8.80681 7.20815 8.80681 7.43445C8.80681 7.62906 8.67096 7.7919 8.48881 7.83346L8.44251 7.84121L8.3979 7.84375H7.79021V7.02516H8.39751ZM7.22275 2.04071V3.5129L7.22575 3.56991C7.22745 3.58491 7.22916 3.59991 7.23215 3.61405C5.83025 3.85877 4.6538 4.76052 4.03278 5.99055C4.00621 5.9734 3.97792 5.95801 3.94749 5.94511L3.90121 5.928L2.5473 5.4874C3.39333 3.64834 5.14066 2.31029 7.22275 2.04071ZM8.33406 2C10.5143 2.11958 12.3846 3.40405 13.334 5.24181L13.3944 5.36226L11.8948 5.85C11.209 4.60622 9.94555 3.72591 8.4665 3.57162L8.33151 3.55962L8.33406 3.5129V2Z" fill="white"/>
</svg>
