<svg width="20" height="20" viewBox="0 0 20 20" fill="none" xmlns="http://www.w3.org/2000/svg">
<path d="M10.2671 9.47118C11.2801 9.47118 12.1013 10.2924 12.1013 11.3054V15.498C12.1013 16.5111 11.2801 17.3322 10.2671 17.3322C9.254 17.3322 8.43281 16.5111 8.43281 15.498V11.3054C8.43281 10.2924 9.254 9.47118 10.2671 9.47118ZM14.9837 7.37487C15.9968 7.37487 16.818 8.19612 16.818 9.20912V15.498C16.818 16.5111 15.9968 17.3322 14.9837 17.3322C13.9707 17.3322 13.1494 16.5111 13.1494 15.498V9.20912C13.1494 8.19612 13.9707 7.37487 14.9837 7.37487ZM5.55038 12.6156C6.56344 12.6156 7.38462 13.4368 7.38462 14.4499V15.498C7.38462 16.5111 6.56344 17.3322 5.55038 17.3322C4.53734 17.3322 3.71612 16.5111 3.71612 15.498V14.4499C3.71612 13.4368 4.53734 12.6156 5.55038 12.6156ZM16.4113 2.6582C16.9254 2.6582 17.3421 3.07484 17.3421 3.58896C17.3421 4.10308 16.9254 4.51972 16.4113 4.51972H14.8433C14.4517 4.51972 14.0828 4.69004 13.8292 4.98142L13.7401 5.0962L12.8738 6.34456C12.3617 7.08243 11.5432 7.54412 10.6533 7.6065L10.4468 7.61387H9.45213C9.06794 7.61387 8.70475 7.77787 8.45219 8.05981L8.36256 8.17093L7.17712 9.81656C6.66194 10.5314 5.85591 10.9763 4.98228 11.0361L4.77947 11.0429H3.59873C3.08461 11.0429 2.66797 10.6262 2.66797 10.1121C2.66797 9.598 3.08461 9.18137 3.59873 9.18137H4.77947C5.16361 9.18137 5.52679 9.01731 5.7794 8.73537L5.86901 8.62425L7.0545 6.97868C7.56962 6.26381 8.37569 5.81889 9.24931 5.75915L9.45213 5.75233H10.4468C10.8383 5.75233 11.2073 5.58201 11.4609 5.29063L11.55 5.17585L12.4163 3.92751C12.9283 3.18962 13.7469 2.7279 14.6368 2.66554L14.8433 2.6582H16.4113Z" fill="white"/>
</svg>
