<svg width="13" height="16" viewBox="0 0 13 16" fill="none" xmlns="http://www.w3.org/2000/svg">
<path d="M2.04271 11.9658C3.20017 12.7731 4.60729 13.2497 6.12704 13.2497C7.64679 13.2497 9.05386 12.7731 10.2119 11.9658V14.6651C10.2119 15.2272 9.75411 15.6845 9.19079 15.6845C8.90861 15.6845 8.65348 15.5702 8.46904 15.3857L6.12754 13.6716L3.78611 15.3857C3.69336 15.4774 3.58342 15.552 3.46086 15.6039C3.33936 15.6558 3.20573 15.6845 3.06379 15.6845C2.78273 15.6845 2.52754 15.5702 2.34091 15.3857C2.24924 15.293 2.17414 15.1826 2.12223 15.0611C2.07032 14.9396 2.04271 14.8054 2.04271 14.6651V11.9658ZM6.12704 0C9.51167 0 12.254 2.73797 12.254 6.11542C12.254 9.49286 9.51167 12.2309 6.12704 12.2309C2.74242 12.2309 0 9.49342 0 6.11542C0 2.73742 2.74242 0 6.12704 0ZM6.36061 3.29849C6.09998 3.16153 5.77798 3.26204 5.64104 3.52214L4.97561 4.78842C4.92811 4.87843 4.85579 4.95355 4.76742 5.0038L3.52492 5.71061C3.43598 5.76086 3.36367 5.83599 3.31617 5.92655C3.17973 6.18724 3.28029 6.50918 3.54092 6.64555L4.80773 7.3088C4.89773 7.3563 4.97286 7.42811 5.02311 7.51642L5.73273 8.75899C5.78298 8.8473 5.85754 8.91911 5.94754 8.96661C6.20823 9.10355 6.53017 9.00305 6.66711 8.74292L7.33254 7.47668C7.38004 7.38667 7.45236 7.31155 7.54073 7.2613L8.78323 6.55442C8.87217 6.50417 8.94448 6.42911 8.99198 6.33855C9.12842 6.07786 9.02792 5.75592 8.76723 5.61955L7.50042 4.9563C7.41042 4.9088 7.33529 4.83699 7.28504 4.74867L6.57542 3.50612C6.52517 3.41777 6.45061 3.34598 6.36061 3.29849Z" fill="white"/>
</svg>
