<svg width="16" height="16" viewBox="0 0 16 16" fill="none" xmlns="http://www.w3.org/2000/svg">
<path d="M8.00059 7.69502C5.24249 7.69502 2.01953 7.02297 2.01953 9.06027V10.8196C2.01953 12.8568 5.24204 13.5815 8.00059 13.5815C10.7591 13.5815 13.9816 12.8568 13.9816 10.8196V9.06067C13.9816 6.95307 10.766 7.69502 8.00059 7.69502ZM8.00059 8.66962C10.6602 8.66962 12.8171 8.03987 12.8171 8.96527C12.8171 9.89067 10.6637 10.6542 8.00059 10.6542C5.33744 10.6542 3.18751 9.90147 3.18751 8.97607C3.18751 8.05067 5.34434 8.68042 8.00059 8.68042V8.66962Z" fill="white"/>
<path d="M8.00056 2.41797C5.24246 2.41797 2.01953 3.13921 2.01953 5.17605V6.93495C2.01953 8.9722 5.24206 9.693 8.00056 9.693C10.7591 9.693 13.9816 8.97175 13.9816 6.93495V5.17605C13.9816 3.13878 10.766 2.41797 8.00056 2.41797ZM8.00056 3.28338C10.7129 3.28338 12.9263 4.09958 12.9263 5.1057C12.9263 6.1118 10.7133 6.92455 8.00056 6.92455C5.28781 6.92455 3.09601 6.1118 3.09601 5.1057C3.09601 4.09958 5.29516 3.28338 8.00056 3.28338Z" fill="white"/>
<path d="M7.43867 3.40234V3.87714C6.40452 3.95095 5.78512 4.20776 5.78512 4.58069C5.78512 5.08395 6.81237 5.1962 7.71667 5.28425C8.25487 5.34035 8.86692 5.4107 8.86692 5.5553C8.86692 5.6222 8.69472 5.73485 8.04382 5.73485C7.31047 5.71935 6.61212 5.592 5.95822 5.36885L6.00653 5.3831H5.98882L5.39062 5.8721L5.45752 5.89325C6.03977 6.08105 6.71357 6.20705 7.41107 6.2442L7.43092 6.24505V6.741H8.48628V6.24505C8.95758 6.22045 10.312 6.1009 10.312 5.5415C10.312 5.02785 9.28133 4.9083 8.36628 4.80255C7.83838 4.74255 7.23667 4.6722 7.23667 4.53149C7.23667 4.48228 7.38432 4.38387 7.94022 4.38387C8.58597 4.40243 9.20233 4.48746 9.79493 4.63206L9.73453 4.61954H9.75567L10.2728 4.17626L10.3293 4.12705H10.259C9.73972 3.9967 9.13672 3.90951 8.51732 3.88491L8.50007 3.88447V3.40234H7.43867Z" fill="white"/>
</svg>
