<svg width="13" height="11" viewBox="0 0 13 11" fill="none" xmlns="http://www.w3.org/2000/svg">
<path d="M7.12137 0C7.57367 0 8.02592 0.17152 8.37107 0.51285L11.9879 4.09511C12.6782 4.77901 12.6782 5.88706 11.9879 6.57101L8.37107 10.1537C8.02592 10.4954 7.57367 10.6665 7.12137 10.6665C6.82872 10.6665 6.53642 10.5948 6.27277 10.4519L1.76766 10.4515C0.791455 10.4515 0 9.66771 0 8.70086V3.63386C0 2.66746 0.791455 1.88328 1.76766 1.88328L4.48802 1.88286L5.87172 0.51285C6.19382 0.194135 6.60897 0.02347 7.03092 0.00213504L7.12137 0ZM7.12137 1.06878C6.93752 1.06878 6.76472 1.13961 6.63457 1.26847L3.01777 4.85111C2.7494 5.11696 2.7494 5.54956 3.01777 5.81536L6.63457 9.39806C6.76472 9.52646 6.93752 9.59771 7.12137 9.59771C7.30527 9.59771 7.47807 9.52646 7.60777 9.39806L11.2246 5.81536C11.493 5.54956 11.493 5.11736 11.2246 4.85111L7.60777 1.26847C7.47767 1.13961 7.30527 1.06878 7.12137 1.06878ZM7.12137 6.16736C7.59667 6.16736 7.98197 6.54926 7.98197 7.02026C7.98197 7.49131 7.59667 7.87276 7.12137 7.87276C6.64567 7.87276 6.26037 7.49086 6.26037 7.02026C6.26037 6.54966 6.64567 6.16736 7.12137 6.16736ZM7.12137 2.87611C7.59667 2.87611 7.98197 3.25796 7.98197 3.72861C7.98197 4.19921 7.59667 4.58146 7.12137 4.58146C6.64567 4.58146 6.26037 4.19961 6.26037 3.72861C6.26037 3.25756 6.64567 2.87611 7.12137 2.87611Z" fill="white"/>
</svg>
