<svg width="160" height="149" viewBox="0 0 160 149" fill="none" xmlns="http://www.w3.org/2000/svg">
<path d="M145.171 112.297C144.486 120.909 141.343 129.143 136.116 136.021C130.888 142.899 123.796 148.132 115.683 151.099C107.569 154.065 98.7737 154.639 90.3428 152.754C81.9118 150.869 74.1992 146.604 68.1212 140.464C62.0432 134.325 57.8553 126.57 56.0551 118.12C54.2548 109.671 54.9179 100.882 57.9655 92.7986C61.0132 84.7149 66.3172 77.6759 73.2476 72.518C80.178 67.36 88.4433 64.2999 97.0616 63.7012" stroke="#DBB0E2" stroke-width="8" stroke-linecap="round" stroke-linejoin="round"/>
<path d="M119.545 116.279C118.292 119.506 116.254 122.37 113.615 124.611C110.977 126.852 107.821 128.4 104.434 129.115C101.047 129.83 97.5354 129.689 94.2163 128.706C90.8972 127.723 87.8756 125.927 85.4246 123.483C82.9737 121.038 81.1708 118.021 80.1789 114.705C79.187 111.388 79.0375 107.877 79.7438 104.488C80.4501 101.099 81.99 97.9394 84.2243 95.2952C86.4585 92.6511 89.3166 90.6055 92.5401 89.3436M100.177 108.712L117.532 91.3568M117.532 91.3568L131.417 94.828L145.301 80.9435L131.417 77.4724L127.945 63.5879L114.061 77.4724L117.532 91.3568Z" stroke="#DBB0E2" stroke-width="8" stroke-linecap="round" stroke-linejoin="round"/>
<path opacity="0.3" d="M67.0031 52.5461L52.2277 32.9471M52.2277 32.9471L57.5946 19.6797L45.7743 4.00048L40.4074 17.2679L26.1753 18.7759L37.9956 34.4551L52.2277 32.9471Z" stroke="#DBB0E2" stroke-width="8" stroke-linecap="round" stroke-linejoin="round"/>
<path opacity="0.3" d="M42.0188 89.6398L25.8578 86.2378M25.8578 86.2378L22.7105 77.1367L9.78166 74.4152L12.929 83.5163L6.37968 90.5762L19.3085 93.2978L25.8578 86.2378Z" stroke="#DBB0E2" stroke-width="6" stroke-linecap="round" stroke-linejoin="round"/>
<path opacity="0.3" d="M129.439 48.4775L138.581 34.7236M138.581 34.7236L134.447 26.0263L141.761 15.0232L145.895 23.7205L155.515 24.1655L148.201 35.1686L138.581 34.7236Z" stroke="#DBB0E2" stroke-width="5" stroke-linecap="round" stroke-linejoin="round"/>
</svg>
