<svg width="12" height="14" viewBox="0 0 12 14" fill="none" xmlns="http://www.w3.org/2000/svg">
<path d="M6.92621 7.26016C6.46708 6.82661 5.64657 6.55362 4.63086 6.42578C4.84141 6.92584 5.18051 7.76137 5.38415 8.4193C5.62122 9.18524 6.62086 8.38157 6.92621 7.26016Z" fill="#9590C0"/>
<path d="M6.20832 2.02257C6.59371 3.03787 7.6786 4.15725 9.1875 5.25195C9.24861 4.36912 9.37083 2.90551 9.56752 1.81026C9.7965 0.535195 7.57765 0.745212 6.20832 2.02257Z" fill="#9590C0"/>
<path d="M2.83203 2.68164C4.31936 2.09174 6.24078 1.82158 7.81738 2.43066C10.5327 3.47989 11.7368 5.83992 11.3066 8.1582C11.0844 9.35514 10.1285 10.2601 9.28027 10.8516C8.85035 11.1513 8.43494 11.3806 8.12695 11.5342C7.97275 11.6111 7.84469 11.6696 7.75488 11.709C7.74995 11.7111 7.74493 11.7128 7.74023 11.7148C7.62808 12.3098 7.3818 12.7178 7.07227 12.9883C6.74244 13.2764 6.36527 13.3899 6.06836 13.4316C5.66131 13.4888 5.38001 13.0479 5.5791 12.7012L5.63574 12.5938C5.7658 12.3232 5.87178 11.9174 5.7666 11.376C5.64831 10.7677 5.16753 10.5152 4.74023 10.4082C4.30851 10.3001 4.23029 9.71072 4.62695 9.49805L4.75488 9.43457C5.38923 9.14385 5.9507 9.24898 6.35352 9.43555C6.56541 9.53369 6.73361 9.65372 6.84863 9.74902C6.87895 9.77414 6.90452 9.7991 6.92773 9.82031C7.49515 9.67913 8.04192 9.10339 8.01562 8.11914C8.00361 7.67064 7.71827 7.32631 7.16504 7.08984C6.60673 6.8513 5.81799 6.7464 4.92676 6.77734C3.99025 6.80979 2.88829 6.67066 2.00098 6.41113C1.55799 6.28156 1.15508 6.11838 0.850586 5.92285C0.556157 5.73373 0.300057 5.47889 0.257812 5.14941C0.194876 4.65763 0.520355 4.17439 0.967773 3.77441C1.42965 3.36163 2.08547 2.97779 2.83203 2.68164Z" fill="#9590C0" stroke="#2B2751" stroke-width="0.5"/>
<path d="M6.49931 3.46099C6.29385 3.18866 5.31635 3.66197 4.88086 3.89221C4.95298 4.17182 4.99625 4.47659 4.99241 4.80163C5.46462 5.04336 6.30994 5.42585 6.49931 5.17484C6.7655 4.82198 6.75886 4.31791 6.75886 4.31791C6.75886 4.31791 6.76553 3.81386 6.49931 3.46099Z" fill="#2B2751"/>
<path d="M4.30951 2.54492C2.1947 2.98721 0.384536 4.19687 0.505758 5.11591C0.611285 5.91601 2.82839 6.49169 4.62572 6.50962C5.60043 4.73005 4.81874 3.23689 4.30951 2.54492Z" fill="#9590C0"/>
<path d="M2.95405 4.38774C2.95848 4.21766 2.82417 4.07619 2.65408 4.07177C2.48398 4.06735 2.34251 4.20164 2.33809 4.37173C2.33366 4.54181 2.46797 4.68327 2.63806 4.6877C2.80816 4.69212 2.94963 4.55782 2.95405 4.38774Z" fill="#2B2751"/>
</svg>
