<svg width="17" height="15" viewBox="0 0 17 15" fill="none" xmlns="http://www.w3.org/2000/svg">
<path d="M14.2281 5.86687C14.2281 5.12058 14.2309 4.86108 14.2266 4.1152C14.2239 3.57879 13.7313 3.09157 13.144 3.06061C12.7308 3.03898 12.3153 3.05044 11.9007 3.04662C11.855 3.04662 11.8097 3.04662 11.7555 3.04662C11.7555 2.95799 11.7564 2.88675 11.7555 2.81552C11.7527 2.66159 11.7583 2.50639 11.7429 2.35331C11.7149 2.07811 11.4758 1.88475 11.1724 1.87711C10.8031 1.86778 10.5444 2.03231 10.5061 2.32702C10.48 2.52547 10.4922 2.72732 10.4875 2.92831C10.4865 2.96562 10.4875 3.00336 10.4875 3.03898H6.0069C6.0069 2.95036 6.00783 2.8681 6.0069 2.78668C6.00458 2.62555 6.02233 2.46102 5.99292 2.3037C5.93687 2.00857 5.6479 1.84616 5.27812 1.87924C4.97372 1.90595 4.75335 2.12942 4.74962 2.41904C4.74682 2.623 4.74915 2.82654 4.74915 3.04662C4.35231 3.04662 3.97321 3.04492 3.59458 3.04789C3.48066 3.04874 3.36394 3.05086 3.25329 3.07249C2.67484 3.18358 2.28593 3.62756 2.28593 4.16863C2.28546 6.6938 2.292 9.21937 2.28126 11.7445C2.27846 12.387 2.84478 12.9022 3.56003 12.9C6.69182 12.8899 9.82361 12.8899 12.9559 12.9C13.6701 12.9022 14.2388 12.3857 14.2341 11.7441C14.2211 9.94701 14.2295 7.66355 14.2295 5.86645L14.2281 5.86687ZM10.8488 7.78228C10.5664 8.03161 10.2844 8.28051 10.0089 8.53537C9.96971 8.57142 9.93844 8.64098 9.94685 8.68889C10.0066 9.04973 10.0729 9.4102 10.1453 9.76936C10.1831 9.95761 10.128 10.1132 9.96507 10.2282C9.79976 10.3439 9.6149 10.3494 9.43003 10.2621C9.07753 10.0963 8.72411 9.93047 8.3744 9.75961C8.28945 9.71761 8.2236 9.71761 8.13865 9.75961C7.80576 9.92283 7.46777 10.0772 7.13442 10.2392C6.9397 10.3337 6.74596 10.3605 6.56016 10.2367C6.37808 10.1149 6.32998 9.94744 6.37199 9.74517C6.44481 9.39956 6.50649 9.05142 6.56295 8.70328C6.57136 8.65073 6.54473 8.57526 6.50411 8.53748C6.23569 8.28816 5.96071 8.04436 5.68336 7.80305C5.5195 7.66101 5.43171 7.49606 5.505 7.29422C5.58066 7.08516 5.76738 7.00842 5.99663 6.98128C6.38087 6.9359 6.76464 6.88247 7.14702 6.82397C7.19419 6.81675 7.24647 6.76542 7.27073 6.7222C7.45002 6.40542 7.62322 6.08526 7.79735 5.76642C7.89309 5.59083 8.03687 5.48184 8.26752 5.481C8.48041 5.48695 8.62001 5.59467 8.71291 5.76595C8.88426 6.08147 9.05932 6.39567 9.2288 6.71203C9.26942 6.78834 9.31845 6.82397 9.41883 6.8354C9.79883 6.87825 10.177 6.93464 10.5561 6.9855C10.7685 7.01391 10.9376 7.10044 11.0067 7.29337C11.0748 7.48378 11.0034 7.64615 10.8474 7.78312L10.8484 7.7827L10.8488 7.78228Z" fill="#B93DEB"/>
</svg>
