<svg width="11" height="11" viewBox="0 0 11 11" fill="none" xmlns="http://www.w3.org/2000/svg">
<path d="M10.9687 10.3832C10.9687 10.5385 10.9045 10.6875 10.7903 10.7973C10.676 10.9071 10.521 10.9687 10.3594 10.9687H0.609375C0.447759 10.9687 0.292762 10.9071 0.178482 10.7973C0.0642019 10.6875 1.46683e-07 10.5385 1.46683e-07 10.3832V4.22954C-6.42791e-05 4.14031 0.0210948 4.05226 0.0618613 3.97209C0.102628 3.89192 0.161923 3.82177 0.235219 3.76699L5.11022 0.123363C5.21719 0.0434093 5.34885 0 5.48437 0C5.6199 0 5.75156 0.0434093 5.85853 0.123363L10.7335 3.76699C10.8068 3.82177 10.8661 3.89192 10.9069 3.97209C10.9477 4.05226 10.9688 4.14031 10.9687 4.22954V10.3832Z" fill="#9590C0"/>
</svg>
