<svg width="17" height="17" viewBox="0 0 17 17" fill="none" xmlns="http://www.w3.org/2000/svg">
<path fill-rule="evenodd" clip-rule="evenodd" d="M8.93314 2.34345C8.72138 2.04437 8.27763 2.04437 8.06593 2.34345L6.02162 5.23128C5.95421 5.32652 5.85736 5.39686 5.74596 5.43155L2.36775 6.48342C2.01789 6.59233 1.88075 7.01441 2.09976 7.30819L4.21454 10.1448C4.28427 10.2383 4.32127 10.3522 4.31984 10.4689L4.27627 14.0068C4.27176 14.3732 4.63078 14.634 4.97785 14.5165L8.32916 13.3818C8.43966 13.3444 8.5594 13.3444 8.6699 13.3818L12.0212 14.5165C12.3683 14.634 12.7273 14.3732 12.7228 14.0068L12.6792 10.4689C12.6778 10.3522 12.7148 10.2383 12.7845 10.1448L14.8993 7.30819C15.1183 7.01441 14.9812 6.59233 14.6313 6.48342L11.2531 5.43155C11.1417 5.39686 11.0448 5.32652 10.9774 5.23128L8.93314 2.34345ZM10.6846 8.26529C10.9486 8.01077 10.9564 7.59039 10.7019 7.3263C10.4474 7.06222 10.027 7.05446 9.76295 7.30899L8.19959 8.81561L7.48596 8.14645C7.21842 7.89559 6.7982 7.90914 6.54735 8.17668C6.29649 8.44421 6.31004 8.86449 6.57757 9.11534L7.75164 10.2162C8.00967 10.4581 8.41203 10.4554 8.66666 10.2099L10.6846 8.26529Z" fill="#9590C0"/>
</svg>
