<svg width="17" height="18" viewBox="0 0 17 18" fill="none" xmlns="http://www.w3.org/2000/svg">
<path d="M13.7592 3.30183C14.6187 4.21844 13.7219 7.22554 12.7824 8.68326C12.4694 9.16859 11.9862 9.76985 11.3326 10.4886C11.4808 10.5913 11.3542 12.7807 11.0277 13.2885C10.6882 13.8353 10.1977 14.3581 9.63395 14.9497C9.52637 15.063 9.35813 14.9853 9.28014 14.8691C9.16475 14.6988 8.75829 13.2612 8.81997 13.0006C7.55581 12.5738 6.60971 12.0052 5.9832 11.2933C5.3567 10.5813 4.86287 9.62123 4.5042 8.41236C4.20625 8.43323 2.9188 7.83468 2.77129 7.70862C2.66656 7.61823 2.60301 7.43693 2.71611 7.32843C3.30594 6.76576 3.82788 6.28038 4.36365 5.95204C4.81637 5.66624 6.6275 5.6524 6.95321 5.75303L6.98711 5.76687L7.18255 5.57736C7.75922 5.02288 8.2509 4.59268 8.65916 4.28885C10.0657 3.2395 12.8998 2.38521 13.7592 3.30183ZM4.63553 10.6053L4.64588 10.6293C4.74413 10.8547 5.55172 12.6138 6.98211 12.9523L4.47806 13.7151C4.129 13.7545 3.83964 13.4336 3.89401 13.0662L4.63553 10.6053ZM8.4116 5.78397C8.07245 7.10573 8.81052 8.46771 10.0576 8.82653C11.3059 9.18558 12.5922 8.40409 12.9311 7.08368C13.2702 5.76192 12.5321 4.39993 11.2851 4.04115C10.0367 3.68208 8.75043 4.46357 8.4116 5.78397ZM11.0806 4.80056C11.9133 5.03959 12.4047 5.94749 12.1789 6.82881C11.9531 7.71008 11.0961 8.23073 10.2633 7.99173C9.43054 7.75266 8.93924 6.84524 9.16502 5.96346C9.39075 5.08173 10.2478 4.56152 11.0806 4.80056Z" fill="#B93DEB"/>
</svg>
