<svg width="16" height="16" viewBox="0 0 16 16" fill="none" xmlns="http://www.w3.org/2000/svg">
<circle cx="8" cy="8" r="7" fill="#B93DEB"/>
<path d="M8.00098 3.45312C8.00098 3.45312 10.3159 6.03791 10.8164 6.5752C11.8024 7.63324 11.5777 9.038 11.0342 9.64941C10.6293 10.1047 10.1422 10.4481 9.54395 10.4482C8.83388 10.4482 8.26984 9.78192 8.00195 9.05176C8.00259 10.7913 9.13409 12.5477 10.1006 12.5479H5.90332C6.86984 12.5479 8.00034 10.7914 8.00098 9.05176V9.0498C7.73334 9.78069 7.16534 10.4482 6.45508 10.4482C5.85675 10.4482 5.36491 10.1092 4.96484 9.64941C4.43285 9.03802 4.19543 7.63327 5.18164 6.5752C5.67905 6.04126 7.97576 3.48123 8.00098 3.45312Z" fill="#2B2751"/>
</svg>
