<svg width="18" height="18" viewBox="0 0 18 18" fill="none" xmlns="http://www.w3.org/2000/svg">
<path d="M13.4589 9.34179C13.6686 9.80835 13.2597 10.3221 12.7617 10.212C11.6608 9.97086 9.91514 9.86602 7.84968 10.6786L5.72656 5.82947C7.72387 4.86489 8.82999 3.51238 9.4014 2.53732C9.65827 2.09697 10.3083 2.14415 10.5128 2.61071C11.499 4.85571 12.4776 7.09324 13.4589 9.34179Z" fill="#9590C0"/>
<path d="M12.9526 3.03191C12.7119 2.93859 12.4373 3.05654 12.3418 3.29979L12.0326 4.09085C11.9377 4.33304 12.0572 4.60669 12.3004 4.70209C12.3565 4.72411 12.4147 4.7346 12.4719 4.7346C12.6601 4.7346 12.8383 4.62084 12.9112 4.43421L13.2205 3.64316C13.3159 3.40044 13.1958 3.12679 12.9526 3.03191Z" fill="#9590C0"/>
<path d="M14.9019 7.48378L14.1108 7.17448C13.8676 7.08117 13.595 7.19912 13.4996 7.44236C13.4042 7.68508 13.5242 7.95873 13.7669 8.05361L14.558 8.36291C14.6146 8.38492 14.6728 8.39541 14.7299 8.39541C14.9181 8.39541 15.0964 8.28165 15.1692 8.09503C15.2646 7.85231 15.1446 7.57866 14.9019 7.48378Z" fill="#9590C0"/>
<path d="M13.9292 6.0933C13.9926 6.0933 14.0566 6.08072 14.1184 6.05346L14.8964 5.71271C15.1349 5.60839 15.2434 5.33002 15.1391 5.0915C15.0343 4.85245 14.7564 4.74341 14.5174 4.84878L13.7394 5.18953C13.5009 5.29385 13.3924 5.57222 13.4967 5.81074C13.5743 5.98793 13.7478 6.0933 13.9292 6.0933Z" fill="#9590C0"/>
<path d="M9.10554 14.7201L7.79077 11.7168L5.85742 12.5634L7.17218 15.5667C7.40599 16.1004 8.02825 16.3436 8.56191 16.1103C9.09558 15.8771 9.33934 15.2543 9.10554 14.7201Z" fill="#9590C0"/>
<path d="M4.86948 6.2207L2.74007 7.1533C1.83158 7.55119 1.41744 8.61013 1.81533 9.51914L2.48634 11.0515C2.88423 11.9599 3.94317 12.3741 4.85218 11.9762L6.98159 11.0436L4.86948 6.2207Z" fill="#9590C0"/>
</svg>
