<svg width="19" height="18" viewBox="0 0 19 18" fill="none" xmlns="http://www.w3.org/2000/svg">
<path d="M9.05967 14.1143L6.12078 15.6432C5.65828 15.8834 5.08669 15.7081 4.84391 15.2505C4.74711 15.0685 4.71382 14.8598 4.74865 14.6571L5.31 11.4188C5.36276 11.1153 5.26083 10.8056 5.03803 10.5907L2.66049 8.29766C2.2866 7.93681 2.27891 7.34439 2.64359 6.97449C2.78905 6.827 2.97907 6.73121 3.18496 6.70185L6.47062 6.22951C6.77842 6.18541 7.04478 5.99388 7.18253 5.71769L8.652 2.77186C8.88297 2.30867 9.44994 2.11813 9.91859 2.34668C10.105 2.4379 10.2561 2.58689 10.3483 2.77186L11.8178 5.71769C11.9556 5.99388 12.2219 6.18541 12.5297 6.22951L15.8154 6.70185C16.3321 6.77632 16.6901 7.25118 16.6154 7.76249C16.5856 7.96623 16.4883 8.15422 16.3398 8.29816L13.9623 10.5913C13.7395 10.8061 13.6375 11.1158 13.6903 11.4193L14.2517 14.6576C14.3398 15.1669 13.994 15.6503 13.4793 15.738C13.2744 15.7729 13.0634 15.7395 12.8795 15.6437L9.94062 14.1148C9.66506 13.9714 9.33624 13.9714 9.06068 14.1148L9.05967 14.1143Z" fill="#9590C0"/>
</svg>
