<svg width="12" height="9" viewBox="0 0 12 9" fill="none" xmlns="http://www.w3.org/2000/svg">
<path d="M8.30541 0C8.83627 0 9.31004 0.631404 9.61975 1.61949L9.62369 1.61911L9.67286 1.80199C10.0648 3.35284 10.0377 5.53579 9.50482 7.43874C9.1987 8.23481 8.77411 8.72735 8.30502 8.72735L8.27632 8.72547L8.27671 8.72735L3.31021 8.72433C2.87184 8.68181 2.47636 8.20826 2.18555 7.46341L2.18123 7.46302C1.7582 5.55705 1.73577 3.29286 2.04507 1.72991L2.08639 1.53525H2.08836C2.39254 0.613191 2.84311 0.0220062 3.34718 0.00075686V0H8.30541ZM1.87114 1.53488C1.57325 2.50514 1.43592 3.51069 1.46032 4.55076C1.48235 5.51684 1.63464 6.44001 1.91718 7.32035L1.9644 7.46188H1.68186C1.26042 7.46188 0.937737 6.84868 0.765774 5.97408C0.318745 5.75209 0 5.17113 0 4.48964C0 3.81729 0.310087 3.24355 0.747276 3.01434C0.914126 2.12911 1.24507 1.5345 1.68265 1.5345H1.87193L1.87114 1.53488ZM10.0038 1.61987C10.4135 1.66996 10.7672 2.21639 10.9589 3.05573C11.3594 3.30616 11.6365 3.85448 11.6365 4.48964C11.6365 5.115 11.3681 5.6561 10.9785 5.91221C10.8022 6.75344 10.4662 7.32109 10.0707 7.42168L10.0042 7.43379L10.0034 7.43799L9.70358 7.43834L9.77322 7.26571C10.0829 6.45559 10.258 5.57376 10.2973 4.62019C10.3407 3.57745 10.1829 2.57759 9.82358 1.61949H10.0034L10.0038 1.61911V1.61987ZM4.85275 2.63792L4.71542 2.6888L4.51316 2.77718C4.45729 2.78781 4.42382 2.7567 4.41241 2.68386C4.40103 2.61101 4.35063 2.57269 4.26134 2.56963C4.09329 2.56963 3.95439 2.57724 3.84497 2.59277C3.75095 2.60568 3.70252 2.65008 3.69897 2.7252L3.70094 2.76545L3.65571 4.06124C3.65019 4.11361 3.65571 4.15233 3.67264 4.17814C3.68406 4.19559 3.70055 4.20658 3.72181 4.21226L3.75804 4.21607L4.2798 4.20583C4.31012 4.21493 4.33611 4.21038 4.35929 4.19218C4.37426 4.18041 4.38804 4.16182 4.40024 4.13789L4.41674 4.09729L4.4856 3.98231C4.54899 3.87534 4.63317 3.80058 4.73786 3.75844C4.82523 3.72353 4.94327 3.71784 5.09281 3.74099L5.18648 3.75844L5.94317 3.96827C6.13637 3.99789 6.32804 3.99789 6.5177 3.96827C6.70736 3.93869 6.88406 3.87762 7.04777 3.78579C6.99068 3.85181 6.90729 3.92693 6.79787 4.01005C6.6885 4.09313 6.55196 4.18536 6.38942 4.28589C6.28709 4.3352 6.18047 4.39212 6.06948 4.45739C5.95853 4.52267 5.84321 4.59591 5.72399 4.67711C5.59847 4.77008 5.48905 4.86453 5.397 4.96091C5.30491 5.05729 5.22935 5.15481 5.17072 5.25386C5.09438 5.37072 5.03379 5.50621 4.99087 5.65986C4.94799 5.81356 4.92122 5.98619 4.91138 6.17708C4.90473 6.22752 4.91256 6.2651 4.93461 6.28978C4.95114 6.30837 4.97595 6.319 5.00898 6.32276L5.04481 6.3239L6.87698 6.32731C6.96041 6.33532 7.01824 6.33191 7.05053 6.31747C7.0749 6.30684 7.08553 6.28899 7.08159 6.26549L7.07293 6.23968L7.04147 6.07536C7.0273 5.96384 7.021 5.83937 7.02297 5.70199C7.02494 5.56462 7.03439 5.41399 7.0525 5.25045C7.07175 5.10892 7.09971 4.97006 7.13549 4.83496C7.17133 4.69986 7.21499 4.56782 7.26617 4.43919C7.31889 4.2988 7.37791 4.15989 7.44323 4.0237C7.50855 3.88746 7.58056 3.75315 7.65809 3.62111C7.70258 3.53269 7.76632 3.42909 7.84971 3.31031C7.93314 3.19158 8.03587 3.05801 8.15784 2.90926C8.18619 2.88117 8.20037 2.8561 8.20037 2.83488C8.20037 2.82044 8.19407 2.80719 8.18186 2.79542L8.15863 2.7791L8.04807 2.7294L7.82062 2.59316C7.78912 2.57229 7.76239 2.56468 7.73876 2.56928C7.71514 2.57383 7.69589 2.59128 7.68053 2.62125C7.65258 2.65691 7.61639 2.68653 7.57072 2.70928C7.52509 2.73203 7.47079 2.74799 7.40744 2.75784C7.32165 2.77149 7.23625 2.77871 7.15046 2.77945C7.06466 2.78024 6.97891 2.77416 6.89272 2.76125C6.4988 2.68727 6.12968 2.61972 5.78576 2.55864C5.48472 2.50514 5.17466 2.53209 4.85551 2.63871H4.85354L4.85275 2.63792Z" fill="#9590C0"/>
</svg>
