<svg width="14" height="14" viewBox="0 0 14 14" fill="none" xmlns="http://www.w3.org/2000/svg">
<path d="M9.47533 2.63672C10.0062 2.63672 10.48 3.26812 10.7897 4.25621L10.7936 4.25583L10.8428 4.43871C11.2347 5.98956 11.2076 8.17251 10.6747 10.0755C10.3686 10.8715 9.94403 11.3641 9.47494 11.3641L9.44624 11.3622L9.44664 11.3641L4.48013 11.3611C4.04176 11.3185 3.64628 10.845 3.35547 10.1001L3.35115 10.0997C2.92813 8.19377 2.90569 5.92958 3.21499 4.36663L3.25631 4.17197H3.25828C3.56246 3.24991 4.01303 2.65872 4.5171 2.63748V2.63672H9.47533ZM3.04106 4.1716C2.74318 5.14186 2.60584 6.14741 2.63024 7.18748C2.65228 8.15356 2.80456 9.07673 3.0871 9.95707L3.13432 10.0986H2.85179C2.43034 10.0986 2.10766 9.4854 1.9357 8.61079C1.48867 8.38881 1.16992 7.80785 1.16992 7.12636C1.16992 6.45401 1.48001 5.88027 1.9172 5.65106C2.08405 4.76583 2.41499 4.17121 2.85257 4.17121H3.04185L3.04106 4.1716ZM11.1737 4.25659C11.5834 4.30668 11.9371 4.85311 12.1288 5.69245C12.5293 5.94288 12.8064 6.49119 12.8064 7.12636C12.8064 7.75172 12.538 8.29282 12.1485 8.54893C11.9721 9.39016 11.6361 9.95781 11.2406 10.0584L11.1741 10.0705L11.1733 10.0747L10.8735 10.0751L10.9431 9.90243C11.2528 9.09231 11.4279 8.21048 11.4673 7.25691C11.5106 6.21417 11.3528 5.21431 10.9935 4.25621H11.1733L11.1737 4.25583V4.25659ZM6.02267 5.27464L5.88534 5.32552L5.68308 5.41389C5.62722 5.42453 5.59375 5.39342 5.58233 5.32058C5.57095 5.24773 5.52055 5.20941 5.43126 5.20634C5.26322 5.20634 5.12431 5.21396 5.01489 5.22949C4.92087 5.24239 4.87244 5.2868 4.8689 5.36192L4.87087 5.40217L4.82563 6.69796C4.82012 6.75033 4.82563 6.78904 4.84256 6.81486C4.85398 6.83231 4.87047 6.84329 4.89173 6.84898L4.92796 6.85279L5.44972 6.84255C5.48004 6.85165 5.50603 6.8471 5.52922 6.8289C5.54418 6.81713 5.55796 6.79854 5.57017 6.77461L5.58666 6.73401L5.65552 6.61903C5.71892 6.51206 5.80309 6.43729 5.90778 6.39516C5.99515 6.36025 6.11319 6.35456 6.26273 6.37771L6.3564 6.39516L7.1131 6.60499C7.3063 6.63461 7.49797 6.63461 7.68762 6.60499C7.87728 6.57541 8.05398 6.51434 8.2177 6.42251C8.1606 6.48853 8.07722 6.56364 7.9678 6.64677C7.85842 6.72985 7.72188 6.82208 7.55935 6.92261C7.45702 6.97192 7.3504 7.02884 7.2394 7.09411C7.12845 7.15939 7.01313 7.23263 6.89391 7.31383C6.76839 7.40679 6.65897 7.50125 6.56692 7.59763C6.47483 7.69401 6.39927 7.79153 6.34065 7.89058C6.2643 8.00744 6.20371 8.14293 6.16079 8.29658C6.11792 8.45028 6.09114 8.62291 6.0813 8.81379C6.07465 8.86424 6.08248 8.90182 6.10453 8.92649C6.12107 8.94509 6.14587 8.95572 6.1789 8.95948L6.21473 8.96062L8.0469 8.96403C8.13033 8.97204 8.18817 8.96863 8.22045 8.95419C8.24482 8.94356 8.25545 8.92571 8.25152 8.90221L8.24285 8.8764L8.2114 8.71208C8.19722 8.60056 8.19092 8.47609 8.19289 8.33871C8.19486 8.20134 8.20431 8.05071 8.22242 7.88717C8.24167 7.74564 8.26963 7.60678 8.30542 7.47168C8.34125 7.33658 8.38491 7.20454 8.4361 7.07591C8.48881 6.93552 8.54783 6.79661 8.61315 6.66042C8.67847 6.52418 8.75048 6.38987 8.82801 6.25783C8.8725 6.16941 8.93625 6.06581 9.01963 5.94703C9.10307 5.82829 9.20579 5.69473 9.32777 5.54598C9.35612 5.51789 9.37029 5.49282 9.37029 5.4716C9.37029 5.45716 9.36399 5.44391 9.35178 5.43214L9.32855 5.41582L9.218 5.36612L8.99054 5.22988C8.95904 5.20901 8.93231 5.2014 8.90868 5.20599C8.88506 5.21054 8.86581 5.228 8.85045 5.25797C8.8225 5.29363 8.78632 5.32324 8.74064 5.34599C8.69501 5.36874 8.64072 5.38471 8.57737 5.39456C8.49157 5.40821 8.40617 5.41543 8.32038 5.41617C8.23458 5.41696 8.14883 5.41088 8.06265 5.39797C7.66872 5.32399 7.2996 5.25644 6.95568 5.19536C6.65464 5.14186 6.34458 5.16881 6.02543 5.27543H6.02346L6.02267 5.27464Z" fill="#B93DEB"/>
</svg>
