<svg width="15" height="10" viewBox="0 0 15 10" fill="none" xmlns="http://www.w3.org/2000/svg">
<rect width="15" height="9.64286" rx="4.82143" fill="#B93DEB"/>
<path d="M5.13968 6.6096H3.48815C3.33615 6.6096 3.21289 6.48639 3.21289 6.33435V3.4901C3.21289 3.3381 3.3361 3.21484 3.48815 3.21484H5.13964C5.29163 3.21484 5.41489 3.33806 5.41489 3.4901V6.33435C5.41494 6.48639 5.29168 6.6096 5.13968 6.6096Z" fill="#080B1F"/>
<path d="M8.20604 6.6096H6.55455C6.40255 6.6096 6.2793 6.48639 6.2793 6.33435V3.4901C6.2793 3.3381 6.40251 3.21484 6.55455 3.21484H8.20604C8.35804 3.21484 8.4813 3.33806 8.4813 3.4901V6.33435C8.4813 6.48639 8.35804 6.6096 8.20604 6.6096Z" fill="#080B1F"/>
<path d="M11.2685 6.6096H9.61705C9.46505 6.6096 9.3418 6.48639 9.3418 6.33435V3.4901C9.3418 3.3381 9.46501 3.21484 9.61705 3.21484H11.2685C11.4205 3.21484 11.5438 3.33806 11.5438 3.4901V6.33435C11.5438 6.48639 11.4205 6.6096 11.2685 6.6096Z" fill="#080B1F"/>
</svg>
