<svg width="34" height="34" viewBox="0 0 34 34" fill="none" xmlns="http://www.w3.org/2000/svg">
<path d="M24.9957 23.2339V16.6484L21.0545 20.9281L17.1836 24.3834L21.5921 25.8445C22.7441 26.2262 23.3192 26.4171 23.7767 26.2913C24.177 26.1811 24.5224 25.9159 24.7432 25.5492C24.9949 25.1298 24.9949 24.4981 24.9949 23.2331L24.9957 23.2339Z" fill="#B93DEB"/>
<path fill-rule="evenodd" clip-rule="evenodd" d="M9.53431 10.4681C9 11.5671 9 13.005 9 15.8809V16.2088C9 19.0847 9 20.5226 9.53431 21.6216C10.0043 22.5879 10.7541 23.3735 11.6765 23.8659C12.7255 24.4256 14.098 24.4256 16.8431 24.4256H17.1569C19.902 24.4256 21.2745 24.4256 22.3235 23.8659C23.2459 23.3735 23.9957 22.5879 24.4657 21.6216C25 20.5235 25 19.0855 25 16.2088V15.8809C25 13.005 25 11.5671 24.4657 10.4681C23.9957 9.5018 23.2459 8.71619 22.3235 8.22384C21.2745 7.66406 19.902 7.66406 17.1569 7.66406H16.8431C14.098 7.66406 12.7255 7.66406 11.6765 8.22384C10.7541 8.71619 10.0043 9.5018 9.53431 10.4681ZM14.6618 17.1605H19.4003C19.6724 17.1605 19.808 17.1605 19.9297 17.2436C20.0204 17.3052 20.116 17.4481 20.1405 17.5594C20.1732 17.7075 20.1356 17.8136 20.0613 18.0242C19.7181 19.0034 18.8668 20.1315 17.1013 20.1315C15.3619 20.1315 14.4355 19.0376 14.0163 18.0687C13.9216 17.8504 13.875 17.7417 13.9003 17.5851C13.9301 17.4515 14.0031 17.333 14.107 17.2496C14.232 17.1605 14.375 17.1605 14.6618 17.1605Z" fill="#B3BEC1"/>
</svg>
