<svg width="52" height="74" viewBox="0 0 52 74" fill="none" xmlns="http://www.w3.org/2000/svg">
<path d="M8.90767 71V62.2727H10.4886V69.6747H14.3324V71H8.90767ZM18.4915 71.1278C17.8523 71.1278 17.2983 70.9872 16.8295 70.706C16.3608 70.4247 15.9972 70.0312 15.7386 69.5256C15.483 69.0199 15.3551 68.429 15.3551 67.7528C15.3551 67.0767 15.483 66.4844 15.7386 65.9759C15.9972 65.4673 16.3608 65.0724 16.8295 64.7912C17.2983 64.5099 17.8523 64.3693 18.4915 64.3693C19.1307 64.3693 19.6847 64.5099 20.1534 64.7912C20.6222 65.0724 20.9844 65.4673 21.2401 65.9759C21.4986 66.4844 21.6278 67.0767 21.6278 67.7528C21.6278 68.429 21.4986 69.0199 21.2401 69.5256C20.9844 70.0312 20.6222 70.4247 20.1534 70.706C19.6847 70.9872 19.1307 71.1278 18.4915 71.1278ZM18.5 69.892C18.8466 69.892 19.1364 69.7969 19.3693 69.6065C19.6023 69.4134 19.7756 69.1548 19.8892 68.831C20.0057 68.5071 20.0639 68.1463 20.0639 67.7486C20.0639 67.348 20.0057 66.9858 19.8892 66.6619C19.7756 66.3352 19.6023 66.0753 19.3693 65.8821C19.1364 65.6889 18.8466 65.5923 18.5 65.5923C18.1449 65.5923 17.8494 65.6889 17.6136 65.8821C17.3807 66.0753 17.206 66.3352 17.0895 66.6619C16.9759 66.9858 16.919 67.348 16.919 67.7486C16.919 68.1463 16.9759 68.5071 17.0895 68.831C17.206 69.1548 17.3807 69.4134 17.6136 69.6065C17.8494 69.7969 18.1449 69.892 18.5 69.892ZM23.0053 71V62.2727H24.5479V65.5369H24.6119C24.6914 65.3778 24.8036 65.2088 24.9485 65.0298C25.0934 64.848 25.2894 64.6932 25.5366 64.5653C25.7837 64.4347 26.0991 64.3693 26.4826 64.3693C26.9883 64.3693 27.4442 64.4986 27.8505 64.7571C28.2596 65.0128 28.5835 65.392 28.8221 65.8949C29.0636 66.3949 29.1843 67.0085 29.1843 67.7358C29.1843 68.4545 29.0664 69.0653 28.8306 69.5682C28.5948 70.071 28.2738 70.4545 27.8675 70.7188C27.4613 70.983 27.0011 71.1151 26.4869 71.1151C26.1119 71.1151 25.8008 71.0526 25.5536 70.9276C25.3065 70.8026 25.1076 70.652 24.957 70.4759C24.8093 70.2969 24.6942 70.1278 24.6119 69.9688H24.5224V71H23.0053ZM24.5181 67.7273C24.5181 68.1506 24.5778 68.5213 24.6971 68.8395C24.8192 69.1577 24.994 69.4062 25.2212 69.5852C25.4513 69.7614 25.7298 69.8494 26.0565 69.8494C26.3974 69.8494 26.6829 69.7585 26.913 69.5767C27.1431 69.392 27.3164 69.1406 27.4329 68.8224C27.5522 68.5014 27.6119 68.1364 27.6119 67.7273C27.6119 67.321 27.5536 66.9602 27.4371 66.6449C27.3207 66.3295 27.1474 66.0824 26.9173 65.9034C26.6871 65.7244 26.4002 65.6349 26.0565 65.6349C25.7269 65.6349 25.4471 65.7216 25.217 65.8949C24.9869 66.0682 24.8121 66.3111 24.6928 66.6236C24.5763 66.9361 24.5181 67.304 24.5181 67.7273ZM30.5639 71V62.2727H32.1065V65.5369H32.1705C32.25 65.3778 32.3622 65.2088 32.5071 65.0298C32.652 64.848 32.848 64.6932 33.0952 64.5653C33.3423 64.4347 33.6577 64.3693 34.0412 64.3693C34.5469 64.3693 35.0028 64.4986 35.4091 64.7571C35.8182 65.0128 36.142 65.392 36.3807 65.8949C36.6222 66.3949 36.7429 67.0085 36.7429 67.7358C36.7429 68.4545 36.625 69.0653 36.3892 69.5682C36.1534 70.071 35.8324 70.4545 35.4261 70.7188C35.0199 70.983 34.5597 71.1151 34.0455 71.1151C33.6705 71.1151 33.3594 71.0526 33.1122 70.9276C32.8651 70.8026 32.6662 70.652 32.5156 70.4759C32.3679 70.2969 32.2528 70.1278 32.1705 69.9688H32.081V71H30.5639ZM32.0767 67.7273C32.0767 68.1506 32.1364 68.5213 32.2557 68.8395C32.3778 69.1577 32.5526 69.4062 32.7798 69.5852C33.0099 69.7614 33.2884 69.8494 33.6151 69.8494C33.956 69.8494 34.2415 69.7585 34.4716 69.5767C34.7017 69.392 34.875 69.1406 34.9915 68.8224C35.1108 68.5014 35.1705 68.1364 35.1705 67.7273C35.1705 67.321 35.1122 66.9602 34.9957 66.6449C34.8793 66.3295 34.706 66.0824 34.4759 65.9034C34.2457 65.7244 33.9588 65.6349 33.6151 65.6349C33.2855 65.6349 33.0057 65.7216 32.7756 65.8949C32.5455 66.0682 32.3707 66.3111 32.2514 66.6236C32.1349 66.9361 32.0767 67.304 32.0767 67.7273ZM38.7905 73.4545C38.5803 73.4545 38.3857 73.4375 38.2067 73.4034C38.0305 73.3722 37.8899 73.3352 37.7848 73.2926L38.1428 72.0909C38.3672 72.1563 38.5675 72.1875 38.7436 72.1847C38.9197 72.1818 39.0746 72.1264 39.2081 72.0185C39.3445 71.9134 39.4595 71.7372 39.5533 71.4901L39.6854 71.1364L37.3118 64.4545H38.9482L40.4567 69.3977H40.5249L42.0376 64.4545H43.6783L41.0575 71.7926C40.9354 72.1392 40.7734 72.4361 40.5717 72.6832C40.37 72.9332 40.1229 73.1236 39.8303 73.2543C39.5405 73.3878 39.1939 73.4545 38.7905 73.4545Z" fill="white"/>
<path d="M29.7123 1.54881C28.7217 0.556171 27.3886 0 26 0C24.6114 0 23.2783 0.556171 22.2877 1.54881L1.51703 23.194C0.948188 23.7932 0.52054 24.5166 0.266515 25.3095C0.0124893 26.1023 -0.0612462 26.9438 0.0508989 27.7701L2.87119 48.3479C3.04434 49.6278 3.66249 50.8017 4.61301 51.6556C5.56353 52.5095 6.78315 52.9866 8.04964 53H43.9504C45.2168 52.9866 46.4365 52.5095 47.387 51.6556C48.3375 50.8017 48.9557 49.6278 49.1288 48.3479L51.9491 27.7701C52.0612 26.9438 51.9875 26.1023 51.7335 25.3095C51.4795 24.5166 51.0518 23.7932 50.483 23.194L29.7123 1.54881Z" fill="url(#paint0_linear_276_37644)"/>
<path d="M29.4135 7.49958C28.5021 6.60359 27.2756 6.10156 25.9981 6.10156C24.7206 6.10156 23.4942 6.60359 22.5828 7.49958L3.4738 27.0374C2.95046 27.5783 2.55702 28.2313 2.32332 28.947C2.08962 29.6626 2.02178 30.4222 2.12495 31.168L4.71962 49.7423C4.87892 50.8977 5.44762 51.9572 6.3221 52.728C7.19658 53.4988 8.31863 53.9295 9.48379 53.9416H42.5125C43.6776 53.9295 44.7997 53.4988 45.6742 52.728C46.5486 51.9572 47.1173 50.8977 47.2766 49.7423L49.8713 31.168C49.9745 30.4222 49.9066 29.6626 49.6729 28.947C49.4392 28.2313 49.0458 27.5783 48.5225 27.0374L29.4135 7.49958Z" fill="url(#paint1_linear_276_37644)"/>
<path d="M28.297 22.8274C27.9954 22.5254 27.6372 22.2859 27.2429 22.1225C26.8486 21.9591 26.426 21.875 25.9993 21.875C25.5725 21.875 25.1499 21.9591 24.7556 22.1225C24.3613 22.2859 24.0032 22.5254 23.7015 22.8274L16.8047 29.7209C16.1977 30.3317 15.8571 31.1579 15.8574 32.019C15.8577 32.8801 16.1989 33.7061 16.8063 34.3164L23.7044 41.2165C24.3162 41.8208 25.1416 42.1594 26.0015 42.1587C26.8614 42.1579 27.6863 41.818 28.297 41.2126L35.1922 34.3158C35.7992 33.705 36.1414 32.8788 36.1411 32.0177C36.1408 31.1566 35.7996 30.3306 35.1922 29.7203L28.297 22.8274ZM32.8928 32.0187L25.9993 38.9155L19.1041 32.0187L25.9993 25.1251L32.8928 32.0151V32.0187Z" fill="#242B35"/>
<path d="M32.5 44.625H19.5C19.069 44.625 18.6557 44.7962 18.351 45.101C18.0462 45.4057 17.875 45.819 17.875 46.25C17.875 46.681 18.0462 47.0943 18.351 47.399C18.6557 47.7038 19.069 47.875 19.5 47.875H32.5C32.931 47.875 33.3443 47.7038 33.649 47.399C33.9538 47.0943 34.125 46.681 34.125 46.25C34.125 45.819 33.9538 45.4057 33.649 45.101C33.3443 44.7962 32.931 44.625 32.5 44.625Z" fill="#242B35"/>
<defs>
<linearGradient id="paint0_linear_276_37644" x1="26" y1="0" x2="26" y2="53" gradientUnits="userSpaceOnUse">
<stop stop-color="#FE55F8"/>
<stop offset="1" stop-color="#983395"/>
</linearGradient>
<linearGradient id="paint1_linear_276_37644" x1="25.9981" y1="6.10156" x2="25.9981" y2="53.9416" gradientUnits="userSpaceOnUse">
<stop stop-color="#FFA5F0"/>
<stop offset="1" stop-color="#9318B2"/>
</linearGradient>
</defs>
</svg>
