<svg width="24" height="24" viewBox="0 0 24 24" fill="none" xmlns="http://www.w3.org/2000/svg">
<path d="M18.0504 4.1875H4.41094C4.16241 4.1875 3.96094 4.38897 3.96094 4.6375V6.36025C3.96094 6.60878 4.16241 6.81025 4.41094 6.81025H18.0504C18.299 6.81025 18.5004 6.60878 18.5004 6.36025V4.6375C18.5004 4.38897 18.299 4.1875 18.0504 4.1875Z" fill="#B3BEC1"/>
<path d="M14.4026 10.375H4.89336C4.64483 10.375 4.44336 10.5765 4.44336 10.825V12.5477C4.44336 12.7963 4.64483 12.9977 4.89336 12.9977H14.4026C14.6511 12.9977 14.8526 12.7963 14.8526 12.5477V10.825C14.8526 10.5765 14.6511 10.375 14.4026 10.375Z" fill="#B3BEC1"/>
<path d="M18.0504 16.5625H4.41094C4.16241 16.5625 3.96094 16.764 3.96094 17.0125V18.7352C3.96094 18.9838 4.16241 19.1852 4.41094 19.1852H18.0504C18.299 19.1852 18.5004 18.9838 18.5004 18.7352V17.0125C18.5004 16.764 18.299 16.5625 18.0504 16.5625Z" fill="#B3BEC1"/>
<path d="M20.8477 11.0352C20.961 11.1012 21.055 11.1958 21.1203 11.3095C21.1857 11.4232 21.22 11.552 21.22 11.6832C21.22 11.8143 21.1857 11.9431 21.1203 12.0568C21.055 12.1706 20.961 12.2651 20.8477 12.3312L17.7142 14.1552C17.6002 14.2215 17.4708 14.2566 17.3389 14.2569C17.2071 14.2573 17.0774 14.2229 16.9631 14.1572C16.8488 14.0915 16.7539 13.9968 16.6878 13.8826C16.6218 13.7685 16.587 13.639 16.5869 13.5072V9.85991C16.5868 9.72799 16.6215 9.59838 16.6875 9.48416C16.7535 9.36994 16.8485 9.27514 16.9628 9.20934C17.0771 9.14354 17.2068 9.10906 17.3387 9.10938C17.4706 9.1097 17.6001 9.14481 17.7142 9.21116L20.8477 11.0352Z" fill="#B93DEB"/>
</svg>
