<svg width="25" height="25" viewBox="0 0 25 25" fill="none" xmlns="http://www.w3.org/2000/svg">
<path d="M22.3 10.2478V8.30156C22.3 7.14355 21.358 6.20156 20.2 6.20156C19.8135 6.20156 19.5 6.51502 19.5 6.90156C19.5 7.2881 19.8135 7.60156 20.2 7.60156C20.5859 7.60156 20.9 7.91565 20.9 8.30156V9.70156H14.6C14.6 8.54355 13.658 7.60156 12.5 7.60156C12.1141 7.60156 11.8 7.28747 11.8 6.90156C11.8 6.51565 12.1141 6.20156 12.5 6.20156C12.8859 6.20156 13.2 6.51565 13.2 6.90156C13.2 7.2881 13.5135 7.60156 13.9 7.60156C14.2865 7.60156 14.6 7.2881 14.6 6.90156C14.6 5.99023 14.0131 5.22044 13.2 4.93057V4.80156C13.2 4.41502 12.8865 4.10156 12.5 4.10156C12.1135 4.10156 11.8 4.41502 11.8 4.80156V4.93057C10.9869 5.22044 10.4 5.99023 10.4 6.90156C10.4 8.05957 11.342 9.00156 12.5 9.00156C12.8859 9.00156 13.2 9.31565 13.2 9.70156H4.45C3.87103 9.70156 3.4 9.23053 3.4 8.65156C3.4 8.07259 3.87103 7.60156 4.45 7.60156H4.8C5.18654 7.60156 5.5 7.2881 5.5 6.90156C5.5 6.51502 5.18654 6.20156 4.8 6.20156H4.45C3.09956 6.20156 2.0007 7.30007 2 8.65051V20.9016C2 22.0596 2.94199 23.0016 4.1 23.0016H20.9C22.058 23.0016 23 22.0596 23 20.9016V11.8016C23 11.1833 22.7265 10.6324 22.3 10.2478ZM21.6 17.4016H19.85C19.271 17.4016 18.8 16.9305 18.8 16.3516C18.8 15.7726 19.271 15.3016 19.85 15.3016H21.6V17.4016ZM20.9 21.6016H4.1C3.71409 21.6016 3.4 21.2875 3.4 20.9016V10.865C3.71857 11.0164 4.07438 11.1016 4.45 11.1016H20.9C21.2859 11.1016 21.6 11.4157 21.6 11.8016V13.9016H19.85C18.4992 13.9016 17.4 15.0008 17.4 16.3516C17.4 17.7024 18.4992 18.8016 19.85 18.8016H21.6V20.9016C21.6 21.2875 21.2859 21.6016 20.9 21.6016Z" fill="#9DA8AA"/>
<path d="M12.5004 7.60156C13.6584 7.60156 14.6004 8.54355 14.6004 9.70156H13.2004C13.2004 9.31565 12.8863 9.00156 12.5004 9.00156C11.3424 9.00156 10.4004 8.05957 10.4004 6.90156C10.4004 5.99023 10.9873 5.22044 11.8004 4.93057V4.80156C11.8004 4.41502 12.1139 4.10156 12.5004 4.10156C12.8869 4.10156 13.2004 4.41502 13.2004 4.80156V4.93057C14.0134 5.22044 14.6004 5.99023 14.6004 6.90156C14.6004 7.2881 14.2869 7.60156 13.9004 7.60156C13.5139 7.60156 13.2004 7.2881 13.2004 6.90156C13.2004 6.51565 12.8863 6.20156 12.5004 6.20156C12.1145 6.20156 11.8004 6.51565 11.8004 6.90156C11.8004 7.28747 12.1145 7.60156 12.5004 7.60156Z" fill="#B93DEB"/>
<path d="M6.9002 9C7.28674 9 7.6002 8.68654 7.6002 8.3C7.6002 5.59807 9.79827 3.4 12.5002 3.4C15.2021 3.4 17.4002 5.59807 17.4002 8.3C17.4002 8.68654 17.7137 9 18.1002 9C18.4867 9 18.8002 8.68654 18.8002 8.3C18.8002 4.82632 15.9739 2 12.5002 2C9.02652 2 6.2002 4.82632 6.2002 8.3C6.2002 8.68654 6.51366 9 6.9002 9Z" fill="#B93DEB"/>
</svg>
