<svg width="23" height="23" viewBox="0 0 23 23" fill="none" xmlns="http://www.w3.org/2000/svg">
<g clip-path="url(#clip0_276_37652)">
<path d="M19.4066 22.9987H3.59408C2.66928 22.9987 1.91699 22.2464 1.91699 21.3216V11.7383C1.91699 11.3415 2.23899 11.0195 2.63574 11.0195H20.3649C20.7617 11.0195 21.0837 11.3415 21.0837 11.7383V21.3216C21.0837 22.2464 20.3314 22.9987 19.4066 22.9987ZM3.35449 12.457V21.3216C3.35449 21.4539 3.46183 21.5612 3.59408 21.5612H19.4066C19.5388 21.5612 19.6462 21.4539 19.6462 21.3216V12.457H3.35449Z" fill="#9DA8AA"/>
<path d="M21.3229 12.457H1.67708C0.752292 12.457 0 11.7047 0 10.7799V8.38411C0 7.45932 0.752292 6.70703 1.67708 6.70703H21.3229C22.2477 6.70703 23 7.45932 23 8.38411V10.7799C23 11.7047 22.2477 12.457 21.3229 12.457ZM1.67708 8.14453C1.54483 8.14453 1.4375 8.25186 1.4375 8.38411V10.7799C1.4375 10.9122 1.54483 11.0195 1.67708 11.0195H21.3229C21.4552 11.0195 21.5625 10.9122 21.5625 10.7799V8.38411C21.5625 8.25186 21.4552 8.14453 21.3229 8.14453H1.67708Z" fill="#9DA8AA"/>
<path d="M11.4997 7.70899C11.2908 7.70899 11.0915 7.61795 10.9564 7.45982C10.8193 7.3017 10.759 7.09182 10.7887 6.88482C11.1432 4.48899 13.0149 -0.0429688 17.565 -0.0429688C20.1621 -0.0420104 21.0831 1.36099 21.0831 2.56274C21.0831 4.69886 18.1094 7.70899 11.4997 7.70899ZM17.565 1.39549C14.1323 1.39549 12.829 4.65861 12.3967 6.25041C15.105 6.12391 16.8127 5.4387 17.796 4.85507C19.1597 4.04528 19.6456 3.13966 19.6456 2.56178C19.6456 1.7012 18.5713 1.39549 17.565 1.39549Z" fill="#B93DEB"/>
<path d="M11.5013 7.70803C4.89168 7.70803 1.91797 4.69791 1.91797 2.56178C1.91797 1.36003 2.83989 -0.0429688 5.43697 -0.0429688C9.98618 -0.0429688 11.8578 4.48899 12.2124 6.88482C12.2421 7.09182 12.1817 7.3017 12.0447 7.45982C11.9096 7.61699 11.7102 7.70803 11.5013 7.70803ZM5.43697 1.39453C4.43072 1.39453 3.35547 1.7012 3.35547 2.56178C3.35547 3.78557 5.49543 6.01561 10.6033 6.25041C10.1721 4.65766 8.86876 1.39453 5.43697 1.39453Z" fill="#B93DEB"/>
<path d="M11.5 23C11.1032 23 10.7812 22.678 10.7812 22.2812V7.1875C10.7812 6.79075 11.1032 6.46875 11.5 6.46875C11.8967 6.46875 12.2188 6.79075 12.2188 7.1875V22.2812C12.2188 22.678 11.8967 23 11.5 23Z" fill="#9DA8AA"/>
</g>
<defs>
<clipPath id="clip0_276_37652">
<rect width="23" height="23" fill="white"/>
</clipPath>
</defs>
</svg>
