<svg width="34" height="34" viewBox="0 0 34 34" fill="none" xmlns="http://www.w3.org/2000/svg">
<path fill-rule="evenodd" clip-rule="evenodd" d="M19.1016 21.3022C17.8833 22.2792 16.3367 22.8636 14.6535 22.8636C10.7237 22.8636 7.53809 19.6779 7.53809 15.7482C7.53809 11.8185 10.7237 8.63281 14.6535 8.63281C18.5832 8.63281 21.7689 11.8185 21.7689 15.7482C21.7689 17.4486 21.1724 19.0097 20.1773 20.2337L20.9159 20.9723L19.8438 22.0444L19.1016 21.3022ZM19.5018 15.7481C19.5018 18.4257 17.3311 20.5963 14.6535 20.5963C11.9759 20.5963 9.80522 18.4257 9.80522 15.7481C9.80522 13.0704 11.9759 10.8998 14.6535 10.8998C17.3311 10.8998 19.5018 13.0704 19.5018 15.7481Z" fill="#B3BEC1"/>
<path fill-rule="evenodd" clip-rule="evenodd" d="M23.7108 26.0391C23.5763 26.1736 23.3582 26.1733 23.2241 26.0384L19.7092 22.5016C19.5758 22.3673 19.5761 22.1503 19.71 22.0164L20.8992 20.8272C21.0337 20.6927 21.2519 20.6931 21.3859 20.828L24.9008 24.3647C25.0343 24.499 25.034 24.716 24.9001 24.8499L23.7108 26.0391Z" fill="#B3BEC1"/>
<path d="M27.88 9.78739C27.2726 10.0391 26.7877 10.2656 26.4253 10.4669C26.0662 10.6682 25.7861 10.8679 25.5847 11.0659C25.3867 11.2639 25.1871 11.5424 24.9857 11.9014C24.7844 12.2605 24.5545 12.7521 24.2962 13.3762H24.0898C23.8281 12.7521 23.5965 12.2605 23.3952 11.9014C23.1938 11.5424 22.9959 11.2639 22.8012 11.0659C22.5999 10.8679 22.318 10.6682 21.9556 10.4669C21.5966 10.2656 21.1117 10.0391 20.501 9.78739V9.58102C21.115 9.32935 21.6016 9.10284 21.9607 8.90151C22.3231 8.70017 22.6033 8.50051 22.8012 8.30253C22.9959 8.10455 23.1938 7.82603 23.3952 7.46698C23.5965 7.10793 23.8281 6.61633 24.0898 5.99219H24.2962C24.5545 6.61633 24.7844 7.10793 24.9857 7.46698C25.1871 7.82603 25.3867 8.10455 25.5847 8.30253C25.7793 8.50051 26.0562 8.70017 26.4152 8.90151C26.7776 9.10284 27.2659 9.32935 27.88 9.58102V9.78739Z" fill="#B93DEB"/>
</svg>
