<svg width="157" height="157" viewBox="0 0 157 157" fill="none" xmlns="http://www.w3.org/2000/svg">
<path d="M89.3644 3.99703L100.015 13.0689C102.701 15.3543 106.033 16.7326 109.539 17.0204L123.495 18.137C127.462 18.4537 131.186 20.1727 134.001 22.9859C136.816 25.7991 138.536 29.5226 138.855 33.4894L139.963 47.4462C140.251 50.9615 141.638 54.3025 143.923 56.9804L152.995 67.6225C155.58 70.6536 157 74.5072 157 78.4913C157 82.4753 155.58 86.3289 152.995 89.3601L143.923 100.011C141.638 102.698 140.251 106.03 139.972 109.545L138.855 123.502C138.539 127.469 136.82 131.193 134.007 134.008C131.194 136.823 127.471 138.544 123.504 138.863L109.548 139.98C106.035 140.258 102.698 141.638 100.015 143.922L89.3644 152.994C86.3335 155.58 82.4801 157 78.4963 157C74.5125 157 70.6591 155.58 67.6282 152.994L56.9868 143.922C54.3006 141.636 50.9611 140.256 47.4445 139.98L33.4886 138.863C29.5207 138.544 25.7963 136.821 22.9831 134.005C20.1699 131.188 18.4519 127.462 18.1371 123.493L17.0206 109.545C16.7382 106.033 15.3555 102.7 13.0694 100.02L3.99806 89.3601C1.41736 86.3302 0 82.4801 0 78.5C0 74.5199 1.41736 70.6698 3.99806 67.6399L13.0694 56.9804C15.3634 54.2937 16.7328 50.9615 17.0119 47.4462L18.1284 33.4981C18.446 29.5271 20.1685 25.7992 22.9869 22.9839C25.8053 20.1685 29.5348 18.4501 33.506 18.137L47.4445 17.0292C50.959 16.7484 54.2954 15.3656 56.9781 13.0776L67.6282 4.00575C70.6591 1.42025 74.5125 0 78.4963 0C82.4801 0 86.3335 1.41153 89.3644 3.99703Z" fill="url(#paint0_linear_236_27271)"/>
<path d="M115.883 52.334L66.0417 104.667L41.1211 78.5007" stroke="white" stroke-width="11" stroke-linecap="round" stroke-linejoin="round"/>
<defs>
<linearGradient id="paint0_linear_236_27271" x1="78.5" y1="0" x2="78.5" y2="157" gradientUnits="userSpaceOnUse">
<stop stop-color="#FFA5F0"/>
<stop offset="1" stop-color="#9318B2"/>
</linearGradient>
</defs>
</svg>
