<svg width="204" height="104" viewBox="0 0 204 104" fill="none" xmlns="http://www.w3.org/2000/svg">
<path opacity="0.2" fill-rule="evenodd" clip-rule="evenodd" d="M51.7751 0H151.594C193.453 0 219.214 97.7125 194.097 125.429C172.845 147.604 128.41 96.3242 102.006 97.71C74.959 96.3241 30.5216 147.605 9.9153 125.429C-15.2006 97.71 10.56 0 51.7751 0ZM48.9853 31.8765H58.4272C60.7991 31.8765 62.722 33.9456 62.722 36.498V49.2016H74.5274C76.8993 49.2016 78.8221 51.2707 78.8221 53.8231V63.9833C78.8221 66.5357 76.8993 68.6048 74.5274 68.6048H62.722V81.3084C62.722 83.8608 60.7991 85.9299 58.4272 85.9299H48.9853C46.6134 85.9299 44.6906 83.8608 44.6906 81.3084V68.6048H32.8851C30.5132 68.6048 28.5904 66.5357 28.5904 63.9833V53.8231C28.5904 51.2707 30.5132 49.2016 32.8851 49.2016H44.6906L44.6906 36.498C44.6906 33.9456 46.6134 31.8765 48.9853 31.8765ZM134.204 33.9562C140.001 33.9562 145.153 38.8076 145.153 45.0436C145.153 51.9732 140.001 56.825 134.204 56.825C128.407 56.825 123.256 51.9736 123.256 45.0436C123.256 38.806 128.407 33.9562 134.204 33.9562ZM164.472 60.9829C170.268 60.9829 174.775 65.8343 174.775 72.0704C174.775 78.9999 170.267 83.8517 164.472 83.8517C158.032 83.8517 153.523 79.0003 153.523 72.0704C153.523 65.8327 158.032 60.9829 164.472 60.9829Z" fill="#DBB0E2"/>
<path fill-rule="evenodd" clip-rule="evenodd" d="M70.4863 26H133.118C159.383 26 175.546 87.1636 159.786 104.513C146.452 118.393 118.571 86.2945 102.004 87.162C85.0331 86.2945 57.1508 118.394 44.2214 104.513C28.4624 87.162 44.6259 26 70.4863 26ZM68.7359 45.9532H74.6602C76.1485 45.9532 77.3549 47.2484 77.3549 48.8461V56.7979H84.7623C86.2506 56.7979 87.457 58.0931 87.457 59.6908V66.0506C87.457 67.6483 86.2506 68.9435 84.7623 68.9435H77.355V76.8953C77.355 78.493 76.1485 79.7882 74.6602 79.7882H68.7359C67.2476 79.7882 66.0412 78.493 66.0412 76.8953V68.9435H58.6338C57.1456 68.9435 55.9391 67.6483 55.9391 66.0506V59.6908C55.9391 58.0931 57.1456 56.7979 58.6338 56.7979H66.0412L66.0412 48.8461C66.0412 47.2484 67.2476 45.9532 68.7359 45.9532ZM122.207 47.255C125.844 47.255 129.076 50.2918 129.076 54.1953C129.076 58.5328 125.844 61.5699 122.207 61.5699C118.569 61.5699 115.337 58.5331 115.337 54.1953C115.337 50.2908 118.569 47.255 122.207 47.255ZM141.198 64.1725C144.835 64.1725 147.663 67.2093 147.663 71.1127C147.663 75.4503 144.834 78.4873 141.198 78.4873C137.157 78.4873 134.328 75.4506 134.328 71.1127C134.328 67.2082 137.157 64.1725 141.198 64.1725Z" fill="#DBB0E2"/>
</svg>
