<svg width="18" height="17" viewBox="0 0 18 17" fill="none" xmlns="http://www.w3.org/2000/svg">
<path d="M8.60617 13.7L4.43421 16.2C4.24991 16.3167 4.05723 16.3667 3.85617 16.35C3.65511 16.3333 3.47919 16.2667 3.32839 16.15C3.1776 16.0333 3.06032 15.8877 2.97654 15.713C2.89277 15.5383 2.87601 15.3423 2.92628 15.125L4.0321 10.4L0.337653 7.225C0.170104 7.075 0.0655541 6.904 0.0240021 6.712C-0.0175499 6.52 -0.00515138 6.33267 0.0611978 6.15C0.127547 5.96733 0.228076 5.81733 0.362785 5.7C0.497494 5.58267 0.681797 5.50767 0.915695 5.475L5.79136 5.05L7.67628 0.6C7.76005 0.4 7.89007 0.25 8.06633 0.15C8.24259 0.0499999 8.42254 0 8.60617 0C8.7898 0 8.96975 0.0499999 9.14601 0.15C9.32227 0.25 9.45229 0.4 9.53607 0.6L11.421 5.05L16.2966 5.475C16.5312 5.50833 16.7155 5.58333 16.8496 5.7C16.9836 5.81667 17.0841 5.96667 17.1511 6.15C17.2182 6.33333 17.2309 6.521 17.1893 6.713C17.1478 6.905 17.0429 7.07567 16.8747 7.225L13.1802 10.4L14.2861 15.125C14.3363 15.3417 14.3196 15.5377 14.2358 15.713C14.152 15.8883 14.0347 16.034 13.8839 16.15C13.7332 16.266 13.5572 16.3327 13.3562 16.35C13.1551 16.3673 12.9624 16.3173 12.7781 16.2L8.60617 13.7Z" fill="#067FF0"/>
</svg>
