<svg width="24" height="24" viewBox="0 0 24 24" fill="none" xmlns="http://www.w3.org/2000/svg">
<path d="M12 3C7.02985 3 3 7.02985 3 12C3 16.9701 7.02985 21 12 21C16.9701 21 21 16.9701 21 12C21 7.02985 16.9701 3 12 3ZM12 17.5267C8.94883 17.5267 6.47335 15.0512 6.47335 12C6.47335 8.94883 8.94883 6.47335 12 6.47335C15.0512 6.47335 17.5267 8.94883 17.5267 12C17.5267 15.0512 15.0512 17.5267 12 17.5267ZM15.4158 6.28145C14.8593 5.95522 14.2644 5.70576 13.6311 5.53305V4.3049C14.5906 4.51599 15.4925 4.8806 16.2793 5.39872L15.4158 6.28145ZM10.3689 5.53305C9.73561 5.68657 9.12153 5.95522 8.58422 6.28145L7.72068 5.41791C8.50746 4.89979 9.40938 4.51599 10.3689 4.32409V5.53305ZM6.28145 8.58422C5.95522 9.14072 5.70576 9.73561 5.53305 10.3689H4.3049C4.51599 9.40938 4.8806 8.50746 5.39872 7.72068L6.28145 8.58422ZM5.53305 13.6311C5.68657 14.2644 5.95522 14.8785 6.28145 15.4158L5.41791 16.2793C4.89979 15.4925 4.51599 14.5906 4.3049 13.6311H5.53305ZM8.58422 17.7186C9.14072 18.0448 9.73561 18.2942 10.3689 18.467V19.6759C9.40938 19.4648 8.50746 19.1002 7.72068 18.5821L8.58422 17.7186ZM13.6311 18.467C14.2644 18.3134 14.8785 18.0448 15.4158 17.7186L16.2793 18.5821C15.4925 19.1002 14.5906 19.484 13.6311 19.6759V18.467ZM17.7186 15.4158C18.0448 14.8593 18.2942 14.2644 18.467 13.6311H19.6759C19.4648 14.5906 19.1002 15.4925 18.5821 16.2793L17.7186 15.4158ZM18.467 10.3689C18.3134 9.73561 18.0448 9.12153 17.7186 8.58422L18.5821 7.72068C19.1002 8.50746 19.484 9.40938 19.6759 10.3689H18.467Z" fill="#B3BEC1"/>
<path d="M13.7855 11.8463C13.5745 11.6927 13.3442 11.5584 13.1139 11.4625C12.8644 11.3665 12.6342 11.2898 12.4039 11.213C12.2695 11.1746 12.1352 11.1362 12.0201 11.0787C11.9049 11.0403 11.7898 10.9827 11.6939 10.9443C11.5979 10.8868 11.5211 10.8484 11.4828 10.7716C11.4252 10.7141 11.406 10.6373 11.406 10.5605C11.406 10.4454 11.4252 10.3686 11.4828 10.3111C11.5403 10.2535 11.5979 10.1959 11.6747 10.1767C11.7514 10.1384 11.8282 10.1192 11.9241 10.1192C12.0201 10.1 12.0968 10.1 12.1736 10.1C12.3655 10.1 12.5958 10.1384 12.8069 10.2343C12.9796 10.2919 13.1139 10.3686 13.2482 10.4646C13.3442 10.5222 13.4593 10.503 13.5169 10.407L14.1693 9.54349C14.2461 9.44754 14.2269 9.31321 14.131 9.25564C13.9391 9.12131 13.7472 8.98698 13.5361 8.91022C13.3058 8.81427 13.0755 8.7567 12.8452 8.69914C12.7493 8.67995 12.6725 8.60319 12.6725 8.48805V8.02749C12.6725 7.91235 12.5766 7.81641 12.4614 7.81641H11.6939C11.5787 7.81641 11.4828 7.91235 11.4828 8.02749V8.50724C11.4828 8.60319 11.406 8.67995 11.3101 8.71833C11.1182 8.7567 10.9455 8.83346 10.7727 8.91022C10.5617 9.00617 10.3698 9.1405 10.1971 9.29402C10.0243 9.44754 9.90921 9.63943 9.81326 9.86971C9.71731 10.1 9.67893 10.3495 9.67893 10.6373C9.67893 10.9635 9.7365 11.2322 9.87083 11.4625C10.0052 11.6927 10.1779 11.8846 10.389 12.0382C10.6 12.1917 10.8303 12.326 11.0606 12.4219C11.3101 12.5179 11.5403 12.6138 11.7898 12.6906C12.0585 12.7866 12.2887 12.8825 12.4806 12.9593C12.6725 13.0552 12.7685 13.1704 12.7685 13.3431C12.7685 13.439 12.7493 13.5158 12.7109 13.5733C12.6725 13.6309 12.615 13.6693 12.5574 13.7077C12.4998 13.746 12.4231 13.7652 12.3463 13.7844C12.2695 13.8036 12.1928 13.8036 12.1352 13.8036C11.8282 13.8036 11.5211 13.746 11.2141 13.6309C10.9646 13.535 10.7344 13.4198 10.5233 13.2471C10.4273 13.1704 10.3122 13.1895 10.2354 13.2855L9.52541 14.1874C9.46784 14.2642 9.46784 14.3985 9.5446 14.4753C9.79407 14.6863 10.0627 14.859 10.3698 14.9742C10.6768 15.0893 10.9838 15.1853 11.2909 15.2237C11.3868 15.2428 11.4636 15.3196 11.4636 15.4347V15.9912C11.4636 16.1064 11.5595 16.2023 11.6747 16.2023H12.4423C12.5574 16.2023 12.6533 16.1064 12.6533 15.9912V15.358C12.6533 15.262 12.7301 15.1853 12.8069 15.1469C12.9796 15.1085 13.1715 15.0318 13.3442 14.955C13.5553 14.8399 13.7472 14.7247 13.9199 14.552C14.0926 14.3985 14.2077 14.2066 14.3229 13.9955C14.4188 13.7844 14.4764 13.5541 14.4764 13.2855C14.4764 12.9401 14.4188 12.6522 14.2845 12.4219C14.1693 12.1917 13.9966 11.9998 13.7855 11.8463Z" fill="#B3BEC1"/>
</svg>
