<svg width="24" height="24" viewBox="0 0 24 24" fill="none" xmlns="http://www.w3.org/2000/svg">
<path d="M12 22C6.47708 22 2 17.5229 2 12C2 6.47708 6.47708 2 12 2C17.5229 2 22 6.47708 22 12C21.9934 17.5202 17.5202 21.9934 12 22ZM12 3.25C7.16754 3.25 3.25 7.16754 3.25 12C3.25 16.8325 7.16754 20.75 12 20.75C16.8325 20.75 20.75 16.8325 20.75 12C20.7448 7.16968 16.8303 3.25519 12 3.25Z" fill="#B3BEC1"/>
<path d="M11.9994 13.25C10.19 13.1577 8.79441 11.6223 8.87436 9.8125C8.79441 8.00266 10.19 6.46732 11.9994 6.375C13.8088 6.46732 15.2043 8.00266 15.1244 9.8125C15.2043 11.6223 13.8088 13.1577 11.9994 13.25ZM11.9994 7.625C10.8815 7.71899 10.0462 8.69342 10.1244 9.8125C10.0462 10.9316 10.8815 11.906 11.9994 12C13.1172 11.906 13.9525 10.9316 13.8744 9.8125C13.9525 8.69342 13.1172 7.71899 11.9994 7.625Z" fill="#B3BEC1"/>
<path d="M8.25 16.375C7.90485 16.375 7.625 16.0952 7.625 15.75C7.625 13.6818 9.58743 12 12 12C12.3452 12 12.625 12.2798 12.625 12.625C12.625 12.9702 12.3452 13.25 12 13.25C10.2768 13.25 8.875 14.3712 8.875 15.75C8.875 16.0952 8.59515 16.375 8.25 16.375Z" fill="#B3BEC1"/>
<path d="M13.8751 17.6251C13.7094 17.6251 13.5504 17.5592 13.4332 17.442L12.1832 16.192C11.9464 15.9468 11.9498 15.557 12.1909 15.3159C12.432 15.0748 12.8218 15.0714 13.067 15.3082L13.8751 16.1163L17.1832 12.8082C17.4284 12.5714 17.8183 12.5748 18.0594 12.8159C18.3005 13.057 18.3038 13.4468 18.067 13.692L14.317 17.442C14.1998 17.5592 14.0408 17.6251 13.8751 17.6251Z" fill="#B3BEC1"/>
</svg>
