<svg width="24" height="24" viewBox="0 0 24 24" fill="none" xmlns="http://www.w3.org/2000/svg">
<path d="M13.8634 2.19491C13.9266 2.20778 13.9266 2.20778 13.9911 2.22091C15.3025 2.4907 16.5958 2.99183 17.679 3.79213C17.7342 3.83149 17.7894 3.87083 17.8446 3.91016C18.2524 4.20441 18.6235 4.5266 18.9837 4.87712C19.0444 4.93601 19.1059 4.99405 19.1675 5.05192C19.4585 5.33048 19.7004 5.64477 19.9417 5.96613C19.9607 5.99137 19.9798 6.0166 19.9994 6.0426C20.9196 7.26875 21.4925 8.64132 21.8051 10.1367C21.8131 10.173 21.8211 10.2094 21.8294 10.2469C22.0699 11.3733 22.0509 12.7402 21.8051 13.8635C21.7922 13.9267 21.7922 13.9267 21.7791 13.9912C21.5093 15.3026 21.0082 16.5959 20.2079 17.6791C20.1685 17.7343 20.1292 17.7895 20.0899 17.8448C19.7956 18.2525 19.4734 18.6236 19.1229 18.9838C19.064 19.0445 19.006 19.106 18.9481 19.1677C18.6696 19.4586 18.3553 19.7006 18.0339 19.9418C18.0087 19.9609 17.9834 19.9799 17.9574 19.9996C16.7313 20.9197 15.3587 21.4927 13.8634 21.8053C13.827 21.8133 13.7906 21.8213 13.7532 21.8296C12.6267 22.0701 11.2599 22.0506 10.1366 21.8053C10.0993 21.7976 10.062 21.79 10.0235 21.7822C8.09286 21.3848 6.41661 20.4449 4.99003 19.0988C4.95205 19.0633 4.91408 19.0277 4.87495 18.9911C4.5696 18.6963 4.31199 18.373 4.05832 18.034C4.03933 18.0089 4.02033 17.9837 4.00076 17.9578C3.08051 16.7316 2.50748 15.359 2.19491 13.8635C2.18689 13.8271 2.17887 13.7907 2.1706 13.7533C1.93007 12.6268 1.94906 11.2599 2.19491 10.1367C2.20778 10.0735 2.20778 10.0735 2.22091 10.009C2.49069 8.69755 2.99182 7.40428 3.79212 6.32107C3.83148 6.26585 3.87082 6.21063 3.91014 6.15539C4.20439 5.74762 4.52658 5.37655 4.87709 5.01633C4.93598 4.95565 4.99403 4.89416 5.0519 4.83251C5.33045 4.54156 5.64474 4.29957 5.9661 4.05834C5.99133 4.03928 6.01657 4.02022 6.04257 4.00058C7.2687 3.08044 8.64127 2.50746 10.1366 2.19491C10.173 2.18689 10.2094 2.17887 10.2468 2.17061C11.3732 1.93007 12.7401 1.94906 13.8634 2.19491ZM9.91475 3.74777C9.88356 3.75524 9.85236 3.76271 9.82022 3.77041C8.33526 4.13535 7.06704 4.97541 5.9661 6.0105C5.92372 6.04927 5.92372 6.04927 5.88048 6.08883C4.72814 7.18054 4.01351 8.75022 3.65902 10.2698C3.6505 10.3054 3.64198 10.341 3.6332 10.3777C3.38097 11.4887 3.43939 12.8079 3.70339 13.9079C3.71242 13.9468 3.72146 13.9858 3.73077 14.0259C4.10054 15.5757 4.92966 16.8844 6.01047 18.034C6.03632 18.0623 6.06217 18.0905 6.0888 18.1196C7.53913 19.6506 9.75603 20.4528 11.826 20.5157C14.2053 20.5601 16.3224 19.5988 18.0339 17.9897C18.0622 17.9638 18.0904 17.938 18.1195 17.9113C19.3253 16.769 20.0975 15.0801 20.3853 13.4642C20.3932 13.42 20.4011 13.3759 20.4093 13.3304C20.4796 12.8952 20.4918 12.4675 20.4907 12.0278C20.4907 11.9909 20.4907 11.9539 20.4906 11.9158C20.4888 11.2937 20.4427 10.699 20.2966 10.0923C20.2873 10.0529 20.2781 10.0134 20.2685 9.97284C19.8926 8.42148 19.0734 7.11897 17.9895 5.96613C17.9637 5.93788 17.9378 5.90963 17.9112 5.88052C16.5025 4.39357 14.3389 3.57392 12.3252 3.48476C11.5128 3.46287 10.7031 3.55376 9.91475 3.74777Z" fill="#B3BEC1"/>
<path d="M7.84527 12.6874C7.90077 12.687 7.90077 12.687 7.95739 12.6866C8.08104 12.6859 8.20464 12.6864 8.32828 12.687C8.41706 12.6868 8.50584 12.6864 8.59462 12.6861C8.83552 12.6853 9.0764 12.6856 9.3173 12.6861C9.56943 12.6866 9.82155 12.6862 10.0737 12.6859C10.4971 12.6856 10.9205 12.686 11.3438 12.6868C11.8333 12.6878 12.3228 12.6875 12.8123 12.6865C13.2326 12.6857 13.6528 12.6856 14.0731 12.6861C14.3241 12.6863 14.5751 12.6864 14.8261 12.6858C15.0621 12.6853 15.2981 12.6856 15.534 12.6866C15.6206 12.6869 15.7072 12.6868 15.7938 12.6864C15.9121 12.6859 16.0302 12.6865 16.1485 12.6874C16.1999 12.6868 16.1999 12.6868 16.2523 12.6862C16.4821 12.6896 16.6109 12.7435 16.7885 12.8874C16.9364 13.0432 16.9843 13.1825 17.0048 13.3921C16.9923 13.6391 16.9112 13.8041 16.7772 14.006C16.7576 14.0364 16.7381 14.0667 16.7179 14.0981C16.6533 14.1978 16.5879 14.2969 16.5223 14.3959C16.4887 14.4471 16.4887 14.4471 16.4544 14.4994C16.3133 14.7142 16.1708 14.928 16.0271 15.1411C15.9528 15.2515 15.879 15.3623 15.8052 15.473C15.7575 15.5441 15.7097 15.6151 15.6618 15.686C15.6401 15.7188 15.6184 15.7516 15.596 15.7853C15.4592 15.9867 15.3252 16.148 15.1026 16.2594C14.8572 16.2818 14.6407 16.2921 14.4149 16.1873C14.216 15.9983 14.1146 15.8536 14.0877 15.5772C14.0984 15.2179 14.303 14.9533 14.5035 14.669C14.574 14.5678 14.6427 14.4655 14.7109 14.3628C14.7463 14.3096 14.7463 14.3096 14.7825 14.2553C14.8002 14.2285 14.818 14.2017 14.8364 14.1741C14.7986 14.174 14.7609 14.174 14.7221 14.1739C13.8045 14.1722 12.8869 14.1696 11.9694 14.1659C11.5256 14.1642 11.0819 14.1627 10.6382 14.1621C10.2514 14.1615 9.86465 14.1603 9.4779 14.1584C9.27311 14.1574 9.06833 14.1567 8.86354 14.1567C8.67075 14.1567 8.47798 14.1559 8.28519 14.1545C8.21448 14.1541 8.14376 14.1541 8.07304 14.1543C7.97636 14.1546 7.87974 14.1538 7.78306 14.1527C7.72899 14.1526 7.67493 14.1524 7.61922 14.1523C7.39168 14.1176 7.25556 14.0052 7.09988 13.8413C6.99348 13.6122 6.99433 13.4021 7.02778 13.1536C7.19456 12.7944 7.46583 12.683 7.84527 12.6874Z" fill="#B3BEC1"/>
<path d="M9.42682 7.74054C9.64354 7.84116 9.76987 7.96749 9.87049 8.18421C9.94413 8.49331 9.88438 8.72225 9.72441 8.98787C9.64982 9.10395 9.57303 9.2181 9.49351 9.33086C9.42295 9.43206 9.35432 9.53438 9.28603 9.63712C9.26243 9.6726 9.23884 9.70808 9.21453 9.74463C9.18784 9.78481 9.18784 9.78481 9.16062 9.8258C9.21719 9.8259 9.21719 9.8259 9.2749 9.826C10.1925 9.82764 11.11 9.83026 12.0276 9.83396C12.4714 9.83573 12.9151 9.83717 13.3588 9.83783C13.7456 9.8384 14.1323 9.8396 14.5191 9.84154C14.7239 9.84254 14.9286 9.84324 15.1334 9.84319C15.3262 9.84316 15.519 9.84395 15.7118 9.84538C15.7825 9.84575 15.8532 9.84583 15.9239 9.84558C16.0206 9.84529 16.1172 9.84608 16.2139 9.84714C16.268 9.84731 16.3221 9.84747 16.3778 9.84764C16.6053 9.88233 16.7414 9.99468 16.8971 10.1586C17.0035 10.3877 17.0026 10.5978 16.9692 10.8463C16.8668 11.0667 16.7361 11.173 16.5255 11.2899C16.3952 11.3067 16.2817 11.314 16.1517 11.3125C16.0962 11.3129 16.0962 11.3129 16.0396 11.3133C15.9159 11.314 15.7923 11.3134 15.6687 11.3129C15.5799 11.3131 15.4911 11.3134 15.4024 11.3138C15.1615 11.3146 14.9206 11.3143 14.6797 11.3138C14.4276 11.3133 14.1754 11.3137 13.9233 11.314C13.4999 11.3143 13.0765 11.3139 12.6531 11.3131C12.1637 11.3121 11.6742 11.3124 11.1847 11.3134C10.7644 11.3142 10.3442 11.3143 9.92388 11.3138C9.67287 11.3136 9.42187 11.3135 9.17087 11.3141C8.93489 11.3146 8.69892 11.3143 8.46294 11.3132C8.37634 11.313 8.28974 11.3131 8.20314 11.3135C8.08491 11.314 7.96673 11.3133 7.8485 11.3125C7.81424 11.3129 7.77998 11.3133 7.74469 11.3137C7.5149 11.3103 7.38608 11.2564 7.20848 11.1125C7.06053 10.9567 7.01264 10.8174 6.99219 10.6078C7.00469 10.3608 7.08577 10.1958 7.21974 9.99391C7.23933 9.96353 7.25892 9.93314 7.27911 9.90183C7.34369 9.80213 7.40911 9.70302 7.47468 9.60397C7.49709 9.56982 7.51951 9.53568 7.5426 9.5005C7.68366 9.28568 7.82621 9.0719 7.96985 8.8588C8.04415 8.74837 8.11794 8.63761 8.19174 8.52685C8.23951 8.45583 8.28732 8.38483 8.33515 8.31385C8.35688 8.28108 8.3786 8.24832 8.40099 8.21456C8.68263 7.79991 8.92894 7.69427 9.42682 7.74054Z" fill="#B3BEC1"/>
</svg>
