<svg width="24" height="24" viewBox="0 0 24 24" fill="none" xmlns="http://www.w3.org/2000/svg">
<path d="M6.43678 6.77734C9.79846 6.77734 13.1601 6.77734 16.6237 6.77734C16.6301 9.70494 16.6301 9.70494 16.6315 10.9283C16.6318 11.2083 16.6321 11.4883 16.6324 11.7683C16.6325 11.8034 16.6325 11.8385 16.6326 11.8746C16.6333 12.4406 16.6345 13.0066 16.636 13.5726C16.6375 14.1538 16.6383 14.735 16.6387 15.3162C16.6389 15.6746 16.6396 16.033 16.6409 16.3914C16.6418 16.6666 16.6419 16.9417 16.6417 17.2169C16.6417 17.3295 16.6421 17.4422 16.6427 17.5548C16.6435 17.709 16.6433 17.863 16.6428 18.0172C16.6433 18.0615 16.6438 18.1057 16.6442 18.1514C16.6401 18.7007 16.4509 19.1014 16.1112 19.49C15.7881 19.8261 15.446 19.985 15.0073 19.9849C14.9766 19.9851 14.9459 19.9852 14.9143 19.9854C14.8113 19.9859 14.7083 19.986 14.6054 19.9862C14.5316 19.9865 14.4578 19.9868 14.384 19.9871C14.1415 19.988 13.899 19.9885 13.6565 19.9889C13.5729 19.9891 13.4894 19.9893 13.4058 19.9895C13.0132 19.9903 12.6205 19.9909 12.2278 19.9913C11.775 19.9917 11.3222 19.9929 10.8694 19.9947C10.5192 19.996 10.1689 19.9967 9.81869 19.9968C9.60964 19.9969 9.40059 19.9973 9.19154 19.9984C8.99469 19.9994 8.79785 19.9996 8.60099 19.9992C8.52898 19.9992 8.45698 19.9994 8.38497 20C7.76648 20.005 7.33515 19.9028 6.87698 19.4098C6.62065 19.1064 6.4317 18.7388 6.43188 18.3163C6.4318 18.275 6.43172 18.2338 6.43164 18.1912C6.43176 18.1461 6.43187 18.1009 6.43199 18.0543C6.43196 18.0062 6.43192 17.9581 6.43189 17.9086C6.43182 17.7468 6.43204 17.5851 6.43226 17.4233C6.43227 17.3076 6.43226 17.1918 6.43224 17.0761C6.43222 16.8267 6.43235 16.5772 6.43257 16.3278C6.43289 15.9671 6.433 15.6065 6.43305 15.2458C6.43313 14.6607 6.4334 14.0756 6.43378 13.4905C6.43414 12.9221 6.43442 12.3537 6.43459 11.7853C6.4346 11.7499 6.43461 11.7145 6.43462 11.678C6.43471 11.4012 6.43478 11.1245 6.43486 10.8477C6.43524 9.49091 6.43604 8.13413 6.43678 6.77734ZM11.0229 10.0776C10.8554 10.3459 10.8418 10.6147 10.8411 10.93C10.8405 10.9882 10.8405 10.9882 10.8399 11.0476C10.8386 11.1749 10.838 11.3022 10.8373 11.4295C10.8365 11.5182 10.8358 11.6068 10.8349 11.6955C10.8329 11.9281 10.8313 12.1607 10.8298 12.3934C10.8283 12.631 10.8262 12.8687 10.8242 13.1063C10.8204 13.5721 10.817 14.0379 10.814 14.5037C10.7945 14.4814 10.7751 14.4592 10.755 14.4362C10.6664 14.3351 10.5773 14.2345 10.4882 14.1339C10.4576 14.0989 10.427 14.0638 10.3954 14.0277C10.3506 13.9773 10.3506 13.9773 10.3049 13.926C10.2776 13.895 10.2503 13.864 10.2222 13.8321C10.098 13.7164 9.9837 13.6714 9.82412 13.6483C9.60342 13.6777 9.46782 13.7816 9.32672 13.9629C9.22274 14.1936 9.19781 14.3646 9.26205 14.6141C9.43334 14.9916 9.76333 15.2902 10.0296 15.5866C10.0926 15.657 10.1552 15.7279 10.2179 15.7987C10.6162 16.2453 10.9809 16.5762 11.5651 16.5981C12.2728 16.5778 12.6871 16.0623 13.1579 15.5398C13.2366 15.4527 13.3159 15.3663 13.3952 15.28C13.4458 15.2241 13.4964 15.1681 13.5469 15.1122C13.5704 15.0867 13.5939 15.0613 13.6181 15.0351C13.7839 14.8491 13.9026 14.6662 13.9277 14.3975C13.9013 14.1521 13.8431 13.9704 13.679 13.7973C13.49 13.6769 13.3386 13.6386 13.1219 13.6648C12.8797 13.7659 12.7259 13.9567 12.5499 14.1588C12.5206 14.1919 12.4913 14.225 12.4612 14.2591C12.3893 14.3403 12.3178 14.4219 12.2465 14.5037C12.2463 14.4543 12.246 14.4048 12.2458 14.3539C12.2435 13.8868 12.2406 13.4198 12.2371 12.9528C12.2353 12.7127 12.2338 12.4726 12.2327 12.2325C12.2317 12.0006 12.2301 11.7688 12.2281 11.5369C12.2274 11.4486 12.2269 11.3604 12.2267 11.2721C12.2263 11.148 12.2252 11.024 12.2239 10.8999C12.224 10.8638 12.224 10.8276 12.2241 10.7904C12.2198 10.4956 12.1838 10.1985 11.9928 9.98103C11.6417 9.74914 11.3202 9.74768 11.0229 10.0776Z" fill="#B3BEC1"/>
<path d="M7.0125 3.0015C7.12212 3.00136 7.23174 3.00095 7.34135 3.00056C7.60683 2.99978 7.8723 2.99995 8.13777 3.00046C8.35375 3.00086 8.56973 3.00091 8.78571 3.00072C8.81658 3.00069 8.84745 3.00067 8.87926 3.00064C8.942 3.00058 9.00475 3.00052 9.06749 3.00047C9.65424 2.99996 10.241 3.00054 10.8277 3.00149C11.3299 3.00228 11.8321 3.00214 12.3343 3.00133C12.9192 3.00038 13.504 3.00001 14.0888 3.00055C14.1513 3.00061 14.2138 3.00067 14.2763 3.00072C14.3224 3.00076 14.3224 3.00076 14.3694 3.0008C14.5848 3.00095 14.8003 3.0007 15.0157 3.00028C15.2787 2.99978 15.5416 2.99993 15.8046 3.00086C15.9384 3.00132 16.0723 3.00142 16.2061 3.00092C16.8882 2.99864 17.509 3.02297 18.1316 3.36652C18.1597 3.38159 18.1877 3.39667 18.2167 3.4122C18.455 3.54481 18.6547 3.70966 18.8528 3.90737C18.8765 3.92746 18.9002 3.94755 18.9246 3.96825C19.5215 4.47939 19.8573 5.3172 20.0068 6.1149C20.0128 6.14677 20.0188 6.17864 20.025 6.21148C20.0376 6.29767 20.0432 6.38083 20.0466 6.4681C20.0497 6.53836 20.0497 6.53836 20.0528 6.61004C20.0771 7.6805 19.77 8.67632 19.1025 9.4638C18.8347 9.74459 18.2922 10.3092 17.8978 10.3092C17.8975 10.2666 17.8972 10.224 17.8968 10.1801C17.8937 9.77673 17.8902 9.3734 17.8864 8.97008C17.8844 8.76277 17.8825 8.55546 17.881 8.34814C17.8795 8.14775 17.8777 7.94736 17.8756 7.74697C17.8749 7.67085 17.8743 7.59473 17.8738 7.5186C17.8697 6.88006 17.8621 6.25277 17.4836 5.72806C17.2128 5.44939 16.8434 5.4332 16.495 5.43523C16.4512 5.43496 16.4074 5.43469 16.3622 5.43441C16.2159 5.43368 16.0697 5.43389 15.9234 5.4341C15.8183 5.43377 15.7132 5.4334 15.608 5.43297C15.3525 5.43204 15.097 5.43184 14.8414 5.43191C14.6336 5.43197 14.4258 5.4318 14.218 5.43148C14.158 5.43138 14.098 5.43129 14.038 5.4312C14.0082 5.43115 13.9783 5.43111 13.9475 5.43106C13.3835 5.43023 12.8194 5.43027 12.2553 5.43057C11.74 5.43082 11.2246 5.4299 10.7093 5.42844C10.1794 5.42695 9.64953 5.42628 9.11963 5.42648C8.82244 5.42658 8.52525 5.42635 8.22806 5.42525C7.97503 5.42432 7.72201 5.42417 7.46898 5.425C7.34004 5.4254 7.21113 5.42534 7.0822 5.42454C6.942 5.42374 6.80186 5.4243 6.66167 5.4252C6.60142 5.42437 6.60142 5.42437 6.53995 5.42353C6.15381 5.4288 5.78496 5.58153 5.48251 5.84999C5.18602 6.18809 5.19902 6.70057 5.19579 7.1465C5.19539 7.18101 5.195 7.21552 5.1946 7.25107C5.19335 7.36358 5.19236 7.47609 5.19137 7.5886C5.19055 7.66722 5.18971 7.74584 5.18886 7.82446C5.18668 8.03023 5.18471 8.236 5.18278 8.44177C5.18077 8.65221 5.17856 8.86264 5.17637 9.07308C5.1721 9.48512 5.16806 9.89717 5.16417 10.3092C5.10663 10.281 5.0491 10.2528 4.99159 10.2245C4.95955 10.2088 4.92752 10.1931 4.89451 10.1769C4.09878 9.77845 3.53619 9.03397 3.21433 8.14583C3.14598 7.92883 3.09733 7.70862 3.05516 7.48357C3.04916 7.4517 3.04315 7.41983 3.03697 7.38699C3.02441 7.3008 3.01874 7.21764 3.01537 7.13036C3.01331 7.08352 3.01126 7.03669 3.00915 6.98843C2.9843 5.89369 3.30604 4.89935 3.99091 4.10018C4.27919 3.79541 4.5794 3.5539 4.93785 3.361C4.96275 3.34733 4.98765 3.33367 5.01331 3.31959C5.66203 2.99098 6.31336 2.99892 7.0125 3.0015Z" fill="#B3BEC1"/>
</svg>
