<svg width="24" height="24" viewBox="0 0 24 24" fill="none" xmlns="http://www.w3.org/2000/svg">
<path d="M11.75 12.8281C12.612 12.8281 13.4386 12.4857 14.0481 11.8762C14.6576 11.2667 15 10.4401 15 9.57812C15 8.71617 14.6576 7.88952 14.0481 7.28003C13.4386 6.67053 12.612 6.32812 11.75 6.32812C10.888 6.32812 10.0614 6.67053 9.4519 7.28003C8.84241 7.88952 8.5 8.71617 8.5 9.57812C8.5 10.4401 8.84241 11.2667 9.4519 11.8762C10.0614 12.4857 10.888 12.8281 11.75 12.8281Z" stroke="#B3BEC1" stroke-linecap="round" stroke-linejoin="round"/>
<path d="M5.02276 13.4453L2 17.7686L5.28276 18.7436L7.31908 21.4954L10.3741 17.1404M18.4778 13.4453L21.5 17.7681L18.2178 18.7431L16.1809 21.4949L13.1259 17.1399" stroke="#B3BEC1" stroke-linecap="round" stroke-linejoin="round"/>
<path d="M19.637 9.57953C19.637 10.4032 18.911 11.0964 18.6724 11.8332C18.4342 12.5695 18.597 13.5773 18.131 14.2164C17.6651 14.8555 16.6683 14.9964 16.0833 15.4732C15.4983 15.9501 15.0001 16.8382 14.242 17.0873C13.4833 17.3364 12.6274 16.8595 11.8042 16.8595C10.981 16.8595 10.1038 17.3255 9.36696 17.0873C8.63012 16.8486 8.1642 15.9277 7.52512 15.4732C6.88552 15.0182 5.8892 14.8555 5.42328 14.2164C4.95736 13.5768 5.13104 12.5914 4.88196 11.8332C4.63236 11.0745 3.86328 10.4032 3.86328 9.57953C3.86328 8.75585 4.5892 8.06321 4.82736 7.32637C5.06552 6.58953 4.90328 5.58229 5.3692 4.94321C5.83512 4.30413 6.83196 4.16321 7.47104 3.68637C8.11012 3.20953 8.50012 2.32137 9.31236 2.07229C10.1251 1.82269 10.927 2.29953 11.7501 2.29953C12.5733 2.29953 13.4505 1.83361 14.1879 2.07229C14.9242 2.31045 15.3901 3.23137 16.0833 3.68637C16.7764 4.14137 17.7192 4.30361 18.1851 4.94321C18.651 5.58281 18.4779 6.56821 18.727 7.32637C18.976 8.08453 19.637 8.75637 19.637 9.57953Z" stroke="#B3BEC1" stroke-linecap="round" stroke-linejoin="round"/>
</svg>
