<svg width="24" height="24" viewBox="0 0 24 24" fill="none" xmlns="http://www.w3.org/2000/svg">
<path d="M17.987 6.46348L20.4674 8.71486C20.8002 9.01663 20.9904 9.44539 20.9904 9.89448L20.9994 18.5129C20.9999 19.1003 20.524 19.5774 19.9366 19.578H14.6275C14.0407 19.578 13.5642 19.1027 13.5636 18.5152L13.5547 9.89684C13.5541 9.4466 13.7443 9.01663 14.0777 8.71365L16.5569 6.46348C16.9624 6.09551 17.5815 6.09551 17.987 6.46348ZM17.2892 8.68082C16.7752 8.68082 16.3583 9.12991 16.3583 9.68457C16.3583 10.2392 16.7752 10.6883 17.2892 10.6883C17.8033 10.6883 18.2202 10.2392 18.2202 9.68457C18.2202 9.12991 17.8033 8.68082 17.2892 8.68082Z" fill="#B3BEC1"/>
<path d="M14.5632 7.14962L13.6078 8.01676C13.0668 8.50758 12.7549 9.23161 12.7555 9.99377L12.7645 18.4351C12.7645 18.5316 12.7621 18.5913 12.7836 18.7195C12.805 18.8478 12.7561 18.8602 12.6631 18.8334C12.2498 18.7154 11.6296 18.5358 10.8024 18.2955C10.2352 18.1315 9.89884 17.5035 10.0497 16.8922L12.0679 8.73599C12.1896 8.24518 12.5063 7.83665 12.9327 7.62136L14.3843 6.8884C14.463 6.84844 14.559 6.88005 14.5984 6.95878C14.6306 7.02259 14.6163 7.10131 14.5632 7.14962Z" fill="#B3BEC1"/>
<path d="M13.7179 6.3992L12.5711 6.98963C11.9216 7.3236 11.4331 7.94206 11.2363 8.67861L9.0601 16.8348C9.0434 16.898 9.02612 17.0036 9.02434 17.0912C9.02255 17.1789 9.01363 17.2886 8.76967 17.1395C8.42139 16.9272 7.89895 16.6111 7.20058 16.1925C6.69545 15.8877 6.53263 15.1935 6.83679 14.6419L10.897 7.28603C11.1415 6.84292 11.553 6.531 12.0212 6.4332L13.6129 6.10101C13.6994 6.08312 13.7835 6.13858 13.802 6.22446C13.8169 6.29484 13.7829 6.36581 13.7191 6.3992H13.7179Z" fill="#B3BEC1"/>
<path d="M13.1234 5.40859L11.8626 5.68173C11.1487 5.8362 10.5165 6.30734 10.136 6.96814L5.92319 14.2828C5.88323 14.352 5.84745 14.423 5.81584 14.4945C5.78781 14.5584 5.78303 14.7062 5.61605 14.5571C5.30414 14.2786 4.86341 13.82 4.29267 13.1813C3.88355 12.7561 3.90621 12.0434 4.34276 11.5896L10.1683 5.53502C10.519 5.17063 10.9972 4.97561 11.475 5.00245L13.0983 5.09369C13.1865 5.09847 13.2534 5.1742 13.2486 5.26187C13.2444 5.33344 13.1931 5.39368 13.1234 5.40859Z" fill="#B3BEC1"/>
</svg>
