<svg width="20" height="20" viewBox="0 0 20 20" fill="none" xmlns="http://www.w3.org/2000/svg">
<path d="M11.8634 0.194912C11.9266 0.20778 11.9266 0.20778 11.9911 0.220908C13.3025 0.490696 14.5958 0.991826 15.679 1.79213C15.7342 1.83149 15.7894 1.87083 15.8446 1.91016C16.2524 2.20441 16.6235 2.5266 16.9837 2.87712C17.0444 2.93601 17.1059 2.99405 17.1675 3.05192C17.4585 3.33048 17.7004 3.64477 17.9417 3.96613C17.9607 3.99137 17.9798 4.0166 17.9994 4.0426C18.9196 5.26875 19.4925 6.64132 19.8051 8.13666C19.8131 8.17304 19.8211 8.20942 19.8294 8.2469C20.0699 9.37332 20.0509 10.7402 19.8051 11.8635C19.7922 11.9267 19.7922 11.9267 19.7791 11.9912C19.5093 13.3026 19.0082 14.5959 18.2079 15.6791C18.1685 15.7343 18.1292 15.7895 18.0899 15.8448C17.7956 16.2525 17.4734 16.6236 17.1229 16.9838C17.064 17.0445 17.006 17.106 16.9481 17.1677C16.6696 17.4586 16.3553 17.7006 16.0339 17.9418C16.0087 17.9609 15.9834 17.9799 15.9574 17.9996C14.7313 18.9197 13.3587 19.4927 11.8634 19.8053C11.827 19.8133 11.7906 19.8213 11.7532 19.8296C10.6267 20.0701 9.25988 20.0506 8.13659 19.8053C8.09927 19.7976 8.06195 19.79 8.02351 19.7822C6.09286 19.3848 4.41661 18.4449 2.99003 17.0988C2.95205 17.0633 2.91408 17.0277 2.87495 16.9911C2.5696 16.6963 2.31199 16.373 2.05832 16.034C2.03933 16.0089 2.02033 15.9837 2.00076 15.9578C1.08051 14.7316 0.507477 13.359 0.19491 11.8635C0.186889 11.8271 0.178868 11.7907 0.170604 11.7533C-0.0699319 10.6268 -0.0509436 9.25993 0.19491 8.13666C0.207778 8.07347 0.207778 8.07347 0.220907 8.00901C0.490692 6.69755 0.991818 5.40428 1.79212 4.32107C1.83148 4.26585 1.87082 4.21063 1.91014 4.15539C2.20439 3.74762 2.52658 3.37655 2.87709 3.01633C2.93598 2.95565 2.99403 2.89416 3.0519 2.83251C3.33045 2.54156 3.64474 2.29957 3.9661 2.05834C3.99133 2.03928 4.01657 2.02022 4.04257 2.00058C5.2687 1.08044 6.64127 0.507458 8.13659 0.194912C8.17297 0.186891 8.20935 0.178869 8.24683 0.170605C9.37324 -0.0699325 10.7401 -0.050944 11.8634 0.194912ZM7.91475 1.74777C7.88356 1.75524 7.85236 1.76271 7.82022 1.77041C6.33526 2.13535 5.06704 2.97541 3.9661 4.0105C3.92372 4.04927 3.92372 4.04927 3.88048 4.08883C2.72814 5.18054 2.01351 6.75022 1.65902 8.26976C1.6505 8.30539 1.64198 8.34102 1.6332 8.37773C1.38097 9.48868 1.43939 10.8079 1.70339 11.9079C1.71242 11.9468 1.72146 11.9858 1.73077 12.0259C2.10054 13.5757 2.92966 14.8844 4.01047 16.034C4.03632 16.0623 4.06217 16.0905 4.0888 16.1196C5.53913 17.6506 7.75603 18.4528 9.826 18.5157C12.2053 18.5601 14.3224 17.5988 16.0339 15.9897C16.0622 15.9638 16.0904 15.938 16.1195 15.9113C17.3253 14.769 18.0975 13.0801 18.3853 11.4642C18.3932 11.42 18.4011 11.3759 18.4093 11.3304C18.4796 10.8952 18.4918 10.4675 18.4907 10.0278C18.4907 9.99085 18.4907 9.95389 18.4906 9.91581C18.4888 9.29373 18.4427 8.69897 18.2966 8.09229C18.2873 8.05287 18.2781 8.01345 18.2685 7.97284C17.8926 6.42148 17.0734 5.11897 15.9895 3.96613C15.9637 3.93788 15.9378 3.90963 15.9112 3.88052C14.5025 2.39357 12.3389 1.57392 10.3252 1.48476C9.51284 1.46287 8.70312 1.55376 7.91475 1.74777Z" fill="#B3BEC1"/>
<path d="M5.84918 10.6855C5.90468 10.6851 5.90468 10.6851 5.9613 10.6846C6.08494 10.6839 6.20855 10.6845 6.33219 10.6851C6.42097 10.6848 6.50975 10.6845 6.59852 10.6841C6.83942 10.6833 7.08031 10.6836 7.32121 10.6842C7.57333 10.6846 7.82545 10.6842 8.07758 10.6839C8.50097 10.6836 8.92436 10.684 9.34775 10.6849C9.83723 10.6858 10.3267 10.6855 10.8162 10.6846C11.2365 10.6837 11.6567 10.6836 12.077 10.6841C12.328 10.6844 12.579 10.6844 12.83 10.6838C13.066 10.6833 13.302 10.6837 13.5379 10.6847C13.6245 10.6849 13.7111 10.6849 13.7977 10.6845C13.916 10.684 14.0342 10.6846 14.1524 10.6855C14.2038 10.6849 14.2038 10.6849 14.2562 10.6843C14.486 10.6876 14.6148 10.7416 14.7924 10.8855C14.9404 11.0412 14.9882 11.1805 15.0087 11.3902C14.9962 11.6371 14.9151 11.8021 14.7811 12.004C14.7616 12.0344 14.742 12.0648 14.7218 12.0961C14.6572 12.1958 14.5918 12.2949 14.5262 12.394C14.4926 12.4452 14.4926 12.4452 14.4583 12.4974C14.3172 12.7123 14.1747 12.926 14.031 13.1391C13.9567 13.2496 13.8829 13.3603 13.8091 13.4711C13.7614 13.5421 13.7136 13.6131 13.6657 13.6841C13.644 13.7169 13.6223 13.7496 13.5999 13.7834C13.4631 13.9848 13.3291 14.1461 13.1065 14.2574C12.8611 14.2798 12.6446 14.2901 12.4188 14.1853C12.2199 13.9964 12.1185 13.8517 12.0916 13.5753C12.1023 13.2159 12.3069 12.9513 12.5074 12.6671C12.5779 12.5659 12.6466 12.4636 12.7149 12.3608C12.7502 12.3076 12.7502 12.3076 12.7864 12.2533C12.8041 12.2265 12.8219 12.1997 12.8403 12.1721C12.8026 12.1721 12.7648 12.172 12.726 12.1719C11.8084 12.1703 10.8908 12.1677 9.97326 12.164C9.52953 12.1622 9.0858 12.1608 8.64207 12.1601C8.25531 12.1595 7.86856 12.1583 7.4818 12.1564C7.27702 12.1554 7.07224 12.1547 6.86745 12.1547C6.67466 12.1548 6.48189 12.154 6.2891 12.1526C6.21838 12.1522 6.14767 12.1521 6.07695 12.1524C5.98026 12.1527 5.88365 12.1519 5.78697 12.1508C5.7329 12.1506 5.67883 12.1505 5.62313 12.1503C5.39559 12.1156 5.25947 12.0033 5.10378 11.8394C4.99739 11.6102 4.99824 11.4001 5.03169 11.1517C5.19846 10.7925 5.46973 10.6811 5.84918 10.6855Z" fill="#B3BEC1"/>
<path d="M7.43073 5.74054C7.64745 5.84116 7.77378 5.96749 7.8744 6.18421C7.94804 6.49331 7.88829 6.72225 7.72832 6.98787C7.65373 7.10395 7.57693 7.2181 7.49741 7.33086C7.42685 7.43206 7.35823 7.53438 7.28994 7.63712C7.26634 7.6726 7.24274 7.70808 7.21843 7.74463C7.19175 7.78481 7.19175 7.78481 7.16453 7.8258C7.22109 7.8259 7.22109 7.8259 7.2788 7.826C8.19638 7.82764 9.11396 7.83026 10.0315 7.83396C10.4753 7.83573 10.919 7.83717 11.3627 7.83783C11.7495 7.8384 12.1362 7.8396 12.523 7.84154C12.7278 7.84254 12.9325 7.84324 13.1373 7.84319C13.3301 7.84316 13.5229 7.84395 13.7157 7.84538C13.7864 7.84575 13.8571 7.84583 13.9278 7.84558C14.0245 7.84529 14.1211 7.84608 14.2178 7.84714C14.2719 7.84731 14.326 7.84747 14.3817 7.84764C14.6092 7.88233 14.7453 7.99468 14.901 8.15856C15.0074 8.38771 15.0065 8.5978 14.9731 8.84625C14.8707 9.06673 14.74 9.17302 14.5294 9.28992C14.3991 9.30672 14.2856 9.31396 14.1556 9.31246C14.1001 9.31287 14.1001 9.31287 14.0435 9.3133C13.9198 9.314 13.7962 9.31345 13.6726 9.31289C13.5838 9.31313 13.495 9.31344 13.4063 9.31383C13.1654 9.31464 12.9245 9.31432 12.6836 9.31376C12.4315 9.31331 12.1793 9.31373 11.9272 9.31401C11.5038 9.31433 11.0804 9.31391 10.657 9.31306C10.1676 9.31209 9.67809 9.31241 9.18861 9.31338C8.76833 9.31419 8.34806 9.3143 7.92778 9.31384C7.67678 9.31356 7.42578 9.31352 7.17477 9.31411C6.93879 9.31462 6.70283 9.31427 6.46685 9.31324C6.38025 9.31301 6.29365 9.31308 6.20705 9.31347C6.08882 9.31395 5.97064 9.31334 5.85241 9.31246C5.81815 9.31285 5.78389 9.31325 5.74859 9.31366C5.51881 9.31032 5.38998 9.25637 5.21238 9.11245C5.06444 8.95672 5.01655 8.81744 4.99609 8.60778C5.0086 8.36084 5.08967 8.19581 5.22365 7.99391C5.24324 7.96353 5.26283 7.93314 5.28301 7.90183C5.3476 7.80213 5.41302 7.70302 5.47858 7.60397C5.501 7.56982 5.52341 7.53568 5.5465 7.5005C5.68756 7.28568 5.83011 7.0719 5.97376 6.8588C6.04806 6.74837 6.12185 6.63761 6.19565 6.52685C6.24342 6.45583 6.29122 6.38483 6.33906 6.31385C6.36078 6.28108 6.38251 6.24832 6.40489 6.21456C6.68653 5.79991 6.93285 5.69427 7.43073 5.74054Z" fill="#B3BEC1"/>
</svg>
