<svg width="14" height="14" viewBox="0 0 14 14" fill="none" xmlns="http://www.w3.org/2000/svg">
<path fill-rule="evenodd" clip-rule="evenodd" d="M3.19083 3.19045C3.27286 3.10852 3.38406 3.0625 3.5 3.0625C3.61593 3.0625 3.72713 3.10852 3.80916 3.19045L10.8092 10.1904C10.8521 10.2305 10.8866 10.2788 10.9105 10.3325C10.9344 10.3861 10.9473 10.4441 10.9483 10.5028C10.9494 10.5616 10.9386 10.6199 10.9166 10.6744C10.8946 10.7289 10.8618 10.7783 10.8203 10.8199C10.7787 10.8614 10.7292 10.8942 10.6748 10.9162C10.6203 10.9382 10.5619 10.949 10.5032 10.948C10.4444 10.9469 10.3865 10.9341 10.3328 10.9102C10.2792 10.8862 10.2309 10.8518 10.1908 10.8088L3.19083 3.80878C3.1089 3.72675 3.06288 3.61555 3.06288 3.49962C3.06288 3.38368 3.1089 3.27248 3.19083 3.19045Z" fill="#B3BEC1"/>
<path fill-rule="evenodd" clip-rule="evenodd" d="M10.8092 3.19045C10.8911 3.27248 10.9371 3.38368 10.9371 3.49962C10.9371 3.61555 10.8911 3.72675 10.8092 3.80878L3.80916 10.8088C3.72623 10.8861 3.61653 10.9281 3.50319 10.9261C3.38985 10.9241 3.28171 10.8782 3.20155 10.7981C3.12139 10.7179 3.07548 10.6098 3.07348 10.4964C3.07148 10.3831 3.11355 10.2734 3.19083 10.1904L10.1908 3.19045C10.2729 3.10852 10.3841 3.0625 10.5 3.0625C10.6159 3.0625 10.7271 3.10852 10.8092 3.19045Z" fill="#B3BEC1"/>
</svg>
