<svg width="20" height="20" viewBox="0 0 20 20" fill="none" xmlns="http://www.w3.org/2000/svg">
<path d="M5.75 18.75H13.75M9.75 14.5147V18.75M9.75 14.5147C11.0761 14.5147 12.3479 13.9569 13.2855 12.9641C14.2232 11.9713 14.75 10.6247 14.75 9.22059V0.75H4.75V9.22059C4.75 10.6247 5.27678 11.9713 6.21447 12.9641C7.15215 13.9569 8.42392 14.5147 9.75 14.5147ZM0.75 6.04412C0.75 6.60575 0.960714 7.14438 1.33579 7.54152C1.71086 7.93866 2.21957 8.16177 2.75 8.16177C3.28043 8.16177 3.78914 7.93866 4.16421 7.54152C4.53929 7.14438 4.75 6.60575 4.75 6.04412C4.75 5.48248 4.53929 4.94385 4.16421 4.54672C3.78914 4.14958 3.28043 3.92647 2.75 3.92647C2.21957 3.92647 1.71086 4.14958 1.33579 4.54672C0.960714 4.94385 0.75 5.48248 0.75 6.04412ZM14.75 6.04412C14.75 6.60575 14.9607 7.14438 15.3358 7.54152C15.7109 7.93866 16.2196 8.16177 16.75 8.16177C17.2804 8.16177 17.7891 7.93866 18.1642 7.54152C18.5393 7.14438 18.75 6.60575 18.75 6.04412C18.75 5.48248 18.5393 4.94385 18.1642 4.54672C17.7891 4.14958 17.2804 3.92647 16.75 3.92647C16.2196 3.92647 15.7109 4.14958 15.3358 4.54672C14.9607 4.94385 14.75 5.48248 14.75 6.04412Z" stroke="white" stroke-width="1.5" stroke-linecap="round" stroke-linejoin="round"/>
</svg>
