<svg width="24" height="24" viewBox="0 0 24 24" fill="none" xmlns="http://www.w3.org/2000/svg">
<path d="M18.051 4.18555H4.41155C4.16302 4.18555 3.96155 4.38702 3.96155 4.63555V6.3583C3.96155 6.60683 4.16302 6.8083 4.41155 6.8083H18.051C18.2996 6.8083 18.501 6.60683 18.501 6.3583V4.63555C18.501 4.38702 18.2996 4.18555 18.051 4.18555Z" fill="white"/>
<path d="M14.403 10.373H4.89373C4.6452 10.373 4.44373 10.5745 4.44373 10.823V12.5458C4.44373 12.7943 4.6452 12.9958 4.89373 12.9958H14.403C14.6515 12.9958 14.853 12.7943 14.853 12.5458V10.823C14.853 10.5745 14.6515 10.373 14.403 10.373Z" fill="white"/>
<path d="M18.051 16.5605H4.41155C4.16302 16.5605 3.96155 16.762 3.96155 17.0105V18.7333C3.96155 18.9818 4.16302 19.1833 4.41155 19.1833H18.051C18.2996 19.1833 18.501 18.9818 18.501 18.7333V17.0105C18.501 16.762 18.2996 16.5605 18.051 16.5605Z" fill="white"/>
<path d="M20.8478 11.0352C20.9611 11.1012 21.0551 11.1958 21.1204 11.3095C21.1858 11.4232 21.2202 11.552 21.2202 11.6832C21.2202 11.8143 21.1858 11.9431 21.1204 12.0568C21.0551 12.1706 20.9611 12.2651 20.8478 12.3312L17.7143 14.1552C17.6003 14.2215 17.4709 14.2566 17.339 14.2569C17.2072 14.2573 17.0776 14.2229 16.9633 14.1572C16.8489 14.0915 16.754 13.9968 16.6879 13.8826C16.6219 13.7685 16.5871 13.639 16.587 13.5072V9.85991C16.5869 9.72799 16.6216 9.59838 16.6876 9.48416C16.7536 9.36994 16.8486 9.27514 16.9629 9.20934C17.0773 9.14354 17.2069 9.10906 17.3389 9.10938C17.4708 9.1097 17.6003 9.14481 17.7143 9.21116L20.8478 11.0352Z" fill="#D892F4"/>
</svg>
