<svg width="161" height="245" viewBox="0 0 161 245" fill="none" xmlns="http://www.w3.org/2000/svg">
<g opacity="0.1">
<path d="M139.578 225.603C150.089 212.879 160.213 183.558 160.213 161.208C153.629 117.338 131.555 118.278 117.946 93.9922C116.065 106.329 135.472 126.633 139.19 135.815C145.945 152.5 141.853 173.114 136.812 190.086C134.011 199.513 126.52 217.294 117.781 222.455C97.2013 227.26 119.052 179.595 111.695 180.184C108.707 180.423 102.013 193.991 89.4563 197.535C76.8991 201.078 74.5185 199.657 71.6418 201.04C68.765 202.423 68.3787 214.685 63.3444 219.242C58.3101 223.8 48.1412 227.664 46.537 218.2C45.2888 210.842 47.2739 201.038 48.9455 193.766C53.8385 172.471 84.3046 100.131 35.4602 111.963C25.9157 114.277 6.01234 124.281 0 132.075C13.5443 127.387 41.5782 124.168 37.3207 145.056C35.4924 154.023 31.7098 162.977 29.3189 171.808C24.5064 189.598 14.6646 234.985 37.6899 243.439C55.8632 250.114 70.8984 234.131 77.7634 219.242L78.9339 219.4C79.5668 219.871 79.1961 221.563 79.3939 222.455C81.9576 234.071 89.0248 241.973 101.36 242.667C114.665 243.417 129.067 238.327 139.578 225.603Z" fill="#FCFCFC"/>
<path d="M88.9021 85.749C72.5822 111.529 90.2547 135.566 95.7026 151.494C101.15 167.423 87.5607 184.129 72.3948 194.578C98.1408 194.578 118.775 173.451 111.252 148.16C103.728 122.87 84.8083 127.406 88.9021 85.749Z" fill="#FCFCFC"/>
<path d="M137.574 46.912C140.122 43.5484 151.053 36.1854 151.115 32.9357C151.17 29.9654 152.01 26.7514 148.318 27.0895L127.386 42.441C127.587 39.5777 128.439 36.604 129.36 33.8959C132.065 25.9269 138.631 19.2343 134.622 10.3615C132.572 11.355 130.661 9.99924 128.97 10.0441C127.566 10.082 126.541 10.9962 125.313 11.3895C126.924 8.31919 128.805 3.70338 132.041 8.28125C134.235 6.27002 131.137 -0.719251 128.321 0.0604005C127.876 0.181143 122.977 5.22128 122.197 6.03543C117.984 10.4339 106.312 25.1197 101.85 27.0895C97.5132 29.0041 94.4699 29.4112 90.1501 32.2952C72.5429 44.0452 63.2473 61.9744 39.0119 61.5363C37.6619 62.7232 60.6881 77.3399 66.2202 76.6207C66.2202 76.6207 60.1348 85.6935 40.5509 82.9827C43.9809 87.8511 51.8366 92.6641 55.9304 92.6641C51.8919 92.6641 29.1546 96.9792 22.7926 110.588C39.4971 101.903 53.8281 101.737 61.6838 107.933C69.5396 114.129 64.0074 135.483 81.987 138.36C69.9247 119.882 72.3393 101.227 76.7867 92.6641C81.2341 84.1011 89.3448 75.4037 98.9589 73.6651C95.5409 80.8805 93.2975 90.1746 96.723 104.337C100.149 118.499 115.069 120.989 125.313 145.496C132.237 114.129 94.4423 113.852 118.389 73.6651C115.789 101.018 150.055 100.188 157.391 131.721C161.097 110.588 148.76 96.5366 130.228 82.9274C133.923 84.9743 141.624 83.8126 145.109 82.0976C133.879 79.1655 131.47 66.5673 131.749 63.8414C132.447 57.0173 134.634 50.7931 137.574 46.912ZM100.705 36.4557C100.688 36.4867 100.674 36.5178 100.66 36.5488C100.598 36.6833 100.522 36.8282 100.436 36.9835C100.436 36.9835 100.432 36.9835 100.432 36.9869C100.204 37.394 99.9043 37.8666 99.5489 38.3806C99.4454 38.529 99.3384 38.6808 99.228 38.836C99.1417 38.9568 99.052 39.0809 98.9589 39.2086C98.9106 39.2741 98.8623 39.3431 98.8105 39.4121C98.7449 39.5053 98.6759 39.5984 98.6035 39.695C98.5517 39.764 98.4965 39.8365 98.4448 39.9089C98.3447 40.0365 98.2481 40.1676 98.1446 40.3022C98.0169 40.4712 97.8858 40.6437 97.7512 40.8162C97.6201 40.9852 97.4856 41.1612 97.3475 41.3337C97.144 41.5958 96.9335 41.858 96.723 42.1237C96.585 42.2996 96.4435 42.4755 96.3055 42.648C96.064 42.9482 95.819 43.2517 95.5775 43.5484C95.5016 43.645 95.4222 43.7382 95.3463 43.8313C95.2877 43.9072 95.2256 43.9831 95.16 44.059C95.0875 44.1521 95.0116 44.2453 94.9357 44.3384C94.8736 44.4143 94.8115 44.4868 94.7529 44.5627C94.6459 44.6903 94.5424 44.8179 94.4423 44.9421C93.8489 45.6666 93.2968 46.3359 92.831 46.912C92.7309 47.0362 92.6309 47.1604 92.5377 47.2776C92.0202 47.9228 91.6475 48.4092 91.5026 48.6507C90.7987 46.0633 91.1472 43.4415 92.2583 41.2302C92.4032 40.9404 92.5584 40.6609 92.7275 40.3884C92.9828 39.9813 93.2623 39.5881 93.5694 39.2189C93.773 38.974 93.9903 38.736 94.2146 38.5083C95.9122 36.8041 98.1998 35.6795 100.812 35.5449H100.815C100.815 35.5449 100.843 35.5725 100.85 35.5898C100.87 35.6243 100.884 35.6622 100.891 35.7105C100.919 35.8795 100.85 36.1348 100.705 36.4557Z" fill="#FCFCFC"/>
</g>
</svg>
