<svg width="26" height="26" viewBox="0 0 26 26" fill="none" xmlns="http://www.w3.org/2000/svg">
<path d="M20.3049 18.0414V11.9824L16.506 15.9199L12.7748 19.0991L17.0242 20.4433C18.1346 20.7945 18.689 20.9702 19.13 20.8544C19.5157 20.753 19.8487 20.509 20.0616 20.1716C20.3041 19.7858 20.3041 19.2046 20.3041 18.0407L20.3049 18.0414Z" fill="white"/>
<path fill-rule="evenodd" clip-rule="evenodd" d="M5.40383 6.2986C4.8888 7.30975 4.8888 8.63275 4.8888 11.2787V11.5804C4.8888 14.2264 4.8888 15.5494 5.40383 16.5605C5.85682 17.4495 6.57963 18.1723 7.46865 18.6253C8.4798 19.1404 9.8028 19.1404 12.4488 19.1404H12.7512C15.3972 19.1404 16.7202 19.1404 17.7314 18.6253C18.6204 18.1723 19.3432 17.4495 19.7962 16.5605C20.3112 15.5501 20.3112 14.2271 20.3112 11.5804V11.2787C20.3112 8.63275 20.3112 7.30975 19.7962 6.2986C19.3432 5.40957 18.6204 4.68677 17.7314 4.23377C16.7202 3.71875 15.3972 3.71875 12.7512 3.71875H12.4488C9.8028 3.71875 8.4798 3.71875 7.46865 4.23377C6.57963 4.68677 5.85682 5.40957 5.40383 6.2986ZM10.3462 12.4561H14.9137C15.1759 12.4561 15.3066 12.4561 15.424 12.5324C15.5114 12.5891 15.6035 12.7207 15.6272 12.823C15.6587 12.9593 15.6224 13.0569 15.5508 13.2506C15.22 14.1515 14.3994 15.1895 12.6977 15.1895C11.0211 15.1895 10.128 14.183 9.72405 13.2916C9.6327 13.0908 9.58781 12.9908 9.61223 12.8467C9.6409 12.7238 9.71132 12.6147 9.81146 12.538C9.93195 12.4561 10.0698 12.4561 10.3462 12.4561Z" fill="white"/>
</svg>
