<svg width="21" height="22" viewBox="0 0 21 22" fill="none" xmlns="http://www.w3.org/2000/svg">
<path d="M15.1186 13.9035C15.8593 15.2965 15.7537 17.2245 14.1751 18.0639C12.5964 18.9033 10.9389 17.9125 10.1982 16.5195C11.8384 15.6475 11.2997 15.9339 12.6584 15.2114C14.0171 14.489 14.2986 14.3396 15.1186 13.9035Z" fill="white" stroke="white" stroke-width="0.6"/>
<path d="M14.6681 13.6221L10.0018 16.1032ZM14.6681 13.6221L17.4602 12.1375C18.9095 11.3669 17.8468 9.95912 16.6986 9.56838C12.5654 8.1652 12.8864 -0.279564 6.17977 3.28643C-0.526883 6.85241 6.65401 11.3073 5.50645 15.5194C5.2003 16.6452 5.73336 18.3728 7.21051 17.5873L10.0018 16.1032" stroke="white" stroke-width="1.5" stroke-linecap="round" stroke-linejoin="round"/>
</svg>
