<svg width="24" height="24" viewBox="0 0 24 24" fill="none" xmlns="http://www.w3.org/2000/svg">
<path fill-rule="evenodd" clip-rule="evenodd" d="M14.1018 16.3002C12.8835 17.2772 11.3369 17.8616 9.6537 17.8616C5.72399 17.8616 2.53833 14.6759 2.53833 10.7462C2.53833 6.81652 5.72399 3.63086 9.6537 3.63086C13.5834 3.63086 16.7691 6.81652 16.7691 10.7462C16.7691 12.4466 16.1726 14.0077 15.1775 15.2317L15.9161 15.9703L14.844 17.0424L14.1018 16.3002ZM14.502 10.7461C14.502 13.4237 12.3313 15.5943 9.65371 15.5943C6.9761 15.5943 4.80546 13.4237 4.80546 10.7461C4.80546 8.06847 6.9761 5.89784 9.65371 5.89784C12.3313 5.89784 14.502 8.06847 14.502 10.7461Z" fill="white"/>
<path fill-rule="evenodd" clip-rule="evenodd" d="M18.7113 21.0371C18.5768 21.1716 18.3587 21.1713 18.2246 21.0364L14.7097 17.4996C14.5763 17.3653 14.5766 17.1483 14.7105 17.0144L15.8997 15.8252C16.0342 15.6907 16.2524 15.6911 16.3864 15.826L19.9013 19.3627C20.0348 19.497 20.0345 19.714 19.9006 19.8479L18.7113 21.0371Z" fill="white"/>
</svg>
