<svg width="24" height="24" viewBox="0 0 24 24" fill="none" xmlns="http://www.w3.org/2000/svg">
<path fill-rule="evenodd" clip-rule="evenodd" d="M14.1016 16.3002C12.8833 17.2772 11.3367 17.8616 9.65346 17.8616C5.72375 17.8616 2.53809 14.6759 2.53809 10.7462C2.53809 6.81652 5.72375 3.63086 9.65346 3.63086C13.5832 3.63086 16.7689 6.81652 16.7689 10.7462C16.7689 12.4466 16.1724 14.0077 15.1773 15.2317L15.9159 15.9703L14.8438 17.0424L14.1016 16.3002ZM14.5018 10.7461C14.5018 13.4237 12.3311 15.5943 9.65347 15.5943C6.97586 15.5943 4.80522 13.4237 4.80522 10.7461C4.80522 8.06847 6.97586 5.89784 9.65347 5.89784C12.3311 5.89784 14.5018 8.06847 14.5018 10.7461Z" fill="white"/>
<path fill-rule="evenodd" clip-rule="evenodd" d="M18.7108 21.0371C18.5763 21.1716 18.3582 21.1713 18.2241 21.0364L14.7092 17.4996C14.5758 17.3653 14.5761 17.1483 14.71 17.0144L15.8992 15.8252C16.0337 15.6907 16.2519 15.6911 16.3859 15.826L19.9008 19.3627C20.0343 19.497 20.034 19.714 19.9001 19.8479L18.7108 21.0371Z" fill="white"/>
<path d="M22.881 4.78739C22.2736 5.03906 21.7887 5.26556 21.4263 5.4669C21.0672 5.66824 20.7871 5.86789 20.5857 6.06588C20.3877 6.26386 20.1881 6.54237 19.9867 6.90142C19.7854 7.26047 19.5555 7.75207 19.2972 8.37621H19.0908C18.8291 7.75207 18.5975 7.26047 18.3962 6.90142C18.1948 6.54237 17.9969 6.26386 17.8022 6.06588C17.6009 5.86789 17.319 5.66824 16.9566 5.4669C16.5976 5.26556 16.1127 5.03906 15.502 4.78739V4.58102C16.116 4.32935 16.6026 4.10284 16.9617 3.90151C17.3241 3.70017 17.6043 3.50051 17.8022 3.30253C17.9969 3.10455 18.1948 2.82603 18.3962 2.46698C18.5975 2.10793 18.8291 1.61633 19.0908 0.992188H19.2972C19.5555 1.61633 19.7854 2.10793 19.9867 2.46698C20.1881 2.82603 20.3877 3.10455 20.5857 3.30253C20.7803 3.50051 21.0572 3.70017 21.4162 3.90151C21.7786 4.10284 22.2669 4.32935 22.881 4.58102V4.78739Z" fill="white"/>
</svg>
