<svg width="20" height="20" viewBox="0 0 20 20" fill="none" xmlns="http://www.w3.org/2000/svg">
<path d="M13.2125 6.5042C12.3963 5.74795 11.285 5.32733 10.1563 5.3442C8.07251 5.3442 6.31876 6.68858 5.67626 8.52108L3.03688 6.53795C4.39126 3.93295 7.13501 2.28545 10.1563 2.28545C12.1356 2.26858 14.0456 2.97483 15.4869 4.28545L13.2125 6.5042Z" fill="#B3BEC1"/>
<path d="M5.67374 11.4784C5.34374 10.5202 5.34374 9.47836 5.67374 8.52023L3.03437 6.53711C1.90562 8.72211 1.90562 11.294 3.03437 13.4621C4.38874 16.0671 7.13249 17.7146 10.1537 17.7146C12.3012 17.7146 14.1031 17.029 15.4219 15.8584L15.4325 15.8665C16.9431 14.5046 17.8112 12.5215 17.8112 10.1852C17.8112 9.66399 17.7594 9.12648 17.6725 8.62211H10.1537V11.5971H14.46C14.2862 12.5552 13.7137 13.3952 12.8631 13.9334C12.1512 14.404 11.2306 14.6727 10.1544 14.6727C8.07062 14.6727 6.31687 13.3115 5.67437 11.4965L3.03874 13.4596L5.67374 11.4796V11.4784Z" fill="#B3BEC1"/>
</svg>
