<svg width="20" height="20" viewBox="0 0 20 20" fill="none" xmlns="http://www.w3.org/2000/svg">
<path d="M2.37251 9.53668L16.4025 3.09044C16.9338 2.84669 17.5544 3.09669 17.7888 3.64856C17.8725 3.84419 17.8981 4.06106 17.8638 4.27231L15.9806 15.9073C15.865 16.6223 15.2138 17.1042 14.5269 16.9842C14.3306 16.9498 14.145 16.8679 13.9856 16.7448L9.24063 13.0892C8.77376 12.7298 8.67563 12.0454 9.02126 11.5598C9.06063 11.5042 9.10563 11.4523 9.15501 11.4048L13.9125 6.86481C13.9556 6.82356 13.9581 6.75481 13.9188 6.70981C13.8844 6.67169 13.8294 6.66356 13.7856 6.69106L6.56626 11.3411C6.30376 11.5092 5.98376 11.5504 5.69001 11.4523L2.41251 10.3529C2.19126 10.2786 2.07001 10.0317 2.14126 9.80231C2.17813 9.68419 2.26188 9.58669 2.37126 9.53668H2.37251Z" fill="#B3BEC1"/>
</svg>
