<svg width="20" height="20" viewBox="0 0 20 20" fill="none" xmlns="http://www.w3.org/2000/svg">
<path d="M10.0019 2.20898H9.99812C5.7025 2.20898 2.20937 5.70336 2.20937 9.99961C2.20687 11.6402 2.72625 13.2396 3.6925 14.5659L2.72125 17.4602L5.71563 16.5027C6.98563 17.3452 8.47687 17.7934 10.0019 17.7902C14.2975 17.7902 17.7906 14.2952 17.7906 9.99961C17.7906 5.70398 14.2975 2.20898 10.0019 2.20898ZM14.535 13.2102C14.3469 13.7409 13.6012 14.1809 13.0062 14.3096C12.5994 14.3965 12.0675 14.4652 10.2775 13.7234C7.98812 12.7746 6.51375 10.4484 6.39875 10.2971C6.28875 10.1465 5.47375 9.06523 5.47375 7.94711C5.47375 6.82898 6.04125 6.28461 6.27063 6.05086C6.45875 5.85898 6.76937 5.77148 7.0675 5.77148C7.16375 5.77148 7.25062 5.77648 7.32875 5.78023C7.5575 5.79023 7.6725 5.80336 7.82312 6.16461C8.01125 6.61773 8.46875 7.73523 8.52312 7.85023C8.57875 7.96523 8.63437 8.12086 8.55625 8.27211C8.48312 8.42773 8.41875 8.49711 8.30375 8.62961C8.18875 8.76211 8.08 8.86336 7.965 9.00523C7.86 9.12898 7.74125 9.26148 7.87375 9.49023C8.00625 9.71398 8.46375 10.4615 9.13812 11.0609C10.0081 11.8352 10.7131 12.0821 10.965 12.1877C11.1531 12.2659 11.3769 12.2471 11.5144 12.1009C11.6888 11.9127 11.9037 11.6015 12.1231 11.2946C12.2787 11.0746 12.4756 11.0471 12.6819 11.1252C12.8925 11.1984 14.005 11.7484 14.2344 11.8627C14.4631 11.9777 14.6144 12.0321 14.67 12.1284C14.7244 12.2246 14.7244 12.6777 14.5369 13.2096L14.535 13.2102Z" fill="#B3BEC1"/>
</svg>
